G04 Layer_Color=65535*
%FSLAX25Y25*%
%MOIN*%
G70*
G01*
G75*
%ADD44C,0.01000*%
%ADD45C,0.00100*%
%ADD46C,0.00500*%
%ADD47C,0.00800*%
%ADD48C,0.00787*%
%ADD49C,0.00300*%
%ADD50C,0.00700*%
D44*
X1470067Y92908D02*
G03*
X1470472Y96457I-15343J3549D01*
G01*
X1451516Y92658D02*
G03*
X1454583Y96457I-10571J11673D01*
G01*
X1454866Y96457D02*
G03*
X1457733Y92842I13638J7874D01*
G01*
X1687008Y96457D02*
G03*
X1687368Y93106I15748J0D01*
G01*
X1699740Y92835D02*
G03*
X1702615Y96457I-10763J11496D01*
G01*
X1944703Y81932D02*
G03*
X1958661Y82819I6085J14525D01*
G01*
X1919948Y92593D02*
G03*
X1923156Y96578I-10499J11737D01*
G01*
X1061400Y-34747D02*
G03*
X1060377Y-32277I-3494J0D01*
G01*
X1059807Y-38793D02*
G03*
X1061400Y-34947I-3846J3846D01*
G01*
X1059807Y-38793D02*
G03*
X1059100Y-40500I1707J-1707D01*
G01*
X1053100Y-41414D02*
G03*
X1052100Y-39000I-3414J0D01*
G01*
X1050600Y-35379D02*
G03*
X1052100Y-39000I5121J0D01*
G01*
X1051600Y-32500D02*
G03*
X1050600Y-34914I2414J-2414D01*
G01*
X1055221Y-31000D02*
G03*
X1051600Y-32500I0J-5121D01*
G01*
X1060600D02*
G03*
X1056979Y-31000I-3621J-3621D01*
G01*
X1964567Y9843D02*
G03*
X1950929Y1969I0J-15748D01*
G01*
X1950646Y1969D02*
G03*
X1923370Y1969I-13638J-7874D01*
G01*
X1923087Y1969D02*
G03*
X1895811Y1969I-13638J-7874D01*
G01*
X1895528Y1969D02*
G03*
X1868251Y1969I-13638J-7874D01*
G01*
X1785292Y1969D02*
G03*
X1758015Y1969I-13638J-7874D01*
G01*
X1812851Y1969D02*
G03*
X1785574Y1969I-13638J-7874D01*
G01*
X1840410Y1969D02*
G03*
X1813133Y1969I-13638J-7874D01*
G01*
X1867969Y1969D02*
G03*
X1840693Y1969I-13638J-7874D01*
G01*
X1675056Y1969D02*
G03*
X1647779Y1969I-13638J-7874D01*
G01*
X1702615Y1969D02*
G03*
X1675338Y1969I-13638J-7874D01*
G01*
X1730174Y1969D02*
G03*
X1702897Y1969I-13638J-7874D01*
G01*
X1757733Y1969D02*
G03*
X1730456Y1969I-13638J-7874D01*
G01*
X1564819Y1969D02*
G03*
X1537543Y1969I-13638J-7874D01*
G01*
X1592378Y1969D02*
G03*
X1565102Y1969I-13638J-7874D01*
G01*
X1619937Y1969D02*
G03*
X1592661Y1969I-13638J-7874D01*
G01*
X1647496Y1969D02*
G03*
X1620220Y1969I-13638J-7874D01*
G01*
X1454583Y1969D02*
G03*
X1427307Y1969I-13638J-7874D01*
G01*
X1482142Y1969D02*
G03*
X1454866Y1969I-13638J-7874D01*
G01*
X1509701Y1969D02*
G03*
X1482425Y1969I-13638J-7874D01*
G01*
X1537260Y1969D02*
G03*
X1509984Y1969I-13638J-7874D01*
G01*
X1966535Y1969D02*
G03*
X1935039Y1969I-15748J0D01*
G01*
X1938976D02*
G03*
X1907480Y1969I-15748J0D01*
G01*
X1911417D02*
G03*
X1879921Y1969I-15748J0D01*
G01*
X1883858D02*
G03*
X1852362Y1969I-15748J0D01*
G01*
X1773622D02*
G03*
X1742126Y1969I-15748J0D01*
G01*
X1801181D02*
G03*
X1769685Y1969I-15748J0D01*
G01*
X1828740D02*
G03*
X1797244Y1969I-15748J0D01*
G01*
X1856299D02*
G03*
X1824803Y1969I-15748J0D01*
G01*
X1663386D02*
G03*
X1631890Y1969I-15748J0D01*
G01*
X1690945D02*
G03*
X1659449Y1969I-15748J0D01*
G01*
X1718504D02*
G03*
X1687008Y1969I-15748J0D01*
G01*
X1746063D02*
G03*
X1714567Y1969I-15748J0D01*
G01*
X1553150D02*
G03*
X1521653Y1969I-15748J0D01*
G01*
X1580709D02*
G03*
X1549213Y1969I-15748J0D01*
G01*
X1608268D02*
G03*
X1576772Y1969I-15748J0D01*
G01*
X1635827D02*
G03*
X1604331Y1969I-15748J0D01*
G01*
X1470472D02*
G03*
X1438976Y1969I-15748J0D01*
G01*
X1498032D02*
G03*
X1466535Y1969I-15748J0D01*
G01*
X1525591D02*
G03*
X1494094Y1969I-15748J0D01*
G01*
X1964567Y25591D02*
G03*
X1950929Y17717I0J-15748D01*
G01*
X1952756Y9843D02*
G03*
X1921260Y9843I-15748J0D01*
G01*
X1925197D02*
G03*
X1893701Y9843I-15748J0D01*
G01*
X1897638D02*
G03*
X1866142Y9843I-15748J0D01*
G01*
X1787402D02*
G03*
X1755906Y9843I-15748J0D01*
G01*
X1814961D02*
G03*
X1783464Y9843I-15748J0D01*
G01*
X1842520D02*
G03*
X1811024Y9843I-15748J0D01*
G01*
X1870079D02*
G03*
X1838583Y9843I-15748J0D01*
G01*
X1677165D02*
G03*
X1645669Y9843I-15748J0D01*
G01*
X1704724D02*
G03*
X1673228Y9843I-15748J0D01*
G01*
X1732284D02*
G03*
X1700787Y9843I-15748J0D01*
G01*
X1759842D02*
G03*
X1728346Y9843I-15748J0D01*
G01*
X1566929D02*
G03*
X1535433Y9843I-15748J0D01*
G01*
X1594488D02*
G03*
X1562992Y9843I-15748J0D01*
G01*
X1622047D02*
G03*
X1590551Y9843I-15748J0D01*
G01*
X1649606D02*
G03*
X1618110Y9843I-15748J0D01*
G01*
X1456693D02*
G03*
X1425197Y9843I-15748J0D01*
G01*
X1484252D02*
G03*
X1452756Y9843I-15748J0D01*
G01*
X1511811D02*
G03*
X1480315Y9843I-15748J0D01*
G01*
X1539370D02*
G03*
X1507874Y9843I-15748J0D01*
G01*
X1966535Y17717D02*
G03*
X1966535Y17717I-15748J0D01*
G01*
X1938976D02*
G03*
X1938976Y17717I-15748J0D01*
G01*
X1911417D02*
G03*
X1911417Y17717I-15748J0D01*
G01*
X1883858D02*
G03*
X1883858Y17717I-15748J0D01*
G01*
X1773622D02*
G03*
X1773622Y17717I-15748J0D01*
G01*
X1801181D02*
G03*
X1801181Y17717I-15748J0D01*
G01*
X1828740D02*
G03*
X1828740Y17717I-15748J0D01*
G01*
X1856299D02*
G03*
X1856299Y17717I-15748J0D01*
G01*
X1663386D02*
G03*
X1663386Y17717I-15748J0D01*
G01*
X1690945D02*
G03*
X1690945Y17717I-15748J0D01*
G01*
X1718504D02*
G03*
X1718504Y17717I-15748J0D01*
G01*
X1746063D02*
G03*
X1746063Y17717I-15748J0D01*
G01*
X1553150D02*
G03*
X1553150Y17717I-15748J0D01*
G01*
X1580709D02*
G03*
X1580709Y17717I-15748J0D01*
G01*
X1608268D02*
G03*
X1608268Y17717I-15748J0D01*
G01*
X1635827D02*
G03*
X1635827Y17717I-15748J0D01*
G01*
X1442913D02*
G03*
X1442913Y17717I-15748J0D01*
G01*
X1470472D02*
G03*
X1470472Y17717I-15748J0D01*
G01*
X1498032D02*
G03*
X1498032Y17717I-15748J0D01*
G01*
X1525591D02*
G03*
X1525591Y17717I-15748J0D01*
G01*
X1964567Y41339D02*
G03*
X1964567Y9843I0J-15748D01*
G01*
X1952756Y25591D02*
G03*
X1952756Y25591I-15748J0D01*
G01*
X1925197D02*
G03*
X1925197Y25591I-15748J0D01*
G01*
X1897638D02*
G03*
X1897638Y25591I-15748J0D01*
G01*
X1787402D02*
G03*
X1787402Y25591I-15748J0D01*
G01*
X1814961D02*
G03*
X1814961Y25591I-15748J0D01*
G01*
X1842520D02*
G03*
X1842520Y25591I-15748J0D01*
G01*
X1870079D02*
G03*
X1870079Y25591I-15748J0D01*
G01*
X1677165D02*
G03*
X1677165Y25591I-15748J0D01*
G01*
X1704724D02*
G03*
X1704724Y25591I-15748J0D01*
G01*
X1732284D02*
G03*
X1732284Y25591I-15748J0D01*
G01*
X1759842D02*
G03*
X1759842Y25591I-15748J0D01*
G01*
X1566929D02*
G03*
X1566929Y25591I-15748J0D01*
G01*
X1594488D02*
G03*
X1594488Y25591I-15748J0D01*
G01*
X1622047D02*
G03*
X1622047Y25591I-15748J0D01*
G01*
X1649606D02*
G03*
X1649606Y25591I-15748J0D01*
G01*
X1456693D02*
G03*
X1456693Y25591I-15748J0D01*
G01*
X1484252D02*
G03*
X1484252Y25591I-15748J0D01*
G01*
X1511811D02*
G03*
X1511811Y25591I-15748J0D01*
G01*
X1539370D02*
G03*
X1539370Y25591I-15748J0D01*
G01*
X1429134D02*
G03*
X1429134Y25591I-15748J0D01*
G01*
X1966535Y33465D02*
G03*
X1966535Y33465I-15748J0D01*
G01*
X1938976D02*
G03*
X1938976Y33465I-15748J0D01*
G01*
X1911417D02*
G03*
X1911417Y33465I-15748J0D01*
G01*
X1883858D02*
G03*
X1883858Y33465I-15748J0D01*
G01*
X1773622D02*
G03*
X1773622Y33465I-15748J0D01*
G01*
X1801181D02*
G03*
X1801181Y33465I-15748J0D01*
G01*
X1828740D02*
G03*
X1828740Y33465I-15748J0D01*
G01*
X1856299D02*
G03*
X1856299Y33465I-15748J0D01*
G01*
X1663386D02*
G03*
X1663386Y33465I-15748J0D01*
G01*
X1690945D02*
G03*
X1690945Y33465I-15748J0D01*
G01*
X1718504D02*
G03*
X1718504Y33465I-15748J0D01*
G01*
X1746063D02*
G03*
X1746063Y33465I-15748J0D01*
G01*
X1553150D02*
G03*
X1553150Y33465I-15748J0D01*
G01*
X1580709D02*
G03*
X1580709Y33465I-15748J0D01*
G01*
X1608268D02*
G03*
X1608268Y33465I-15748J0D01*
G01*
X1635827D02*
G03*
X1635827Y33465I-15748J0D01*
G01*
X1442913D02*
G03*
X1442913Y33465I-15748J0D01*
G01*
X1470472D02*
G03*
X1470472Y33465I-15748J0D01*
G01*
X1498032D02*
G03*
X1498032Y33465I-15748J0D01*
G01*
X1525591D02*
G03*
X1525591Y33465I-15748J0D01*
G01*
X1415354D02*
G03*
X1415354Y33465I-15748J0D01*
G01*
X1964567Y57087D02*
G03*
X1964567Y25591I0J-15748D01*
G01*
X1952756Y41339D02*
G03*
X1952756Y41339I-15748J0D01*
G01*
X1925197D02*
G03*
X1925197Y41339I-15748J0D01*
G01*
X1897638D02*
G03*
X1897638Y41339I-15748J0D01*
G01*
X1787402D02*
G03*
X1787402Y41339I-15748J0D01*
G01*
X1814961D02*
G03*
X1814961Y41339I-15748J0D01*
G01*
X1842520D02*
G03*
X1842520Y41339I-15748J0D01*
G01*
X1870079D02*
G03*
X1870079Y41339I-15748J0D01*
G01*
X1677165D02*
G03*
X1677165Y41339I-15748J0D01*
G01*
X1704724D02*
G03*
X1704724Y41339I-15748J0D01*
G01*
X1732284D02*
G03*
X1732284Y41339I-15748J0D01*
G01*
X1759842D02*
G03*
X1759842Y41339I-15748J0D01*
G01*
X1566929D02*
G03*
X1566929Y41339I-15748J0D01*
G01*
X1594488D02*
G03*
X1594488Y41339I-15748J0D01*
G01*
X1622047D02*
G03*
X1622047Y41339I-15748J0D01*
G01*
X1649606D02*
G03*
X1649606Y41339I-15748J0D01*
G01*
X1456693D02*
G03*
X1456693Y41339I-15748J0D01*
G01*
X1484252D02*
G03*
X1484252Y41339I-15748J0D01*
G01*
X1511811D02*
G03*
X1511811Y41339I-15748J0D01*
G01*
X1539370D02*
G03*
X1539370Y41339I-15748J0D01*
G01*
X1401575D02*
G03*
X1401575Y41339I-15748J0D01*
G01*
X1429134D02*
G03*
X1429134Y41339I-15748J0D01*
G01*
X1966535Y49213D02*
G03*
X1966535Y49213I-15748J0D01*
G01*
X1938976D02*
G03*
X1938976Y49213I-15748J0D01*
G01*
X1911417D02*
G03*
X1911417Y49213I-15748J0D01*
G01*
X1883858D02*
G03*
X1883858Y49213I-15748J0D01*
G01*
X1773622D02*
G03*
X1773622Y49213I-15748J0D01*
G01*
X1801181D02*
G03*
X1801181Y49213I-15748J0D01*
G01*
X1828740D02*
G03*
X1828740Y49213I-15748J0D01*
G01*
X1856299D02*
G03*
X1856299Y49213I-15748J0D01*
G01*
X1663386D02*
G03*
X1663386Y49213I-15748J0D01*
G01*
X1690945D02*
G03*
X1690945Y49213I-15748J0D01*
G01*
X1718504D02*
G03*
X1718504Y49213I-15748J0D01*
G01*
X1746063D02*
G03*
X1746063Y49213I-15748J0D01*
G01*
X1553150D02*
G03*
X1553150Y49213I-15748J0D01*
G01*
X1580709D02*
G03*
X1580709Y49213I-15748J0D01*
G01*
X1608268D02*
G03*
X1608268Y49213I-15748J0D01*
G01*
X1635827D02*
G03*
X1635827Y49213I-15748J0D01*
G01*
X1442913D02*
G03*
X1442913Y49213I-15748J0D01*
G01*
X1470472D02*
G03*
X1470472Y49213I-15748J0D01*
G01*
X1498032D02*
G03*
X1498032Y49213I-15748J0D01*
G01*
X1525591D02*
G03*
X1525591Y49213I-15748J0D01*
G01*
X1387795D02*
G03*
X1387795Y49213I-15748J0D01*
G01*
X1415354D02*
G03*
X1415354Y49213I-15748J0D01*
G01*
X1964567Y72835D02*
G03*
X1964567Y41339I0J-15748D01*
G01*
X1925588Y67931D02*
G03*
X1937085Y72834I11420J-10844D01*
G01*
X1925197Y57087D02*
G03*
X1925197Y57087I-15748J0D01*
G01*
X1897638D02*
G03*
X1897638Y57087I-15748J0D01*
G01*
X1787402D02*
G03*
X1787402Y57087I-15748J0D01*
G01*
X1814961D02*
G03*
X1814961Y57087I-15748J0D01*
G01*
X1842520D02*
G03*
X1842520Y57087I-15748J0D01*
G01*
X1870079D02*
G03*
X1870079Y57087I-15748J0D01*
G01*
X1677165D02*
G03*
X1677165Y57087I-15748J0D01*
G01*
X1684674Y72236D02*
G03*
X1701420Y66738I4302J-15149D01*
G01*
X1732284Y57087D02*
G03*
X1732284Y57087I-15748J0D01*
G01*
X1759842D02*
G03*
X1759842Y57087I-15748J0D01*
G01*
X1566929D02*
G03*
X1566929Y57087I-15748J0D01*
G01*
X1594488D02*
G03*
X1594488Y57087I-15748J0D01*
G01*
X1622047D02*
G03*
X1622047Y57087I-15748J0D01*
G01*
X1649606D02*
G03*
X1649606Y57087I-15748J0D01*
G01*
X1456693D02*
G03*
X1456693Y57087I-15748J0D01*
G01*
X1456465Y67239D02*
G03*
X1469997Y72764I12039J-10152D01*
G01*
X1511811Y57087D02*
G03*
X1511811Y57087I-15748J0D01*
G01*
X1539370D02*
G03*
X1539370Y57087I-15748J0D01*
G01*
X1429134D02*
G03*
X1429134Y57087I-15748J0D01*
G01*
X1937001Y72572D02*
G03*
X1943447Y78894I13786J-7612D01*
G01*
X1916142Y79024D02*
G03*
X1937163Y72297I7086J-14064D01*
G01*
X1911417Y64961D02*
G03*
X1911417Y64961I-15748J0D01*
G01*
X1883858D02*
G03*
X1883858Y64961I-15748J0D01*
G01*
X1773622D02*
G03*
X1773622Y64961I-15748J0D01*
G01*
X1801181D02*
G03*
X1801181Y64961I-15748J0D01*
G01*
X1828740D02*
G03*
X1828740Y64961I-15748J0D01*
G01*
X1856299D02*
G03*
X1856299Y64961I-15748J0D01*
G01*
X1663386D02*
G03*
X1663386Y64961I-15748J0D01*
G01*
X1680082Y79932D02*
G03*
X1689145Y72271I-4885J-14971D01*
G01*
X1688587Y71834D02*
G03*
X1707655Y79927I14169J-6873D01*
G01*
X1746063Y64961D02*
G03*
X1746063Y64961I-15748J0D01*
G01*
X1553150D02*
G03*
X1553150Y64961I-15748J0D01*
G01*
X1580709D02*
G03*
X1580709Y64961I-15748J0D01*
G01*
X1608268D02*
G03*
X1608268Y64961I-15748J0D01*
G01*
X1635827D02*
G03*
X1635827Y64961I-15748J0D01*
G01*
X1442913D02*
G03*
X1442913Y64961I-15748J0D01*
G01*
X1442569Y74973D02*
G03*
X1468658Y72299I12156J-10012D01*
G01*
X1468412Y72417D02*
G03*
X1472521Y77318I13871J-7456D01*
G01*
X1525591Y64961D02*
G03*
X1525591Y64961I-15748J0D01*
G01*
X1964567Y88583D02*
G03*
X1964567Y57087I0J-15748D01*
G01*
X1921281Y72009D02*
G03*
X1944179Y86855I15726J825D01*
G01*
X1915845Y87225D02*
G03*
X1925189Y72351I-6396J-14391D01*
G01*
X1897638Y72835D02*
G03*
X1897638Y72835I-15748J0D01*
G01*
X1787402D02*
G03*
X1787402Y72835I-15748J0D01*
G01*
X1814961D02*
G03*
X1814961Y72835I-15748J0D01*
G01*
X1842520D02*
G03*
X1842520Y72835I-15748J0D01*
G01*
X1870079D02*
G03*
X1870079Y72835I-15748J0D01*
G01*
X1677165D02*
G03*
X1677165Y72835I-15748J0D01*
G01*
X1679898Y85703D02*
G03*
X1704723Y72637I9078J-12868D01*
G01*
X1701931Y66944D02*
G03*
X1706796Y85210I14605J5891D01*
G01*
X1759842Y72835D02*
G03*
X1759842Y72835I-15748J0D01*
G01*
X1566929D02*
G03*
X1566929Y72835I-15748J0D01*
G01*
X1594488D02*
G03*
X1594488Y72835I-15748J0D01*
G01*
X1622047D02*
G03*
X1622047Y72835I-15748J0D01*
G01*
X1649606D02*
G03*
X1649606Y72835I-15748J0D01*
G01*
X1442015Y88546D02*
G03*
X1456681Y72216I-1070J-15712D01*
G01*
X1452764Y72342D02*
G03*
X1471976Y88195I15740J492D01*
G01*
X1511811Y72835D02*
G03*
X1511811Y72835I-15748J0D01*
G01*
X1539370D02*
G03*
X1539370Y72835I-15748J0D01*
G01*
X1429134D02*
G03*
X1429134Y72835I-15748J0D01*
G01*
X1937736Y71896D02*
G03*
X1940583Y92703I13051J8813D01*
G01*
X1933124Y92959D02*
G03*
X1936617Y72418I-9896J-12250D01*
G01*
X1911417Y80709D02*
G03*
X1911417Y80709I-15748J0D01*
G01*
X1883858D02*
G03*
X1883858Y80709I-15748J0D01*
G01*
X1773622D02*
G03*
X1773622Y80709I-15748J0D01*
G01*
X1801181D02*
G03*
X1801181Y80709I-15748J0D01*
G01*
X1828740D02*
G03*
X1828740Y80709I-15748J0D01*
G01*
X1856299D02*
G03*
X1856299Y80709I-15748J0D01*
G01*
X1663386D02*
G03*
X1663386Y80709I-15748J0D01*
G01*
X1685580Y92549D02*
G03*
X1688297Y71968I-10383J-11840D01*
G01*
X1689780Y71785D02*
G03*
X1693262Y93273I12976J8924D01*
G01*
X1746063Y80709D02*
G03*
X1746063Y80709I-15748J0D01*
G01*
X1553150D02*
G03*
X1553150Y80709I-15748J0D01*
G01*
X1580709D02*
G03*
X1580709Y80709I-15748J0D01*
G01*
X1608268D02*
G03*
X1608268Y80709I-15748J0D01*
G01*
X1635827D02*
G03*
X1635827Y80709I-15748J0D01*
G01*
X1442913D02*
G03*
X1442913Y80709I-15748J0D01*
G01*
X1464796Y92815D02*
G03*
X1462235Y66867I-10072J-12106D01*
G01*
X1469174Y71983D02*
G03*
X1471557Y92239I13110J8726D01*
G01*
X1525591Y80709D02*
G03*
X1525591Y80709I-15748J0D01*
G01*
X1948819Y88583D02*
G03*
X1964567Y72835I15748J0D01*
G01*
X1943566Y74265D02*
G03*
X1952756Y88583I-6558J14317D01*
G01*
X1893701D02*
G03*
X1915393Y73999I15748J0D01*
G01*
X1866142Y88583D02*
G03*
X1897638Y88583I15748J0D01*
G01*
X1755906D02*
G03*
X1787402Y88583I15748J0D01*
G01*
X1783464D02*
G03*
X1814961Y88583I15748J0D01*
G01*
X1811024D02*
G03*
X1842520Y88583I15748J0D01*
G01*
X1838583D02*
G03*
X1870079Y88583I15748J0D01*
G01*
X1645669D02*
G03*
X1677165Y88583I15748J0D01*
G01*
X1673228D02*
G03*
X1677630Y77662I15748J0D01*
G01*
X1707607Y75610D02*
G03*
X1732284Y88583I8928J12972D01*
G01*
X1728346D02*
G03*
X1759842Y88583I15748J0D01*
G01*
X1535433D02*
G03*
X1566929Y88583I15748J0D01*
G01*
X1562992D02*
G03*
X1594488Y88583I15748J0D01*
G01*
X1590551D02*
G03*
X1622047Y88583I15748J0D01*
G01*
X1618110D02*
G03*
X1649606Y88583I15748J0D01*
G01*
X1425197D02*
G03*
X1442675Y72930I15748J0D01*
G01*
X1469886Y72895D02*
G03*
X1484252Y88583I-1382J15687D01*
G01*
X1480315D02*
G03*
X1511811Y88583I15748J0D01*
G01*
X1507874D02*
G03*
X1539370Y88583I15748J0D01*
G01*
X1935039Y96457D02*
G03*
X1935397Y93121I15748J0D01*
G01*
X1907480Y96457D02*
G03*
X1914523Y83333I15748J0D01*
G01*
X1879921Y96457D02*
G03*
X1911417Y96457I15748J0D01*
G01*
X1852362D02*
G03*
X1883858Y96457I15748J0D01*
G01*
X1742126D02*
G03*
X1773622Y96457I15748J0D01*
G01*
X1769685D02*
G03*
X1801181Y96457I15748J0D01*
G01*
X1797244D02*
G03*
X1828740Y96457I15748J0D01*
G01*
X1824803D02*
G03*
X1856299Y96457I15748J0D01*
G01*
X1631890D02*
G03*
X1663386Y96457I15748J0D01*
G01*
X1659449D02*
G03*
X1678958Y81164I15748J0D01*
G01*
X1709240Y82105D02*
G03*
X1718504Y96457I-6484J14351D01*
G01*
X1714567D02*
G03*
X1746063Y96457I15748J0D01*
G01*
X1521653D02*
G03*
X1553150Y96457I15748J0D01*
G01*
X1549213D02*
G03*
X1580709Y96457I15748J0D01*
G01*
X1576772D02*
G03*
X1608268Y96457I15748J0D01*
G01*
X1604331D02*
G03*
X1635827Y96457I15748J0D01*
G01*
X1438976D02*
G03*
X1442963Y85985I15748J0D01*
G01*
X1471336Y85137D02*
G03*
X1498032Y96457I10948J11320D01*
G01*
X1494094D02*
G03*
X1525591Y96457I15748J0D01*
G01*
X1509984Y96457D02*
G03*
X1537260Y96457I13638J7874D01*
G01*
X1482425Y96457D02*
G03*
X1509701Y96457I13638J7874D01*
G01*
X1474163Y89635D02*
G03*
X1482142Y96457I-5659J14696D01*
G01*
X1427307Y96457D02*
G03*
X1442323Y88643I13638J7874D01*
G01*
X1620220Y96457D02*
G03*
X1647496Y96457I13638J7874D01*
G01*
X1592661Y96457D02*
G03*
X1619937Y96457I13638J7874D01*
G01*
X1565102Y96457D02*
G03*
X1592378Y96457I13638J7874D01*
G01*
X1537543Y96457D02*
G03*
X1564819Y96457I13638J7874D01*
G01*
X1730456Y96457D02*
G03*
X1757733Y96457I13638J7874D01*
G01*
X1702897Y96457D02*
G03*
X1730174Y96457I13638J7874D01*
G01*
X1675338Y96457D02*
G03*
X1679634Y91653I13638J7874D01*
G01*
X1647779Y96457D02*
G03*
X1675056Y96457I13638J7874D01*
G01*
X1840693Y96457D02*
G03*
X1867969Y96457I13638J7874D01*
G01*
X1813133Y96457D02*
G03*
X1840410Y96457I13638J7874D01*
G01*
X1785574Y96457D02*
G03*
X1812851Y96457I13638J7874D01*
G01*
X1758015Y96457D02*
G03*
X1785292Y96457I13638J7874D01*
G01*
X1868251Y96457D02*
G03*
X1895528Y96457I13638J7874D01*
G01*
X1895811Y96457D02*
G03*
X1914980Y89586I13638J7874D01*
G01*
X1923370Y96457D02*
G03*
X1925633Y93440I13638J7874D01*
G01*
X1950929Y96457D02*
G03*
X1964567Y88583I13638J7874D01*
G01*
X1401575Y57087D02*
G03*
X1401575Y57087I-15748J0D01*
G01*
X1415354Y64961D02*
G03*
X1415354Y64961I-15748J0D01*
G01*
X1346457Y72835D02*
G03*
X1346457Y72835I-15748J0D01*
G01*
X1332677Y80709D02*
G03*
X1332677Y80709I-15748J0D01*
G01*
X1360236D02*
G03*
X1360236Y80709I-15748J0D01*
G01*
X1314961Y88583D02*
G03*
X1346457Y88583I15748J0D01*
G01*
X1342520D02*
G03*
X1374016Y88583I15748J0D01*
G01*
X1301181Y96457D02*
G03*
X1332677Y96457I15748J0D01*
G01*
X1328740D02*
G03*
X1360236Y96457I15748J0D01*
G01*
X1356299D02*
G03*
X1387795Y96457I15748J0D01*
G01*
X1344629Y96457D02*
G03*
X1371906Y96457I13638J7874D01*
G01*
X1317070Y96457D02*
G03*
X1344347Y96457I13638J7874D01*
G01*
X1411417D02*
G03*
X1442913Y96457I15748J0D01*
G01*
X1399748Y96457D02*
G03*
X1427024Y96457I13638J7874D01*
G01*
X1397638Y88583D02*
G03*
X1429134Y88583I15748J0D01*
G01*
X1372189Y96457D02*
G03*
X1399465Y96457I13638J7874D01*
G01*
X1383858D02*
G03*
X1415354Y96457I15748J0D01*
G01*
Y80709D02*
G03*
X1415354Y80709I-15748J0D01*
G01*
X1370079Y88583D02*
G03*
X1401575Y88583I15748J0D01*
G01*
Y72835D02*
G03*
X1401575Y72835I-15748J0D01*
G01*
X1387795Y80709D02*
G03*
X1387795Y80709I-15748J0D01*
G01*
Y64961D02*
G03*
X1387795Y64961I-15748J0D01*
G01*
X1374016Y72835D02*
G03*
X1374016Y72835I-15748J0D01*
G01*
Y57087D02*
G03*
X1374016Y57087I-15748J0D01*
G01*
X1360236Y64961D02*
G03*
X1360236Y64961I-15748J0D01*
G01*
X1289511Y96457D02*
G03*
X1316788Y96457I13638J7874D01*
G01*
X1261952Y96457D02*
G03*
X1289229Y96457I13638J7874D01*
G01*
X1273622D02*
G03*
X1305118Y96457I15748J0D01*
G01*
X1287402Y88583D02*
G03*
X1318898Y88583I15748J0D01*
G01*
X1053800Y-45800D02*
X1061200Y-43400D01*
X1060700Y-42200D02*
X1062100Y-44100D01*
X1051400Y-46600D02*
X1053800Y-45800D01*
X1050737Y-45700D02*
X1052137Y-47600D01*
X1060063D02*
X1061463Y-45700D01*
X1058400Y-45800D02*
X1060800Y-46600D01*
X1050100Y-44100D02*
X1051500Y-42200D01*
X1051000Y-43400D02*
X1058400Y-45800D01*
X1050600Y-35379D02*
Y-34914D01*
X1055221Y-31000D02*
X1056979D01*
X1053100Y-42500D02*
Y-40600D01*
X1059100Y-42500D02*
Y-40500D01*
X1053100Y-42500D02*
X1059100D01*
X902300Y-229700D02*
X941800D01*
X906733D02*
Y-197700D01*
X902300D02*
X941800D01*
Y-229700D02*
Y-197700D01*
X902300Y-229700D02*
Y-197700D01*
X941800Y-229700D02*
Y-197700D01*
X902300Y-229700D02*
X941800D01*
X902300D02*
Y-197700D01*
X906733Y-229700D02*
Y-197700D01*
X902300D02*
X941800D01*
X902300Y-197000D02*
X941800D01*
X906733D02*
Y-165000D01*
X902300D02*
X941800D01*
Y-197000D02*
Y-165000D01*
X902300Y-197000D02*
Y-165000D01*
X941800Y-197000D02*
Y-165000D01*
X902300Y-197000D02*
X941800D01*
X902300D02*
Y-165000D01*
X906733Y-197000D02*
Y-165000D01*
X902300D02*
X941800D01*
X902500Y-164561D02*
X907939D01*
X908000D02*
X937067D01*
X908000D02*
Y-118939D01*
X902500Y-164500D02*
Y-118939D01*
X937067D01*
X902500Y-164561D02*
Y-118939D01*
X937067D01*
X908000D02*
X937067D01*
Y-164561D02*
Y-118939D01*
Y-164561D02*
Y-118939D01*
X969936Y-203117D02*
X1004677D01*
X969936Y-180283D02*
X1004677D01*
X964519Y-197700D02*
Y-185700D01*
Y-197700D02*
X969936Y-203117D01*
X964519Y-185700D02*
X969936Y-180283D01*
X1004677Y-203117D02*
Y-180283D01*
X1206141Y31832D02*
X1240882D01*
X1206141Y54666D02*
X1240882D01*
X1200724Y37249D02*
Y49249D01*
Y37249D02*
X1206141Y31832D01*
X1200724Y49249D02*
X1206141Y54666D01*
X1240882Y31832D02*
Y54666D01*
X969936Y31832D02*
X1004677D01*
X969936Y54666D02*
X1004677D01*
X964519Y37249D02*
Y49249D01*
Y37249D02*
X969936Y31832D01*
X964519Y49249D02*
X969936Y54666D01*
X1004677Y31832D02*
Y54666D01*
X733700Y31832D02*
X768441D01*
X733700Y54666D02*
X768441D01*
X728283Y37249D02*
Y49249D01*
Y37249D02*
X733700Y31832D01*
X728283Y49249D02*
X733700Y54666D01*
X768441Y31832D02*
Y54666D01*
X497480Y31832D02*
X532221D01*
X497480Y54666D02*
X532221D01*
X492063Y37249D02*
Y49249D01*
Y37249D02*
X497480Y31832D01*
X492063Y49249D02*
X497480Y54666D01*
X532221Y31832D02*
Y54666D01*
X261259Y31832D02*
X296000D01*
X261259Y54666D02*
X296000D01*
X255842Y37249D02*
Y49249D01*
Y37249D02*
X261259Y31832D01*
X255842Y49249D02*
X261259Y54666D01*
X296000Y31832D02*
Y54666D01*
X25411Y31875D02*
X60152D01*
X25411Y54709D02*
X60152D01*
X19994Y37292D02*
Y49292D01*
Y37292D02*
X25411Y31875D01*
X19994Y49292D02*
X25411Y54709D01*
X60152Y31875D02*
Y54709D01*
X19685Y15841D02*
Y10842D01*
X20685Y9843D01*
X22684D01*
X23684Y10842D01*
Y15841D01*
X29682D02*
X25683D01*
Y12842D01*
X27683D01*
X25683D01*
Y9843D01*
X31681D02*
Y15841D01*
X34680D01*
X35680Y14841D01*
Y12842D01*
X34680Y11842D01*
X31681D01*
X37679Y9843D02*
Y15841D01*
X40678D01*
X41678Y14841D01*
Y12842D01*
X40678Y11842D01*
X37679D01*
X39679D02*
X41678Y9843D01*
X53674D02*
X49675D01*
X53674Y13841D01*
Y14841D01*
X52674Y15841D01*
X50675D01*
X49675Y14841D01*
X55673D02*
X56673Y15841D01*
X58672D01*
X59672Y14841D01*
Y10842D01*
X58672Y9843D01*
X56673D01*
X55673Y10842D01*
Y14841D01*
X61672Y9843D02*
X63671D01*
X62671D01*
Y15841D01*
X61672Y14841D01*
X66670D02*
X67669Y15841D01*
X69669D01*
X70669Y14841D01*
Y13841D01*
X69669Y12842D01*
X70669Y11842D01*
Y10842D01*
X69669Y9843D01*
X67669D01*
X66670Y10842D01*
Y11842D01*
X67669Y12842D01*
X66670Y13841D01*
Y14841D01*
X67669Y12842D02*
X69669D01*
X78666Y15841D02*
Y9843D01*
X87663D02*
Y15841D01*
X89662Y13841D01*
X91662Y15841D01*
Y9843D01*
X96660D02*
X94661D01*
X93661Y10842D01*
Y12842D01*
X94661Y13841D01*
X96660D01*
X97660Y12842D01*
Y11842D01*
X93661D01*
X99659Y9843D02*
X102658D01*
X103658Y10842D01*
X102658Y11842D01*
X100659D01*
X99659Y12842D01*
X100659Y13841D01*
X103658D01*
X106657D02*
X108656D01*
X109656Y12842D01*
Y9843D01*
X106657D01*
X105657Y10842D01*
X106657Y11842D01*
X109656D01*
X121652Y15841D02*
Y9843D01*
X118653D01*
X117653Y10842D01*
Y12842D01*
X118653Y13841D01*
X121652D01*
X126650Y9843D02*
X124651D01*
X123651Y10842D01*
Y12842D01*
X124651Y13841D01*
X126650D01*
X127650Y12842D01*
Y11842D01*
X123651D01*
X135647Y15841D02*
Y9843D01*
X138647D01*
X139646Y10842D01*
Y11842D01*
X138647Y12842D01*
X135647D01*
X138647D01*
X139646Y13841D01*
Y14841D01*
X138647Y15841D01*
X135647D01*
X142645Y9843D02*
X144645D01*
X145644Y10842D01*
Y12842D01*
X144645Y13841D01*
X142645D01*
X141646Y12842D01*
Y10842D01*
X142645Y9843D01*
X147644D02*
X149643D01*
X148643D01*
Y15841D01*
X147644D01*
X152642Y9843D02*
X154641D01*
X153642D01*
Y13841D01*
X152642D01*
X157640Y9843D02*
Y13841D01*
X160639D01*
X161639Y12842D01*
Y9843D01*
X163638Y15841D02*
Y9843D01*
Y12842D01*
X164638Y13841D01*
X166638D01*
X167637Y12842D01*
Y9843D01*
X170636Y13841D02*
X172636D01*
X173635Y12842D01*
Y9843D01*
X170636D01*
X169636Y10842D01*
X170636Y11842D01*
X173635D01*
X175635Y9843D02*
X178634D01*
X179633Y10842D01*
X178634Y11842D01*
X176634D01*
X175635Y12842D01*
X176634Y13841D01*
X179633D01*
X187631Y15841D02*
Y9843D01*
X200626Y14841D02*
X199627Y15841D01*
X197627D01*
X196628Y14841D01*
Y10842D01*
X197627Y9843D01*
X199627D01*
X200626Y10842D01*
X203625Y9843D02*
X205625D01*
X206625Y10842D01*
Y12842D01*
X205625Y13841D01*
X203625D01*
X202626Y12842D01*
Y10842D01*
X203625Y9843D01*
X208624D02*
Y13841D01*
X211623D01*
X212623Y12842D01*
Y9843D01*
X215622Y14841D02*
Y13841D01*
X214622D01*
X216621D01*
X215622D01*
Y10842D01*
X216621Y9843D01*
X219620Y13841D02*
Y9843D01*
Y11842D01*
X220620Y12842D01*
X221620Y13841D01*
X222619D01*
X226618Y9843D02*
X228618D01*
X229617Y10842D01*
Y12842D01*
X228618Y13841D01*
X226618D01*
X225618Y12842D01*
Y10842D01*
X226618Y9843D01*
X231616D02*
X233616D01*
X232616D01*
Y15841D01*
X231616D01*
X237614Y13841D02*
X239614D01*
X240614Y12842D01*
Y9843D01*
X237614D01*
X236615Y10842D01*
X237614Y11842D01*
X240614D01*
X246612Y15841D02*
Y9843D01*
X243613D01*
X242613Y10842D01*
Y12842D01*
X243613Y13841D01*
X246612D01*
X249611Y9843D02*
X251610D01*
X252610Y10842D01*
Y12842D01*
X251610Y13841D01*
X249611D01*
X248611Y12842D01*
Y10842D01*
X249611Y9843D01*
X254609Y13841D02*
Y9843D01*
Y11842D01*
X255609Y12842D01*
X256608Y13841D01*
X257608D01*
X261607D02*
X263606D01*
X264606Y12842D01*
Y9843D01*
X261607D01*
X260607Y10842D01*
X261607Y11842D01*
X264606D01*
X272603Y15841D02*
Y9843D01*
X281600D02*
Y15841D01*
X284599D01*
X285599Y14841D01*
Y12842D01*
X284599Y11842D01*
X281600D01*
X283600D02*
X285599Y9843D01*
X291597Y15841D02*
X287598D01*
Y9843D01*
X291597D01*
X287598Y12842D02*
X289598D01*
X293596Y15841D02*
Y11842D01*
X295596Y9843D01*
X297595Y11842D01*
Y15841D01*
X303593Y9843D02*
X299594D01*
X303593Y13841D01*
Y14841D01*
X302593Y15841D01*
X300594D01*
X299594Y14841D01*
X305592D02*
X306592Y15841D01*
X308592D01*
X309591Y14841D01*
Y10842D01*
X308592Y9843D01*
X306592D01*
X305592Y10842D01*
Y14841D01*
X311591Y9843D02*
X313590D01*
X312590D01*
Y15841D01*
X311591Y14841D01*
X316589D02*
X317589Y15841D01*
X319588D01*
X320588Y14841D01*
Y13841D01*
X319588Y12842D01*
X320588Y11842D01*
Y10842D01*
X319588Y9843D01*
X317589D01*
X316589Y10842D01*
Y11842D01*
X317589Y12842D01*
X316589Y13841D01*
Y14841D01*
X317589Y12842D02*
X319588D01*
X322587Y9843D02*
X324586D01*
X323587D01*
Y15841D01*
X322587Y14841D01*
X327585D02*
X328585Y15841D01*
X330585D01*
X331584Y14841D01*
Y10842D01*
X330585Y9843D01*
X328585D01*
X327585Y10842D01*
Y14841D01*
X337582Y9843D02*
X333583D01*
X337582Y13841D01*
Y14841D01*
X336582Y15841D01*
X334583D01*
X333583Y14841D01*
X339582Y15841D02*
X343580D01*
Y14841D01*
X339582Y10842D01*
Y9843D01*
D45*
X1056100Y-37300D02*
G03*
X1056159Y-37159I-141J141D01*
G01*
X1055929Y-36888D02*
G03*
X1056100Y-37300I583J0D01*
G01*
X1055929Y-36771D02*
G03*
X1056000Y-36600I-171J171D01*
G01*
X1055850Y-40150D02*
Y-38450D01*
X1057350Y-40200D02*
Y-38500D01*
X1056150Y-40200D02*
Y-38500D01*
X1054500Y-38300D02*
X1054700Y-38500D01*
X1054500Y-40400D02*
X1054700Y-40200D01*
Y-38500D01*
X1056159Y-36959D02*
Y-36859D01*
X1056000Y-37200D02*
X1056100Y-37300D01*
X1056000Y-37200D02*
Y-36700D01*
X1056100Y-37300D02*
Y-36800D01*
X1056079Y-36779D02*
X1056159Y-36859D01*
X1056000Y-37000D02*
X1056159Y-37159D01*
X1056000Y-36700D02*
X1056159Y-36859D01*
Y-37159D02*
Y-36959D01*
X1056000Y-37000D02*
Y-36600D01*
X1056159Y-37159D02*
Y-36759D01*
X1055929Y-36888D02*
Y-36771D01*
X1056000Y-36600D02*
X1056159Y-36759D01*
D46*
X1057483Y-33800D02*
G03*
X1057000Y-34000I0J-683D01*
G01*
D02*
G03*
X1056900Y-34241I241J-241D01*
G01*
Y-34717D02*
G03*
X1057100Y-35200I683J0D01*
G01*
D02*
G03*
X1057583Y-35400I483J483D01*
G01*
X1057400Y-34300D02*
G03*
X1057824Y-35324I1448J0D01*
G01*
X1057483Y-33800D02*
G03*
X1057400Y-34000I200J-200D01*
G01*
X1056900Y-34241D02*
G03*
X1057236Y-35054I1149J0D01*
G01*
X1053600Y-34241D02*
G03*
X1053936Y-35054I1149J0D01*
G01*
X1054183Y-33800D02*
G03*
X1054100Y-34000I200J-200D01*
G01*
Y-34300D02*
G03*
X1054524Y-35324I1448J0D01*
G01*
X1053800Y-35200D02*
G03*
X1054283Y-35400I483J483D01*
G01*
X1053600Y-34717D02*
G03*
X1053800Y-35200I683J0D01*
G01*
X1053700Y-34000D02*
G03*
X1053600Y-34241I241J-241D01*
G01*
X1054183Y-33800D02*
G03*
X1053700Y-34000I0J-683D01*
G01*
X989598Y-152298D02*
G03*
X989598Y-152298I-5000J0D01*
G01*
Y-233200D02*
G03*
X989598Y-233200I-5000J0D01*
G01*
X1934465Y82800D02*
G03*
X1934465Y82800I-5000J0D01*
G01*
X1698244Y82501D02*
G03*
X1698244Y82501I-5000J0D01*
G01*
X1462024D02*
G03*
X1462024Y82501I-5000J0D01*
G01*
X1225803D02*
G03*
X1225803Y82501I-5000J0D01*
G01*
X989583D02*
G03*
X989583Y82501I-5000J0D01*
G01*
X753362D02*
G03*
X753362Y82501I-5000J0D01*
G01*
X517142D02*
G03*
X517142Y82501I-5000J0D01*
G01*
X280921D02*
G03*
X280921Y82501I-5000J0D01*
G01*
X44799Y82862D02*
G03*
X44799Y82862I-5000J0D01*
G01*
X499744Y92344D02*
X525900D01*
Y72658D02*
Y92344D01*
X1057900Y-34600D02*
Y-33800D01*
X1057483D02*
X1057900D01*
X1056900Y-34717D02*
Y-34241D01*
X1057583Y-35400D02*
X1057900D01*
Y-34600D01*
X1057824Y-35324D02*
X1057900Y-35400D01*
X1057400Y-34300D02*
Y-34000D01*
X1054100Y-34300D02*
Y-34000D01*
X1054524Y-35324D02*
X1054600Y-35400D01*
Y-34600D01*
X1054283Y-35400D02*
X1054600D01*
X1053600Y-34717D02*
Y-34241D01*
X1054183Y-33800D02*
X1054600D01*
Y-34600D02*
Y-33800D01*
X969200Y-162141D02*
X999200D01*
Y-142455D01*
X969200Y-162141D02*
Y-144800D01*
X971545Y-142455D01*
X999200D01*
X970000Y-243043D02*
X999300D01*
Y-223357D01*
X970000Y-243043D02*
Y-225300D01*
X971943Y-223357D01*
X999300D01*
X1915300Y72957D02*
X1943900D01*
Y92643D01*
X1915300Y72957D02*
Y91000D01*
X1916943Y92643D01*
X1943900D01*
X1678700Y72658D02*
X1707500D01*
Y92344D01*
X1678700Y72658D02*
Y90600D01*
X1680444Y92344D01*
X1707500D01*
X1442900Y72658D02*
X1471200D01*
Y92344D01*
X1442900Y72658D02*
Y90600D01*
X1444644Y92344D01*
X1471200D01*
X1206300Y72658D02*
X1234900D01*
Y92344D01*
X1206300Y72658D02*
Y90200D01*
X1208444Y92344D01*
X1234900D01*
X970200Y72658D02*
X999300D01*
Y92344D01*
X970200Y72658D02*
Y90700D01*
X971844Y92344D01*
X999300D01*
X733700Y72658D02*
X762300D01*
Y92344D01*
X733700Y72658D02*
Y90500D01*
X735544Y92344D01*
X762300D01*
X497800Y72658D02*
X525900D01*
X497800D02*
Y90400D01*
X499744Y92344D01*
X261600Y72658D02*
X289300D01*
Y92344D01*
X261600Y72658D02*
Y90400D01*
X263544Y92344D01*
X289300D01*
X25400Y73019D02*
X54400D01*
Y92705D01*
X25400Y73019D02*
Y90500D01*
X27605Y92705D01*
X54400D01*
X1044291Y-216535D02*
Y-213536D01*
X1045791D01*
X1046291Y-214036D01*
Y-215036D01*
X1045791Y-215536D01*
X1044291D01*
X1045291D02*
X1046291Y-216535D01*
X1049290Y-214036D02*
X1048790Y-213536D01*
X1047790D01*
X1047290Y-214036D01*
Y-214536D01*
X1047790Y-215036D01*
X1048790D01*
X1049290Y-215536D01*
Y-216036D01*
X1048790Y-216535D01*
X1047790D01*
X1047290Y-216036D01*
X1050289Y-213536D02*
X1052289D01*
X1051289D01*
Y-216535D01*
X989499Y-48101D02*
X988999Y-47601D01*
X988000D01*
X987500Y-48101D01*
Y-50100D01*
X988000Y-50600D01*
X988999D01*
X989499Y-50100D01*
X992498Y-50600D02*
X990499D01*
X992498Y-48601D01*
Y-48101D01*
X991999Y-47601D01*
X990999D01*
X990499Y-48101D01*
X993498D02*
X993998Y-47601D01*
X994998D01*
X995497Y-48101D01*
Y-48601D01*
X994998Y-49101D01*
X994498D01*
X994998D01*
X995497Y-49600D01*
Y-50100D01*
X994998Y-50600D01*
X993998D01*
X993498Y-50100D01*
X1078999Y39799D02*
X1078500Y40299D01*
X1077500D01*
X1077000Y39799D01*
Y37800D01*
X1077500Y37300D01*
X1078500D01*
X1078999Y37800D01*
X1081998Y37300D02*
X1079999D01*
X1081998Y39299D01*
Y39799D01*
X1081499Y40299D01*
X1080499D01*
X1079999Y39799D01*
X1084997Y40299D02*
X1083998Y39799D01*
X1082998Y38800D01*
Y37800D01*
X1083498Y37300D01*
X1084498D01*
X1084997Y37800D01*
Y38300D01*
X1084498Y38800D01*
X1082998D01*
X1006500Y-240201D02*
Y-243200D01*
X1008000D01*
X1008499Y-242700D01*
Y-240701D01*
X1008000Y-240201D01*
X1006500D01*
X1009499Y-243200D02*
X1010499D01*
X1009999D01*
Y-240201D01*
X1009499Y-240701D01*
X1006500Y-158201D02*
Y-161200D01*
X1008000D01*
X1008499Y-160700D01*
Y-158701D01*
X1008000Y-158201D01*
X1006500D01*
X1011498Y-161200D02*
X1009499D01*
X1011498Y-159201D01*
Y-158701D01*
X1010999Y-158201D01*
X1009999D01*
X1009499Y-158701D01*
X1927000Y71899D02*
Y68900D01*
X1928499D01*
X1928999Y69400D01*
Y71399D01*
X1928499Y71899D01*
X1927000D01*
X1929999Y71399D02*
X1930499Y71899D01*
X1931499D01*
X1931998Y71399D01*
Y70899D01*
X1931499Y70399D01*
X1930999D01*
X1931499D01*
X1931998Y69900D01*
Y69400D01*
X1931499Y68900D01*
X1930499D01*
X1929999Y69400D01*
X1694900Y71599D02*
Y68600D01*
X1696399D01*
X1696899Y69100D01*
Y71099D01*
X1696399Y71599D01*
X1694900D01*
X1699398Y68600D02*
Y71599D01*
X1697899Y70100D01*
X1699898D01*
X1458200Y71599D02*
Y68600D01*
X1459700D01*
X1460199Y69100D01*
Y71099D01*
X1459700Y71599D01*
X1458200D01*
X1463198D02*
X1461199D01*
Y70100D01*
X1462199Y70599D01*
X1462699D01*
X1463198Y70100D01*
Y69100D01*
X1462699Y68600D01*
X1461699D01*
X1461199Y69100D01*
X1242500Y77299D02*
Y74300D01*
X1243999D01*
X1244499Y74800D01*
Y76799D01*
X1243999Y77299D01*
X1242500D01*
X1247498D02*
X1246499Y76799D01*
X1245499Y75800D01*
Y74800D01*
X1245999Y74300D01*
X1246999D01*
X1247498Y74800D01*
Y75300D01*
X1246999Y75800D01*
X1245499D01*
X1005500Y76299D02*
Y73300D01*
X1006999D01*
X1007499Y73800D01*
Y75799D01*
X1006999Y76299D01*
X1005500D01*
X1008499D02*
X1010498D01*
Y75799D01*
X1008499Y73800D01*
Y73300D01*
X769600Y77199D02*
Y74200D01*
X771100D01*
X771599Y74700D01*
Y76699D01*
X771100Y77199D01*
X769600D01*
X772599Y76699D02*
X773099Y77199D01*
X774098D01*
X774598Y76699D01*
Y76199D01*
X774098Y75700D01*
X774598Y75200D01*
Y74700D01*
X774098Y74200D01*
X773099D01*
X772599Y74700D01*
Y75200D01*
X773099Y75700D01*
X772599Y76199D01*
Y76699D01*
X773099Y75700D02*
X774098D01*
X533200Y76899D02*
Y73900D01*
X534699D01*
X535199Y74400D01*
Y76399D01*
X534699Y76899D01*
X533200D01*
X536199Y74400D02*
X536699Y73900D01*
X537699D01*
X538198Y74400D01*
Y76399D01*
X537699Y76899D01*
X536699D01*
X536199Y76399D01*
Y75899D01*
X536699Y75400D01*
X538198D01*
X297200Y76099D02*
Y73100D01*
X298699D01*
X299199Y73600D01*
Y75599D01*
X298699Y76099D01*
X297200D01*
X300199Y73100D02*
X301199D01*
X300699D01*
Y76099D01*
X300199Y75599D01*
X302698D02*
X303198Y76099D01*
X304198D01*
X304698Y75599D01*
Y73600D01*
X304198Y73100D01*
X303198D01*
X302698Y73600D01*
Y75599D01*
X60800Y77599D02*
Y74600D01*
X62300D01*
X62799Y75100D01*
Y77099D01*
X62300Y77599D01*
X60800D01*
X63799Y74600D02*
X64799D01*
X64299D01*
Y77599D01*
X63799Y77099D01*
X66298Y74600D02*
X67298D01*
X66798D01*
Y77599D01*
X66298Y77099D01*
X1245000Y34799D02*
Y31800D01*
X1246500D01*
X1246999Y32300D01*
Y34299D01*
X1246500Y34799D01*
X1245000D01*
X1247999Y31800D02*
X1248999D01*
X1248499D01*
Y34799D01*
X1247999Y34299D01*
X1250498Y32300D02*
X1250998Y31800D01*
X1251998D01*
X1252498Y32300D01*
Y34299D01*
X1251998Y34799D01*
X1250998D01*
X1250498Y34299D01*
Y33799D01*
X1250998Y33299D01*
X1252498D01*
X1008500Y34799D02*
Y31800D01*
X1009999D01*
X1010499Y32300D01*
Y34299D01*
X1009999Y34799D01*
X1008500D01*
X1013498Y31800D02*
X1011499D01*
X1013498Y33799D01*
Y34299D01*
X1012999Y34799D01*
X1011999D01*
X1011499Y34299D01*
X1014498D02*
X1014998Y34799D01*
X1015998D01*
X1016497Y34299D01*
Y32300D01*
X1015998Y31800D01*
X1014998D01*
X1014498Y32300D01*
Y34299D01*
X771000Y34401D02*
Y31402D01*
X772500D01*
X772999Y31902D01*
Y33901D01*
X772500Y34401D01*
X771000D01*
X775998Y31402D02*
X773999D01*
X775998Y33401D01*
Y33901D01*
X775498Y34401D01*
X774499D01*
X773999Y33901D01*
X776998Y31402D02*
X777998D01*
X777498D01*
Y34401D01*
X776998Y33901D01*
X536000Y34799D02*
Y31800D01*
X537500D01*
X537999Y32300D01*
Y34299D01*
X537500Y34799D01*
X536000D01*
X540998Y31800D02*
X538999D01*
X540998Y33799D01*
Y34299D01*
X540498Y34799D01*
X539499D01*
X538999Y34299D01*
X543997Y31800D02*
X541998D01*
X543997Y33799D01*
Y34299D01*
X543498Y34799D01*
X542498D01*
X541998Y34299D01*
X299500Y34799D02*
Y31800D01*
X300999D01*
X301499Y32300D01*
Y34299D01*
X300999Y34799D01*
X299500D01*
X304498Y31800D02*
X302499D01*
X304498Y33799D01*
Y34299D01*
X303998Y34799D01*
X302999D01*
X302499Y34299D01*
X305498D02*
X305998Y34799D01*
X306998D01*
X307497Y34299D01*
Y33799D01*
X306998Y33299D01*
X306498D01*
X306998D01*
X307497Y32800D01*
Y32300D01*
X306998Y31800D01*
X305998D01*
X305498Y32300D01*
X64500Y34299D02*
Y31300D01*
X66000D01*
X66499Y31800D01*
Y33799D01*
X66000Y34299D01*
X64500D01*
X69498Y31300D02*
X67499D01*
X69498Y33299D01*
Y33799D01*
X68999Y34299D01*
X67999D01*
X67499Y33799D01*
X71998Y31300D02*
Y34299D01*
X70498Y32800D01*
X72497D01*
X1009000Y-199701D02*
Y-202700D01*
X1010499D01*
X1010999Y-202200D01*
Y-200201D01*
X1010499Y-199701D01*
X1009000D01*
X1013998Y-202700D02*
X1011999D01*
X1013998Y-200701D01*
Y-200201D01*
X1013499Y-199701D01*
X1012499D01*
X1011999Y-200201D01*
X1016997Y-199701D02*
X1014998D01*
Y-201201D01*
X1015998Y-200701D01*
X1016498D01*
X1016997Y-201201D01*
Y-202200D01*
X1016498Y-202700D01*
X1015498D01*
X1014998Y-202200D01*
X941499Y-119701D02*
X940500D01*
X941000D01*
Y-122200D01*
X940500Y-122700D01*
X940000D01*
X939500Y-122200D01*
X942499Y-122700D02*
X943499D01*
X942999D01*
Y-119701D01*
X942499Y-120201D01*
X945999Y-165701D02*
X945000D01*
X945500D01*
Y-168200D01*
X945000Y-168700D01*
X944500D01*
X944000Y-168200D01*
X948998Y-168700D02*
X946999D01*
X948998Y-166701D01*
Y-166201D01*
X948499Y-165701D01*
X947499D01*
X946999Y-166201D01*
X946499Y-197701D02*
X945500D01*
X946000D01*
Y-200200D01*
X945500Y-200700D01*
X945000D01*
X944500Y-200200D01*
X947499Y-198201D02*
X947999Y-197701D01*
X948999D01*
X949498Y-198201D01*
Y-198701D01*
X948999Y-199200D01*
X948499D01*
X948999D01*
X949498Y-199700D01*
Y-200200D01*
X948999Y-200700D01*
X947999D01*
X947499Y-200200D01*
X143000Y38000D02*
Y40999D01*
X144500D01*
X144999Y40499D01*
Y39500D01*
X144500Y39000D01*
X143000D01*
X145999Y38000D02*
X146999D01*
X146499D01*
Y40999D01*
X145999Y40499D01*
X1064800Y-70400D02*
Y-67401D01*
X1066300D01*
X1066799Y-67901D01*
Y-68901D01*
X1066300Y-69400D01*
X1064800D01*
X1067799Y-67901D02*
X1068299Y-67401D01*
X1069299D01*
X1069798Y-67901D01*
Y-68401D01*
X1069299Y-68901D01*
X1068799D01*
X1069299D01*
X1069798Y-69400D01*
Y-69900D01*
X1069299Y-70400D01*
X1068299D01*
X1067799Y-69900D01*
X1069500Y75800D02*
Y78799D01*
X1071000D01*
X1071499Y78299D01*
Y77299D01*
X1071000Y76800D01*
X1069500D01*
X1070500D02*
X1071499Y75800D01*
X1074498Y78799D02*
X1072499D01*
Y77299D01*
X1073499Y77799D01*
X1073999D01*
X1074498Y77299D01*
Y76300D01*
X1073999Y75800D01*
X1072999D01*
X1072499Y76300D01*
X1075498Y78799D02*
X1077497D01*
Y78299D01*
X1075498Y76300D01*
Y75800D01*
X1068500Y41300D02*
Y44299D01*
X1070000D01*
X1070499Y43799D01*
Y42799D01*
X1070000Y42300D01*
X1068500D01*
X1069500D02*
X1070499Y41300D01*
X1073498Y44299D02*
X1071499D01*
Y42799D01*
X1072499Y43299D01*
X1072999D01*
X1073498Y42799D01*
Y41800D01*
X1072999Y41300D01*
X1071999D01*
X1071499Y41800D01*
X1074498Y43799D02*
X1074998Y44299D01*
X1075998D01*
X1076497Y43799D01*
Y43299D01*
X1075998Y42799D01*
X1076497Y42300D01*
Y41800D01*
X1075998Y41300D01*
X1074998D01*
X1074498Y41800D01*
Y42300D01*
X1074998Y42799D01*
X1074498Y43299D01*
Y43799D01*
X1074998Y42799D02*
X1075998D01*
X1106500Y75300D02*
Y78299D01*
X1108000D01*
X1108499Y77799D01*
Y76799D01*
X1108000Y76300D01*
X1106500D01*
X1107500D02*
X1108499Y75300D01*
X1111498Y78299D02*
X1109499D01*
Y76799D01*
X1110499Y77299D01*
X1110999D01*
X1111498Y76799D01*
Y75800D01*
X1110999Y75300D01*
X1109999D01*
X1109499Y75800D01*
X1112498D02*
X1112998Y75300D01*
X1113998D01*
X1114497Y75800D01*
Y77799D01*
X1113998Y78299D01*
X1112998D01*
X1112498Y77799D01*
Y77299D01*
X1112998Y76799D01*
X1114497D01*
X1144000Y75800D02*
Y78799D01*
X1145500D01*
X1145999Y78299D01*
Y77299D01*
X1145500Y76800D01*
X1144000D01*
X1145000D02*
X1145999Y75800D01*
X1148998Y78799D02*
X1147999Y78299D01*
X1146999Y77299D01*
Y76300D01*
X1147499Y75800D01*
X1148499D01*
X1148998Y76300D01*
Y76800D01*
X1148499Y77299D01*
X1146999D01*
X1149998Y78299D02*
X1150498Y78799D01*
X1151498D01*
X1151997Y78299D01*
Y76300D01*
X1151498Y75800D01*
X1150498D01*
X1149998Y76300D01*
Y78299D01*
X1183000Y75800D02*
Y78799D01*
X1184499D01*
X1184999Y78299D01*
Y77299D01*
X1184499Y76800D01*
X1183000D01*
X1184000D02*
X1184999Y75800D01*
X1187998Y78799D02*
X1186999Y78299D01*
X1185999Y77299D01*
Y76300D01*
X1186499Y75800D01*
X1187499D01*
X1187998Y76300D01*
Y76800D01*
X1187499Y77299D01*
X1185999D01*
X1188998Y75800D02*
X1189998D01*
X1189498D01*
Y78799D01*
X1188998Y78299D01*
X1030500Y75300D02*
Y78299D01*
X1031999D01*
X1032499Y77799D01*
Y76799D01*
X1031999Y76300D01*
X1030500D01*
X1031500D02*
X1032499Y75300D01*
X1033499Y78299D02*
X1035498D01*
Y77799D01*
X1033499Y75800D01*
Y75300D01*
X1036498Y77799D02*
X1036998Y78299D01*
X1037998D01*
X1038497Y77799D01*
Y75800D01*
X1037998Y75300D01*
X1036998D01*
X1036498Y75800D01*
Y77799D01*
X1043338Y-160387D02*
X1041339D01*
Y-161886D01*
X1042338D01*
X1041339D01*
Y-163386D01*
X1044338Y-160387D02*
Y-163386D01*
X1046337D01*
X1047337D02*
Y-161387D01*
X1048336Y-160387D01*
X1049336Y-161387D01*
Y-163386D01*
Y-161886D01*
X1047337D01*
X1052335Y-160887D02*
X1051835Y-160387D01*
X1050836D01*
X1050336Y-160887D01*
Y-161387D01*
X1050836Y-161886D01*
X1051835D01*
X1052335Y-162386D01*
Y-162886D01*
X1051835Y-163386D01*
X1050836D01*
X1050336Y-162886D01*
X1053335Y-160387D02*
Y-163386D01*
Y-161886D01*
X1055334D01*
Y-160387D01*
Y-163386D01*
X1053499Y78299D02*
X1052999Y78799D01*
X1052000D01*
X1051500Y78299D01*
Y77799D01*
X1052000Y77299D01*
X1052999D01*
X1053499Y76800D01*
Y76300D01*
X1052999Y75800D01*
X1052000D01*
X1051500Y76300D01*
X1054499Y78299D02*
X1054999Y78799D01*
X1055999D01*
X1056498Y78299D01*
Y77799D01*
X1055999Y77299D01*
X1055499D01*
X1055999D01*
X1056498Y76800D01*
Y76300D01*
X1055999Y75800D01*
X1054999D01*
X1054499Y76300D01*
X1090999Y78299D02*
X1090499Y78799D01*
X1089500D01*
X1089000Y78299D01*
Y77799D01*
X1089500Y77299D01*
X1090499D01*
X1090999Y76800D01*
Y76300D01*
X1090499Y75800D01*
X1089500D01*
X1089000Y76300D01*
X1093499Y75800D02*
Y78799D01*
X1091999Y77299D01*
X1093998D01*
X1128299Y78299D02*
X1127800Y78799D01*
X1126800D01*
X1126300Y78299D01*
Y77799D01*
X1126800Y77299D01*
X1127800D01*
X1128299Y76800D01*
Y76300D01*
X1127800Y75800D01*
X1126800D01*
X1126300Y76300D01*
X1131298Y78799D02*
X1129299D01*
Y77299D01*
X1130299Y77799D01*
X1130799D01*
X1131298Y77299D01*
Y76300D01*
X1130799Y75800D01*
X1129799D01*
X1129299Y76300D01*
X1165999Y78299D02*
X1165499Y78799D01*
X1164500D01*
X1164000Y78299D01*
Y77799D01*
X1164500Y77299D01*
X1165499D01*
X1165999Y76800D01*
Y76300D01*
X1165499Y75800D01*
X1164500D01*
X1164000Y76300D01*
X1168998Y78799D02*
X1167999Y78299D01*
X1166999Y77299D01*
Y76300D01*
X1167499Y75800D01*
X1168499D01*
X1168998Y76300D01*
Y76800D01*
X1168499Y77299D01*
X1166999D01*
X923500Y35299D02*
Y32800D01*
X924000Y32300D01*
X925000D01*
X925499Y32800D01*
Y35299D01*
X926499Y34799D02*
X926999Y35299D01*
X927999D01*
X928498Y34799D01*
Y34299D01*
X927999Y33799D01*
X927499D01*
X927999D01*
X928498Y33300D01*
Y32800D01*
X927999Y32300D01*
X926999D01*
X926499Y32800D01*
D47*
X1053000Y-200700D02*
G03*
X1053000Y-200700I-5000J0D01*
G01*
Y-175700D02*
G03*
X1053000Y-175700I-5000J0D01*
G01*
X1058500Y64300D02*
G03*
X1058500Y64300I-5000J0D01*
G01*
X1096500D02*
G03*
X1096500Y64300I-5000J0D01*
G01*
X1133900Y64400D02*
G03*
X1133900Y64400I-5000J0D01*
G01*
X1171500Y64300D02*
G03*
X1171500Y64300I-5000J0D01*
G01*
X1038000Y-205582D02*
Y-195818D01*
X1041937Y-190700D02*
X1054063D01*
X1058000Y-205700D02*
Y-195818D01*
X1041937Y-210700D02*
X1054063D01*
X1058000Y-180582D02*
Y-170818D01*
X1041937Y-185700D02*
X1054063D01*
X1038000Y-180582D02*
Y-170700D01*
X1041937Y-165700D02*
X1054063D01*
X1063500Y59418D02*
Y69182D01*
X1047437Y54300D02*
X1059563D01*
X1043500Y59418D02*
Y69300D01*
X1047437Y74300D02*
X1059563D01*
X1101500Y59418D02*
Y69182D01*
X1085437Y54300D02*
X1097563D01*
X1081500Y59418D02*
Y69300D01*
X1085437Y74300D02*
X1097563D01*
X1138900Y59518D02*
Y69282D01*
X1122837Y54400D02*
X1134963D01*
X1118900Y59518D02*
Y69400D01*
X1122837Y74400D02*
X1134963D01*
X1176500Y59418D02*
Y69182D01*
X1160437Y54300D02*
X1172563D01*
X1156500Y59418D02*
Y69300D01*
X1160437Y74300D02*
X1172563D01*
X112499Y43800D02*
Y48798D01*
X110000Y46299D01*
X113332D01*
X110000Y59965D02*
X110833Y60798D01*
X112499D01*
X113332Y59965D01*
Y59132D01*
X112499Y58299D01*
X111666D01*
X112499D01*
X113332Y57466D01*
Y56633D01*
X112499Y55800D01*
X110833D01*
X110000Y56633D01*
X151332Y49798D02*
X149666Y48965D01*
X148000Y47299D01*
Y45633D01*
X148833Y44800D01*
X150499D01*
X151332Y45633D01*
Y46466D01*
X150499Y47299D01*
X148000D01*
X149000Y54800D02*
X150666D01*
X149833D01*
Y59798D01*
X149000Y58965D01*
D48*
X1063500Y-5200D02*
X1073500D01*
Y-65200D02*
Y-5200D01*
X1063500Y-65200D02*
X1073500D01*
X1063500D02*
Y-5200D01*
X995924Y-57608D02*
X999468D01*
X1004192Y-62332D01*
X978208D02*
X982932Y-57608D01*
X986476D01*
X1004192Y-83592D02*
Y-62332D01*
X995924Y-83592D02*
X1004192D01*
X978208D02*
X986476D01*
X978208D02*
Y-62332D01*
X1070138Y52800D02*
X1074862D01*
X1031638Y67300D02*
X1036362D01*
X1070138D02*
X1074862D01*
X1107638Y67400D02*
X1112362D01*
X1145138Y67300D02*
X1149862D01*
X1182850Y63425D02*
Y66575D01*
X1189150Y63425D02*
Y66575D01*
X1037901Y-4100D02*
X1047900D01*
Y-84100D02*
Y-4100D01*
X1037901Y-84100D02*
X1047900D01*
X1037901D02*
Y-4100D01*
X927901D02*
X937901D01*
Y-84100D02*
Y-4100D01*
X927901Y-84100D02*
X937901D01*
X927901D02*
Y-4100D01*
X116000Y42800D02*
Y62800D01*
X146000Y42800D02*
Y62800D01*
X116000Y42800D02*
X146000D01*
X116000Y62800D02*
X146000D01*
X116000D02*
X135167D01*
D49*
X1057500Y-40400D02*
Y-38300D01*
X1056000Y-40400D02*
Y-38300D01*
X1054500Y-40400D02*
Y-38300D01*
X1054600Y-39400D02*
X1057500D01*
D50*
X1050197Y-24060D02*
X1050897Y-23360D01*
X1052296D01*
X1052996Y-24060D01*
Y-24760D01*
X1052296Y-25460D01*
X1051596D01*
X1052296D01*
X1052996Y-26160D01*
Y-26859D01*
X1052296Y-27559D01*
X1050897D01*
X1050197Y-26859D01*
X1054395Y-23360D02*
Y-26160D01*
X1055795Y-27559D01*
X1057195Y-26160D01*
Y-23360D01*
X1058594Y-24060D02*
X1059294Y-23360D01*
X1060693D01*
X1061393Y-24060D01*
Y-24760D01*
X1060693Y-25460D01*
X1059994D01*
X1060693D01*
X1061393Y-26160D01*
Y-26859D01*
X1060693Y-27559D01*
X1059294D01*
X1058594Y-26859D01*
M02*
