M48
;Layer_Color=9474304
;FILE_FORMAT=2:5
INCH,LZ
;TYPE=PLATED
T1F00S00C0.02800
T2F00S00C0.03543
T3F00S00C0.07600
;TYPE=NON_PLATED
T4F00S00C0.19685
%
T01
X09628Y-0241424
X09705Y-0219
X10079Y-0233824
X10233Y-02101
X10312Y-01992
X10164Y-0188324
X10094
X0994Y-01742
X09652Y-0164824
X0976Y-01182
X1028
X10605Y-01632
X1063Y-01767
X1062Y-01992
X10605Y-02147
X10709Y-0101716
X10529Y-0084824
X10599Y-0062824
X1028Y-00802
X10359Y-0099324
X09994Y-00788
Y-00629
X0971Y-00547
X09705Y-00747
X09825Y-00422
X09838Y-00134
X09837Y-0007
X09681Y0
X09624Y00075
X09553Y00138
X09784Y00265
X09976Y00261
X10105Y00264
X10252Y00215
X10269Y00406
X09845Y0041
X10091Y00047
X10042Y-00003
X10203Y-00042
X10277
Y-0019683
X10671Y-00002
X10634Y00155
X09482Y00107
X09394Y00132
X09276
X09197Y00095
X09122
X09153Y-0092
X09084Y-0110845
X00629Y00826
Y00894
X00179Y0084
X0021729Y0077571
X02543Y0073776
X02994Y0081076
Y0089076
X04905Y0074176
X05356Y0081776
Y0089576
X07267Y0074176
X07718Y0082076
Y0089776
X09629Y0074076
X1008Y0081976
Y0089576
X10269Y00634
X11991Y0074076
X1199Y00825
X11989Y00894
X12442Y0089676
Y0081976
X14353Y0074176
X14804Y0082076
Y0089276
X16716Y0074076
X17167Y0081976
Y0089276
X1876Y00418
X19075Y0074076
X19525Y00758
X19526Y0082976
Y0089876
T02
X0973771Y-01967
Y-01867
X0995425
Y-01967
X1919Y0038249
X1940654
X1704071
X1682417
X1467851
X1446197
X123163
X1209976
X10685Y-00102
Y-00202
Y-00302
Y-00402
Y-00502
Y-00602
X10429Y-00591
Y-00691
Y-00791
Y-00491
Y-00391
Y-00291
Y-00191
Y-00091
X0995425Y0038249
X0973771
X0932901Y-00091
Y-00191
Y-00291
Y-00391
Y-00491
Y-00591
Y-00691
Y-00791
X0759189Y0038249
X0737535
X0522969
X0501315
X0286748
X0265094
X00509Y0038292
X0029246
Y0048292
X00509
X0121Y00478
X0131
X0141
Y00578
X0131
X0121
X0265094Y0048249
X0286748
X0501315
X0522969
X0737535
X0759189
X0973771
X0995425
X1209976
X123163
X1446197
X1467851
X1682417
X1704071
X1829Y00518
X1839
X1849
Y00418
X1839
X1829
X1919Y0048249
X1940654
T03
X09223Y-02215
Y-02059
Y-01888
Y-01732
X09225Y-01573
Y-01417
Y-01261
T04
X09066Y-02423
X10696
X0215Y0061
X1755
M30
