G04 Layer_Physical_Order=1*
G04 Layer_Color=255*
%FSLAX25Y25*%
%MOIN*%
G70*
G01*
G75*
%ADD10C,0.02500*%
%ADD11C,0.02000*%
%ADD12C,0.04000*%
%ADD13C,0.05000*%
%ADD14C,0.03000*%
%ADD15C,0.03500*%
%ADD16C,0.02500*%
%ADD17R,0.06000X0.03000*%
%ADD18R,0.07087X0.13583*%
%ADD19R,0.05512X0.04724*%
%ADD20R,0.03937X0.03937*%
%ADD21R,0.07087X0.05118*%
G04:AMPARAMS|DCode=22|XSize=78.74mil|YSize=43.31mil|CornerRadius=21.66mil|HoleSize=0mil|Usage=FLASHONLY|Rotation=0.000|XOffset=0mil|YOffset=0mil|HoleType=Round|Shape=RoundedRectangle|*
%AMROUNDEDRECTD22*
21,1,0.07874,0.00000,0,0,0.0*
21,1,0.03543,0.04331,0,0,0.0*
1,1,0.04331,0.01772,0.00000*
1,1,0.04331,-0.01772,0.00000*
1,1,0.04331,-0.01772,0.00000*
1,1,0.04331,0.01772,0.00000*
%
%ADD22ROUNDEDRECTD22*%
%ADD23C,0.07480*%
%ADD24R,0.07480X0.07480*%
%ADD25R,0.07480X0.07480*%
%ADD26C,0.06000*%
%ADD27O,0.22800X0.11400*%
G04:AMPARAMS|DCode=28|XSize=74.8mil|YSize=118.11mil|CornerRadius=18.7mil|HoleSize=0mil|Usage=FLASHONLY|Rotation=90.000|XOffset=0mil|YOffset=0mil|HoleType=Round|Shape=RoundedRectangle|*
%AMROUNDEDRECTD28*
21,1,0.07480,0.08071,0,0,90.0*
21,1,0.03740,0.11811,0,0,90.0*
1,1,0.03740,0.04035,0.01870*
1,1,0.03740,0.04035,-0.01870*
1,1,0.03740,-0.04035,-0.01870*
1,1,0.03740,-0.04035,0.01870*
%
%ADD28ROUNDEDRECTD28*%
G04:AMPARAMS|DCode=29|XSize=74.8mil|YSize=118.11mil|CornerRadius=0mil|HoleSize=0mil|Usage=FLASHONLY|Rotation=90.000|XOffset=0mil|YOffset=0mil|HoleType=Round|Shape=Octagon|*
%AMOCTAGOND29*
4,1,8,-0.05905,-0.01870,-0.05905,0.01870,-0.04035,0.03740,0.04035,0.03740,0.05905,0.01870,0.05905,-0.01870,0.04035,-0.03740,-0.04035,-0.03740,-0.05905,-0.01870,0.0*
%
%ADD29OCTAGOND29*%

%ADD30C,0.05000*%
%ADD31C,0.04500*%
G36*
X1065909Y15460D02*
X1065935Y15347D01*
X1065977Y15217D01*
X1066035Y15068D01*
X1066198Y14716D01*
X1066425Y14293D01*
X1066716Y13797D01*
X1064942Y11839D01*
X1064821Y12066D01*
X1064695Y12269D01*
X1064564Y12447D01*
X1064427Y12600D01*
X1064286Y12729D01*
X1064140Y12833D01*
X1063989Y12912D01*
X1063832Y12967D01*
X1063671Y12997D01*
X1063505Y13002D01*
X1065899Y15555D01*
X1065909Y15460D01*
D02*
G37*
G36*
X1027766Y23309D02*
X1027720Y23166D01*
X1027649Y22891D01*
X1027625Y22761D01*
X1027599Y22511D01*
X1027597Y22393D01*
X1027603Y22279D01*
X1027616Y22169D01*
X1027636Y22063D01*
X1024686Y23947D01*
X1024832Y23984D01*
X1024966Y24031D01*
X1025086Y24088D01*
X1025194Y24155D01*
X1025289Y24232D01*
X1025372Y24319D01*
X1025441Y24417D01*
X1025498Y24524D01*
X1025542Y24641D01*
X1025573Y24769D01*
X1027766Y23309D01*
D02*
G37*
G36*
X937615Y11450D02*
X937508Y11545D01*
X937383Y11630D01*
X937240Y11705D01*
X937079Y11770D01*
X936900Y11825D01*
X936703Y11870D01*
X936488Y11905D01*
X936255Y11930D01*
X935735Y11950D01*
Y14450D01*
X936004Y14455D01*
X936488Y14495D01*
X936703Y14530D01*
X936900Y14575D01*
X937079Y14630D01*
X937240Y14695D01*
X937383Y14770D01*
X937508Y14855D01*
X937615Y14950D01*
Y11450D01*
D02*
G37*
G36*
X947951Y8213D02*
X947843Y8215D01*
X947719Y8202D01*
X947577Y8174D01*
X947419Y8130D01*
X947243Y8072D01*
X946840Y7909D01*
X946370Y7685D01*
X946108Y7550D01*
X944433Y9514D01*
X944663Y9625D01*
X944870Y9742D01*
X945055Y9865D01*
X945216Y9995D01*
X945355Y10130D01*
X945471Y10272D01*
X945565Y10420D01*
X945635Y10573D01*
X945683Y10734D01*
X945708Y10899D01*
X947951Y8213D01*
D02*
G37*
G36*
X929492Y14855D02*
X929617Y14770D01*
X929760Y14695D01*
X929921Y14630D01*
X930100Y14575D01*
X930297Y14530D01*
X930512Y14495D01*
X930745Y14470D01*
X931265Y14450D01*
Y11950D01*
X930996Y11945D01*
X930512Y11905D01*
X930297Y11870D01*
X930100Y11825D01*
X929921Y11770D01*
X929760Y11705D01*
X929617Y11630D01*
X929492Y11545D01*
X929385Y11450D01*
Y14950D01*
X929492Y14855D01*
D02*
G37*
G36*
X1018148Y-186513D02*
X1018296Y-186592D01*
X1018454Y-186650D01*
X1018625Y-186688D01*
X1018807Y-186705D01*
X1019001Y-186702D01*
X1019207Y-186678D01*
X1019425Y-186634D01*
X1019654Y-186569D01*
X1019895Y-186483D01*
X1019944Y-187070D01*
X1020065Y-187074D01*
Y-188530D01*
X1020109Y-189056D01*
X1020065Y-189070D01*
Y-189574D01*
X1019796Y-189579D01*
X1019312Y-189619D01*
X1019097Y-189654D01*
X1018900Y-189699D01*
X1018721Y-189754D01*
X1018560Y-189819D01*
X1018417Y-189894D01*
X1018292Y-189979D01*
X1018185Y-190074D01*
Y-188240D01*
X1018013Y-186414D01*
X1018148Y-186513D01*
D02*
G37*
G36*
X1231593Y34509D02*
X1231216Y34500D01*
X1230853Y34466D01*
X1230504Y34407D01*
X1230168Y34322D01*
X1229845Y34213D01*
X1229536Y34078D01*
X1229241Y33917D01*
X1228959Y33732D01*
X1228690Y33521D01*
X1228435Y33285D01*
X1226667Y35053D01*
X1226903Y35309D01*
X1227113Y35577D01*
X1227299Y35859D01*
X1227459Y36155D01*
X1227594Y36464D01*
X1227704Y36787D01*
X1227788Y37123D01*
X1227847Y37472D01*
X1227881Y37835D01*
X1227890Y38211D01*
X1231593Y34509D01*
D02*
G37*
G36*
X1467813D02*
X1467437Y34500D01*
X1467074Y34466D01*
X1466724Y34407D01*
X1466388Y34322D01*
X1466066Y34213D01*
X1465757Y34078D01*
X1465461Y33917D01*
X1465179Y33732D01*
X1464910Y33521D01*
X1464655Y33285D01*
X1462887Y35053D01*
X1463123Y35309D01*
X1463334Y35577D01*
X1463519Y35859D01*
X1463679Y36155D01*
X1463814Y36464D01*
X1463924Y36787D01*
X1464009Y37123D01*
X1464068Y37472D01*
X1464102Y37835D01*
X1464111Y38211D01*
X1467813Y34509D01*
D02*
G37*
G36*
X53258Y35349D02*
X53026Y35068D01*
X52820Y34779D01*
X52643Y34482D01*
X52492Y34176D01*
X52369Y33862D01*
X52273Y33540D01*
X52205Y33209D01*
X52164Y32870D01*
X52150Y32523D01*
X49650D01*
X49636Y32870D01*
X49595Y33209D01*
X49527Y33540D01*
X49431Y33862D01*
X49308Y34176D01*
X49158Y34482D01*
X48980Y34779D01*
X48774Y35068D01*
X48542Y35349D01*
X48282Y35621D01*
X53518D01*
X53258Y35349D01*
D02*
G37*
G36*
X977520Y-187114D02*
X977554Y-187477D01*
X977614Y-187826D01*
X977698Y-188162D01*
X977808Y-188485D01*
X977943Y-188794D01*
X978103Y-189090D01*
X978288Y-189372D01*
X978499Y-189640D01*
X978735Y-189895D01*
X976967Y-191663D01*
X976712Y-191427D01*
X976443Y-191217D01*
X976161Y-191031D01*
X975865Y-190871D01*
X975556Y-190736D01*
X975234Y-190627D01*
X974898Y-190542D01*
X974548Y-190483D01*
X974185Y-190449D01*
X973809Y-190440D01*
X977511Y-186737D01*
X977520Y-187114D01*
D02*
G37*
G36*
X1056012Y-194688D02*
X1055987Y-194643D01*
X1055912Y-194602D01*
X1055787Y-194567D01*
X1055612Y-194536D01*
X1055387Y-194509D01*
X1054787Y-194471D01*
X1053512Y-194450D01*
Y-191950D01*
X1053987Y-191948D01*
X1055787Y-191833D01*
X1055912Y-191798D01*
X1055987Y-191757D01*
X1056012Y-191712D01*
Y-194688D01*
D02*
G37*
G36*
X951671Y8369D02*
X952800Y7766D01*
X954026Y7394D01*
X955300Y7269D01*
X955886Y7326D01*
X955994Y6226D01*
X956366Y5001D01*
X956969Y3871D01*
X957782Y2882D01*
X958771Y2069D01*
X959900Y1466D01*
X961126Y1094D01*
X961671Y1040D01*
X961569Y0D01*
X961694Y-1274D01*
X962066Y-2499D01*
X962261Y-2866D01*
X961856Y-3167D01*
X954673Y4015D01*
X954675Y4017D01*
X952849Y5576D01*
X950803Y6830D01*
X949983Y7169D01*
X950029Y7692D01*
X950696Y8204D01*
X950932Y8511D01*
X951429Y8568D01*
X951671Y8369D01*
D02*
G37*
G36*
X1022610Y632D02*
X1022726Y-15D01*
X1022269Y-571D01*
X1021982Y-1108D01*
X1021214Y-790D01*
X1020800Y-736D01*
Y-4200D01*
X1020300D01*
Y-4700D01*
X1018279D01*
X1020269Y-6700D01*
X1020082Y-6706D01*
X1019891Y-6728D01*
X1019697Y-6767D01*
X1019499Y-6822D01*
X1019299Y-6894D01*
X1019095Y-6982D01*
X1018887Y-7087D01*
X1018677Y-7208D01*
X1018578Y-7275D01*
X1019386Y-7610D01*
X1019728Y-7655D01*
X1019908Y-8122D01*
X1019220Y-8927D01*
X1018142Y-10686D01*
X1017353Y-12591D01*
X1016871Y-14597D01*
X1016812Y-15349D01*
X1016745Y-15860D01*
X1016762Y-15989D01*
X1016717Y-16562D01*
X1016705Y-16653D01*
Y-20200D01*
X1016714Y-20272D01*
X1016616Y-20766D01*
X1016336Y-21185D01*
X1016278Y-21229D01*
X1008183Y-29324D01*
X1007085Y-29779D01*
X1005994Y-29923D01*
X1005858Y-29905D01*
X988837D01*
X988739Y-29414D01*
X988849Y-29369D01*
X990720Y-28222D01*
X992388Y-26797D01*
X992390Y-26799D01*
X993231Y-25702D01*
X993303Y-25529D01*
X995137Y-23695D01*
X995139Y-23697D01*
X996673Y-21902D01*
X997906Y-19889D01*
X998810Y-17707D01*
X999361Y-15412D01*
X999546Y-13058D01*
X999543D01*
Y-5534D01*
X1000043Y-5297D01*
X1000571Y-5731D01*
X1001700Y-6334D01*
X1002926Y-6706D01*
X1004200Y-6831D01*
X1005474Y-6706D01*
X1006699Y-6334D01*
X1007829Y-5731D01*
X1008818Y-4918D01*
X1009631Y-3929D01*
X1010234Y-2799D01*
X1010585Y-1642D01*
X1011600Y-1334D01*
X1012729Y-731D01*
X1013201Y-343D01*
X1017158D01*
Y-346D01*
X1019512Y-161D01*
X1021807Y390D01*
X1022520Y685D01*
X1022610Y632D01*
D02*
G37*
G36*
X1011480Y-184953D02*
X1011369Y-185182D01*
X1011281Y-185401D01*
X1011215Y-185611D01*
X1011172Y-185812D01*
X1011152Y-186003D01*
X1011155Y-186184D01*
X1011180Y-186356D01*
X1011229Y-186519D01*
X1011300Y-186672D01*
X1011393Y-186816D01*
X1007931Y-186301D01*
X1008006Y-186237D01*
X1008086Y-186149D01*
X1008170Y-186037D01*
X1008259Y-185902D01*
X1008451Y-185561D01*
X1008661Y-185126D01*
X1008890Y-184597D01*
X1011480Y-184953D01*
D02*
G37*
G36*
X1029167Y-6225D02*
X1029092Y-6289D01*
X1029012Y-6377D01*
X1028928Y-6488D01*
X1028839Y-6623D01*
X1028647Y-6963D01*
X1028436Y-7398D01*
X1028205Y-7927D01*
X1025614Y-7568D01*
X1025725Y-7340D01*
X1025815Y-7121D01*
X1025881Y-6911D01*
X1025924Y-6711D01*
X1025945Y-6520D01*
X1025943Y-6339D01*
X1025918Y-6166D01*
X1025870Y-6004D01*
X1025799Y-5851D01*
X1025705Y-5707D01*
X1029167Y-6225D01*
D02*
G37*
G36*
X908942Y-2450D02*
X908562Y-2467D01*
X908195Y-2517D01*
X907843Y-2600D01*
X907506Y-2717D01*
X907183Y-2867D01*
X906875Y-3050D01*
X906581Y-3267D01*
X906301Y-3517D01*
X906036Y-3801D01*
X905785Y-4118D01*
X904731Y-337D01*
X908942Y50D01*
Y-2450D01*
D02*
G37*
G36*
X1004147Y2795D02*
X1004204Y2703D01*
X1004277Y2611D01*
X1004367Y2519D01*
X1004474Y2427D01*
X1004597Y2335D01*
X1004738Y2243D01*
X1005068Y2058D01*
X1005259Y1965D01*
X1001957Y804D01*
X1002039Y980D01*
X1002165Y1311D01*
X1002209Y1467D01*
X1002240Y1615D01*
X1002259Y1757D01*
X1002266Y1892D01*
X1002259Y2021D01*
X1002240Y2142D01*
X1002209Y2257D01*
X1004107Y2886D01*
X1004147Y2795D01*
D02*
G37*
G36*
X922205Y9761D02*
X922271Y9603D01*
X922359Y9458D01*
X922471Y9327D01*
X922605Y9209D01*
X922762Y9105D01*
X922942Y9015D01*
X923144Y8938D01*
X923370Y8874D01*
X923618Y8825D01*
X922086Y6628D01*
X921789Y6720D01*
X920505Y7039D01*
X920374Y7053D01*
X920266Y7056D01*
X920182Y7047D01*
X922162Y9933D01*
X922205Y9761D01*
D02*
G37*
G36*
X983492Y16390D02*
X985788Y15839D01*
X986755Y15763D01*
X986837Y15729D01*
X988142Y15557D01*
X991836D01*
X992116Y15057D01*
X991094Y13389D01*
X990190Y11208D01*
X989639Y8912D01*
X989482Y6914D01*
X988965Y6724D01*
X983873Y11816D01*
X983519Y12169D01*
X983207Y12540D01*
X982998Y12811D01*
X982681Y13578D01*
X982584Y14315D01*
X982595Y14400D01*
Y16312D01*
X983011Y16590D01*
X983492Y16390D01*
D02*
G37*
G36*
X1011038Y6307D02*
X1011201Y6180D01*
X1011375Y6067D01*
X1011559Y5970D01*
X1011754Y5887D01*
X1011960Y5820D01*
X1012177Y5768D01*
X1012404Y5730D01*
X1012642Y5708D01*
X1012891Y5700D01*
Y3700D01*
X1012642Y3692D01*
X1012404Y3670D01*
X1012177Y3633D01*
X1011960Y3580D01*
X1011754Y3512D01*
X1011559Y3430D01*
X1011375Y3333D01*
X1011201Y3220D01*
X1011038Y3093D01*
X1010885Y2950D01*
Y6450D01*
X1011038Y6307D01*
D02*
G37*
G36*
X969650Y3461D02*
X969654Y3191D01*
X969714Y2487D01*
X969750Y2288D01*
X969795Y2107D01*
X969847Y1944D01*
X969907Y1799D01*
X969975Y1672D01*
X970052Y1562D01*
X966577Y1983D01*
X966686Y2080D01*
X966783Y2197D01*
X966869Y2332D01*
X966944Y2487D01*
X967007Y2660D01*
X967058Y2853D01*
X967098Y3064D01*
X967127Y3295D01*
X967144Y3544D01*
X967150Y3813D01*
X969650Y3461D01*
D02*
G37*
G36*
X1068355Y3196D02*
X1068395Y2712D01*
X1068430Y2497D01*
X1068475Y2300D01*
X1068530Y2121D01*
X1068595Y1960D01*
X1068670Y1817D01*
X1068755Y1692D01*
X1068850Y1585D01*
X1065350D01*
X1065445Y1692D01*
X1065530Y1817D01*
X1065605Y1960D01*
X1065670Y2121D01*
X1065725Y2300D01*
X1065770Y2497D01*
X1065805Y2712D01*
X1065830Y2945D01*
X1065850Y3465D01*
X1068350D01*
X1068355Y3196D01*
D02*
G37*
G36*
X288039Y34725D02*
X288031Y34682D01*
X288023Y34613D01*
X288011Y34396D01*
X287998Y33394D01*
X285498D01*
X285448Y34742D01*
X288049D01*
X288039Y34725D01*
D02*
G37*
G36*
X53615Y50888D02*
X53702Y50868D01*
X53832Y50850D01*
X54218Y50822D01*
X55926Y50792D01*
Y45792D01*
X53571Y45674D01*
Y50910D01*
X53615Y50888D01*
D02*
G37*
G36*
X1024955Y-211992D02*
X1024870Y-212117D01*
X1024795Y-212260D01*
X1024730Y-212421D01*
X1024675Y-212600D01*
X1024630Y-212797D01*
X1024595Y-213012D01*
X1024570Y-213245D01*
X1024550Y-213765D01*
X1022050D01*
X1022045Y-213496D01*
X1022005Y-213012D01*
X1021970Y-212797D01*
X1021925Y-212600D01*
X1021870Y-212421D01*
X1021805Y-212260D01*
X1021730Y-212117D01*
X1021645Y-211992D01*
X1021550Y-211885D01*
X1025050D01*
X1024955Y-211992D01*
D02*
G37*
G36*
X1706787Y50845D02*
X1706873Y50824D01*
X1707003Y50807D01*
X1707389Y50778D01*
X1709097Y50749D01*
Y45749D01*
X1706742Y45631D01*
Y50867D01*
X1706787Y50845D01*
D02*
G37*
G36*
X1234346D02*
X1234432Y50824D01*
X1234562Y50807D01*
X1234948Y50778D01*
X1236656Y50749D01*
Y45749D01*
X1234301Y45631D01*
Y50867D01*
X1234346Y50845D01*
D02*
G37*
G36*
X1470566D02*
X1470653Y50824D01*
X1470782Y50807D01*
X1471168Y50778D01*
X1472877Y50749D01*
Y45749D01*
X1470522Y45631D01*
Y50867D01*
X1470566Y50845D01*
D02*
G37*
G36*
X972392Y-217345D02*
X972517Y-217430D01*
X972660Y-217505D01*
X972821Y-217570D01*
X973000Y-217625D01*
X973197Y-217670D01*
X973412Y-217705D01*
X973645Y-217730D01*
X974165Y-217750D01*
Y-220250D01*
X973896Y-220255D01*
X973412Y-220295D01*
X973197Y-220330D01*
X973000Y-220375D01*
X972821Y-220430D01*
X972660Y-220495D01*
X972517Y-220570D01*
X972392Y-220655D01*
X972285Y-220750D01*
Y-217250D01*
X972392Y-217345D01*
D02*
G37*
G36*
X972292Y-228388D02*
X972148Y-228291D01*
X971966Y-228192D01*
X971746Y-228090D01*
X971193Y-227881D01*
X970489Y-227664D01*
X969149Y-227321D01*
X969204Y-224710D01*
X969572Y-224784D01*
X969939Y-224835D01*
X970304Y-224864D01*
X970668Y-224868D01*
X971030Y-224850D01*
X971391Y-224808D01*
X971749Y-224743D01*
X972106Y-224655D01*
X972462Y-224543D01*
X972816Y-224409D01*
X972292Y-228388D01*
D02*
G37*
G36*
X895482Y-215524D02*
X896908Y-217150D01*
X896910Y-217147D01*
X902953Y-223189D01*
X902950Y-223192D01*
X904012Y-224124D01*
X904067Y-224193D01*
X904215Y-224302D01*
X904576Y-224618D01*
X906044Y-225599D01*
X908731Y-227413D01*
X909176Y-227744D01*
X909610Y-228273D01*
X909349Y-228724D01*
X908772Y-228586D01*
X906600Y-228415D01*
X904428Y-228586D01*
X902309Y-229094D01*
X900296Y-229928D01*
X898438Y-231066D01*
X896782Y-232482D01*
X895366Y-234138D01*
X895181Y-234441D01*
X894700Y-234305D01*
Y-215215D01*
X895179Y-215070D01*
X895482Y-215524D01*
D02*
G37*
G36*
X1924322Y50035D02*
X1922740Y48286D01*
X1919037Y51989D01*
X1919085Y52004D01*
X1919160Y52052D01*
X1919264Y52130D01*
X1919557Y52383D01*
X1920786Y53570D01*
X1924322Y50035D01*
D02*
G37*
G36*
X909973Y-217201D02*
X911054Y-217760D01*
X911501Y-217920D01*
X911885Y-218002D01*
X912207Y-218004D01*
X912467Y-217927D01*
X912664Y-217770D01*
X912799Y-217535D01*
X912871Y-217220D01*
X911984Y-224854D01*
X911896Y-224757D01*
X911713Y-224603D01*
X911066Y-224121D01*
X906864Y-221286D01*
X909339Y-216803D01*
X909973Y-217201D01*
D02*
G37*
G36*
X995388Y51989D02*
X991685Y48286D01*
X991670Y48333D01*
X991623Y48409D01*
X991544Y48513D01*
X991291Y48806D01*
X990104Y50035D01*
X993639Y53570D01*
X995388Y51989D01*
D02*
G37*
G36*
X1040013Y-191757D02*
X1040088Y-191798D01*
X1040213Y-191833D01*
X1040388Y-191864D01*
X1040613Y-191891D01*
X1041213Y-191929D01*
X1042488Y-191950D01*
Y-194450D01*
X1042013Y-194452D01*
X1040213Y-194567D01*
X1040088Y-194602D01*
X1040013Y-194643D01*
X1039988Y-194688D01*
Y-191712D01*
X1040013Y-191757D01*
D02*
G37*
G36*
X1061988Y-194688D02*
X1061947Y-194711D01*
X1061936Y-194779D01*
X1061956Y-194893D01*
X1062007Y-195053D01*
X1062088Y-195258D01*
X1062204Y-195510D01*
X1062391Y-195479D01*
X1062528Y-195754D01*
X1063188Y-196897D01*
X1063271Y-197002D01*
X1063347Y-197083D01*
X1063416Y-197139D01*
X1059968Y-197743D01*
X1060060Y-197594D01*
X1060127Y-197437D01*
X1060170Y-197273D01*
X1060187Y-197101D01*
X1060179Y-196922D01*
X1060158Y-196797D01*
X1060148Y-196780D01*
X1059581Y-195950D01*
X1059297Y-195613D01*
X1059013Y-195327D01*
X1058728Y-195093D01*
X1058444Y-194911D01*
X1058159Y-194781D01*
X1057874Y-194703D01*
X1057588Y-194676D01*
X1061988Y-194688D01*
D02*
G37*
G36*
X1028555Y38708D02*
X1028470Y38583D01*
X1028395Y38440D01*
X1028330Y38279D01*
X1028275Y38100D01*
X1028230Y37903D01*
X1028195Y37688D01*
X1028170Y37455D01*
X1028150Y36935D01*
X1025650D01*
X1025645Y37204D01*
X1025605Y37688D01*
X1025570Y37903D01*
X1025525Y38100D01*
X1025470Y38279D01*
X1025405Y38440D01*
X1025330Y38583D01*
X1025245Y38708D01*
X1025150Y38815D01*
X1028650D01*
X1028555Y38708D01*
D02*
G37*
G36*
X526620Y37344D02*
X526626Y37132D01*
X526664Y36913D01*
X526731Y36689D01*
X526829Y36458D01*
X526957Y36222D01*
X527115Y35979D01*
X527304Y35730D01*
X527523Y35474D01*
X527773Y35213D01*
X526005Y33445D01*
X525743Y33694D01*
X525488Y33913D01*
X525239Y34102D01*
X524996Y34261D01*
X524759Y34389D01*
X524529Y34486D01*
X524304Y34554D01*
X524086Y34591D01*
X523874Y34598D01*
X523668Y34574D01*
X526643Y37550D01*
X526620Y37344D01*
D02*
G37*
G36*
X762133Y40607D02*
X762413Y40374D01*
X762702Y40169D01*
X763000Y39991D01*
X763305Y39841D01*
X763619Y39718D01*
X763941Y39622D01*
X764272Y39553D01*
X764611Y39513D01*
X764958Y39499D01*
Y36999D01*
X764611Y36985D01*
X764272Y36944D01*
X763941Y36876D01*
X763619Y36780D01*
X763305Y36657D01*
X763000Y36506D01*
X762702Y36328D01*
X762413Y36123D01*
X762133Y35891D01*
X761860Y35631D01*
Y40867D01*
X762133Y40607D01*
D02*
G37*
G36*
X1056012Y-209688D02*
X1055987Y-209643D01*
X1055912Y-209602D01*
X1055787Y-209567D01*
X1055612Y-209536D01*
X1055387Y-209509D01*
X1054787Y-209471D01*
X1053512Y-209450D01*
Y-206950D01*
X1053987Y-206948D01*
X1055787Y-206833D01*
X1055912Y-206798D01*
X1055987Y-206757D01*
X1056012Y-206712D01*
Y-209688D01*
D02*
G37*
G36*
X525684Y50845D02*
X525771Y50824D01*
X525900Y50807D01*
X526286Y50778D01*
X527995Y50749D01*
Y45749D01*
X525640Y45631D01*
Y50867D01*
X525684Y50845D01*
D02*
G37*
G36*
X761905D02*
X761991Y50824D01*
X762121Y50807D01*
X762507Y50778D01*
X764215Y50749D01*
Y45749D01*
X761860Y45631D01*
Y50867D01*
X761905Y50845D01*
D02*
G37*
G36*
X289464D02*
X289550Y50824D01*
X289680Y50807D01*
X290066Y50778D01*
X291774Y50749D01*
Y45749D01*
X289419Y45631D01*
Y50867D01*
X289464Y50845D01*
D02*
G37*
G36*
X1040013Y-206757D02*
X1040088Y-206798D01*
X1040213Y-206833D01*
X1040388Y-206864D01*
X1040613Y-206891D01*
X1041213Y-206929D01*
X1042488Y-206950D01*
Y-209450D01*
X1042013Y-209452D01*
X1040213Y-209567D01*
X1040088Y-209602D01*
X1040013Y-209643D01*
X1039988Y-209688D01*
Y-206712D01*
X1040013Y-206757D01*
D02*
G37*
G36*
X1061988Y-209688D02*
X1061859Y-209709D01*
X1061753Y-209773D01*
X1061671Y-209880D01*
X1061612Y-210029D01*
X1061577Y-210221D01*
X1061565Y-210456D01*
X1061576Y-210733D01*
X1061611Y-211053D01*
X1061750Y-211821D01*
X1059250D01*
X1059151Y-211414D01*
X1059042Y-211050D01*
X1058923Y-210728D01*
X1058794Y-210450D01*
X1058654Y-210214D01*
X1058504Y-210021D01*
X1058343Y-209870D01*
X1058172Y-209763D01*
X1057991Y-209698D01*
X1057800Y-209676D01*
X1061988Y-209688D01*
D02*
G37*
G36*
X1035299Y-95649D02*
X1035359Y-95875D01*
X1035433Y-96079D01*
X1035521Y-96259D01*
X1035623Y-96417D01*
X1035739Y-96552D01*
X1035869Y-96664D01*
X1036013Y-96754D01*
X1036171Y-96820D01*
X1036344Y-96864D01*
X1033449Y-98832D01*
X1033458Y-98750D01*
X1033455Y-98643D01*
X1033442Y-98513D01*
X1033418Y-98359D01*
X1033337Y-97978D01*
X1033133Y-97225D01*
X1033043Y-96926D01*
X1035254Y-95400D01*
X1035299Y-95649D01*
D02*
G37*
G36*
X1069000Y-64940D02*
X1070157D01*
Y-93674D01*
X1070175Y-93810D01*
X1070023Y-94966D01*
X1069891Y-95284D01*
X1069626Y-95310D01*
X1068400Y-95681D01*
X1067271Y-96285D01*
X1066282Y-97097D01*
X1065795Y-97690D01*
X1065295Y-97511D01*
Y-66496D01*
X1065331Y-66453D01*
X1065934Y-65324D01*
X1066051Y-64940D01*
X1068000D01*
Y-60200D01*
X1069000D01*
Y-64940D01*
D02*
G37*
G36*
X1074254Y-99920D02*
X1074104Y-100145D01*
X1073847Y-100580D01*
X1073739Y-100789D01*
X1073566Y-101193D01*
X1073501Y-101388D01*
X1073450Y-101576D01*
X1073413Y-101760D01*
X1073390Y-101939D01*
X1071173Y-99231D01*
X1071392Y-99243D01*
X1071601Y-99232D01*
X1071801Y-99197D01*
X1071991Y-99138D01*
X1072172Y-99055D01*
X1072343Y-98948D01*
X1072504Y-98817D01*
X1072656Y-98663D01*
X1072798Y-98484D01*
X1072931Y-98282D01*
X1074254Y-99920D01*
D02*
G37*
G36*
X909655Y-107449D02*
X909695Y-107933D01*
X909730Y-108148D01*
X909775Y-108345D01*
X909830Y-108524D01*
X909895Y-108685D01*
X909970Y-108828D01*
X910055Y-108953D01*
X910150Y-109060D01*
X906650D01*
X906745Y-108953D01*
X906830Y-108828D01*
X906905Y-108685D01*
X906970Y-108524D01*
X907025Y-108345D01*
X907070Y-108148D01*
X907105Y-107933D01*
X907130Y-107700D01*
X907150Y-107180D01*
X909650D01*
X909655Y-107449D01*
D02*
G37*
G36*
X1043400Y-83865D02*
X1046091D01*
X1046427Y-84235D01*
X1046369Y-84824D01*
X1046494Y-86099D01*
X1046866Y-87324D01*
X1047469Y-88453D01*
X1047705Y-88740D01*
Y-158058D01*
X1047703D01*
X1047891Y-160451D01*
X1048360Y-162405D01*
X1047968Y-162905D01*
X1044000D01*
Y-162700D01*
X1040208D01*
X1040063Y-162678D01*
X1040025Y-162682D01*
X1039988Y-162678D01*
X1039817Y-162700D01*
X1033999D01*
Y-121458D01*
X1034019Y-120816D01*
X1034028Y-120711D01*
X1034034Y-120700D01*
X1034406Y-119474D01*
X1034531Y-118200D01*
X1034406Y-116926D01*
X1034034Y-115700D01*
X1033431Y-114571D01*
X1033295Y-114406D01*
Y-105849D01*
X1033795Y-105478D01*
X1034626Y-105730D01*
X1035900Y-105856D01*
X1037174Y-105730D01*
X1038400Y-105359D01*
X1039529Y-104755D01*
X1040518Y-103943D01*
X1041331Y-102953D01*
X1041934Y-101824D01*
X1042306Y-100599D01*
X1042432Y-99324D01*
X1042306Y-98050D01*
X1041934Y-96825D01*
X1041331Y-95696D01*
X1040518Y-94706D01*
X1039529Y-93894D01*
X1039240Y-93739D01*
Y-83865D01*
X1042400D01*
Y-79100D01*
X1043400D01*
Y-83865D01*
D02*
G37*
G36*
X988834Y-164143D02*
X989905Y-164715D01*
X991067Y-165068D01*
X992276Y-165187D01*
X995819D01*
X997028Y-165068D01*
X997136Y-165035D01*
X997435Y-165466D01*
X997190Y-165786D01*
X997153Y-165817D01*
X996221Y-166749D01*
X996197Y-166777D01*
X995574Y-167255D01*
X994815Y-167570D01*
X994036Y-167672D01*
X994000Y-167669D01*
X992726Y-167794D01*
X991500Y-168166D01*
X990371Y-168769D01*
X989382Y-169582D01*
X988569Y-170571D01*
X988214Y-171236D01*
X987554Y-171416D01*
X987495Y-171381D01*
Y-163604D01*
X987995Y-163454D01*
X988834Y-164143D01*
D02*
G37*
G36*
X972821Y-165164D02*
X973001Y-165180D01*
X973190Y-165173D01*
X973378Y-165198D01*
X973464Y-165187D01*
X976905D01*
Y-179046D01*
X976405Y-179410D01*
X975289Y-179072D01*
X973771Y-178922D01*
X972254Y-179072D01*
X970795Y-179514D01*
X969450Y-180233D01*
X968272Y-181200D01*
X967305Y-182379D01*
X966586Y-183724D01*
X966143Y-185183D01*
X965994Y-186700D01*
X966143Y-188217D01*
X966586Y-189676D01*
X967305Y-191021D01*
X967862Y-191700D01*
X967305Y-192379D01*
X966586Y-193724D01*
X966143Y-195183D01*
X965994Y-196700D01*
X966143Y-198217D01*
X966586Y-199676D01*
X967305Y-201021D01*
X968272Y-202200D01*
X969450Y-203167D01*
X970795Y-203886D01*
X972254Y-204328D01*
X973771Y-204478D01*
X975289Y-204328D01*
X976505Y-203959D01*
X976956Y-204228D01*
X977007Y-204314D01*
X977191Y-206651D01*
X977752Y-208985D01*
X978670Y-211203D01*
X979897Y-213205D01*
X979831Y-213456D01*
X979716Y-213705D01*
X974294D01*
X974129Y-213569D01*
X972999Y-212966D01*
X971774Y-212594D01*
X970500Y-212469D01*
X969226Y-212594D01*
X968001Y-212966D01*
X966871Y-213569D01*
X965882Y-214382D01*
X965398Y-214971D01*
X964821Y-214885D01*
X964821Y-214885D01*
X964677Y-213794D01*
X964695Y-213658D01*
Y-171678D01*
X965066Y-171343D01*
X965200Y-171356D01*
X966474Y-171230D01*
X967700Y-170859D01*
X968829Y-170255D01*
X969818Y-169443D01*
X970631Y-168453D01*
X971234Y-167324D01*
X971606Y-166099D01*
X971627Y-165886D01*
X971867Y-165647D01*
X971949Y-165539D01*
X972219Y-165332D01*
X972287Y-165300D01*
X972418Y-165247D01*
X972528Y-165210D01*
X972618Y-165186D01*
X972689Y-165172D01*
X972744Y-165165D01*
X972787Y-165163D01*
X972821Y-165164D01*
D02*
G37*
G36*
X1061989Y-181724D02*
X1062026Y-181725D01*
X1062068Y-181729D01*
X1062101Y-181736D01*
X1062127Y-181744D01*
X1062145Y-181756D01*
X1062155Y-181770D01*
X1062157Y-181787D01*
X1062151Y-181806D01*
X1062138Y-181827D01*
X1062116Y-181852D01*
X1061989Y-181724D01*
X1061977Y-181724D01*
X1059000D01*
X1058961Y-181708D01*
X1058960Y-181658D01*
X1058999Y-181576D01*
X1059076Y-181462D01*
X1059191Y-181314D01*
X1059538Y-180920D01*
X1060348Y-180084D01*
X1061989Y-181724D01*
D02*
G37*
G36*
X1029655Y-82092D02*
X1029570Y-82217D01*
X1029495Y-82360D01*
X1029430Y-82521D01*
X1029375Y-82700D01*
X1029330Y-82897D01*
X1029295Y-83112D01*
X1029270Y-83345D01*
X1029250Y-83865D01*
X1026750D01*
X1026745Y-83596D01*
X1026705Y-83112D01*
X1026670Y-82897D01*
X1026625Y-82700D01*
X1026570Y-82521D01*
X1026505Y-82360D01*
X1026430Y-82217D01*
X1026345Y-82092D01*
X1026250Y-81985D01*
X1029750D01*
X1029655Y-82092D01*
D02*
G37*
G36*
X1040013Y-166757D02*
X1040088Y-166798D01*
X1040213Y-166833D01*
X1040388Y-166864D01*
X1040613Y-166891D01*
X1041213Y-166929D01*
X1042488Y-166950D01*
Y-169450D01*
X1042013Y-169452D01*
X1040213Y-169567D01*
X1040088Y-169602D01*
X1040013Y-169643D01*
X1039988Y-169688D01*
Y-166712D01*
X1040013Y-166757D01*
D02*
G37*
G36*
X1054250Y-81220D02*
X1054255Y-81489D01*
X1054292Y-81975D01*
X1054325Y-82190D01*
X1054368Y-82388D01*
X1054419Y-82568D01*
X1054480Y-82731D01*
X1054551Y-82875D01*
X1054631Y-83002D01*
X1054720Y-83110D01*
X1053040Y-84824D01*
X1054720Y-86538D01*
X1054631Y-86647D01*
X1054551Y-86774D01*
X1054480Y-86918D01*
X1054419Y-87080D01*
X1054368Y-87260D01*
X1054325Y-87458D01*
X1054292Y-87674D01*
X1054255Y-88159D01*
X1054250Y-88428D01*
X1051750Y-88544D01*
X1051729Y-88025D01*
X1051702Y-87793D01*
X1051666Y-87579D01*
X1051618Y-87383D01*
X1051560Y-87206D01*
X1051492Y-87046D01*
X1051413Y-86906D01*
X1051323Y-86783D01*
X1051223Y-86678D01*
X1053040Y-84824D01*
X1051223Y-82970D01*
X1051323Y-82866D01*
X1051413Y-82743D01*
X1051492Y-82602D01*
X1051560Y-82443D01*
X1051618Y-82266D01*
X1051666Y-82070D01*
X1051702Y-81856D01*
X1051729Y-81624D01*
X1051750Y-81105D01*
X1054250Y-81220D01*
D02*
G37*
G36*
X1063327Y-150515D02*
X1063436Y-150599D01*
X1064106Y-151472D01*
X1064579Y-152615D01*
X1064723Y-153706D01*
X1064705Y-153842D01*
Y-157657D01*
X1064253Y-157871D01*
X1064129Y-157769D01*
X1063000Y-157166D01*
X1061774Y-156794D01*
X1060500Y-156669D01*
X1059226Y-156794D01*
X1058697Y-156955D01*
X1058295Y-156657D01*
Y-146137D01*
X1058757Y-145946D01*
X1063327Y-150515D01*
D02*
G37*
G36*
X972816Y-154396D02*
X972449Y-154255D01*
X972082Y-154137D01*
X971716Y-154041D01*
X971351Y-153967D01*
X970987Y-153916D01*
X970623Y-153888D01*
X970260Y-153882D01*
X969898Y-153898D01*
X969536Y-153937D01*
X969175Y-153998D01*
X969149Y-151401D01*
X969634Y-151300D01*
X971491Y-150803D01*
X971748Y-150706D01*
X971968Y-150609D01*
X972149Y-150513D01*
X972292Y-150417D01*
X972816Y-154396D01*
D02*
G37*
G36*
X973378Y-161163D02*
X973049Y-161133D01*
X972717Y-161126D01*
X972383Y-161144D01*
X972046Y-161187D01*
X971706Y-161254D01*
X971364Y-161345D01*
X971019Y-161461D01*
X970671Y-161601D01*
X970321Y-161766D01*
X969968Y-161955D01*
X969049Y-159551D01*
X969490Y-159298D01*
X971355Y-158077D01*
X971448Y-157981D01*
X971497Y-157905D01*
X973378Y-161163D01*
D02*
G37*
G36*
X1061669Y-164984D02*
X1061576Y-165667D01*
X1061565Y-165944D01*
X1061577Y-166179D01*
X1061612Y-166371D01*
X1061671Y-166520D01*
X1061753Y-166627D01*
X1061859Y-166691D01*
X1061988Y-166712D01*
X1059970Y-166718D01*
X1060224Y-166769D01*
X1060462Y-166772D01*
X1060678Y-166724D01*
X1056024Y-168378D01*
X1056198Y-168289D01*
X1056312Y-168167D01*
X1056365Y-168013D01*
X1056358Y-167825D01*
X1056291Y-167605D01*
X1056162Y-167352D01*
X1056012Y-167124D01*
Y-169688D01*
X1055987Y-169643D01*
X1055912Y-169602D01*
X1055787Y-169567D01*
X1055612Y-169536D01*
X1055387Y-169509D01*
X1054787Y-169471D01*
X1053512Y-169450D01*
Y-166950D01*
X1053987Y-166948D01*
X1055787Y-166833D01*
X1055791Y-166832D01*
X1055725Y-166748D01*
X1055415Y-166397D01*
X1055045Y-166013D01*
X1057512Y-164944D01*
X1057930Y-165348D01*
X1058697Y-166005D01*
X1058742Y-166037D01*
X1058794Y-165950D01*
X1058923Y-165672D01*
X1059042Y-165350D01*
X1059151Y-164986D01*
X1059250Y-164579D01*
X1061750D01*
X1061669Y-164984D01*
D02*
G37*
G36*
X968676Y-163117D02*
X968489Y-163310D01*
X968175Y-163681D01*
X968048Y-163857D01*
X967940Y-164029D01*
X967853Y-164194D01*
X967785Y-164354D01*
X967737Y-164508D01*
X967708Y-164656D01*
X967700Y-164799D01*
X965225Y-162325D01*
X965368Y-162316D01*
X965516Y-162288D01*
X965670Y-162240D01*
X965830Y-162172D01*
X965996Y-162084D01*
X966167Y-161977D01*
X966344Y-161849D01*
X966526Y-161702D01*
X966908Y-161349D01*
X968676Y-163117D01*
D02*
G37*
G36*
X901135Y-143950D02*
X901241Y-144906D01*
X901418Y-145833D01*
X901666Y-146730D01*
X901984Y-147598D01*
X902373Y-148437D01*
X902832Y-149247D01*
X903363Y-150027D01*
X903964Y-150778D01*
X904636Y-151500D01*
X898600Y-149000D01*
X896100D01*
X901100Y-142964D01*
X901135Y-143950D01*
D02*
G37*
G36*
X974486Y-114911D02*
X974856Y-115225D01*
X975033Y-115352D01*
X975204Y-115460D01*
X975370Y-115547D01*
X975529Y-115615D01*
X975684Y-115663D01*
X975832Y-115692D01*
X975975Y-115700D01*
X973500Y-118175D01*
X973492Y-118032D01*
X973463Y-117884D01*
X973415Y-117729D01*
X973347Y-117570D01*
X973260Y-117404D01*
X973152Y-117233D01*
X973025Y-117056D01*
X972878Y-116874D01*
X972525Y-116492D01*
X974292Y-114725D01*
X974486Y-114911D01*
D02*
G37*
G36*
X1029255Y-114804D02*
X1029295Y-115288D01*
X1029330Y-115503D01*
X1029375Y-115700D01*
X1029430Y-115879D01*
X1029495Y-116040D01*
X1029570Y-116183D01*
X1029655Y-116308D01*
X1029750Y-116415D01*
X1026250D01*
X1026345Y-116308D01*
X1026430Y-116183D01*
X1026505Y-116040D01*
X1026570Y-115879D01*
X1026625Y-115700D01*
X1026670Y-115503D01*
X1026705Y-115288D01*
X1026730Y-115055D01*
X1026750Y-114535D01*
X1029250D01*
X1029255Y-114804D01*
D02*
G37*
G36*
X1030138Y-119521D02*
X1030099Y-119659D01*
X1030065Y-119833D01*
X1030035Y-120045D01*
X1029990Y-120581D01*
X1029956Y-121664D01*
X1029953Y-122099D01*
X1027453Y-122140D01*
X1027447Y-121871D01*
X1027428Y-121623D01*
X1027397Y-121397D01*
X1027353Y-121191D01*
X1027296Y-121007D01*
X1027226Y-120844D01*
X1027145Y-120703D01*
X1027050Y-120583D01*
X1026943Y-120484D01*
X1026823Y-120406D01*
X1030182Y-119421D01*
X1030138Y-119521D01*
D02*
G37*
G36*
X991190Y-147486D02*
X991010Y-147367D01*
X990800Y-147259D01*
X990559Y-147165D01*
X990288Y-147083D01*
X989986Y-147013D01*
X989654Y-146956D01*
X988898Y-146881D01*
X988475Y-146862D01*
X988021Y-146855D01*
Y-144355D01*
X988475Y-144349D01*
X989654Y-144255D01*
X989986Y-144198D01*
X990288Y-144128D01*
X990559Y-144046D01*
X990800Y-143951D01*
X991010Y-143844D01*
X991190Y-143724D01*
Y-147486D01*
D02*
G37*
G36*
X1015705Y-141649D02*
Y-169058D01*
X1015723Y-169194D01*
X1015579Y-170285D01*
X1015106Y-171428D01*
X1014436Y-172301D01*
X1014327Y-172385D01*
X1008148Y-178564D01*
X1008116Y-178605D01*
X1006743Y-180212D01*
X1005612Y-182059D01*
X1005307Y-182796D01*
X1005187Y-182996D01*
X1004992Y-183447D01*
X1004922Y-183590D01*
X1004782Y-183706D01*
X1003969Y-184696D01*
X1003366Y-185825D01*
X1002994Y-187050D01*
X1002868Y-188324D01*
X1002994Y-189599D01*
X1003366Y-190824D01*
X1003969Y-191953D01*
X1004782Y-192943D01*
X1005771Y-193755D01*
X1006901Y-194359D01*
X1008126Y-194730D01*
X1009400Y-194856D01*
X1010674Y-194730D01*
X1011899Y-194359D01*
X1012900Y-193824D01*
X1013900Y-194359D01*
X1015126Y-194730D01*
X1016400Y-194856D01*
X1017674Y-194730D01*
X1018900Y-194359D01*
X1020029Y-193755D01*
X1020194Y-193620D01*
X1030000D01*
Y-195909D01*
X1029435Y-196143D01*
X1028704Y-196704D01*
X1028143Y-197435D01*
X1027790Y-198286D01*
X1027736Y-198700D01*
X1030000D01*
Y-198700D01*
X1031200D01*
Y-199700D01*
X1027736D01*
X1027790Y-200114D01*
X1028143Y-200965D01*
X1028704Y-201696D01*
X1029435Y-202257D01*
X1029648Y-202346D01*
X1030000Y-202700D01*
Y-208073D01*
X1029500Y-208147D01*
X1029334Y-207600D01*
X1028731Y-206471D01*
X1027918Y-205482D01*
X1026929Y-204669D01*
X1025799Y-204066D01*
X1024574Y-203694D01*
X1023300Y-203569D01*
X1022026Y-203694D01*
X1020800Y-204066D01*
X1019671Y-204669D01*
X1018682Y-205482D01*
X1017869Y-206471D01*
X1017266Y-207600D01*
X1016894Y-208826D01*
X1016768Y-210100D01*
X1016894Y-211374D01*
X1017266Y-212599D01*
X1017869Y-213729D01*
X1018005Y-213894D01*
Y-235558D01*
X1018023Y-235694D01*
X1017879Y-236785D01*
X1017406Y-237928D01*
X1016736Y-238801D01*
X1016627Y-238885D01*
X1015507Y-240005D01*
X1011187D01*
X1011062Y-239505D01*
X1011529Y-239255D01*
X1012518Y-238443D01*
X1013331Y-237453D01*
X1013934Y-236324D01*
X1014306Y-235099D01*
X1014431Y-233824D01*
X1014306Y-232550D01*
X1013934Y-231325D01*
X1013331Y-230196D01*
X1012518Y-229206D01*
X1012526Y-229199D01*
X1011211Y-228120D01*
X1009712Y-227319D01*
X1008085Y-226825D01*
X1006393Y-226658D01*
Y-226669D01*
X1002161D01*
X1002014Y-226507D01*
X1001895Y-225298D01*
X1001543Y-224136D01*
X1000970Y-223065D01*
X1000200Y-222126D01*
X999261Y-221356D01*
X998992Y-221212D01*
X998596Y-219563D01*
X997677Y-217345D01*
X996423Y-215298D01*
X994864Y-213473D01*
X994863Y-213474D01*
X988973Y-207585D01*
X988864Y-207501D01*
X988194Y-206628D01*
X987721Y-205485D01*
X987577Y-204394D01*
X987595Y-204258D01*
Y-199274D01*
X988095Y-199200D01*
X988240Y-199676D01*
X988959Y-201021D01*
X989926Y-202200D01*
X991104Y-203167D01*
X992449Y-203886D01*
X993908Y-204328D01*
X995425Y-204478D01*
X996943Y-204328D01*
X998402Y-203886D01*
X999746Y-203167D01*
X1000925Y-202200D01*
X1001892Y-201021D01*
X1002611Y-199676D01*
X1003054Y-198217D01*
X1003203Y-196700D01*
X1003054Y-195183D01*
X1002611Y-193724D01*
X1001892Y-192379D01*
X1000925Y-191200D01*
X999746Y-190233D01*
X999337Y-190015D01*
X999232Y-189526D01*
X999566Y-189091D01*
X1000044Y-187937D01*
X1000141Y-187200D01*
X995425D01*
X990710D01*
X990807Y-187937D01*
X991285Y-189091D01*
X991619Y-189526D01*
X991513Y-190015D01*
X991104Y-190233D01*
X989926Y-191200D01*
X988959Y-192379D01*
X988240Y-193724D01*
X987995Y-194530D01*
X987495Y-194456D01*
Y-177019D01*
X987554Y-176984D01*
X988214Y-177164D01*
X988569Y-177829D01*
X989382Y-178818D01*
X990371Y-179631D01*
X991500Y-180234D01*
X992726Y-180606D01*
X994000Y-180731D01*
Y-180735D01*
X996115Y-180596D01*
X998195Y-180183D01*
X1000202Y-179501D01*
X1002103Y-178563D01*
X1003866Y-177386D01*
X1005460Y-175988D01*
X1005457Y-175986D01*
X1006390Y-175054D01*
X1006392Y-175056D01*
X1007014Y-174348D01*
X1007067Y-174304D01*
X1007282Y-174041D01*
X1007493Y-173802D01*
X1007818Y-173430D01*
X1009020Y-171632D01*
X1009977Y-169692D01*
X1010672Y-167644D01*
X1011094Y-165522D01*
X1011235Y-163364D01*
X1011232D01*
Y-161759D01*
X1011235D01*
X1011094Y-159601D01*
X1010672Y-157480D01*
X1009977Y-155431D01*
X1009020Y-153491D01*
X1007818Y-151693D01*
X1007113Y-150889D01*
X1006782Y-150485D01*
X1006700Y-150418D01*
X1006392Y-150067D01*
X1006390Y-150070D01*
X1006390Y-150070D01*
X1005743Y-149423D01*
X1005392Y-149068D01*
X1005392Y-149068D01*
X1004047Y-147919D01*
X1002537Y-146994D01*
X1001903Y-146731D01*
X1002014Y-145605D01*
X1002114Y-145495D01*
X1004858D01*
Y-145497D01*
X1007251Y-145309D01*
X1009585Y-144748D01*
X1011803Y-143830D01*
X1013849Y-142576D01*
X1015205Y-141418D01*
X1015705Y-141649D01*
D02*
G37*
G36*
X1056012Y-184688D02*
X1055987Y-184643D01*
X1055912Y-184602D01*
X1055787Y-184567D01*
X1055612Y-184536D01*
X1055387Y-184510D01*
X1054787Y-184471D01*
X1053512Y-184450D01*
Y-181950D01*
X1053987Y-181948D01*
X1055787Y-181833D01*
X1055912Y-181798D01*
X1055987Y-181757D01*
X1056012Y-181712D01*
Y-184688D01*
D02*
G37*
G36*
X1065829Y-22818D02*
X1065557Y-22558D01*
X1065276Y-22326D01*
X1064987Y-22120D01*
X1064690Y-21942D01*
X1064384Y-21792D01*
X1064070Y-21669D01*
X1063748Y-21573D01*
X1063417Y-21505D01*
X1063078Y-21464D01*
X1062731Y-21450D01*
Y-18950D01*
X1063078Y-18936D01*
X1063417Y-18895D01*
X1063748Y-18827D01*
X1064070Y-18731D01*
X1064384Y-18608D01*
X1064690Y-18458D01*
X1064987Y-18280D01*
X1065276Y-18074D01*
X1065557Y-17842D01*
X1065829Y-17582D01*
Y-22818D01*
D02*
G37*
G36*
X1048781Y-17937D02*
X1048823Y-18150D01*
X1048925Y-18338D01*
X1049086Y-18500D01*
X1049308Y-18638D01*
X1049589Y-18750D01*
X1049930Y-18837D01*
X1050330Y-18900D01*
X1050790Y-18937D01*
X1051310Y-18950D01*
X1051247Y-21450D01*
X1050874Y-21461D01*
X1050509Y-21496D01*
X1050152Y-21553D01*
X1049803Y-21633D01*
X1049461Y-21736D01*
X1049128Y-21861D01*
X1048802Y-22010D01*
X1048485Y-22182D01*
X1048175Y-22376D01*
X1047873Y-22593D01*
X1048798Y-17700D01*
X1048781Y-17937D01*
D02*
G37*
G36*
X1029459Y-21469D02*
X1029433Y-21523D01*
X1028777Y-23089D01*
X1025882Y-23242D01*
X1026019Y-23019D01*
X1026128Y-22807D01*
X1026210Y-22607D01*
X1026264Y-22419D01*
X1026291Y-22241D01*
X1026290Y-22075D01*
X1026262Y-21921D01*
X1026206Y-21778D01*
X1026122Y-21646D01*
X1026011Y-21526D01*
X1029472Y-21447D01*
X1029459Y-21469D01*
D02*
G37*
G36*
X1066428Y-43314D02*
X1066105Y-43120D01*
X1065790Y-42972D01*
X1065482Y-42870D01*
X1065181Y-42814D01*
X1064887Y-42804D01*
X1064600Y-42840D01*
X1064321Y-42922D01*
X1064049Y-43051D01*
X1063783Y-43225D01*
X1063525Y-43445D01*
X1062867Y-40753D01*
X1063188Y-40517D01*
X1064047Y-39793D01*
X1064298Y-39547D01*
X1064746Y-39049D01*
X1064944Y-38797D01*
X1065287Y-38286D01*
X1066428Y-43314D01*
D02*
G37*
G36*
X1037802Y-32481D02*
X1037743Y-32270D01*
X1037637Y-32116D01*
X1037482Y-32017D01*
X1037279Y-31976D01*
X1037029Y-31991D01*
X1036730Y-32062D01*
X1036383Y-32190D01*
X1035989Y-32374D01*
X1035546Y-32615D01*
X1035055Y-32912D01*
X1034800Y-29877D01*
X1035255Y-29575D01*
X1036010Y-28987D01*
X1036310Y-28700D01*
X1036558Y-28419D01*
X1036754Y-28142D01*
X1036899Y-27871D01*
X1036992Y-27605D01*
X1037033Y-27344D01*
X1037022Y-27088D01*
X1037802Y-32481D01*
D02*
G37*
G36*
X938819Y-17662D02*
X938882Y-17763D01*
X938989Y-17886D01*
X939138Y-18031D01*
X939330Y-18198D01*
X939843Y-18598D01*
X940932Y-19365D01*
X939187Y-21155D01*
X939107Y-21105D01*
X939036Y-21067D01*
X938973Y-21043D01*
X938918Y-21031D01*
X938871Y-21032D01*
X938833Y-21046D01*
X938803Y-21073D01*
X938782Y-21113D01*
X938768Y-21165D01*
X938764Y-21231D01*
X938798Y-17583D01*
X938819Y-17662D01*
D02*
G37*
G36*
X981878Y-10813D02*
X982648Y-11141D01*
X982796Y-11187D01*
X982927Y-11219D01*
X983040Y-11236D01*
X983135Y-11239D01*
X983213Y-11228D01*
X981617Y-13944D01*
X981580Y-13835D01*
X981525Y-13727D01*
X981450Y-13619D01*
X981357Y-13511D01*
X981245Y-13404D01*
X981114Y-13297D01*
X980964Y-13189D01*
X980795Y-13082D01*
X980401Y-12869D01*
X981641Y-10695D01*
X981878Y-10813D01*
D02*
G37*
G36*
X927651Y-11592D02*
X927620Y-11356D01*
X927526Y-11145D01*
X927368Y-10958D01*
X927148Y-10797D01*
X926865Y-10660D01*
X926519Y-10549D01*
X926111Y-10462D01*
X925639Y-10400D01*
X925104Y-10362D01*
X924507Y-10350D01*
Y-7850D01*
X925104Y-7838D01*
X926111Y-7738D01*
X926519Y-7651D01*
X926865Y-7540D01*
X927148Y-7403D01*
X927368Y-7242D01*
X927526Y-7055D01*
X927620Y-6844D01*
X927651Y-6609D01*
Y-11592D01*
D02*
G37*
G36*
X1050642Y16905D02*
X1056540D01*
X1056958Y16405D01*
X1056868Y15500D01*
X1056994Y14226D01*
X1057366Y13001D01*
X1057969Y11871D01*
X1058782Y10882D01*
X1059771Y10069D01*
X1060900Y9466D01*
X1061658Y9236D01*
X1061679Y9185D01*
X1061823Y8094D01*
X1061805Y7958D01*
Y3594D01*
X1061669Y3429D01*
X1061066Y2300D01*
X1060694Y1074D01*
X1060569Y-200D01*
X1060694Y-1474D01*
X1061066Y-2699D01*
X1061669Y-3829D01*
X1062482Y-4818D01*
X1062734Y-5025D01*
X1062033Y-5879D01*
X1061314Y-7224D01*
X1060872Y-8683D01*
X1060722Y-10200D01*
X1060872Y-11717D01*
X1061314Y-13176D01*
X1061971Y-14405D01*
X1061773Y-14905D01*
X1052349D01*
X1051919Y-14100D01*
X1052385Y-13227D01*
X1052721Y-12121D01*
X1052834Y-10970D01*
Y-7230D01*
X1052721Y-6079D01*
X1052385Y-4973D01*
X1051840Y-3953D01*
X1051107Y-3059D01*
X1050213Y-2325D01*
X1049193Y-1781D01*
X1048087Y-1445D01*
X1046936Y-1331D01*
X1039240D01*
Y5503D01*
X1039222Y5639D01*
X1039366Y6730D01*
X1039839Y7873D01*
X1040509Y8746D01*
X1040618Y8830D01*
X1047315Y15527D01*
X1047399Y15636D01*
X1048272Y16305D01*
X1049415Y16779D01*
X1050506Y16923D01*
X1050642Y16905D01*
D02*
G37*
G36*
X944365Y-7095D02*
X945238Y-7764D01*
X945321Y-7873D01*
X957291Y-19843D01*
X957100Y-20305D01*
X949799D01*
X949663Y-20323D01*
X948572Y-20179D01*
X947429Y-19705D01*
X946556Y-19036D01*
X946472Y-18927D01*
X945285Y-17740D01*
X945285Y-17739D01*
X945285D01*
X944487Y-17127D01*
X944505Y-17100D01*
X943899Y-16636D01*
X943815Y-16527D01*
X943802Y-16517D01*
X943268Y-16079D01*
X943254Y-16065D01*
X943241Y-16056D01*
X942539Y-15480D01*
X942385Y-14973D01*
X941840Y-13953D01*
X941833Y-13943D01*
X942806Y-12970D01*
Y-6945D01*
X942990Y-6784D01*
X943306Y-6656D01*
X944365Y-7095D01*
D02*
G37*
G36*
X1072247Y-10679D02*
X1072277Y-11098D01*
X1072330Y-11494D01*
X1072406Y-11867D01*
X1072504Y-12218D01*
X1072626Y-12546D01*
X1072771Y-12850D01*
X1072938Y-13133D01*
X1073129Y-13392D01*
X1073342Y-13628D01*
X1071928Y-15042D01*
X1071692Y-14829D01*
X1071432Y-14638D01*
X1071150Y-14471D01*
X1070846Y-14326D01*
X1070518Y-14204D01*
X1070167Y-14106D01*
X1069794Y-14030D01*
X1069398Y-13977D01*
X1068979Y-13947D01*
X1068537Y-13940D01*
X1072240Y-10237D01*
X1072247Y-10679D01*
D02*
G37*
G36*
X1061250Y-59220D02*
X1061255Y-59490D01*
X1061292Y-59975D01*
X1061325Y-60190D01*
X1061368Y-60388D01*
X1061419Y-60568D01*
X1061480Y-60731D01*
X1061551Y-60875D01*
X1061631Y-61002D01*
X1061720Y-61110D01*
X1060040Y-62824D01*
X1061720Y-64538D01*
X1061631Y-64647D01*
X1061551Y-64774D01*
X1061480Y-64918D01*
X1061419Y-65080D01*
X1061368Y-65260D01*
X1061325Y-65458D01*
X1061292Y-65674D01*
X1061255Y-66159D01*
X1061250Y-66429D01*
X1058750Y-66544D01*
X1058729Y-66025D01*
X1058702Y-65793D01*
X1058666Y-65579D01*
X1058618Y-65383D01*
X1058560Y-65206D01*
X1058492Y-65047D01*
X1058413Y-64906D01*
X1058323Y-64783D01*
X1058223Y-64678D01*
X1060040Y-62824D01*
X1058223Y-60970D01*
X1058323Y-60866D01*
X1058413Y-60743D01*
X1058492Y-60602D01*
X1058560Y-60443D01*
X1058618Y-60265D01*
X1058666Y-60070D01*
X1058702Y-59856D01*
X1058729Y-59624D01*
X1058750Y-59105D01*
X1061250Y-59220D01*
D02*
G37*
G36*
X994742Y-57042D02*
X994811Y-57302D01*
X994926Y-57559D01*
X995086Y-57812D01*
X995293Y-58063D01*
X995545Y-58310D01*
X995843Y-58555D01*
X996187Y-58796D01*
X996577Y-59034D01*
X997012Y-59268D01*
X996968Y-60167D01*
X997528Y-59588D01*
X997773Y-59746D01*
X998606Y-60207D01*
X998777Y-60280D01*
X998934Y-60336D01*
X999075Y-60375D01*
X999202Y-60397D01*
X999314Y-60401D01*
X996900Y-62936D01*
X996887Y-62769D01*
X996850Y-62605D01*
X996792Y-62445D01*
X996710Y-62288D01*
X996607Y-62136D01*
X996521Y-62034D01*
X996460Y-62005D01*
X996094Y-61857D01*
X995772Y-61757D01*
X995493Y-61703D01*
X995256Y-61697D01*
X995063Y-61738D01*
X994913Y-61827D01*
X994805Y-61962D01*
X994741Y-62145D01*
X994719Y-62375D01*
Y-56779D01*
X994742Y-57042D01*
D02*
G37*
G36*
X971755Y-71304D02*
X971795Y-71788D01*
X971830Y-72003D01*
X971875Y-72200D01*
X971930Y-72379D01*
X971995Y-72540D01*
X972070Y-72683D01*
X972155Y-72808D01*
X972250Y-72915D01*
X968750D01*
X968845Y-72808D01*
X968930Y-72683D01*
X969005Y-72540D01*
X969070Y-72379D01*
X969125Y-72200D01*
X969170Y-72003D01*
X969205Y-71788D01*
X969230Y-71555D01*
X969250Y-71035D01*
X971750D01*
X971755Y-71304D01*
D02*
G37*
G36*
X1040013Y-181757D02*
X1040088Y-181798D01*
X1040213Y-181833D01*
X1040388Y-181864D01*
X1040613Y-181890D01*
X1041213Y-181929D01*
X1042488Y-181950D01*
Y-184450D01*
X1042013Y-184452D01*
X1040213Y-184567D01*
X1040088Y-184602D01*
X1040013Y-184643D01*
X1039988Y-184688D01*
Y-181712D01*
X1040013Y-181757D01*
D02*
G37*
G36*
X1033008Y-41388D02*
X1033080Y-42121D01*
X1033416Y-43227D01*
X1033882Y-44100D01*
X1033416Y-44973D01*
X1033080Y-46079D01*
X1032967Y-47230D01*
Y-50970D01*
X1033080Y-52121D01*
X1033416Y-53227D01*
X1033882Y-54100D01*
X1033416Y-54973D01*
X1033080Y-56079D01*
X1032967Y-57230D01*
Y-57338D01*
X1032688Y-57606D01*
X1032379Y-57871D01*
X1032280Y-57980D01*
X1031925Y-58283D01*
X1031927Y-58285D01*
X1031801Y-58448D01*
X1030795Y-59626D01*
X1029879Y-61121D01*
X1029208Y-62742D01*
X1028798Y-64447D01*
X1028677Y-65991D01*
X1028650Y-66196D01*
Y-73360D01*
X1028279Y-73696D01*
X1028000Y-73669D01*
X1026795Y-73787D01*
X1026580Y-73716D01*
X1026295Y-73505D01*
Y-49342D01*
X1026277Y-49206D01*
X1026421Y-48115D01*
X1026894Y-46972D01*
X1027564Y-46099D01*
X1027673Y-46015D01*
X1032487Y-41202D01*
X1033008Y-41388D01*
D02*
G37*
G36*
X945072Y-30149D02*
X947406Y-30709D01*
X949799Y-30897D01*
Y-30895D01*
X974922D01*
X975063Y-31395D01*
X973707Y-32227D01*
X972376Y-33364D01*
X972256Y-33456D01*
X943285Y-62427D01*
X943201Y-62536D01*
X943060Y-62644D01*
X942649Y-62359D01*
X942721Y-62121D01*
X942834Y-60970D01*
Y-57230D01*
X942721Y-56079D01*
X942385Y-54973D01*
X941919Y-54100D01*
X942385Y-53227D01*
X942721Y-52121D01*
X942834Y-50970D01*
Y-47230D01*
X942721Y-46079D01*
X942385Y-44973D01*
X941919Y-44100D01*
X942385Y-43227D01*
X942721Y-42121D01*
X942834Y-40970D01*
Y-37230D01*
X942721Y-36079D01*
X942385Y-34973D01*
X941919Y-34100D01*
X942385Y-33227D01*
X942721Y-32121D01*
X942834Y-30970D01*
Y-29763D01*
X943334Y-29429D01*
X945072Y-30149D01*
D02*
G37*
G36*
X1061971Y-25995D02*
X1061314Y-27224D01*
X1060872Y-28683D01*
X1060722Y-30200D01*
X1060872Y-31717D01*
X1061314Y-33176D01*
X1062033Y-34521D01*
X1062590Y-35200D01*
X1062033Y-35879D01*
X1061966Y-36005D01*
X1061935Y-36040D01*
X1061676Y-36426D01*
X1061657Y-36451D01*
X1061385Y-36753D01*
X1061332Y-36805D01*
X1060689Y-37347D01*
X1060510Y-37479D01*
X1060423Y-37532D01*
X1058825Y-38896D01*
X1058781Y-38930D01*
X1058753Y-38967D01*
X1057364Y-40593D01*
X1056224Y-42454D01*
X1055388Y-44471D01*
X1054878Y-46594D01*
X1054783Y-47804D01*
X1054265Y-48019D01*
X1053635Y-47481D01*
X1053422Y-47259D01*
X1053045Y-46957D01*
X1052802Y-46744D01*
X1052787Y-46729D01*
X1052787Y-46725D01*
X1052783Y-46710D01*
X1052721Y-46079D01*
X1052385Y-44973D01*
X1051919Y-44100D01*
X1052385Y-43227D01*
X1052721Y-42121D01*
X1052834Y-40970D01*
Y-37230D01*
X1052721Y-36079D01*
X1052385Y-34973D01*
X1051919Y-34100D01*
X1052385Y-33227D01*
X1052721Y-32121D01*
X1052834Y-30970D01*
Y-27230D01*
X1052721Y-26079D01*
X1052666Y-25897D01*
X1052964Y-25495D01*
X1061773D01*
X1061971Y-25995D01*
D02*
G37*
G36*
X984392Y-40545D02*
X984517Y-40630D01*
X984660Y-40705D01*
X984821Y-40770D01*
X985000Y-40825D01*
X985197Y-40870D01*
X985412Y-40905D01*
X985645Y-40930D01*
X986165Y-40950D01*
Y-43450D01*
X985896Y-43455D01*
X985412Y-43495D01*
X985197Y-43530D01*
X985000Y-43575D01*
X984821Y-43630D01*
X984660Y-43695D01*
X984517Y-43770D01*
X984392Y-43855D01*
X984285Y-43950D01*
Y-40450D01*
X984392Y-40545D01*
D02*
G37*
G36*
X1048769Y-47583D02*
X1048793Y-47852D01*
X1048871Y-48131D01*
X1049001Y-48422D01*
X1049185Y-48725D01*
X1049422Y-49039D01*
X1049712Y-49364D01*
X1050055Y-49701D01*
X1050452Y-50049D01*
X1050901Y-50409D01*
X1049945Y-52913D01*
X1049555Y-52629D01*
X1049200Y-52404D01*
X1048880Y-52236D01*
X1048595Y-52127D01*
X1048344Y-52075D01*
X1048129Y-52082D01*
X1047948Y-52146D01*
X1047801Y-52269D01*
X1047690Y-52449D01*
X1047614Y-52688D01*
X1048798Y-47327D01*
X1048769Y-47583D01*
D02*
G37*
G36*
X1037805Y-62484D02*
X1037773Y-62393D01*
X1037720Y-62332D01*
X1037646Y-62300D01*
X1037552Y-62299D01*
X1037437Y-62327D01*
X1037302Y-62384D01*
X1037146Y-62472D01*
X1036969Y-62589D01*
X1036773Y-62736D01*
X1036555Y-62913D01*
X1035001Y-60936D01*
X1035400Y-60595D01*
X1036555Y-59484D01*
X1036733Y-59269D01*
X1036867Y-59080D01*
X1036956Y-58917D01*
X1037002Y-58779D01*
X1037003Y-58667D01*
X1037805Y-62484D01*
D02*
G37*
G36*
X972358Y-56799D02*
X972242Y-56888D01*
X972139Y-56996D01*
X972048Y-57125D01*
X971969Y-57274D01*
X971902Y-57442D01*
X971847Y-57631D01*
X971805Y-57839D01*
X971774Y-58068D01*
X971756Y-58316D01*
X971750Y-58585D01*
X969250Y-57985D01*
X969247Y-57713D01*
X969199Y-57007D01*
X969170Y-56809D01*
X969092Y-56469D01*
X969044Y-56327D01*
X968989Y-56204D01*
X968928Y-56099D01*
X972358Y-56799D01*
D02*
G37*
G36*
X1082763Y55299D02*
X1082550Y55224D01*
X1082362Y55098D01*
X1082200Y54922D01*
X1082063Y54696D01*
X1081950Y54420D01*
X1081863Y54093D01*
X1081823Y53854D01*
X1081859Y53631D01*
X1081943Y53306D01*
X1082052Y53031D01*
X1082184Y52806D01*
X1082341Y52631D01*
X1082522Y52506D01*
X1082727Y52431D01*
X1082957Y52406D01*
X1079043D01*
X1079083Y52431D01*
X1079118Y52506D01*
X1079149Y52631D01*
X1079176Y52806D01*
X1079217Y53306D01*
X1079222Y53471D01*
X1079200Y53716D01*
X1079138Y54093D01*
X1079050Y54420D01*
X1078938Y54696D01*
X1078800Y54922D01*
X1078638Y55098D01*
X1078450Y55224D01*
X1078238Y55299D01*
X1078000Y55324D01*
X1083000D01*
X1082763Y55299D01*
D02*
G37*
G36*
X1674973Y74487D02*
X1674827Y74454D01*
X1674692Y74408D01*
X1674569Y74348D01*
X1674459Y74276D01*
X1674360Y74191D01*
X1674274Y74093D01*
X1674199Y73982D01*
X1674137Y73858D01*
X1674087Y73721D01*
X1674049Y73572D01*
X1672153Y76514D01*
X1672256Y76495D01*
X1672367Y76484D01*
X1672484Y76482D01*
X1672609Y76487D01*
X1672740Y76500D01*
X1673025Y76551D01*
X1673177Y76588D01*
X1673503Y76686D01*
X1674973Y74487D01*
D02*
G37*
G36*
X1911414Y74770D02*
X1911166Y74718D01*
X1910941Y74652D01*
X1910739Y74573D01*
X1910560Y74481D01*
X1910403Y74375D01*
X1910270Y74257D01*
X1910159Y74125D01*
X1910071Y73980D01*
X1910006Y73821D01*
X1909963Y73650D01*
X1907975Y76530D01*
X1908060Y76522D01*
X1908169Y76524D01*
X1908301Y76539D01*
X1908456Y76564D01*
X1908836Y76650D01*
X1909582Y76863D01*
X1909877Y76957D01*
X1911414Y74770D01*
D02*
G37*
G36*
X1202473Y74487D02*
X1202327Y74454D01*
X1202192Y74408D01*
X1202069Y74348D01*
X1201959Y74276D01*
X1201860Y74191D01*
X1201774Y74093D01*
X1201699Y73982D01*
X1201637Y73858D01*
X1201587Y73721D01*
X1201549Y73572D01*
X1199653Y76514D01*
X1199756Y76495D01*
X1199867Y76484D01*
X1199984Y76482D01*
X1200109Y76487D01*
X1200240Y76500D01*
X1200525Y76551D01*
X1200677Y76588D01*
X1201003Y76686D01*
X1202473Y74487D01*
D02*
G37*
G36*
X258214Y74471D02*
X257966Y74418D01*
X257741Y74352D01*
X257539Y74273D01*
X257360Y74181D01*
X257203Y74076D01*
X257069Y73957D01*
X256959Y73825D01*
X256871Y73680D01*
X256806Y73521D01*
X256764Y73350D01*
X254775Y76230D01*
X254860Y76222D01*
X254969Y76224D01*
X255100Y76239D01*
X255256Y76264D01*
X255636Y76350D01*
X256382Y76564D01*
X256677Y76657D01*
X258214Y74471D01*
D02*
G37*
G36*
X966273Y74487D02*
X966127Y74454D01*
X965992Y74408D01*
X965869Y74348D01*
X965759Y74276D01*
X965660Y74191D01*
X965574Y74093D01*
X965499Y73982D01*
X965437Y73858D01*
X965387Y73721D01*
X965349Y73572D01*
X963453Y76514D01*
X963556Y76495D01*
X963667Y76484D01*
X963784Y76482D01*
X963909Y76487D01*
X964040Y76500D01*
X964324Y76551D01*
X964477Y76588D01*
X964804Y76686D01*
X966273Y74487D01*
D02*
G37*
G36*
X493547Y74464D02*
X493461Y74439D01*
X493381Y74401D01*
X493306Y74351D01*
X493237Y74287D01*
X493173Y74211D01*
X493116Y74122D01*
X493064Y74021D01*
X493017Y73906D01*
X492977Y73779D01*
X492942Y73639D01*
X491085Y76606D01*
X491194Y76583D01*
X491408Y76555D01*
X491512Y76550D01*
X491615Y76551D01*
X491717Y76558D01*
X491818Y76571D01*
X491917Y76591D01*
X492014Y76616D01*
X492110Y76648D01*
X493547Y74464D01*
D02*
G37*
G36*
X760840Y84276D02*
X761065Y84182D01*
X761343Y84098D01*
X761675Y84026D01*
X762059Y83965D01*
X762988Y83876D01*
X764130Y83831D01*
X764781Y83826D01*
X765199Y80326D01*
X760145Y80403D01*
X760669Y84382D01*
X760840Y84276D01*
D02*
G37*
G36*
X524009Y84580D02*
X524170Y84563D01*
X524716Y84536D01*
X528161Y84501D01*
Y80501D01*
X523924Y80403D01*
Y84599D01*
X524009Y84580D01*
D02*
G37*
G36*
X27493Y74288D02*
X27313Y74408D01*
X27103Y74515D01*
X26862Y74610D01*
X26591Y74692D01*
X26289Y74761D01*
X25957Y74818D01*
X25201Y74894D01*
X24778Y74913D01*
X24323Y74919D01*
Y75001D01*
X22400Y75163D01*
X24188Y78019D01*
X24223Y77905D01*
X24284Y77803D01*
X24372Y77713D01*
X24486Y77635D01*
X24627Y77569D01*
X24793Y77515D01*
X24986Y77473D01*
X25129Y77454D01*
X25957Y77520D01*
X26289Y77577D01*
X26591Y77646D01*
X26862Y77728D01*
X27103Y77823D01*
X27313Y77930D01*
X27493Y78050D01*
Y74288D01*
D02*
G37*
G36*
X729747Y74464D02*
X729661Y74439D01*
X729581Y74401D01*
X729506Y74351D01*
X729437Y74287D01*
X729373Y74211D01*
X729316Y74122D01*
X729264Y74021D01*
X729217Y73906D01*
X729177Y73779D01*
X729142Y73639D01*
X727285Y76606D01*
X727394Y76583D01*
X727608Y76555D01*
X727712Y76550D01*
X727815Y76551D01*
X727917Y76558D01*
X728018Y76571D01*
X728117Y76591D01*
X728214Y76616D01*
X728310Y76648D01*
X729747Y74464D01*
D02*
G37*
G36*
X1438347D02*
X1438261Y74439D01*
X1438181Y74401D01*
X1438106Y74351D01*
X1438037Y74287D01*
X1437973Y74211D01*
X1437916Y74122D01*
X1437864Y74021D01*
X1437817Y73906D01*
X1437777Y73779D01*
X1437742Y73639D01*
X1435885Y76606D01*
X1435994Y76583D01*
X1436208Y76555D01*
X1436312Y76550D01*
X1436415Y76551D01*
X1436517Y76558D01*
X1436618Y76571D01*
X1436717Y76591D01*
X1436814Y76616D01*
X1436910Y76648D01*
X1438347Y74464D01*
D02*
G37*
G36*
X499835Y73927D02*
X499655Y74047D01*
X499445Y74154D01*
X499204Y74249D01*
X498933Y74331D01*
X498632Y74400D01*
X498300Y74457D01*
X497544Y74533D01*
X497120Y74551D01*
X496666Y74558D01*
Y77058D01*
X497120Y77064D01*
X498300Y77159D01*
X498632Y77216D01*
X498933Y77285D01*
X499204Y77367D01*
X499445Y77462D01*
X499655Y77569D01*
X499835Y77689D01*
Y73927D01*
D02*
G37*
G36*
X736056D02*
X735876Y74047D01*
X735666Y74154D01*
X735425Y74249D01*
X735154Y74331D01*
X734852Y74400D01*
X734520Y74457D01*
X733764Y74533D01*
X733341Y74551D01*
X732886Y74558D01*
Y77058D01*
X733341Y77064D01*
X734520Y77159D01*
X734852Y77216D01*
X735154Y77285D01*
X735425Y77367D01*
X735666Y77462D01*
X735876Y77569D01*
X736056Y77689D01*
Y73927D01*
D02*
G37*
G36*
X263615D02*
X263435Y74047D01*
X263225Y74154D01*
X262984Y74249D01*
X262713Y74331D01*
X262411Y74400D01*
X262079Y74457D01*
X261323Y74533D01*
X260900Y74551D01*
X260445Y74558D01*
Y77058D01*
X260900Y77064D01*
X262079Y77159D01*
X262411Y77216D01*
X262713Y77285D01*
X262984Y77367D01*
X263225Y77462D01*
X263435Y77569D01*
X263615Y77689D01*
Y73927D01*
D02*
G37*
G36*
X1107257Y73062D02*
X1107932Y73050D01*
Y70550D01*
X1107467Y70548D01*
X1107264Y70534D01*
X1107268Y69300D01*
X1107242Y69538D01*
X1107166Y69750D01*
X1107041Y69937D01*
X1106864Y70100D01*
X1106638Y70237D01*
X1106362Y70350D01*
X1106036Y70438D01*
X1105961Y70450D01*
X1105708Y70433D01*
X1105586Y70398D01*
X1105512Y70357D01*
X1105488Y70312D01*
Y70515D01*
X1105233Y70538D01*
X1104756Y70550D01*
Y73050D01*
X1105231Y73052D01*
X1105488Y73069D01*
Y73288D01*
X1105512Y73243D01*
X1105586Y73202D01*
X1105708Y73167D01*
X1105879Y73136D01*
X1106099Y73110D01*
X1106104Y73109D01*
X1107031Y73169D01*
X1107156Y73206D01*
X1107231Y73247D01*
X1107256Y73294D01*
X1107257Y73062D01*
D02*
G37*
G36*
X266004Y91378D02*
X263196Y90769D01*
X263180Y90772D01*
X263155Y90786D01*
X263120Y90810D01*
X263076Y90846D01*
X262887Y91018D01*
X262611Y91287D01*
X264379Y93055D01*
X266004Y91378D01*
D02*
G37*
G36*
X972276Y73927D02*
X972096Y74047D01*
X971886Y74154D01*
X971646Y74249D01*
X971374Y74331D01*
X971073Y74400D01*
X970741Y74457D01*
X969985Y74533D01*
X969561Y74551D01*
X969107Y74558D01*
Y77058D01*
X969561Y77064D01*
X970741Y77159D01*
X971073Y77216D01*
X971374Y77285D01*
X971646Y77367D01*
X971886Y77462D01*
X972096Y77569D01*
X972276Y77689D01*
Y73927D01*
D02*
G37*
G36*
X1917158Y74226D02*
X1916978Y74346D01*
X1916768Y74453D01*
X1916527Y74548D01*
X1916256Y74630D01*
X1915955Y74699D01*
X1915622Y74756D01*
X1914866Y74832D01*
X1914443Y74851D01*
X1913989Y74857D01*
Y77357D01*
X1914443Y77363D01*
X1915622Y77458D01*
X1915955Y77515D01*
X1916256Y77584D01*
X1916527Y77666D01*
X1916768Y77761D01*
X1916978Y77868D01*
X1917158Y77988D01*
Y74226D01*
D02*
G37*
G36*
X1252583Y83037D02*
X1253422Y82689D01*
X1253769Y82423D01*
Y58042D01*
X1253773Y57993D01*
X1253661Y57142D01*
X1253314Y56302D01*
X1252791Y55621D01*
X1252753Y55589D01*
X1252738Y55572D01*
X1252183Y55146D01*
X1251515Y54870D01*
X1250821Y54778D01*
X1250799Y54780D01*
X1236742D01*
X1236726Y54783D01*
X1235796Y54799D01*
X1234606Y55434D01*
X1233148Y55877D01*
X1231630Y56026D01*
X1230113Y55877D01*
X1228654Y55434D01*
X1227309Y54716D01*
X1226131Y53748D01*
X1225163Y52570D01*
X1224445Y51225D01*
X1224002Y49766D01*
X1223853Y48249D01*
X1224002Y46731D01*
X1224445Y45272D01*
X1225163Y43928D01*
X1225721Y43249D01*
X1225163Y42570D01*
X1224445Y41225D01*
X1224002Y39766D01*
X1223860Y38330D01*
X1223857Y38306D01*
X1223856Y38287D01*
X1223853Y38249D01*
X1223855Y38225D01*
X1223851Y38071D01*
X1223845Y37998D01*
X1223837Y37953D01*
X1223834Y37941D01*
X1223366Y37473D01*
X1223282Y37364D01*
X1222410Y36694D01*
X1221266Y36221D01*
X1220175Y36077D01*
X1220039Y36095D01*
X1217831D01*
X1217533Y36497D01*
X1217604Y36731D01*
X1217754Y38249D01*
X1217604Y39766D01*
X1217162Y41225D01*
X1216443Y42570D01*
X1215886Y43249D01*
X1216443Y43928D01*
X1217162Y45272D01*
X1217604Y46731D01*
X1217754Y48249D01*
X1217604Y49766D01*
X1217162Y51225D01*
X1216443Y52570D01*
X1215476Y53748D01*
X1214297Y54716D01*
X1212953Y55434D01*
X1211493Y55877D01*
X1209976Y56026D01*
X1208459Y55877D01*
X1207000Y55434D01*
X1205655Y54716D01*
X1204477Y53748D01*
X1203509Y52570D01*
X1202791Y51225D01*
X1202348Y49766D01*
X1202199Y48249D01*
X1202348Y46731D01*
X1202791Y45272D01*
X1203509Y43928D01*
X1204066Y43249D01*
X1203509Y42570D01*
X1202791Y41225D01*
X1202348Y39766D01*
X1202199Y38249D01*
X1202348Y36731D01*
X1202419Y36497D01*
X1202121Y36095D01*
X1046800D01*
X1045430Y35915D01*
X1045059Y35761D01*
X1043786Y35661D01*
X1041490Y35110D01*
X1039309Y34206D01*
X1037296Y32973D01*
X1035500Y31439D01*
X1035502Y31437D01*
X1032657Y28592D01*
X1032195Y28783D01*
Y36806D01*
X1032331Y36971D01*
X1032934Y38100D01*
X1033306Y39326D01*
X1033432Y40600D01*
X1033306Y41874D01*
X1032934Y43099D01*
X1032331Y44229D01*
X1031518Y45218D01*
X1030529Y46031D01*
X1029399Y46634D01*
X1028174Y47006D01*
X1026900Y47131D01*
X1025626Y47006D01*
X1024401Y46634D01*
X1023271Y46031D01*
X1022282Y45218D01*
X1021943Y44806D01*
X1021443Y44985D01*
Y46058D01*
X1021425Y46194D01*
X1021577Y47350D01*
X1022076Y48554D01*
X1022786Y49479D01*
X1022895Y49563D01*
X1023637Y50305D01*
X1023721Y50414D01*
X1024646Y51124D01*
X1025850Y51623D01*
X1027006Y51775D01*
X1027142Y51757D01*
X1035500D01*
Y51300D01*
X1039216D01*
X1039313Y51282D01*
X1039413Y51291D01*
X1039512Y51278D01*
X1039683Y51300D01*
X1045317D01*
X1045488Y51278D01*
X1045587Y51291D01*
X1045687Y51282D01*
X1045784Y51300D01*
X1049500D01*
Y51757D01*
X1057500D01*
Y51300D01*
X1061216D01*
X1061313Y51282D01*
X1061413Y51291D01*
X1061512Y51278D01*
X1061683Y51300D01*
X1065744D01*
Y49981D01*
X1067756D01*
Y50257D01*
X1068138Y50267D01*
X1068480Y50297D01*
X1068782Y50347D01*
X1069044Y50417D01*
X1069265Y50507D01*
X1069446Y50617D01*
X1069587Y50747D01*
X1069688Y50897D01*
X1069748Y51067D01*
X1069768Y51257D01*
Y49757D01*
X1072500D01*
Y49257D01*
X1073000D01*
Y45895D01*
X1075031D01*
Y44481D01*
X1076719D01*
X1076822Y46798D01*
X1077144Y46667D01*
X1078609Y46169D01*
X1078776Y46135D01*
X1078921Y46114D01*
X1079043Y46107D01*
Y42194D01*
X1079020Y42350D01*
X1078950Y42510D01*
X1078832Y42674D01*
X1078668Y42843D01*
X1078456Y43015D01*
X1078198Y43191D01*
X1078032Y43290D01*
Y41182D01*
X1080500D01*
Y44150D01*
X1081500D01*
Y41182D01*
X1083969D01*
Y42804D01*
X1083856Y42787D01*
X1083582Y42724D01*
X1083356Y42646D01*
X1083181Y42554D01*
X1083057Y42448D01*
X1082981Y42328D01*
X1082957Y42194D01*
Y46107D01*
X1082981Y45973D01*
X1083057Y45853D01*
X1083181Y45747D01*
X1083356Y45655D01*
X1083582Y45577D01*
X1083856Y45513D01*
X1084181Y45464D01*
X1084556Y45429D01*
X1085456Y45400D01*
Y44481D01*
X1086969D01*
Y51300D01*
X1087500D01*
Y51505D01*
X1095500D01*
Y51300D01*
X1099292D01*
X1099437Y51278D01*
X1099475Y51282D01*
X1099512Y51278D01*
X1099683Y51300D01*
X1105317D01*
X1105488Y51278D01*
X1105525Y51282D01*
X1105563Y51278D01*
X1105708Y51300D01*
X1109500D01*
Y51505D01*
X1110900D01*
Y51400D01*
X1114679D01*
X1114816Y51379D01*
X1114864Y51384D01*
X1114912Y51377D01*
X1115083Y51400D01*
X1120717D01*
X1120888Y51377D01*
X1120925Y51382D01*
X1120963Y51378D01*
X1121108Y51400D01*
X1124900D01*
Y51605D01*
X1132900D01*
Y51400D01*
X1136692D01*
X1136837Y51378D01*
X1136875Y51382D01*
X1136912Y51377D01*
X1137083Y51400D01*
X1142717D01*
X1142888Y51377D01*
X1142925Y51382D01*
X1142963Y51378D01*
X1143108Y51400D01*
X1146900D01*
Y51605D01*
X1148500D01*
Y51300D01*
X1152341D01*
X1152512Y51278D01*
X1152683Y51300D01*
X1158317D01*
X1158488Y51278D01*
X1158659Y51300D01*
X1162500D01*
Y51605D01*
X1170500D01*
Y51300D01*
X1174341D01*
X1174512Y51278D01*
X1174683Y51300D01*
X1176997D01*
X1177259Y51191D01*
Y51300D01*
X1184500D01*
Y54317D01*
X1184135Y54321D01*
X1184219Y54783D01*
X1184269Y55198D01*
X1184284Y55563D01*
X1184264Y55879D01*
X1184210Y56147D01*
X1184121Y56367D01*
X1183998Y56537D01*
X1183840Y56659D01*
X1183648Y56732D01*
X1183421Y56756D01*
X1185500D01*
Y59291D01*
Y62850D01*
X1181457D01*
Y62300D01*
X1178148D01*
X1178066Y63885D01*
X1178553Y64150D01*
X1193543D01*
Y69812D01*
X1194043Y69991D01*
X1194482Y69457D01*
X1195471Y68645D01*
X1196601Y68041D01*
X1197826Y67670D01*
X1199100Y67544D01*
X1200374Y67670D01*
X1201600Y68041D01*
X1202729Y68645D01*
X1203718Y69457D01*
X1204531Y70447D01*
X1204566Y70512D01*
X1205791D01*
X1205914Y70507D01*
X1206419Y70456D01*
X1206457Y70450D01*
X1206479Y70433D01*
X1206835Y70285D01*
X1207212Y70084D01*
X1208374Y69731D01*
X1209583Y69612D01*
X1213126D01*
X1214334Y69731D01*
X1215497Y70084D01*
X1216568Y70657D01*
X1217506Y71427D01*
X1218277Y72366D01*
X1218849Y73437D01*
X1219202Y74599D01*
X1219321Y75808D01*
X1219202Y77016D01*
X1218849Y78179D01*
X1218447Y78931D01*
X1219108Y79413D01*
X1219293Y79527D01*
X1219468Y79676D01*
X1219698Y79844D01*
X1219869Y80007D01*
X1220062Y80144D01*
X1220175Y80280D01*
X1220624Y80663D01*
X1220744Y80756D01*
X1221846Y81858D01*
X1222367Y81672D01*
X1222404Y81292D01*
X1222757Y80130D01*
X1223278Y79154D01*
X1222757Y78179D01*
X1222404Y77016D01*
X1222285Y75808D01*
X1222404Y74599D01*
X1222757Y73437D01*
X1223329Y72366D01*
X1224100Y71427D01*
X1225039Y70657D01*
X1226110Y70084D01*
X1227272Y69731D01*
X1228481Y69612D01*
X1232024D01*
X1233232Y69731D01*
X1234394Y70084D01*
X1235466Y70657D01*
X1236404Y71427D01*
X1237175Y72366D01*
X1237747Y73437D01*
X1238100Y74599D01*
X1238219Y75808D01*
X1238131Y76705D01*
X1238523Y77205D01*
X1239766D01*
X1240571Y76545D01*
X1241700Y75941D01*
X1242926Y75570D01*
X1244200Y75444D01*
X1245474Y75570D01*
X1246700Y75941D01*
X1247829Y76545D01*
X1248818Y77357D01*
X1249631Y78347D01*
X1250234Y79476D01*
X1250606Y80701D01*
X1250731Y81976D01*
X1250653Y82774D01*
X1250989Y83144D01*
X1251682D01*
X1251731Y83149D01*
X1252583Y83037D01*
D02*
G37*
G36*
X1680938Y73927D02*
X1680758Y74047D01*
X1680548Y74154D01*
X1680307Y74249D01*
X1680036Y74331D01*
X1679734Y74400D01*
X1679402Y74457D01*
X1678646Y74533D01*
X1678222Y74551D01*
X1677768Y74558D01*
Y77058D01*
X1678222Y77064D01*
X1679402Y77159D01*
X1679734Y77216D01*
X1680036Y77285D01*
X1680307Y77367D01*
X1680548Y77462D01*
X1680758Y77569D01*
X1680938Y77689D01*
Y73927D01*
D02*
G37*
G36*
X1208497D02*
X1208317Y74047D01*
X1208107Y74154D01*
X1207866Y74249D01*
X1207595Y74331D01*
X1207293Y74400D01*
X1206961Y74457D01*
X1206205Y74533D01*
X1205781Y74551D01*
X1205327Y74558D01*
Y77058D01*
X1205781Y77064D01*
X1206961Y77159D01*
X1207293Y77216D01*
X1207595Y77285D01*
X1207866Y77367D01*
X1208107Y77462D01*
X1208317Y77569D01*
X1208497Y77689D01*
Y73927D01*
D02*
G37*
G36*
X1444717D02*
X1444537Y74047D01*
X1444327Y74154D01*
X1444086Y74249D01*
X1443815Y74331D01*
X1443514Y74400D01*
X1443181Y74457D01*
X1442426Y74533D01*
X1442002Y74551D01*
X1441548Y74558D01*
Y77058D01*
X1442002Y77064D01*
X1443181Y77159D01*
X1443514Y77216D01*
X1443815Y77285D01*
X1444086Y77367D01*
X1444327Y77462D01*
X1444537Y77569D01*
X1444717Y77689D01*
Y73927D01*
D02*
G37*
G36*
X966012Y89979D02*
X967156Y89505D01*
X967195Y89476D01*
X967167Y89194D01*
X967286Y87985D01*
X967638Y86823D01*
X968160Y85847D01*
X967638Y84872D01*
X967286Y83709D01*
X967167Y82501D01*
X967255Y81603D01*
X967120Y81212D01*
X966830Y81072D01*
X965330Y80954D01*
X963645Y80550D01*
X963641Y80549D01*
X963636Y80548D01*
X963621Y80544D01*
X963614Y80541D01*
X963603Y80538D01*
X962900Y80607D01*
X961626Y80482D01*
X960400Y80110D01*
X959271Y79506D01*
X958282Y78694D01*
X957469Y77704D01*
X956866Y76575D01*
X956494Y75350D01*
X956369Y74076D01*
X956494Y72801D01*
X956866Y71576D01*
X957469Y70447D01*
X958282Y69457D01*
X959271Y68645D01*
X960400Y68041D01*
X961626Y67670D01*
X962900Y67544D01*
X964174Y67670D01*
X965399Y68041D01*
X966529Y68645D01*
X967518Y69457D01*
X968331Y70447D01*
X968366Y70512D01*
X969571D01*
X969693Y70507D01*
X970199Y70456D01*
X970236Y70450D01*
X970259Y70433D01*
X970615Y70285D01*
X970991Y70084D01*
X972153Y69731D01*
X973362Y69612D01*
X976905D01*
X978114Y69731D01*
X978767Y69930D01*
X979169Y69632D01*
Y61916D01*
X979294Y60642D01*
X979371Y60387D01*
X979406Y59858D01*
X979828Y57737D01*
X980523Y55689D01*
X981480Y53749D01*
X982682Y51950D01*
X984108Y50324D01*
X984111Y50327D01*
X986829Y47609D01*
X986564Y47166D01*
X985774Y47406D01*
X984500Y47532D01*
X983226Y47406D01*
X982001Y47034D01*
X981928Y46995D01*
X981457Y47311D01*
X981549Y48249D01*
X981400Y49766D01*
X980957Y51225D01*
X980238Y52570D01*
X979271Y53748D01*
X978092Y54716D01*
X976748Y55434D01*
X975289Y55877D01*
X973771Y56026D01*
X972254Y55877D01*
X970795Y55434D01*
X969450Y54716D01*
X968272Y53748D01*
X967305Y52570D01*
X967229Y52428D01*
X966304Y51934D01*
X964855Y50745D01*
X964856Y50744D01*
X964764Y50624D01*
X963627Y49293D01*
X962633Y47672D01*
X961906Y45916D01*
X961462Y44067D01*
X961325Y42322D01*
X961305Y42172D01*
Y37771D01*
X960805Y37400D01*
X960534Y37454D01*
X958924Y39064D01*
X958926Y39066D01*
X957100Y40624D01*
X955054Y41879D01*
X952836Y42797D01*
X950502Y43358D01*
X948109Y43546D01*
Y43544D01*
X785899D01*
X785747Y44044D01*
X787373Y45130D01*
X788833Y46411D01*
X788999Y46556D01*
X788999D01*
X789192Y46750D01*
X789192Y46750D01*
X790618Y48376D01*
X791820Y50174D01*
X792777Y52114D01*
X793472Y54163D01*
X793894Y56284D01*
X794035Y58442D01*
X794031D01*
Y78358D01*
X794035D01*
X793894Y80516D01*
X793472Y82638D01*
X792777Y84686D01*
X791820Y86626D01*
X790618Y88424D01*
X789583Y89605D01*
X789810Y90105D01*
X964785D01*
X964921Y90123D01*
X966012Y89979D01*
D02*
G37*
G36*
X1217320Y83103D02*
X1215007Y81415D01*
X1213332Y84634D01*
X1213444Y84479D01*
X1213593Y84375D01*
X1213779Y84322D01*
X1214003Y84321D01*
X1214262Y84370D01*
X1214559Y84471D01*
X1214893Y84622D01*
X1215264Y84825D01*
X1215672Y85079D01*
X1216116Y85384D01*
X1217320Y83103D01*
D02*
G37*
G36*
X507614Y85652D02*
X507690Y85702D01*
X508449Y83927D01*
X508694Y83421D01*
X508672Y83405D01*
X508720Y83293D01*
X508295Y82999D01*
X506487Y81602D01*
X506395Y81496D01*
X506345Y81415D01*
X503932Y84661D01*
X504102Y84492D01*
X504112Y84487D01*
X503986Y84661D01*
X504154Y84491D01*
X504367Y84382D01*
X504584Y84342D01*
X504868Y84359D01*
X505209Y84438D01*
X505594Y84580D01*
X506021Y84784D01*
X506491Y85049D01*
X507003Y85377D01*
X507559Y85766D01*
X507614Y85652D01*
D02*
G37*
G36*
X1453524Y82928D02*
X1451227Y81415D01*
X1449647Y84621D01*
X1449758Y84458D01*
X1449907Y84346D01*
X1450091Y84285D01*
X1450313Y84274D01*
X1450572Y84315D01*
X1450867Y84407D01*
X1451199Y84550D01*
X1451568Y84743D01*
X1451974Y84988D01*
X1452416Y85284D01*
X1453524Y82928D01*
D02*
G37*
G36*
X744769Y82076D02*
X744223Y81785D01*
X742213Y80866D01*
X742184Y80896D01*
X742221Y80965D01*
X742067Y84139D01*
X742087Y84029D01*
X742135Y83947D01*
X742210Y83892D01*
X742313Y83865D01*
X742444Y83865D01*
X742603Y83894D01*
X742790Y83950D01*
X743004Y84033D01*
X743246Y84145D01*
X743516Y84284D01*
X744769Y82076D01*
D02*
G37*
G36*
X1689705Y82099D02*
X1689148Y81801D01*
X1687095Y80865D01*
X1687066Y80894D01*
X1687103Y80965D01*
X1686146Y84579D01*
X1686234Y84361D01*
X1686368Y84197D01*
X1686549Y84085D01*
X1686776Y84026D01*
X1687050Y84020D01*
X1687370Y84067D01*
X1687737Y84167D01*
X1688150Y84320D01*
X1688610Y84525D01*
X1689116Y84784D01*
X1689705Y82099D01*
D02*
G37*
G36*
X21375Y85708D02*
X21176Y85505D01*
X20434Y84651D01*
X20387Y84569D01*
X20362Y84503D01*
X20358Y84455D01*
X18355Y86458D01*
X18403Y86462D01*
X18469Y86487D01*
X18551Y86534D01*
X18651Y86603D01*
X18767Y86694D01*
X19052Y86941D01*
X19608Y87476D01*
X21375Y85708D01*
D02*
G37*
G36*
X973321Y92780D02*
X974471Y91761D01*
X974687Y91605D01*
X974875Y91489D01*
X975033Y91412D01*
X975164Y91375D01*
X975265Y91378D01*
X971586Y90436D01*
X971657Y90467D01*
X971698Y90517D01*
X971710Y90586D01*
X971693Y90673D01*
X971647Y90779D01*
X971571Y90903D01*
X971465Y91046D01*
X971330Y91208D01*
X970973Y91587D01*
X972962Y93134D01*
X973321Y92780D01*
D02*
G37*
G36*
X1445752Y92788D02*
X1447199Y91507D01*
X1447332Y91426D01*
X1447435Y91383D01*
X1447506Y91378D01*
X1444114Y90549D01*
X1444156Y90570D01*
X1444176Y90608D01*
X1444174Y90661D01*
X1444148Y90731D01*
X1444099Y90817D01*
X1444028Y90919D01*
X1443934Y91037D01*
X1443676Y91321D01*
X1443513Y91487D01*
X1445403Y93134D01*
X1445752Y92788D01*
D02*
G37*
G36*
X737122Y92763D02*
X738116Y91910D01*
X738399Y91713D01*
X738657Y91559D01*
X738891Y91449D01*
X739100Y91382D01*
X739285Y91358D01*
X739445Y91378D01*
X735209Y90188D01*
X735335Y90241D01*
X735419Y90318D01*
X735459Y90418D01*
X735457Y90543D01*
X735413Y90691D01*
X735326Y90863D01*
X735196Y91058D01*
X735024Y91277D01*
X734809Y91521D01*
X734552Y91787D01*
X736741Y93134D01*
X737122Y92763D01*
D02*
G37*
G36*
X28016Y87457D02*
X27670Y87588D01*
X27320Y87696D01*
X26968Y87780D01*
X26612Y87841D01*
X26254Y87878D01*
X25893Y87891D01*
X25530Y87881D01*
X25163Y87847D01*
X24794Y87789D01*
X24421Y87708D01*
X24348Y90326D01*
X24831Y90449D01*
X26943Y91132D01*
X27164Y91236D01*
X27347Y91338D01*
X27493Y91436D01*
X28016Y87457D01*
D02*
G37*
G36*
X1946115Y87876D02*
X1945351Y87873D01*
X1941876Y87662D01*
X1941771Y87612D01*
X1941247Y91591D01*
X1941179Y91645D01*
X1941250Y91694D01*
X1941459Y91736D01*
X1941807Y91773D01*
X1942919Y91830D01*
X1946807Y91876D01*
X1946115Y87876D01*
D02*
G37*
G36*
X1705730Y84262D02*
X1705941Y84155D01*
X1706181Y84060D01*
X1706453Y83978D01*
X1706754Y83909D01*
X1707086Y83852D01*
X1707842Y83776D01*
X1708266Y83757D01*
X1708720Y83751D01*
Y81251D01*
X1708266Y81244D01*
X1707086Y81150D01*
X1706754Y81093D01*
X1706453Y81024D01*
X1706181Y80942D01*
X1705941Y80847D01*
X1705730Y80740D01*
X1705551Y80620D01*
Y84382D01*
X1705730Y84262D01*
D02*
G37*
G36*
X1242087Y80640D02*
X1242000Y80756D01*
X1241892Y80860D01*
X1241765Y80951D01*
X1241617Y81031D01*
X1241449Y81098D01*
X1241261Y81153D01*
X1241053Y81196D01*
X1240824Y81226D01*
X1240576Y81245D01*
X1240307Y81251D01*
X1240940Y83751D01*
X1241213Y83754D01*
X1241918Y83801D01*
X1242116Y83829D01*
X1242455Y83903D01*
X1242596Y83950D01*
X1242719Y84003D01*
X1242822Y84062D01*
X1242087Y80640D01*
D02*
G37*
G36*
X1469510Y84262D02*
X1469720Y84155D01*
X1469961Y84060D01*
X1470232Y83978D01*
X1470534Y83909D01*
X1470866Y83852D01*
X1471622Y83776D01*
X1472045Y83757D01*
X1472499Y83751D01*
Y81251D01*
X1472045Y81244D01*
X1470866Y81150D01*
X1470534Y81093D01*
X1470232Y81024D01*
X1469961Y80942D01*
X1469720Y80847D01*
X1469510Y80740D01*
X1469330Y80620D01*
Y84382D01*
X1469510Y84262D01*
D02*
G37*
G36*
X1233289D02*
X1233500Y84155D01*
X1233740Y84060D01*
X1234011Y83978D01*
X1234313Y83909D01*
X1234645Y83852D01*
X1235401Y83776D01*
X1235825Y83757D01*
X1236279Y83751D01*
Y81251D01*
X1235825Y81244D01*
X1234645Y81150D01*
X1234313Y81093D01*
X1234011Y81024D01*
X1233740Y80942D01*
X1233500Y80847D01*
X1233289Y80740D01*
X1233110Y80620D01*
Y84382D01*
X1233289Y84262D01*
D02*
G37*
G36*
X1211086Y91378D02*
X1207980Y90662D01*
X1207994Y90674D01*
X1207992Y90699D01*
X1207974Y90738D01*
X1207940Y90791D01*
X1207889Y90856D01*
X1207739Y91028D01*
X1207393Y91387D01*
X1209182Y93134D01*
X1211086Y91378D01*
D02*
G37*
G36*
X1714587Y80640D02*
X1714499Y80756D01*
X1714392Y80860D01*
X1714264Y80951D01*
X1714117Y81031D01*
X1713949Y81098D01*
X1713761Y81153D01*
X1713553Y81196D01*
X1713324Y81226D01*
X1713076Y81245D01*
X1712807Y81251D01*
X1713440Y83751D01*
X1713713Y83754D01*
X1714418Y83801D01*
X1714616Y83829D01*
X1714955Y83903D01*
X1715096Y83950D01*
X1715219Y84003D01*
X1715322Y84062D01*
X1714587Y80640D01*
D02*
G37*
G36*
X977641Y84513D02*
X977640Y84514D01*
X977719Y84284D01*
X977841Y84101D01*
X978007Y83966D01*
X978139Y83911D01*
X978216Y83878D01*
X978468Y83837D01*
X978764Y83844D01*
X979098Y83897D01*
X979103Y83898D01*
X979329Y83958D01*
X979485Y84000D01*
X979503Y84006D01*
X979911Y84148D01*
X980380Y84344D01*
X982215Y82647D01*
X982215Y82647D01*
X982215Y82647D01*
X978441Y80965D01*
X977640Y84514D01*
X977641Y84513D01*
D02*
G37*
G36*
X1950942Y81104D02*
X1950833Y81189D01*
X1950705Y81265D01*
X1950560Y81332D01*
X1950397Y81390D01*
X1950217Y81439D01*
X1950018Y81479D01*
X1949802Y81510D01*
X1949316Y81546D01*
X1949046Y81550D01*
X1948843Y84050D01*
X1949111Y84056D01*
X1949593Y84099D01*
X1949806Y84137D01*
X1950001Y84187D01*
X1950177Y84246D01*
X1950334Y84317D01*
X1950473Y84399D01*
X1950594Y84492D01*
X1950696Y84596D01*
X1950942Y81104D01*
D02*
G37*
G36*
X1941951Y84561D02*
X1942161Y84454D01*
X1942402Y84359D01*
X1942673Y84277D01*
X1942975Y84208D01*
X1943307Y84151D01*
X1944063Y84075D01*
X1944486Y84056D01*
X1944940Y84050D01*
Y81550D01*
X1944486Y81544D01*
X1943307Y81449D01*
X1942975Y81392D01*
X1942673Y81323D01*
X1942402Y81241D01*
X1942161Y81146D01*
X1941951Y81039D01*
X1941771Y80919D01*
Y84681D01*
X1941951Y84561D01*
D02*
G37*
G36*
X1478343Y80655D02*
X1478251Y80768D01*
X1478139Y80869D01*
X1478008Y80959D01*
X1477857Y81036D01*
X1477686Y81102D01*
X1477496Y81155D01*
X1477287Y81197D01*
X1477057Y81227D01*
X1476808Y81245D01*
X1476540Y81251D01*
X1477044Y83751D01*
X1477316Y83754D01*
X1478021Y83807D01*
X1478220Y83839D01*
X1478400Y83878D01*
X1478562Y83924D01*
X1478706Y83977D01*
X1478831Y84037D01*
X1478938Y84104D01*
X1478343Y80655D01*
D02*
G37*
G36*
X1917158Y80919D02*
X1916978Y81039D01*
X1916768Y81146D01*
X1916527Y81241D01*
X1916256Y81323D01*
X1915955Y81392D01*
X1915622Y81449D01*
X1914866Y81525D01*
X1914443Y81544D01*
X1913989Y81550D01*
Y84050D01*
X1914443Y84056D01*
X1915622Y84151D01*
X1915955Y84208D01*
X1916256Y84277D01*
X1916527Y84359D01*
X1916768Y84454D01*
X1916978Y84561D01*
X1917158Y84681D01*
Y80919D01*
D02*
G37*
G36*
X1174512Y55312D02*
X1174487Y55376D01*
X1174412Y55434D01*
X1174287Y55484D01*
X1174112Y55528D01*
X1173887Y55566D01*
X1173612Y55596D01*
X1172487Y55647D01*
X1172012Y55650D01*
Y58150D01*
X1174512Y58288D01*
Y55312D01*
D02*
G37*
G36*
X1114912Y55412D02*
X1114887Y55438D01*
X1114812Y55462D01*
X1114687Y55482D01*
X1114512Y55500D01*
X1113687Y55538D01*
X1112412Y55550D01*
Y58050D01*
X1112887Y58053D01*
X1114512Y58172D01*
X1114687Y58216D01*
X1114812Y58266D01*
X1114887Y58324D01*
X1114912Y58388D01*
Y55412D01*
D02*
G37*
G36*
X1158513Y58262D02*
X1158588Y58238D01*
X1158713Y58218D01*
X1158888Y58200D01*
X1159713Y58162D01*
X1160988Y58150D01*
Y55650D01*
X1160513Y55647D01*
X1158888Y55528D01*
X1158713Y55484D01*
X1158588Y55434D01*
X1158513Y55376D01*
X1158488Y55312D01*
Y58288D01*
X1158513Y58262D01*
D02*
G37*
G36*
X1105513Y58243D02*
X1105588Y58202D01*
X1105713Y58167D01*
X1105888Y58136D01*
X1106113Y58109D01*
X1106713Y58071D01*
X1107988Y58050D01*
Y55550D01*
X1107513Y55548D01*
X1105713Y55433D01*
X1105588Y55398D01*
X1105513Y55357D01*
X1105488Y55312D01*
Y58288D01*
X1105513Y58243D01*
D02*
G37*
G36*
X1152512Y55312D02*
X1152487Y55376D01*
X1152412Y55434D01*
X1152287Y55484D01*
X1152112Y55528D01*
X1151887Y55566D01*
X1151612Y55596D01*
X1150487Y55647D01*
X1150012Y55650D01*
Y58150D01*
X1152512Y58288D01*
Y55312D01*
D02*
G37*
G36*
X1120913Y58343D02*
X1120988Y58302D01*
X1121113Y58267D01*
X1121288Y58236D01*
X1121513Y58210D01*
X1122113Y58171D01*
X1123388Y58150D01*
Y55650D01*
X1122913Y55648D01*
X1121113Y55533D01*
X1120988Y55498D01*
X1120913Y55457D01*
X1120888Y55412D01*
Y58388D01*
X1120913Y58343D01*
D02*
G37*
G36*
X978177Y-231431D02*
X978398Y-231545D01*
X978670Y-231661D01*
X978993Y-231780D01*
X979791Y-232023D01*
X980491Y-232191D01*
X981369Y-232403D01*
X981997Y-232534D01*
X981997Y-232534D01*
X981998Y-232534D01*
X981062Y-234852D01*
X980723Y-234795D01*
X980381Y-234761D01*
X980033Y-234750D01*
X979682Y-234760D01*
X979326Y-234794D01*
X978966Y-234850D01*
X978602Y-234928D01*
X978233Y-235029D01*
X977860Y-235152D01*
X977483Y-235298D01*
X978007Y-231319D01*
X978177Y-231431D01*
D02*
G37*
G36*
X1005501Y75941D02*
X1006291Y75701D01*
X1006732Y75559D01*
Y75559D01*
X1007217Y75521D01*
X1008000Y75444D01*
X1027244D01*
Y70243D01*
X1026900Y69931D01*
X1025626Y69806D01*
X1024401Y69434D01*
X1023271Y68831D01*
X1022282Y68018D01*
X1021469Y67029D01*
X1020866Y65899D01*
X1020494Y64674D01*
X1020368Y63400D01*
X1020494Y62126D01*
X1020866Y60900D01*
X1020893Y60849D01*
X1020725Y60378D01*
X1020311Y60206D01*
X1018298Y58973D01*
X1016503Y57439D01*
X1016505Y57437D01*
X1015763Y56695D01*
X1015761Y56697D01*
X1014227Y54902D01*
X1012994Y52889D01*
X1012090Y50708D01*
X1011539Y48412D01*
X1011354Y46058D01*
X1011357D01*
Y33219D01*
X1010986Y32884D01*
X1010500Y32932D01*
X1009226Y32806D01*
X1008000Y32434D01*
X1006871Y31831D01*
X1005882Y31018D01*
X1005079Y30041D01*
X1004743Y29960D01*
X1003240Y29338D01*
X1003031Y29729D01*
X1002218Y30718D01*
X1001229Y31531D01*
X1000543Y31898D01*
X1000494Y32395D01*
X1000925Y32749D01*
X1001892Y33928D01*
X1002611Y35272D01*
X1003054Y36731D01*
X1003203Y38249D01*
X1003054Y39766D01*
X1002611Y41225D01*
X1001892Y42570D01*
X1001335Y43249D01*
X1001892Y43928D01*
X1002611Y45272D01*
X1003054Y46731D01*
X1003203Y48249D01*
X1003054Y49766D01*
X1002611Y51225D01*
X1001892Y52570D01*
X1000925Y53748D01*
X999746Y54716D01*
X998402Y55434D01*
X997185Y55804D01*
X996375Y56536D01*
X993347Y59564D01*
X993309Y59595D01*
X992786Y60277D01*
X992439Y61116D01*
X992322Y62005D01*
X992332Y62016D01*
X992332D01*
X992231Y63032D01*
Y69586D01*
X992260Y69612D01*
X995803D01*
X997012Y69731D01*
X998174Y70084D01*
X999245Y70657D01*
X1000184Y71427D01*
X1000954Y72366D01*
X1001527Y73437D01*
X1001880Y74599D01*
X1001999Y75808D01*
X1002145Y75969D01*
X1005448D01*
X1005501Y75941D01*
D02*
G37*
G36*
X1142913Y58343D02*
X1142988Y58302D01*
X1143113Y58267D01*
X1143288Y58236D01*
X1143513Y58210D01*
X1144113Y58171D01*
X1145388Y58150D01*
Y55650D01*
X1144913Y55648D01*
X1143113Y55533D01*
X1142988Y55498D01*
X1142913Y55457D01*
X1142888Y55412D01*
Y58388D01*
X1142913Y58343D01*
D02*
G37*
G36*
X1136912Y55412D02*
X1136887Y55457D01*
X1136812Y55498D01*
X1136687Y55533D01*
X1136512Y55564D01*
X1136287Y55590D01*
X1135687Y55629D01*
X1134412Y55650D01*
Y58150D01*
X1134887Y58152D01*
X1136687Y58267D01*
X1136812Y58302D01*
X1136887Y58343D01*
X1136912Y58388D01*
Y55412D01*
D02*
G37*
G36*
X35569Y97024D02*
X34664Y96251D01*
X34656Y96244D01*
X34613Y96188D01*
X33991Y95431D01*
X33330Y95631D01*
X32122Y95750D01*
X28579D01*
X27370Y95631D01*
X26208Y95279D01*
X26036Y95187D01*
X25949Y95164D01*
X25594Y94959D01*
X25475Y94899D01*
X25446Y94888D01*
X23711Y94327D01*
X23351Y94235D01*
X23275Y94205D01*
X23195Y94192D01*
X23145Y94170D01*
X22870Y94104D01*
X20653Y93185D01*
X18606Y91931D01*
X16846Y90428D01*
X16626Y90406D01*
X15401Y90034D01*
X14271Y89431D01*
X13282Y88618D01*
X12469Y87629D01*
X11866Y86500D01*
X11494Y85274D01*
X11369Y84000D01*
X11494Y82726D01*
X11866Y81501D01*
X12469Y80371D01*
X13282Y79382D01*
X14271Y78569D01*
X15239Y78052D01*
X15176Y77571D01*
X15259Y76945D01*
X15323Y76297D01*
X15694Y75072D01*
X16298Y73943D01*
X17110Y72953D01*
X18100Y72141D01*
X19229Y71537D01*
X20454Y71166D01*
X21553Y71057D01*
X21560Y71054D01*
X22931Y70874D01*
X24788D01*
X24910Y70868D01*
X25415Y70818D01*
X25453Y70811D01*
X25475Y70794D01*
X25831Y70647D01*
X26208Y70446D01*
X27370Y70093D01*
X28579Y69974D01*
X32122D01*
X33330Y70093D01*
X34493Y70446D01*
X35564Y71018D01*
X36503Y71788D01*
X37273Y72727D01*
X37845Y73798D01*
X38198Y74961D01*
X38317Y76169D01*
X38198Y77378D01*
X37845Y78540D01*
X37324Y79516D01*
X37845Y80491D01*
X37846Y80493D01*
X38122Y80729D01*
X38284Y80853D01*
X38284D01*
X38284Y80853D01*
X39766Y82335D01*
X39767Y82333D01*
X40858Y83662D01*
X41341Y83463D01*
X41281Y82862D01*
X41400Y81653D01*
X41753Y80491D01*
X42274Y79516D01*
X41753Y78540D01*
X41400Y77378D01*
X41281Y76169D01*
X41400Y74961D01*
X41753Y73798D01*
X42325Y72727D01*
X43096Y71788D01*
X44035Y71018D01*
X45106Y70446D01*
X46268Y70093D01*
X47477Y69974D01*
X51020D01*
X52228Y70093D01*
X53391Y70446D01*
X54462Y71018D01*
X55401Y71788D01*
X56171Y72727D01*
X56743Y73798D01*
X57096Y74961D01*
X57211Y76131D01*
X60504D01*
X61508Y76230D01*
X61626Y76194D01*
X62900Y76069D01*
X64174Y76194D01*
X65399Y76566D01*
X66529Y77169D01*
X67518Y77982D01*
X68331Y78971D01*
X68934Y80101D01*
X69306Y81326D01*
X69431Y82600D01*
X69675Y82869D01*
X73795D01*
X74453Y82210D01*
X74490Y82179D01*
X75014Y81498D01*
X75361Y80659D01*
X75473Y79807D01*
X75469Y79758D01*
Y57242D01*
X75473Y57193D01*
X75361Y56341D01*
X75014Y55502D01*
X74507Y54842D01*
X74463Y54824D01*
X56012D01*
X55996Y54826D01*
X55065Y54842D01*
X53876Y55478D01*
X52417Y55920D01*
X50900Y56070D01*
X49383Y55920D01*
X47924Y55478D01*
X46579Y54759D01*
X45400Y53792D01*
X44433Y52613D01*
X43714Y51269D01*
X43272Y49809D01*
X43122Y48292D01*
X43272Y46775D01*
X43714Y45316D01*
X44433Y43971D01*
X44990Y43292D01*
X44433Y42613D01*
X43714Y41269D01*
X43272Y39809D01*
X43122Y38292D01*
X43272Y36775D01*
X43714Y35316D01*
X44433Y33971D01*
X45349Y32855D01*
X45363Y32836D01*
X45376Y32822D01*
X45400Y32792D01*
X45419Y32777D01*
X45526Y32666D01*
X45572Y32610D01*
X45599Y32572D01*
X45605Y32562D01*
Y27170D01*
X45620Y27054D01*
X45767Y25183D01*
X46233Y23245D01*
X46995Y21404D01*
X48037Y19704D01*
X49255Y18278D01*
X49327Y18185D01*
X49325Y18183D01*
X51151Y16624D01*
X53197Y15370D01*
X55415Y14451D01*
X57749Y13891D01*
X60142Y13703D01*
Y13705D01*
X906657D01*
X906871Y13253D01*
X906769Y13129D01*
X906166Y11999D01*
X905794Y10774D01*
X905669Y9500D01*
X905794Y8226D01*
X906166Y7000D01*
X906769Y5871D01*
X907582Y4882D01*
X908015Y4526D01*
X907862Y4012D01*
X906549Y3909D01*
X906364Y3864D01*
X905089Y3747D01*
X905040Y3762D01*
X903766Y3888D01*
X902492Y3762D01*
X901267Y3390D01*
X900137Y2787D01*
X899148Y1975D01*
X896910Y-262D01*
X896908Y-260D01*
X895482Y-1886D01*
X895179Y-2340D01*
X894700Y-2194D01*
Y1000D01*
X918Y1000D01*
Y97493D01*
X35396D01*
X35569Y97024D01*
D02*
G37*
G36*
X493871Y89679D02*
X494738Y89320D01*
X494726Y89194D01*
X494845Y87985D01*
X495197Y86823D01*
X495719Y85847D01*
X495197Y84872D01*
X494845Y83709D01*
X494726Y82501D01*
X494814Y81603D01*
X494459Y81128D01*
X494382Y81095D01*
X494217Y81074D01*
X492742Y80958D01*
X491350Y80623D01*
X490500Y80707D01*
X489226Y80582D01*
X488000Y80210D01*
X486871Y79606D01*
X485882Y78794D01*
X485069Y77804D01*
X484466Y76675D01*
X484094Y75450D01*
X483968Y74176D01*
X484094Y72901D01*
X484466Y71676D01*
X485069Y70547D01*
X485882Y69557D01*
X486871Y68745D01*
X488000Y68141D01*
X489226Y67770D01*
X490500Y67644D01*
X491774Y67770D01*
X493000Y68141D01*
X494129Y68745D01*
X495118Y69557D01*
X495902Y70512D01*
X497130D01*
X497252Y70507D01*
X497758Y70456D01*
X497795Y70450D01*
X497818Y70433D01*
X498174Y70285D01*
X498550Y70084D01*
X499713Y69731D01*
X500921Y69612D01*
X504464D01*
X505673Y69731D01*
X506835Y70084D01*
X507906Y70657D01*
X508845Y71427D01*
X509616Y72366D01*
X510188Y73437D01*
X510540Y74599D01*
X510660Y75808D01*
X510540Y77016D01*
X510188Y78179D01*
X509740Y79017D01*
X510595Y79677D01*
X510825Y79818D01*
X510978Y79949D01*
X511015Y79974D01*
X511106Y80057D01*
X511211Y80120D01*
X511384Y80296D01*
X512456Y81211D01*
X512458Y81209D01*
X513159Y82122D01*
X513676Y81975D01*
X513743Y81292D01*
X514095Y80130D01*
X514617Y79154D01*
X514095Y78179D01*
X513743Y77016D01*
X513624Y75808D01*
X513743Y74599D01*
X514095Y73437D01*
X514668Y72366D01*
X515439Y71427D01*
X516377Y70657D01*
X517448Y70084D01*
X518611Y69731D01*
X519819Y69612D01*
X523362D01*
X524571Y69731D01*
X525733Y70084D01*
X526804Y70657D01*
X527743Y71427D01*
X528513Y72366D01*
X529086Y73437D01*
X529438Y74599D01*
X529558Y75808D01*
X529529Y76101D01*
X529864Y76472D01*
X531817D01*
X531971Y76345D01*
X533101Y75741D01*
X534326Y75370D01*
X535600Y75244D01*
X536874Y75370D01*
X538099Y75741D01*
X539229Y76345D01*
X540218Y77157D01*
X541031Y78147D01*
X541634Y79276D01*
X542006Y80501D01*
X542132Y81776D01*
X542043Y82674D01*
X542379Y83044D01*
X544082D01*
X544131Y83049D01*
X544983Y82937D01*
X545822Y82589D01*
X546504Y82066D01*
X546535Y82028D01*
X547253Y81310D01*
X547291Y81279D01*
X547814Y80598D01*
X548161Y79759D01*
X548273Y78907D01*
X548269Y78858D01*
Y56053D01*
X548271Y56029D01*
X548174Y55544D01*
X547900Y55133D01*
X547882Y55118D01*
X547874Y55109D01*
X547508Y54865D01*
X547078Y54779D01*
X547065Y54780D01*
X528081D01*
X528064Y54783D01*
X527134Y54799D01*
X525945Y55434D01*
X524486Y55877D01*
X522969Y56026D01*
X521451Y55877D01*
X519992Y55434D01*
X518648Y54716D01*
X517469Y53748D01*
X516502Y52570D01*
X515783Y51225D01*
X515341Y49766D01*
X515191Y48249D01*
X515341Y46731D01*
X515783Y45272D01*
X516502Y43928D01*
X517059Y43249D01*
X516502Y42570D01*
X515783Y41225D01*
X515341Y39766D01*
X515191Y38249D01*
X515341Y36731D01*
X515783Y35272D01*
X516502Y33928D01*
X517469Y32749D01*
X518648Y31782D01*
X519992Y31063D01*
X520876Y30795D01*
X520801Y30295D01*
X503482D01*
X503408Y30795D01*
X504291Y31063D01*
X505636Y31782D01*
X506814Y32749D01*
X507782Y33928D01*
X508500Y35272D01*
X508943Y36731D01*
X509092Y38249D01*
X508943Y39766D01*
X508500Y41225D01*
X507782Y42570D01*
X507224Y43249D01*
X507782Y43928D01*
X508500Y45272D01*
X508943Y46731D01*
X509092Y48249D01*
X508943Y49766D01*
X508500Y51225D01*
X507782Y52570D01*
X506814Y53748D01*
X505636Y54716D01*
X504291Y55434D01*
X502832Y55877D01*
X501315Y56026D01*
X499797Y55877D01*
X498338Y55434D01*
X496994Y54716D01*
X495815Y53748D01*
X494848Y52570D01*
X494129Y51225D01*
X493687Y49766D01*
X493537Y48249D01*
X493687Y46731D01*
X494129Y45272D01*
X494848Y43928D01*
X495405Y43249D01*
X494848Y42570D01*
X494129Y41225D01*
X493687Y39766D01*
X493537Y38249D01*
X493687Y36731D01*
X494129Y35272D01*
X494848Y33928D01*
X495815Y32749D01*
X496994Y31782D01*
X498338Y31063D01*
X499222Y30795D01*
X499148Y30295D01*
X293202D01*
X292643Y31024D01*
X292169Y32167D01*
X292108Y32634D01*
X292248Y32749D01*
X293215Y33928D01*
X293934Y35272D01*
X294376Y36731D01*
X294526Y38249D01*
X294376Y39766D01*
X293934Y41225D01*
X293900Y41289D01*
X294157Y41717D01*
X306707D01*
Y41713D01*
X308865Y41855D01*
X310986Y42277D01*
X313035Y42972D01*
X314974Y43929D01*
X316773Y45130D01*
X318233Y46411D01*
X318399Y46556D01*
X318399D01*
X318592Y46750D01*
X318592Y46750D01*
X320018Y48376D01*
X321220Y50174D01*
X322177Y52114D01*
X322872Y54163D01*
X323294Y56284D01*
X323435Y58442D01*
X323431D01*
Y81813D01*
X323440D01*
X323280Y83851D01*
X322803Y85839D01*
X322020Y87727D01*
X321054Y89305D01*
X321278Y89805D01*
X492644D01*
X492781Y89823D01*
X493871Y89679D01*
D02*
G37*
G36*
X1911593Y89579D02*
X1912059Y89386D01*
X1912137Y88595D01*
X1911745Y88095D01*
X1828642D01*
Y88097D01*
X1826249Y87909D01*
X1823915Y87349D01*
X1821697Y86430D01*
X1819651Y85176D01*
X1818046Y83805D01*
X1817825Y83617D01*
X1817825Y83617D01*
X1817683Y83475D01*
X1817683Y83475D01*
X1817495Y83254D01*
X1816124Y81649D01*
X1814870Y79603D01*
X1813951Y77385D01*
X1813391Y75051D01*
X1813203Y72658D01*
X1813205D01*
Y42142D01*
X1813223Y42006D01*
X1813079Y40915D01*
X1812605Y39772D01*
X1811936Y38899D01*
X1811827Y38815D01*
X1797185Y24173D01*
X1797101Y24064D01*
X1796228Y23395D01*
X1795085Y22921D01*
X1793994Y22777D01*
X1793858Y22795D01*
X1460539D01*
X1460348Y23257D01*
X1467543Y30452D01*
X1467555Y30455D01*
X1467600Y30463D01*
X1467672Y30470D01*
X1467827Y30474D01*
X1467851Y30471D01*
X1467889Y30475D01*
X1467907Y30475D01*
X1467931Y30479D01*
X1469368Y30621D01*
X1470827Y31063D01*
X1472172Y31782D01*
X1473350Y32749D01*
X1474317Y33928D01*
X1475036Y35272D01*
X1475479Y36731D01*
X1475628Y38249D01*
X1475479Y39766D01*
X1475036Y41225D01*
X1475002Y41289D01*
X1475259Y41717D01*
X1488099D01*
Y41701D01*
X1490540Y41893D01*
X1492920Y42464D01*
X1495182Y43401D01*
X1497269Y44680D01*
X1499130Y46270D01*
X1499129Y46271D01*
X1500666Y48070D01*
X1501903Y50088D01*
X1502808Y52275D01*
X1503361Y54576D01*
X1503547Y56936D01*
X1503531D01*
Y77958D01*
X1503535D01*
X1503394Y80116D01*
X1502972Y82237D01*
X1502277Y84286D01*
X1501320Y86226D01*
X1500118Y88024D01*
X1499132Y89149D01*
X1499338Y89605D01*
X1673947D01*
X1674083Y89623D01*
X1675174Y89479D01*
X1675830Y89207D01*
X1675828Y89194D01*
X1675947Y87985D01*
X1676300Y86823D01*
X1676821Y85847D01*
X1676300Y84872D01*
X1675947Y83709D01*
X1675828Y82501D01*
X1675917Y81603D01*
X1675837Y81308D01*
X1675606Y81125D01*
X1675492Y81069D01*
X1674030Y80954D01*
X1672345Y80550D01*
X1672341Y80549D01*
X1672336Y80548D01*
X1672321Y80544D01*
X1672314Y80541D01*
X1672303Y80538D01*
X1671600Y80607D01*
X1670326Y80482D01*
X1669101Y80110D01*
X1667971Y79506D01*
X1666982Y78694D01*
X1666169Y77704D01*
X1665566Y76575D01*
X1665194Y75350D01*
X1665068Y74076D01*
X1665194Y72801D01*
X1665566Y71576D01*
X1666169Y70447D01*
X1666982Y69457D01*
X1667971Y68645D01*
X1669101Y68041D01*
X1670326Y67670D01*
X1671600Y67544D01*
X1672874Y67670D01*
X1674100Y68041D01*
X1675229Y68645D01*
X1676218Y69457D01*
X1677031Y70447D01*
X1677066Y70512D01*
X1678232D01*
X1678355Y70507D01*
X1678860Y70456D01*
X1678898Y70450D01*
X1678920Y70433D01*
X1679276Y70285D01*
X1679653Y70084D01*
X1680815Y69731D01*
X1682024Y69612D01*
X1685567D01*
X1686775Y69731D01*
X1687937Y70084D01*
X1689009Y70657D01*
X1689947Y71427D01*
X1690718Y72366D01*
X1691290Y73437D01*
X1691643Y74599D01*
X1691762Y75808D01*
X1691643Y77016D01*
X1691290Y78179D01*
X1691360Y78409D01*
X1691604Y78540D01*
X1691780Y78666D01*
X1692220Y78900D01*
X1693747Y80153D01*
X1693744Y80156D01*
X1693746Y80157D01*
X1694418Y80977D01*
X1694974Y80866D01*
X1695198Y80130D01*
X1695719Y79154D01*
X1695198Y78179D01*
X1694845Y77016D01*
X1694726Y75808D01*
X1694845Y74599D01*
X1695198Y73437D01*
X1695770Y72366D01*
X1696541Y71427D01*
X1697480Y70657D01*
X1698551Y70084D01*
X1699713Y69731D01*
X1700922Y69612D01*
X1704465D01*
X1705673Y69731D01*
X1706835Y70084D01*
X1707907Y70657D01*
X1708845Y71427D01*
X1709616Y72366D01*
X1710188Y73437D01*
X1710541Y74599D01*
X1710660Y75808D01*
X1710571Y76705D01*
X1710964Y77205D01*
X1712266D01*
X1713071Y76545D01*
X1714201Y75941D01*
X1715426Y75570D01*
X1716700Y75444D01*
X1717974Y75570D01*
X1719200Y75941D01*
X1720329Y76545D01*
X1721318Y77357D01*
X1722131Y78347D01*
X1722734Y79476D01*
X1723106Y80701D01*
X1723225Y81912D01*
X1723458Y82136D01*
X1723710Y82222D01*
X1724304Y81766D01*
X1724335Y81728D01*
X1724953Y81111D01*
X1724990Y81079D01*
X1725514Y80398D01*
X1725861Y79558D01*
X1725973Y78707D01*
X1725969Y78658D01*
Y57042D01*
X1725973Y56993D01*
X1725861Y56142D01*
X1725514Y55302D01*
X1725113Y54780D01*
X1709183D01*
X1709167Y54783D01*
X1708237Y54799D01*
X1707047Y55434D01*
X1705588Y55877D01*
X1704071Y56026D01*
X1702554Y55877D01*
X1701095Y55434D01*
X1699750Y54716D01*
X1698572Y53748D01*
X1697604Y52570D01*
X1696885Y51225D01*
X1696443Y49766D01*
X1696293Y48249D01*
X1696443Y46731D01*
X1696885Y45272D01*
X1697604Y43928D01*
X1698162Y43249D01*
X1697604Y42570D01*
X1696885Y41225D01*
X1696443Y39766D01*
X1696293Y38249D01*
X1696443Y36731D01*
X1696885Y35272D01*
X1697604Y33928D01*
X1698572Y32749D01*
X1699750Y31782D01*
X1701095Y31063D01*
X1702554Y30621D01*
X1704071Y30471D01*
X1705588Y30621D01*
X1707047Y31063D01*
X1708392Y31782D01*
X1709571Y32749D01*
X1710538Y33928D01*
X1711257Y35272D01*
X1711699Y36731D01*
X1711849Y38249D01*
X1711699Y39766D01*
X1711257Y41225D01*
X1711223Y41289D01*
X1711480Y41717D01*
X1725413D01*
Y41710D01*
X1727356Y41863D01*
X1729251Y42318D01*
X1731051Y43064D01*
X1732713Y44082D01*
X1734194Y45348D01*
X1734192Y45350D01*
X1735618Y46976D01*
X1736820Y48774D01*
X1737777Y50714D01*
X1738472Y52763D01*
X1738894Y54884D01*
X1739035Y57042D01*
X1739031D01*
Y78658D01*
X1739035D01*
X1738894Y80816D01*
X1738472Y82938D01*
X1737777Y84986D01*
X1736820Y86926D01*
X1735618Y88724D01*
X1735158Y89249D01*
X1735364Y89705D01*
X1910366D01*
X1910503Y89723D01*
X1911593Y89579D01*
D02*
G37*
G36*
X729592Y90179D02*
X730735Y89705D01*
X730978Y89519D01*
X730946Y89194D01*
X731065Y87985D01*
X731418Y86823D01*
X731940Y85847D01*
X731418Y84872D01*
X731065Y83709D01*
X730946Y82501D01*
X731035Y81603D01*
X730656Y81121D01*
X730602Y81098D01*
X730417Y81074D01*
X728942Y80958D01*
X727550Y80623D01*
X726700Y80707D01*
X725426Y80582D01*
X724200Y80210D01*
X723071Y79606D01*
X722082Y78794D01*
X721269Y77804D01*
X720666Y76675D01*
X720294Y75450D01*
X720168Y74176D01*
X720294Y72901D01*
X720666Y71676D01*
X721269Y70547D01*
X722082Y69557D01*
X723071Y68745D01*
X724200Y68141D01*
X725426Y67770D01*
X726700Y67644D01*
X727974Y67770D01*
X729200Y68141D01*
X730329Y68745D01*
X731318Y69557D01*
X732102Y70512D01*
X733351D01*
X733473Y70507D01*
X733978Y70456D01*
X734016Y70450D01*
X734038Y70433D01*
X734395Y70285D01*
X734771Y70084D01*
X735933Y69731D01*
X737142Y69612D01*
X740685D01*
X741893Y69731D01*
X743056Y70084D01*
X744127Y70657D01*
X745065Y71427D01*
X745836Y72366D01*
X746408Y73437D01*
X746761Y74599D01*
X746880Y75808D01*
X746761Y77016D01*
X746408Y78179D01*
X746329Y78328D01*
X746874Y78619D01*
X747297Y78967D01*
X747526Y79131D01*
X747559Y79171D01*
X747601Y79202D01*
X747630Y79240D01*
X748023Y79562D01*
X748144Y79656D01*
X748298Y79856D01*
X749195Y80906D01*
X749497Y81399D01*
X749669Y81360D01*
X749981Y81233D01*
X750316Y80130D01*
X750838Y79154D01*
X750316Y78179D01*
X749963Y77016D01*
X749844Y75808D01*
X749963Y74599D01*
X750316Y73437D01*
X750888Y72366D01*
X751659Y71427D01*
X752598Y70657D01*
X753669Y70084D01*
X754831Y69731D01*
X756040Y69612D01*
X759583D01*
X760791Y69731D01*
X761953Y70084D01*
X763025Y70657D01*
X763964Y71427D01*
X764734Y72366D01*
X765306Y73437D01*
X765659Y74599D01*
X765778Y75808D01*
X765768Y75906D01*
X766104Y76276D01*
X768861D01*
X769301Y76041D01*
X770526Y75670D01*
X771800Y75544D01*
X773074Y75670D01*
X774299Y76041D01*
X775429Y76645D01*
X776418Y77457D01*
X777231Y78447D01*
X777834Y79576D01*
X778206Y80801D01*
X778291Y81664D01*
X778816Y81891D01*
X779086Y81684D01*
X779117Y81646D01*
X779953Y80810D01*
X779990Y80779D01*
X780514Y80098D01*
X780861Y79259D01*
X780973Y78407D01*
X780969Y78358D01*
Y58442D01*
X780973Y58393D01*
X780861Y57542D01*
X780514Y56702D01*
X779990Y56021D01*
X779953Y55989D01*
X779759Y55796D01*
X779728Y55758D01*
X779047Y55235D01*
X778207Y54888D01*
X777355Y54776D01*
X777307Y54780D01*
X764301D01*
X764285Y54783D01*
X763355Y54799D01*
X762166Y55434D01*
X760707Y55877D01*
X759189Y56026D01*
X757672Y55877D01*
X756213Y55434D01*
X754868Y54716D01*
X753690Y53748D01*
X752722Y52570D01*
X752004Y51225D01*
X751561Y49766D01*
X751412Y48249D01*
X751561Y46731D01*
X752004Y45272D01*
X752722Y43928D01*
X753280Y43249D01*
X752722Y42570D01*
X752004Y41225D01*
X751561Y39766D01*
X751412Y38249D01*
X751515Y37195D01*
X751062Y36695D01*
X745662D01*
X745209Y37195D01*
X745313Y38249D01*
X745163Y39766D01*
X744721Y41225D01*
X744002Y42570D01*
X743445Y43249D01*
X744002Y43928D01*
X744721Y45272D01*
X745163Y46731D01*
X745313Y48249D01*
X745163Y49766D01*
X744721Y51225D01*
X744002Y52570D01*
X743035Y53748D01*
X741856Y54716D01*
X740512Y55434D01*
X739052Y55877D01*
X737535Y56026D01*
X736018Y55877D01*
X734559Y55434D01*
X733214Y54716D01*
X732036Y53748D01*
X731068Y52570D01*
X730350Y51225D01*
X729907Y49766D01*
X729758Y48249D01*
X729907Y46731D01*
X730350Y45272D01*
X731068Y43928D01*
X731626Y43249D01*
X731068Y42570D01*
X730350Y41225D01*
X729907Y39766D01*
X729758Y38249D01*
X729861Y37195D01*
X729408Y36695D01*
X533960D01*
X533823Y36677D01*
X532733Y36821D01*
X531589Y37295D01*
X530718Y37963D01*
X530746Y38249D01*
X530597Y39766D01*
X530154Y41225D01*
X530120Y41289D01*
X530377Y41717D01*
X547065D01*
Y41705D01*
X549291Y41880D01*
X551462Y42401D01*
X553525Y43256D01*
X555429Y44423D01*
X557127Y45873D01*
X557128Y45872D01*
X558595Y47590D01*
X559775Y49517D01*
X560640Y51604D01*
X561167Y53800D01*
X561344Y56053D01*
X561332D01*
Y78858D01*
X561335D01*
X561194Y81016D01*
X560772Y83138D01*
X560077Y85186D01*
X559120Y87126D01*
X557918Y88924D01*
X557107Y89849D01*
X557313Y90305D01*
X728365D01*
X728501Y90323D01*
X729592Y90179D01*
D02*
G37*
G36*
X1438553Y89879D02*
X1439631Y89433D01*
X1439608Y89194D01*
X1439727Y87985D01*
X1440079Y86823D01*
X1440601Y85847D01*
X1440079Y84872D01*
X1439727Y83709D01*
X1439608Y82501D01*
X1439696Y81603D01*
X1439304Y81103D01*
X1439240D01*
X1439017Y81074D01*
X1437542Y80958D01*
X1436150Y80623D01*
X1435300Y80707D01*
X1434026Y80582D01*
X1432800Y80210D01*
X1431671Y79606D01*
X1430682Y78794D01*
X1429869Y77804D01*
X1429266Y76675D01*
X1428894Y75450D01*
X1428769Y74176D01*
X1428894Y72901D01*
X1429266Y71676D01*
X1429869Y70547D01*
X1430682Y69557D01*
X1431671Y68745D01*
X1432800Y68141D01*
X1434026Y67770D01*
X1435300Y67644D01*
X1436574Y67770D01*
X1437799Y68141D01*
X1438929Y68745D01*
X1439918Y69557D01*
X1440702Y70512D01*
X1442012D01*
X1442134Y70507D01*
X1442640Y70456D01*
X1442677Y70450D01*
X1442700Y70433D01*
X1443056Y70285D01*
X1443432Y70084D01*
X1444594Y69731D01*
X1445803Y69612D01*
X1449346D01*
X1450555Y69731D01*
X1451717Y70084D01*
X1452788Y70657D01*
X1453727Y71427D01*
X1454497Y72366D01*
X1455070Y73437D01*
X1455422Y74599D01*
X1455542Y75808D01*
X1455422Y77016D01*
X1455070Y78179D01*
X1454700Y78871D01*
X1455120Y79148D01*
X1455634Y79462D01*
X1455945Y79729D01*
X1456128Y79846D01*
X1456287Y80020D01*
X1456908Y80551D01*
X1457044Y80656D01*
X1457045Y80655D01*
X1458063Y81894D01*
X1458581Y81737D01*
X1458625Y81292D01*
X1458977Y80130D01*
X1459499Y79154D01*
X1458977Y78179D01*
X1458625Y77016D01*
X1458506Y75808D01*
X1458625Y74599D01*
X1458977Y73437D01*
X1459550Y72366D01*
X1460320Y71427D01*
X1461259Y70657D01*
X1462330Y70084D01*
X1463492Y69731D01*
X1464701Y69612D01*
X1468244D01*
X1469453Y69731D01*
X1470615Y70084D01*
X1471686Y70657D01*
X1472625Y71427D01*
X1473395Y72366D01*
X1473968Y73437D01*
X1474320Y74599D01*
X1474440Y75808D01*
X1474351Y76705D01*
X1474743Y77205D01*
X1476088D01*
X1476771Y76645D01*
X1477901Y76041D01*
X1479126Y75670D01*
X1480400Y75544D01*
X1481674Y75670D01*
X1482899Y76041D01*
X1484029Y76645D01*
X1485018Y77457D01*
X1485831Y78447D01*
X1486434Y79576D01*
X1486806Y80801D01*
X1486920Y81956D01*
X1487339Y82324D01*
X1487422Y82289D01*
X1488104Y81766D01*
X1488135Y81728D01*
X1489453Y80410D01*
X1489491Y80379D01*
X1490014Y79698D01*
X1490361Y78859D01*
X1490473Y78007D01*
X1490469Y77958D01*
Y56936D01*
X1490475Y56867D01*
X1490335Y56161D01*
X1489935Y55562D01*
X1489882Y55518D01*
X1489816Y55439D01*
X1489076Y54944D01*
X1488202Y54770D01*
X1488099Y54780D01*
X1472963D01*
X1472946Y54783D01*
X1472016Y54799D01*
X1470827Y55434D01*
X1469368Y55877D01*
X1467851Y56026D01*
X1466333Y55877D01*
X1464874Y55434D01*
X1463530Y54716D01*
X1462351Y53748D01*
X1461384Y52570D01*
X1460665Y51225D01*
X1460223Y49766D01*
X1460073Y48249D01*
X1460223Y46731D01*
X1460665Y45272D01*
X1461384Y43928D01*
X1461941Y43249D01*
X1461384Y42570D01*
X1460665Y41225D01*
X1460223Y39766D01*
X1460081Y38330D01*
X1460077Y38306D01*
X1460077Y38287D01*
X1460073Y38249D01*
X1460075Y38225D01*
X1460072Y38071D01*
X1460065Y37998D01*
X1460057Y37953D01*
X1460054Y37941D01*
X1452286Y30173D01*
X1452203Y30064D01*
X1451330Y29395D01*
X1450187Y28921D01*
X1449096Y28777D01*
X1448960Y28795D01*
X1230187D01*
X1230014Y29264D01*
X1230856Y29983D01*
X1230855Y29985D01*
X1231322Y30452D01*
X1231334Y30455D01*
X1231380Y30463D01*
X1231452Y30470D01*
X1231606Y30474D01*
X1231630Y30471D01*
X1231669Y30475D01*
X1231687Y30475D01*
X1231711Y30479D01*
X1233148Y30621D01*
X1234606Y31063D01*
X1235951Y31782D01*
X1237130Y32749D01*
X1238097Y33928D01*
X1238816Y35272D01*
X1239258Y36731D01*
X1239408Y38249D01*
X1239258Y39766D01*
X1238816Y41225D01*
X1238782Y41289D01*
X1239039Y41717D01*
X1250799D01*
Y41700D01*
X1253277Y41895D01*
X1255695Y42475D01*
X1257992Y43427D01*
X1260111Y44726D01*
X1262002Y46340D01*
X1261992Y46350D01*
X1263418Y47976D01*
X1264620Y49774D01*
X1265577Y51714D01*
X1266272Y53763D01*
X1266694Y55884D01*
X1266835Y58042D01*
X1266831D01*
Y83013D01*
X1266836D01*
X1266691Y84861D01*
X1266258Y86664D01*
X1265548Y88377D01*
X1264858Y89505D01*
X1265138Y90005D01*
X1437326D01*
X1437463Y90023D01*
X1438553Y89879D01*
D02*
G37*
G36*
X256424Y89805D02*
Y89805D01*
X256459Y89836D01*
X257651Y89679D01*
X258518Y89320D01*
X258505Y89194D01*
X258625Y87985D01*
X258977Y86823D01*
X259499Y85847D01*
X258977Y84872D01*
X258625Y83709D01*
X258505Y82501D01*
X258599Y81549D01*
X258246Y81020D01*
X257294Y80945D01*
X255428Y80497D01*
X255394Y80483D01*
X255214Y80426D01*
X254672Y80270D01*
X254300Y80307D01*
X253026Y80182D01*
X251800Y79810D01*
X250671Y79206D01*
X249682Y78394D01*
X248869Y77404D01*
X248266Y76275D01*
X247894Y75050D01*
X247769Y73776D01*
X247894Y72501D01*
X248266Y71276D01*
X248869Y70147D01*
X249682Y69157D01*
X250671Y68345D01*
X251800Y67741D01*
X253026Y67370D01*
X254300Y67244D01*
X255574Y67370D01*
X256800Y67741D01*
X257929Y68345D01*
X258918Y69157D01*
X259731Y70147D01*
X259926Y70512D01*
X260910D01*
X261032Y70507D01*
X261537Y70456D01*
X261575Y70450D01*
X261597Y70433D01*
X261954Y70285D01*
X262330Y70084D01*
X263492Y69731D01*
X264701Y69612D01*
X268244D01*
X269452Y69731D01*
X270615Y70084D01*
X271686Y70657D01*
X272624Y71427D01*
X273395Y72366D01*
X273968Y73437D01*
X274320Y74599D01*
X274439Y75808D01*
X274320Y77016D01*
X273968Y78179D01*
X273519Y79018D01*
X274259Y79625D01*
X274398Y79732D01*
X274429Y79772D01*
X275734Y81300D01*
X276691Y82861D01*
X276973Y83228D01*
X277019Y83236D01*
X277460Y83073D01*
X277403Y82501D01*
X277522Y81292D01*
X277875Y80130D01*
X278397Y79154D01*
X277875Y78179D01*
X277522Y77016D01*
X277403Y75808D01*
X277522Y74599D01*
X277875Y73437D01*
X278448Y72366D01*
X279218Y71427D01*
X280157Y70657D01*
X281228Y70084D01*
X282390Y69731D01*
X283599Y69612D01*
X287142D01*
X288350Y69731D01*
X289513Y70084D01*
X290584Y70657D01*
X291523Y71427D01*
X292293Y72366D01*
X292865Y73437D01*
X293218Y74599D01*
X293337Y75808D01*
X293393Y75869D01*
X295498D01*
X295771Y75645D01*
X296901Y75041D01*
X298126Y74670D01*
X299400Y74544D01*
X300674Y74670D01*
X301900Y75041D01*
X303029Y75645D01*
X304018Y76457D01*
X304831Y77447D01*
X305434Y78576D01*
X305806Y79801D01*
X305931Y81076D01*
X305836Y82044D01*
X306226Y82544D01*
X308541D01*
X308557Y82546D01*
X309215Y82459D01*
X309844Y82199D01*
X310345Y81814D01*
X310345Y81813D01*
X310365Y81765D01*
X310369Y81763D01*
Y58442D01*
X310373Y58393D01*
X310261Y57542D01*
X309914Y56702D01*
X309390Y56021D01*
X309353Y55989D01*
X309159Y55796D01*
X309128Y55758D01*
X308447Y55235D01*
X307607Y54888D01*
X306755Y54776D01*
X306707Y54780D01*
X291861D01*
X291844Y54783D01*
X290914Y54799D01*
X289725Y55434D01*
X288266Y55877D01*
X286748Y56026D01*
X285231Y55877D01*
X283772Y55434D01*
X282427Y54716D01*
X281249Y53748D01*
X280281Y52570D01*
X279563Y51225D01*
X279120Y49766D01*
X278971Y48249D01*
X279120Y46731D01*
X279563Y45272D01*
X280281Y43928D01*
X280839Y43249D01*
X280281Y42570D01*
X279563Y41225D01*
X279120Y39766D01*
X278971Y38249D01*
X279120Y36731D01*
X279563Y35272D01*
X280281Y33928D01*
X281249Y32749D01*
X281519Y32527D01*
X281639Y31001D01*
X282200Y28667D01*
X283118Y26449D01*
X284132Y24795D01*
X283852Y24295D01*
X60142D01*
X60006Y24277D01*
X58915Y24421D01*
X57772Y24895D01*
X56899Y25564D01*
X56815Y25673D01*
X56727Y25741D01*
X56323Y26346D01*
X56181Y27059D01*
X56195Y27170D01*
Y32562D01*
X56201Y32572D01*
X56228Y32610D01*
X56274Y32666D01*
X56381Y32777D01*
X56400Y32792D01*
X56424Y32822D01*
X56437Y32836D01*
X56451Y32855D01*
X57367Y33971D01*
X58086Y35316D01*
X58528Y36775D01*
X58678Y38292D01*
X58528Y39809D01*
X58086Y41269D01*
X58052Y41332D01*
X58309Y41761D01*
X74535D01*
Y41752D01*
X76561Y41912D01*
X78538Y42386D01*
X80416Y43164D01*
X82150Y44226D01*
X83696Y45547D01*
X83692Y45550D01*
X85118Y47176D01*
X86320Y48974D01*
X87277Y50914D01*
X87972Y52962D01*
X88394Y55084D01*
X88535Y57242D01*
X88531D01*
Y79758D01*
X88535D01*
X88394Y81916D01*
X87972Y84038D01*
X87277Y86086D01*
X86320Y88026D01*
X85399Y89405D01*
X85666Y89905D01*
X255664D01*
X256424Y89805D01*
D02*
G37*
G36*
X1039512Y55312D02*
X1039492Y55405D01*
X1039432Y55488D01*
X1039332Y55561D01*
X1039192Y55624D01*
X1039012Y55678D01*
X1038792Y55722D01*
X1038532Y55756D01*
X1037892Y55795D01*
X1037512Y55800D01*
Y57800D01*
X1037892Y57805D01*
X1038792Y57878D01*
X1039012Y57922D01*
X1039192Y57976D01*
X1039332Y58039D01*
X1039432Y58112D01*
X1039492Y58195D01*
X1039512Y58288D01*
Y55312D01*
D02*
G37*
G36*
X1083513Y58243D02*
X1083588Y58202D01*
X1083713Y58167D01*
X1083888Y58136D01*
X1084113Y58109D01*
X1084713Y58071D01*
X1085988Y58050D01*
Y55550D01*
X1085513Y55548D01*
X1083713Y55433D01*
X1083588Y55398D01*
X1083513Y55357D01*
X1083488Y55312D01*
Y58288D01*
X1083513Y58243D01*
D02*
G37*
G36*
X1099512Y55312D02*
X1099487Y55357D01*
X1099412Y55398D01*
X1099287Y55433D01*
X1099112Y55464D01*
X1098887Y55490D01*
X1098287Y55529D01*
X1097012Y55550D01*
Y58050D01*
X1097487Y58052D01*
X1099287Y58167D01*
X1099412Y58202D01*
X1099487Y58243D01*
X1099512Y58288D01*
Y55312D01*
D02*
G37*
G36*
X1075269Y58571D02*
X1075344Y58462D01*
X1075469Y58365D01*
X1075644Y58282D01*
X1075869Y58211D01*
X1076144Y58153D01*
X1076435Y58113D01*
X1077287Y58167D01*
X1077412Y58202D01*
X1077487Y58243D01*
X1077512Y58288D01*
Y58053D01*
X1077744Y58050D01*
Y55550D01*
X1077512Y55544D01*
Y55312D01*
X1077487Y55357D01*
X1077412Y55398D01*
X1077287Y55433D01*
X1077112Y55464D01*
X1076887Y55490D01*
X1076812Y55495D01*
X1076464Y55437D01*
X1076138Y55350D01*
X1075862Y55238D01*
X1075636Y55100D01*
X1075459Y54937D01*
X1075333Y54750D01*
X1075258Y54537D01*
X1075232Y54300D01*
X1075235Y55546D01*
X1075012Y55550D01*
Y58050D01*
X1075242Y58051D01*
X1075244Y58693D01*
X1075269Y58571D01*
D02*
G37*
G36*
X1045508Y58195D02*
X1045568Y58112D01*
X1045668Y58039D01*
X1045808Y57976D01*
X1045988Y57922D01*
X1046208Y57878D01*
X1046468Y57844D01*
X1047108Y57805D01*
X1047488Y57800D01*
Y55800D01*
X1047108Y55795D01*
X1046208Y55722D01*
X1045988Y55678D01*
X1045808Y55624D01*
X1045668Y55561D01*
X1045568Y55488D01*
X1045508Y55405D01*
X1045488Y55312D01*
Y58288D01*
X1045508Y58195D01*
D02*
G37*
G36*
X1061512Y55312D02*
X1061492Y55405D01*
X1061432Y55488D01*
X1061332Y55561D01*
X1061192Y55624D01*
X1061012Y55678D01*
X1060792Y55722D01*
X1060532Y55756D01*
X1059892Y55795D01*
X1059512Y55800D01*
Y57800D01*
X1059892Y57805D01*
X1060792Y57878D01*
X1061012Y57922D01*
X1061192Y57976D01*
X1061332Y58039D01*
X1061432Y58112D01*
X1061492Y58195D01*
X1061512Y58288D01*
Y55312D01*
D02*
G37*
G36*
X1069758Y58054D02*
X1069988Y58050D01*
Y55550D01*
X1069765Y55549D01*
X1069768Y54300D01*
X1069742Y54537D01*
X1069666Y54750D01*
X1069541Y54937D01*
X1069365Y55100D01*
X1069138Y55238D01*
X1068862Y55350D01*
X1068536Y55437D01*
X1068326Y55472D01*
X1067713Y55433D01*
X1067588Y55398D01*
X1067513Y55357D01*
X1067488Y55312D01*
Y55544D01*
X1067256Y55550D01*
Y58050D01*
X1067488Y58053D01*
Y58288D01*
X1067513Y58243D01*
X1067588Y58202D01*
X1067713Y58167D01*
X1067888Y58136D01*
X1068113Y58109D01*
X1068249Y58101D01*
X1068856Y58153D01*
X1069131Y58211D01*
X1069356Y58282D01*
X1069531Y58365D01*
X1069656Y58462D01*
X1069731Y58571D01*
X1069756Y58693D01*
X1069758Y58054D01*
D02*
G37*
G36*
X1061512Y70312D02*
X1061487Y70357D01*
X1061412Y70398D01*
X1061287Y70433D01*
X1061112Y70464D01*
X1060887Y70490D01*
X1060287Y70529D01*
X1059012Y70550D01*
Y73050D01*
X1059487Y73052D01*
X1061287Y73167D01*
X1061412Y73202D01*
X1061487Y73243D01*
X1061512Y73288D01*
Y70312D01*
D02*
G37*
G36*
X1083513Y73243D02*
X1083588Y73202D01*
X1083713Y73167D01*
X1083888Y73136D01*
X1084113Y73110D01*
X1084713Y73071D01*
X1085988Y73050D01*
Y70550D01*
X1085513Y70548D01*
X1083713Y70433D01*
X1083588Y70398D01*
X1083513Y70357D01*
X1083488Y70312D01*
Y73288D01*
X1083513Y73243D01*
D02*
G37*
G36*
X1045513D02*
X1045588Y73202D01*
X1045713Y73167D01*
X1045888Y73136D01*
X1046113Y73110D01*
X1046713Y73071D01*
X1047988Y73050D01*
Y70550D01*
X1047513Y70548D01*
X1045713Y70433D01*
X1045588Y70398D01*
X1045513Y70357D01*
X1045488Y70312D01*
Y73288D01*
X1045513Y73243D01*
D02*
G37*
G36*
X1180513D02*
X1180588Y73202D01*
X1180713Y73167D01*
X1180888Y73136D01*
X1181113Y73110D01*
X1181208Y73103D01*
X1182369Y73182D01*
X1182444Y73217D01*
X1182469Y73256D01*
X1182469Y73059D01*
X1182988Y73050D01*
Y70550D01*
X1182513Y70548D01*
X1182477Y70545D01*
X1182481Y69300D01*
X1182455Y69538D01*
X1182379Y69750D01*
X1182253Y69937D01*
X1182077Y70100D01*
X1181851Y70237D01*
X1181575Y70350D01*
X1181248Y70438D01*
X1181118Y70459D01*
X1180713Y70433D01*
X1180588Y70398D01*
X1180513Y70357D01*
X1180488Y70312D01*
Y70534D01*
X1180445Y70538D01*
X1179969Y70550D01*
Y73050D01*
X1180444Y73052D01*
X1180488Y73055D01*
Y73288D01*
X1180513Y73243D01*
D02*
G37*
G36*
X1142909Y73343D02*
X1142970Y73302D01*
X1143073Y73267D01*
X1143218Y73236D01*
X1143403Y73210D01*
X1143822Y73177D01*
X1144756Y73194D01*
X1144756Y73154D01*
X1144949Y73150D01*
Y70650D01*
X1144764Y70649D01*
X1144768Y69400D01*
X1144742Y69638D01*
X1144666Y69850D01*
X1144540Y70038D01*
X1144364Y70200D01*
X1144138Y70337D01*
X1143862Y70450D01*
X1143536Y70538D01*
X1143332Y70571D01*
X1143218Y70564D01*
X1143073Y70533D01*
X1142970Y70498D01*
X1142909Y70457D01*
X1142888Y70412D01*
Y70624D01*
X1142733Y70638D01*
X1142256Y70650D01*
Y73150D01*
X1142888Y73161D01*
Y73388D01*
X1142909Y73343D01*
D02*
G37*
G36*
X1099512Y70312D02*
X1099487Y70357D01*
X1099412Y70398D01*
X1099287Y70433D01*
X1099112Y70464D01*
X1098887Y70490D01*
X1098287Y70529D01*
X1097012Y70550D01*
Y73050D01*
X1097487Y73052D01*
X1099287Y73167D01*
X1099412Y73202D01*
X1099487Y73243D01*
X1099512Y73288D01*
Y70312D01*
D02*
G37*
G36*
X1136912Y70412D02*
X1136887Y70457D01*
X1136812Y70498D01*
X1136687Y70533D01*
X1136512Y70564D01*
X1136287Y70591D01*
X1135687Y70629D01*
X1134412Y70650D01*
Y73150D01*
X1134887Y73152D01*
X1136687Y73267D01*
X1136812Y73302D01*
X1136887Y73343D01*
X1136912Y73388D01*
Y70412D01*
D02*
G37*
G36*
X1039512Y70312D02*
X1039487Y70357D01*
X1039412Y70398D01*
X1039287Y70433D01*
X1039112Y70464D01*
X1038887Y70490D01*
X1038507Y70515D01*
X1038341Y70500D01*
X1037964Y70438D01*
X1037638Y70350D01*
X1037362Y70237D01*
X1037136Y70100D01*
X1036960Y69937D01*
X1036834Y69750D01*
X1036758Y69538D01*
X1036732Y69300D01*
X1036744Y73194D01*
X1036769Y73166D01*
X1036844Y73142D01*
X1036969Y73120D01*
X1037144Y73102D01*
X1037787Y73071D01*
X1039287Y73167D01*
X1039412Y73202D01*
X1039487Y73243D01*
X1039512Y73288D01*
Y70312D01*
D02*
G37*
G36*
X1120913Y73343D02*
X1120988Y73302D01*
X1121113Y73267D01*
X1121288Y73236D01*
X1121513Y73210D01*
X1122113Y73171D01*
X1123388Y73150D01*
Y70650D01*
X1122913Y70648D01*
X1121113Y70533D01*
X1120988Y70498D01*
X1120913Y70457D01*
X1120888Y70412D01*
Y73388D01*
X1120913Y73343D01*
D02*
G37*
G36*
X1158513Y73243D02*
X1158588Y73202D01*
X1158713Y73167D01*
X1158888Y73136D01*
X1159113Y73110D01*
X1159713Y73071D01*
X1160988Y73050D01*
Y70550D01*
X1160513Y70548D01*
X1158713Y70433D01*
X1158588Y70398D01*
X1158513Y70357D01*
X1158488Y70312D01*
Y73288D01*
X1158513Y73243D01*
D02*
G37*
G36*
X1174512Y70312D02*
X1174487Y70357D01*
X1174412Y70398D01*
X1174287Y70433D01*
X1174112Y70464D01*
X1173887Y70490D01*
X1173287Y70529D01*
X1172012Y70550D01*
Y73050D01*
X1172487Y73052D01*
X1174287Y73167D01*
X1174412Y73202D01*
X1174487Y73243D01*
X1174512Y73288D01*
Y70312D01*
D02*
G37*
G36*
X964880Y-240010D02*
X964997Y-240108D01*
X965132Y-240194D01*
X965287Y-240268D01*
X965460Y-240331D01*
X965653Y-240383D01*
X965864Y-240423D01*
X966095Y-240452D01*
X966344Y-240469D01*
X966613Y-240474D01*
X966261Y-242974D01*
X965991Y-242978D01*
X965287Y-243039D01*
X965088Y-243075D01*
X964907Y-243119D01*
X964744Y-243171D01*
X964599Y-243231D01*
X964472Y-243300D01*
X964363Y-243376D01*
X964783Y-239901D01*
X964880Y-240010D01*
D02*
G37*
G36*
X1031256Y61406D02*
X1031231Y61616D01*
X1031156Y61803D01*
X1031031Y61968D01*
X1030856Y62111D01*
X1030631Y62232D01*
X1030356Y62331D01*
X1030031Y62408D01*
X1029870Y62431D01*
X1029777Y62413D01*
X1029585Y62361D01*
X1029413Y62296D01*
X1029260Y62221D01*
X1029126Y62133D01*
X1029012Y62034D01*
X1028917Y61923D01*
X1028833Y62505D01*
X1028756Y62507D01*
Y63038D01*
X1028417Y65387D01*
X1028526Y65315D01*
X1028653Y65250D01*
X1028797Y65193D01*
X1028960Y65144D01*
X1029141Y65102D01*
X1029340Y65067D01*
X1029571Y65044D01*
X1029656Y65051D01*
X1030031Y65106D01*
X1030356Y65183D01*
X1030631Y65282D01*
X1030856Y65403D01*
X1031031Y65546D01*
X1031156Y65711D01*
X1031231Y65898D01*
X1031256Y66107D01*
Y61406D01*
D02*
G37*
G36*
X1115126Y63551D02*
X1114674Y63379D01*
X1114269Y63200D01*
X1113911Y63013D01*
X1113601Y62820D01*
X1113340Y62619D01*
X1113125Y62411D01*
X1112958Y62196D01*
X1112839Y61973D01*
X1112768Y61743D01*
X1112744Y61506D01*
Y66207D01*
X1115050Y66314D01*
X1115126Y63551D01*
D02*
G37*
G36*
X973378Y-242065D02*
X973860Y-242139D01*
X974204Y-242214D01*
X974408Y-242290D01*
X974474Y-242369D01*
X974401Y-242449D01*
X974190Y-242530D01*
X973839Y-242614D01*
X973350Y-242699D01*
X971955Y-242873D01*
X970728Y-240474D01*
X970848Y-240461D01*
X971231Y-240391D01*
X971264Y-240377D01*
X971282Y-240363D01*
X971286Y-240349D01*
X971276Y-240335D01*
X973378Y-242065D01*
D02*
G37*
G36*
X1075268Y65898D02*
X1075342Y65711D01*
X1075464Y65546D01*
X1075635Y65403D01*
X1075855Y65282D01*
X1076124Y65183D01*
X1076442Y65106D01*
X1076808Y65051D01*
X1077224Y65018D01*
X1077688Y65007D01*
Y62507D01*
X1077224Y62496D01*
X1076808Y62463D01*
X1076442Y62408D01*
X1076124Y62331D01*
X1075855Y62232D01*
X1075635Y62111D01*
X1075464Y61968D01*
X1075342Y61803D01*
X1075268Y61616D01*
X1075244Y61406D01*
Y66107D01*
X1075268Y65898D01*
D02*
G37*
G36*
X502224Y91378D02*
X499416Y90769D01*
X499401Y90772D01*
X499376Y90786D01*
X499341Y90810D01*
X499297Y90846D01*
X499107Y91018D01*
X498832Y91287D01*
X500599Y93055D01*
X502224Y91378D01*
D02*
G37*
G36*
X1967582Y1200D02*
X1082000Y1200D01*
Y57D01*
X1081982Y-32D01*
Y-235056D01*
X1081482Y-235197D01*
X1080834Y-234138D01*
X1079418Y-232482D01*
X1077762Y-231066D01*
X1075904Y-229928D01*
X1073891Y-229094D01*
X1071772Y-228586D01*
X1069600Y-228415D01*
X1067428Y-228586D01*
X1065309Y-229094D01*
X1063296Y-229928D01*
X1061438Y-231066D01*
X1059782Y-232482D01*
X1058366Y-234138D01*
X1057228Y-235996D01*
X1056394Y-238009D01*
X1055886Y-240128D01*
X1055715Y-242300D01*
X1055886Y-244472D01*
X1056394Y-246591D01*
X1057228Y-248604D01*
X1058366Y-250462D01*
X1059782Y-252118D01*
X1061438Y-253534D01*
X1062808Y-254373D01*
X1062667Y-254873D01*
X913533D01*
X913392Y-254373D01*
X914762Y-253534D01*
X916418Y-252118D01*
X917834Y-250462D01*
X918972Y-248604D01*
X919806Y-246591D01*
X920314Y-244472D01*
X920485Y-242300D01*
X920314Y-240128D01*
X919806Y-238009D01*
X918972Y-235996D01*
X917834Y-234138D01*
X916418Y-232482D01*
X915426Y-231634D01*
X915631Y-231152D01*
X916600Y-231247D01*
X928000D01*
X929902Y-231060D01*
X931730Y-230505D01*
X933415Y-229604D01*
X934892Y-228392D01*
X936104Y-226915D01*
X937005Y-225230D01*
X937560Y-223401D01*
X937747Y-221500D01*
X937560Y-219599D01*
X937005Y-217770D01*
X936104Y-216085D01*
X934892Y-214608D01*
X934091Y-213950D01*
Y-213450D01*
X934892Y-212792D01*
X936104Y-211315D01*
X937005Y-209630D01*
X937560Y-207802D01*
X937747Y-205900D01*
X937560Y-203998D01*
X937005Y-202170D01*
X936104Y-200485D01*
X934892Y-199008D01*
X933415Y-197796D01*
X931730Y-196895D01*
X929902Y-196340D01*
X928000Y-196153D01*
X916600D01*
X914699Y-196340D01*
X912870Y-196895D01*
X911185Y-197796D01*
X909708Y-199008D01*
X908496Y-200485D01*
X907595Y-202170D01*
X907040Y-203998D01*
X906853Y-205900D01*
X907040Y-207802D01*
X907178Y-208255D01*
X906749Y-208512D01*
X906147Y-207910D01*
X906110Y-207879D01*
X905586Y-207198D01*
X905239Y-206359D01*
X905127Y-205507D01*
X905132Y-205458D01*
Y-193574D01*
X905158Y-193560D01*
X906147Y-192747D01*
X906960Y-191758D01*
X907195Y-191318D01*
X906479Y-191300D01*
Y-186300D01*
X907319Y-186279D01*
X907750Y-186245D01*
X907563Y-185629D01*
X906960Y-184500D01*
X906147Y-183510D01*
X906147D01*
X906133Y-183510D01*
X905586Y-182798D01*
X905239Y-181958D01*
X905132Y-181143D01*
Y-163997D01*
X905395Y-163802D01*
X905632Y-163713D01*
X906830Y-163831D01*
X909612D01*
X909908Y-164192D01*
X910792Y-164918D01*
Y-165418D01*
X909708Y-166308D01*
X908496Y-167785D01*
X907595Y-169470D01*
X907040Y-171299D01*
X906853Y-173200D01*
X907040Y-175101D01*
X907595Y-176930D01*
X908496Y-178615D01*
X909708Y-180092D01*
X911185Y-181304D01*
X912870Y-182205D01*
X913377Y-182359D01*
X913430Y-182897D01*
X912860Y-183202D01*
X911839Y-184039D01*
X911002Y-185060D01*
X910693Y-185638D01*
X910974Y-185538D01*
X911597Y-185263D01*
X912183Y-184946D01*
X912733Y-184586D01*
X913246Y-184184D01*
Y-188300D01*
X922300D01*
X933110D01*
Y-186305D01*
X933139Y-186541D01*
X933228Y-186753D01*
X933375Y-186940D01*
X933580Y-187102D01*
X933845Y-187239D01*
X934168Y-187351D01*
X934550Y-187438D01*
X934590Y-187443D01*
X934220Y-186224D01*
X933598Y-185060D01*
X932761Y-184039D01*
X931740Y-183202D01*
X931170Y-182897D01*
X931223Y-182359D01*
X931730Y-182205D01*
X933415Y-181304D01*
X934892Y-180092D01*
X936104Y-178615D01*
X937005Y-176930D01*
X937560Y-175101D01*
X937747Y-173200D01*
X937560Y-171299D01*
X937005Y-169470D01*
X936104Y-167785D01*
X934892Y-166308D01*
X934008Y-165582D01*
Y-165082D01*
X935092Y-164192D01*
X936304Y-162715D01*
X937205Y-161030D01*
X937760Y-159202D01*
X937947Y-157300D01*
X937760Y-155398D01*
X937205Y-153570D01*
X936304Y-151885D01*
X935092Y-150408D01*
X934291Y-149750D01*
Y-149250D01*
X935092Y-148592D01*
X936304Y-147115D01*
X937205Y-145430D01*
X937760Y-143602D01*
X937947Y-141700D01*
X937760Y-139798D01*
X937205Y-137970D01*
X936304Y-136285D01*
X935092Y-134808D01*
X934291Y-134150D01*
Y-133650D01*
X935092Y-132992D01*
X936304Y-131515D01*
X937205Y-129830D01*
X937760Y-128001D01*
X937947Y-126100D01*
X937760Y-124198D01*
X937205Y-122370D01*
X936304Y-120685D01*
X935092Y-119208D01*
X933615Y-117996D01*
X931930Y-117095D01*
X930101Y-116540D01*
X928200Y-116353D01*
X916800D01*
X914898Y-116540D01*
X913070Y-117095D01*
X911385Y-117996D01*
X909908Y-119208D01*
X908696Y-120685D01*
X907795Y-122370D01*
X907240Y-124198D01*
X907053Y-126100D01*
X907240Y-128001D01*
X907795Y-129830D01*
X908696Y-131515D01*
X909908Y-132992D01*
X910709Y-133650D01*
Y-134150D01*
X909908Y-134808D01*
X908696Y-136285D01*
X907795Y-137970D01*
X907240Y-139798D01*
X907053Y-141700D01*
X907240Y-143602D01*
X907795Y-145430D01*
X908696Y-147115D01*
X909908Y-148592D01*
X910709Y-149250D01*
Y-149750D01*
X909908Y-150408D01*
X909812Y-150525D01*
X909302Y-150314D01*
X908621Y-149791D01*
X908589Y-149753D01*
X907590Y-148754D01*
X907589Y-148751D01*
X907020Y-148140D01*
X906611Y-147629D01*
X906261Y-147114D01*
X905963Y-146590D01*
X905715Y-146053D01*
X905511Y-145498D01*
X905351Y-144917D01*
X905234Y-144305D01*
X905162Y-143655D01*
X905132Y-142820D01*
X905132Y-142817D01*
Y-116955D01*
X905560Y-116697D01*
X905900Y-116879D01*
X907126Y-117251D01*
X908400Y-117376D01*
X909674Y-117251D01*
X910900Y-116879D01*
X912029Y-116276D01*
X913018Y-115463D01*
X913831Y-114474D01*
X914434Y-113345D01*
X914806Y-112119D01*
X914931Y-110845D01*
X914806Y-109571D01*
X914434Y-108345D01*
X913831Y-107216D01*
X913695Y-107051D01*
Y-95574D01*
X914041Y-95343D01*
X914005Y-94912D01*
X913970Y-94697D01*
X913925Y-94500D01*
X913870Y-94321D01*
X913805Y-94160D01*
X913730Y-94017D01*
X913645Y-93892D01*
X913550Y-93785D01*
X914800D01*
Y-92000D01*
Y-88536D01*
X914386Y-88590D01*
X914111Y-88704D01*
X913695Y-88426D01*
Y-20686D01*
X913690Y-20645D01*
X913755Y-20318D01*
X913940Y-20041D01*
X913973Y-20015D01*
X918215Y-15773D01*
X918299Y-15664D01*
X919172Y-14995D01*
X920315Y-14521D01*
X921406Y-14377D01*
X921542Y-14395D01*
X923238D01*
X923495Y-14824D01*
X923416Y-14973D01*
X923080Y-16079D01*
X922967Y-17230D01*
Y-20970D01*
X923080Y-22121D01*
X923416Y-23227D01*
X923882Y-24100D01*
X923416Y-24973D01*
X923080Y-26079D01*
X922967Y-27230D01*
Y-30970D01*
X923080Y-32121D01*
X923416Y-33227D01*
X923666Y-33696D01*
X923407Y-34272D01*
X923067Y-34354D01*
X921474Y-35014D01*
X920004Y-35915D01*
X918857Y-36894D01*
X918685Y-37027D01*
X918600Y-37137D01*
X917635Y-38312D01*
X916853Y-39775D01*
X916372Y-41363D01*
X916223Y-42876D01*
X916205Y-43014D01*
Y-88210D01*
X915829Y-88539D01*
X915800Y-88536D01*
Y-92000D01*
Y-93785D01*
X917050D01*
X916955Y-93892D01*
X916870Y-94017D01*
X916795Y-94160D01*
X916730Y-94321D01*
X916675Y-94500D01*
X916630Y-94697D01*
X916595Y-94912D01*
X916570Y-95145D01*
X916550Y-95665D01*
X916001D01*
X916292Y-95898D01*
X916391Y-97151D01*
X916951Y-99485D01*
X917870Y-101703D01*
X919124Y-103749D01*
X920683Y-105575D01*
X920685Y-105573D01*
X924827Y-109715D01*
X924825Y-109717D01*
X926651Y-111276D01*
X928697Y-112530D01*
X930915Y-113449D01*
X933249Y-114009D01*
X935642Y-114197D01*
Y-114195D01*
X962558D01*
X962694Y-114177D01*
X963785Y-114321D01*
X964928Y-114795D01*
X965801Y-115464D01*
X965885Y-115573D01*
X969573Y-119262D01*
X969594Y-119474D01*
X969966Y-120700D01*
X970569Y-121829D01*
X971382Y-122818D01*
X972371Y-123631D01*
X973501Y-124234D01*
X974726Y-124606D01*
X976000Y-124731D01*
X977274Y-124606D01*
X978500Y-124234D01*
X979629Y-123631D01*
X980618Y-122818D01*
X981431Y-121829D01*
X982034Y-120700D01*
X982406Y-119474D01*
X982532Y-118200D01*
X982406Y-116926D01*
X982034Y-115700D01*
X981431Y-114571D01*
X980618Y-113582D01*
X979629Y-112769D01*
X978500Y-112166D01*
X977274Y-111794D01*
X977062Y-111773D01*
X973373Y-108085D01*
X973375Y-108083D01*
X971549Y-106524D01*
X969503Y-105270D01*
X967285Y-104351D01*
X964951Y-103791D01*
X962558Y-103603D01*
Y-103605D01*
X935642D01*
X935506Y-103623D01*
X934415Y-103479D01*
X933272Y-103005D01*
X932399Y-102336D01*
X932315Y-102227D01*
X928173Y-98085D01*
X928064Y-98001D01*
X927394Y-97128D01*
X926921Y-95985D01*
X926777Y-94894D01*
X926795Y-94758D01*
Y-86896D01*
X927197Y-86598D01*
X927714Y-86755D01*
X928865Y-86869D01*
X936936D01*
X938087Y-86755D01*
X939193Y-86420D01*
X940213Y-85874D01*
X941107Y-85141D01*
X941840Y-84247D01*
X942385Y-83227D01*
X942721Y-82121D01*
X942834Y-80970D01*
Y-77230D01*
X942721Y-76079D01*
X942385Y-74973D01*
X942216Y-74655D01*
X942522Y-74168D01*
X944685Y-73649D01*
X946903Y-72730D01*
X948949Y-71476D01*
X950775Y-69917D01*
X950773Y-69915D01*
X964278Y-56410D01*
X964763Y-56532D01*
X964966Y-57200D01*
X965197Y-57633D01*
X965205Y-57740D01*
Y-70906D01*
X965069Y-71071D01*
X964466Y-72201D01*
X964094Y-73426D01*
X963968Y-74700D01*
X964094Y-75974D01*
X964466Y-77200D01*
X965069Y-78329D01*
X965882Y-79318D01*
X966871Y-80131D01*
X968001Y-80734D01*
X969226Y-81106D01*
X970500Y-81231D01*
X971774Y-81106D01*
X972999Y-80734D01*
X974129Y-80131D01*
X975118Y-79318D01*
X975931Y-78329D01*
X976534Y-77200D01*
X976906Y-75974D01*
X977032Y-74700D01*
X976906Y-73426D01*
X976534Y-72201D01*
X975931Y-71071D01*
X975795Y-70906D01*
Y-59103D01*
X976431Y-58329D01*
X977034Y-57200D01*
X977406Y-55974D01*
X977532Y-54700D01*
X977406Y-53426D01*
X977034Y-52201D01*
X976431Y-51071D01*
X975618Y-50082D01*
X974629Y-49269D01*
X973499Y-48666D01*
X972832Y-48463D01*
X972711Y-47978D01*
X976000Y-44688D01*
X976546Y-44850D01*
X977069Y-45829D01*
X977882Y-46818D01*
X978871Y-47631D01*
X980000Y-48234D01*
X981226Y-48606D01*
X982500Y-48731D01*
X983286Y-48654D01*
X983657Y-48990D01*
Y-69777D01*
X998743D01*
Y-69739D01*
X999114Y-69403D01*
X999400Y-69431D01*
X1000674Y-69306D01*
X1001900Y-68934D01*
X1003029Y-68331D01*
X1004018Y-67518D01*
X1004831Y-66529D01*
X1005434Y-65399D01*
X1005806Y-64174D01*
X1005931Y-62900D01*
X1005806Y-61626D01*
X1005434Y-60400D01*
X1004831Y-59271D01*
X1004018Y-58282D01*
X1003029Y-57469D01*
X1001900Y-56866D01*
X1000674Y-56494D01*
X1000133Y-56441D01*
X999844Y-56281D01*
X999711Y-56195D01*
X999591Y-56139D01*
X999485Y-56060D01*
X999352Y-56008D01*
X999199Y-55878D01*
X999056Y-55810D01*
X998927Y-55717D01*
X998743Y-55618D01*
Y-48195D01*
X986420D01*
X986207Y-47695D01*
X986398Y-47495D01*
X1004735D01*
Y-47497D01*
X1007128Y-47309D01*
X1009462Y-46749D01*
X1010289Y-46406D01*
X1010705Y-46684D01*
Y-129058D01*
X1010723Y-129194D01*
X1010579Y-130285D01*
X1010106Y-131428D01*
X1009436Y-132301D01*
X1009327Y-132385D01*
X1008185Y-133527D01*
X1008101Y-133636D01*
X1007228Y-134305D01*
X1006085Y-134779D01*
X1004994Y-134923D01*
X1004858Y-134905D01*
X984697D01*
Y-134903D01*
X982304Y-135091D01*
X979970Y-135652D01*
X977752Y-136570D01*
X975706Y-137824D01*
X973880Y-139383D01*
X973391Y-139410D01*
X973378D01*
X972169Y-139529D01*
X971007Y-139882D01*
X969936Y-140454D01*
X968997Y-141225D01*
X968227Y-142164D01*
X967654Y-143235D01*
X967302Y-144397D01*
X967183Y-145605D01*
X967302Y-146814D01*
X967458Y-147329D01*
X967217Y-147750D01*
X964999Y-148669D01*
X962952Y-149923D01*
X961127Y-151482D01*
X961128Y-151483D01*
X958585Y-154027D01*
X958583Y-154025D01*
X957024Y-155851D01*
X955770Y-157897D01*
X954852Y-160115D01*
X954291Y-162449D01*
X954103Y-164842D01*
X954105D01*
Y-213658D01*
X954103D01*
X954291Y-216051D01*
X954852Y-218385D01*
X955770Y-220603D01*
X957024Y-222649D01*
X958583Y-224475D01*
X958585Y-224473D01*
X961434Y-227322D01*
X961432Y-227324D01*
X963258Y-228883D01*
X965304Y-230137D01*
X967522Y-231055D01*
X967564Y-231128D01*
X967302Y-231991D01*
X967183Y-233200D01*
X967302Y-234409D01*
X967654Y-235571D01*
X967884Y-236000D01*
X967627Y-236429D01*
X966959D01*
X966429Y-235994D01*
X965300Y-235390D01*
X964074Y-235018D01*
X962800Y-234893D01*
X961526Y-235018D01*
X960301Y-235390D01*
X959171Y-235994D01*
X958182Y-236806D01*
X957369Y-237796D01*
X956766Y-238925D01*
X956394Y-240150D01*
X956269Y-241424D01*
X956394Y-242699D01*
X956766Y-243924D01*
X957369Y-245053D01*
X958182Y-246043D01*
X959171Y-246855D01*
X960301Y-247459D01*
X961526Y-247830D01*
X962800Y-247956D01*
X964074Y-247830D01*
X965300Y-247459D01*
X966121Y-247020D01*
X970728D01*
X970912Y-246995D01*
X972424Y-246876D01*
X972456Y-246877D01*
X972515Y-246869D01*
X972533Y-246868D01*
X972541Y-246866D01*
X973851Y-246702D01*
X973944Y-246678D01*
X974040Y-246674D01*
X974529Y-246589D01*
X974648Y-246552D01*
X974772Y-246539D01*
X975122Y-246456D01*
X975377Y-246359D01*
X975641Y-246295D01*
X975853Y-246213D01*
X976073Y-246093D01*
X976086Y-246088D01*
X976921D01*
X978130Y-245969D01*
X979292Y-245617D01*
X980363Y-245044D01*
X981206Y-244352D01*
X981728Y-244274D01*
X981789D01*
X982728Y-245418D01*
X982728Y-245417D01*
X984656Y-247344D01*
X984824Y-247473D01*
X985987Y-248466D01*
X987470Y-249376D01*
X989078Y-250042D01*
X990770Y-250448D01*
X992294Y-250568D01*
X992504Y-250595D01*
X1015600D01*
Y-250600D01*
X1015647Y-250595D01*
X1016759D01*
Y-250598D01*
X1018218Y-250406D01*
X1019578Y-249843D01*
X1019739Y-249719D01*
X1021361Y-248852D01*
X1022933Y-247563D01*
X1022929Y-247559D01*
X1024115Y-246373D01*
X1024117Y-246375D01*
X1025676Y-244549D01*
X1026930Y-242503D01*
X1027849Y-240285D01*
X1028409Y-237951D01*
X1028597Y-235558D01*
X1028595D01*
Y-213894D01*
X1028731Y-213729D01*
X1029334Y-212599D01*
X1029500Y-212053D01*
X1030000Y-212127D01*
Y-213700D01*
X1039817D01*
X1039988Y-213722D01*
X1040025Y-213718D01*
X1040063Y-213722D01*
X1040208Y-213700D01*
X1044000D01*
Y-213495D01*
X1052000D01*
Y-213700D01*
X1053695D01*
X1054031Y-214071D01*
X1053969Y-214700D01*
X1054094Y-215974D01*
X1054466Y-217199D01*
X1055069Y-218329D01*
X1055882Y-219318D01*
X1056871Y-220131D01*
X1058000Y-220734D01*
X1059226Y-221106D01*
X1060500Y-221231D01*
X1061774Y-221106D01*
X1063000Y-220734D01*
X1064129Y-220131D01*
X1065118Y-219318D01*
X1065931Y-218329D01*
X1066534Y-217199D01*
X1066906Y-215974D01*
X1067031Y-214700D01*
X1066906Y-213426D01*
X1066534Y-212200D01*
X1066000Y-211201D01*
Y-210096D01*
X1066003Y-210083D01*
X1066000Y-209986D01*
Y-209867D01*
X1066022Y-209700D01*
X1066000Y-209525D01*
Y-204326D01*
X1066618Y-203818D01*
X1067431Y-202829D01*
X1068034Y-201699D01*
X1068406Y-200474D01*
X1068532Y-199200D01*
X1068406Y-197926D01*
X1068034Y-196701D01*
X1067431Y-195571D01*
X1066618Y-194582D01*
X1066412Y-194412D01*
X1066086Y-193848D01*
X1066007Y-193688D01*
X1066000Y-193678D01*
Y-192028D01*
X1066178Y-191954D01*
X1068225Y-190700D01*
X1070050Y-189141D01*
X1070049Y-189140D01*
X1070815Y-188373D01*
X1070817Y-188375D01*
X1072376Y-186549D01*
X1073630Y-184503D01*
X1074549Y-182285D01*
X1075109Y-179951D01*
X1075297Y-177558D01*
X1075295D01*
Y-153842D01*
X1075297D01*
X1075109Y-151449D01*
X1074549Y-149115D01*
X1073630Y-146897D01*
X1072376Y-144851D01*
X1070817Y-143025D01*
X1070815Y-143027D01*
X1065613Y-137824D01*
X1065613Y-137824D01*
X1065613Y-137824D01*
X1065353Y-137431D01*
X1065289Y-137108D01*
X1065295Y-137058D01*
Y-105921D01*
X1065795Y-105742D01*
X1066282Y-106334D01*
X1067271Y-107146D01*
X1068400Y-107750D01*
X1069626Y-108122D01*
X1070900Y-108247D01*
X1072174Y-108122D01*
X1073400Y-107750D01*
X1074529Y-107146D01*
X1075518Y-106334D01*
X1076331Y-105344D01*
X1076934Y-104215D01*
X1077306Y-102990D01*
X1077339Y-102649D01*
X1077351Y-102607D01*
X1077355Y-102595D01*
X1077388Y-102519D01*
X1077521Y-102294D01*
X1077612Y-102157D01*
X1077686Y-102007D01*
X1078606Y-100505D01*
X1079510Y-98323D01*
X1080061Y-96027D01*
X1080246Y-93674D01*
X1080243D01*
Y-18082D01*
X1080217Y-17882D01*
X1080091Y-16602D01*
X1079859Y-15839D01*
X1079844Y-15726D01*
X1079772Y-15550D01*
X1079659Y-15180D01*
X1079477Y-14840D01*
X1079340Y-14510D01*
X1079210Y-14339D01*
X1078959Y-13870D01*
X1078825Y-13707D01*
X1078783Y-13605D01*
X1077932Y-12497D01*
X1077932Y-12497D01*
X1077577Y-12145D01*
X1076324Y-10892D01*
X1076311Y-10825D01*
X1076292Y-10687D01*
X1076279Y-10504D01*
X1076275Y-10228D01*
X1076278Y-10200D01*
X1076128Y-8683D01*
X1075686Y-7224D01*
X1074967Y-5879D01*
X1074000Y-4700D01*
X1072821Y-3733D01*
X1072635Y-3634D01*
X1073134Y-2699D01*
X1073506Y-1474D01*
X1073631Y-200D01*
X1073506Y1074D01*
X1073134Y2300D01*
X1072531Y3429D01*
X1072395Y3594D01*
Y7958D01*
X1072397D01*
X1072209Y10351D01*
X1071649Y12685D01*
X1070730Y14903D01*
X1070352Y15519D01*
X1070737Y15848D01*
X1071908Y14848D01*
X1073758Y13714D01*
X1075762Y12884D01*
X1077872Y12378D01*
X1079985Y12211D01*
X1080035Y12205D01*
X1793858D01*
Y12203D01*
X1796251Y12391D01*
X1798585Y12952D01*
X1800803Y13870D01*
X1802849Y15124D01*
X1804675Y16683D01*
X1804673Y16685D01*
X1819315Y31327D01*
X1819317Y31325D01*
X1820876Y33151D01*
X1822130Y35197D01*
X1822707Y36591D01*
X1823202Y36664D01*
X1823500Y36300D01*
X1824679Y35333D01*
X1826024Y34614D01*
X1827483Y34172D01*
X1829000Y34022D01*
X1830517Y34172D01*
X1831976Y34614D01*
X1833321Y35333D01*
X1834500Y36300D01*
X1835467Y37479D01*
X1835685Y37888D01*
X1836174Y37993D01*
X1836609Y37659D01*
X1837763Y37182D01*
X1838500Y37085D01*
Y41800D01*
X1839500D01*
Y38523D01*
X1842740Y41763D01*
X1842749Y41386D01*
X1842783Y41023D01*
X1842842Y40674D01*
X1842926Y40338D01*
X1843036Y40015D01*
X1843171Y39706D01*
X1843331Y39410D01*
X1843517Y39128D01*
X1843727Y38860D01*
X1843963Y38605D01*
X1842670Y37312D01*
X1843500Y36300D01*
X1844679Y35333D01*
X1846024Y34614D01*
X1847483Y34172D01*
X1849000Y34022D01*
X1850517Y34172D01*
X1851976Y34614D01*
X1853321Y35333D01*
X1854500Y36300D01*
X1855467Y37479D01*
X1856186Y38824D01*
X1856628Y40283D01*
X1856778Y41800D01*
X1856628Y43317D01*
X1856501Y43737D01*
X1856740Y44060D01*
X1856740D01*
Y59540D01*
X1841260D01*
Y59540D01*
X1840937Y59301D01*
X1840517Y59428D01*
X1839000Y59578D01*
X1837483Y59428D01*
X1836024Y58986D01*
X1834679Y58267D01*
X1834000Y57710D01*
X1833321Y58267D01*
X1831976Y58986D01*
X1830517Y59428D01*
X1829000Y59578D01*
X1827483Y59428D01*
X1826024Y58986D01*
X1824679Y58267D01*
X1824247Y57912D01*
X1823795Y58126D01*
Y72658D01*
X1823777Y72794D01*
X1823921Y73885D01*
X1824395Y75028D01*
X1825064Y75901D01*
X1825173Y75985D01*
X1825315Y76127D01*
X1825399Y76236D01*
X1826272Y76905D01*
X1827415Y77379D01*
X1828506Y77523D01*
X1828642Y77505D01*
X1901476D01*
X1901733Y77076D01*
X1901466Y76575D01*
X1901094Y75350D01*
X1900969Y74076D01*
X1901094Y72801D01*
X1901466Y71576D01*
X1902069Y70447D01*
X1902882Y69457D01*
X1903871Y68645D01*
X1905000Y68041D01*
X1906226Y67670D01*
X1907500Y67544D01*
X1908774Y67670D01*
X1909999Y68041D01*
X1911129Y68645D01*
X1912118Y69457D01*
X1912931Y70447D01*
X1913126Y70812D01*
X1914453D01*
X1914575Y70806D01*
X1915081Y70756D01*
X1915118Y70749D01*
X1915141Y70732D01*
X1915497Y70584D01*
X1915873Y70383D01*
X1917035Y70031D01*
X1918244Y69912D01*
X1921787D01*
X1922996Y70031D01*
X1923367Y70143D01*
X1923768Y69845D01*
Y63691D01*
X1923773Y63642D01*
X1923661Y62790D01*
X1923314Y61951D01*
X1922791Y61269D01*
X1922753Y61238D01*
X1917996Y56482D01*
X1917983Y56472D01*
X1917314Y55826D01*
X1916024Y55434D01*
X1914679Y54716D01*
X1913500Y53748D01*
X1912533Y52570D01*
X1911814Y51225D01*
X1911372Y49766D01*
X1911222Y48249D01*
X1911372Y46731D01*
X1911814Y45272D01*
X1912533Y43928D01*
X1913090Y43249D01*
X1912533Y42570D01*
X1911814Y41225D01*
X1911372Y39766D01*
X1911222Y38249D01*
X1911372Y36731D01*
X1911814Y35272D01*
X1912533Y33928D01*
X1913500Y32749D01*
X1914679Y31782D01*
X1916024Y31063D01*
X1917483Y30621D01*
X1919000Y30471D01*
X1920517Y30621D01*
X1921976Y31063D01*
X1923321Y31782D01*
X1924500Y32749D01*
X1925467Y33928D01*
X1926186Y35272D01*
X1926628Y36731D01*
X1926778Y38249D01*
X1926628Y39766D01*
X1926186Y41225D01*
X1925467Y42570D01*
X1924910Y43249D01*
X1925467Y43928D01*
X1926186Y45272D01*
X1926555Y46489D01*
X1927287Y47299D01*
X1931989Y52002D01*
X1931992Y51999D01*
X1933418Y53625D01*
X1934620Y55423D01*
X1935577Y57363D01*
X1936272Y59411D01*
X1936694Y61533D01*
X1936835Y63691D01*
X1936831D01*
Y69630D01*
X1937142Y69912D01*
X1940685D01*
X1941894Y70031D01*
X1943056Y70383D01*
X1944127Y70956D01*
X1945066Y71726D01*
X1945836Y72665D01*
X1946037Y73041D01*
X1946604D01*
X1947069Y72171D01*
X1947882Y71182D01*
X1948871Y70369D01*
X1950001Y69766D01*
X1951226Y69394D01*
X1952500Y69269D01*
X1953774Y69394D01*
X1955000Y69766D01*
X1956129Y70369D01*
X1957118Y71182D01*
X1957931Y72171D01*
X1958534Y73300D01*
X1958906Y74526D01*
X1959031Y75800D01*
X1958906Y77074D01*
X1958534Y78299D01*
X1957997Y79305D01*
X1958031Y79347D01*
X1958634Y80476D01*
X1959006Y81701D01*
X1959131Y82976D01*
X1959006Y84250D01*
X1958634Y85475D01*
X1958126Y86426D01*
X1958634Y87376D01*
X1959006Y88601D01*
X1959131Y89876D01*
X1959006Y91150D01*
X1958634Y92375D01*
X1958031Y93504D01*
X1957218Y94494D01*
X1956229Y95306D01*
X1955099Y95910D01*
X1953874Y96282D01*
X1952600Y96407D01*
X1951326Y96282D01*
X1950101Y95910D01*
X1950091Y95905D01*
X1946803D01*
X1946759Y95910D01*
X1946315Y95905D01*
X1939837D01*
Y95911D01*
X1939529Y95881D01*
X1939469Y95899D01*
X1938194Y96025D01*
X1935575D01*
Y96028D01*
X1934148Y95888D01*
X1932776Y95472D01*
X1932626Y95391D01*
X1932005Y95203D01*
X1930640Y94473D01*
X1929444Y93492D01*
X1929449Y93487D01*
X1927962Y92000D01*
X1927374Y92120D01*
X1926938Y92935D01*
X1926168Y93874D01*
X1925229Y94644D01*
X1924158Y95217D01*
X1922996Y95569D01*
X1921787Y95688D01*
X1921630D01*
X1921183Y95817D01*
X1919806Y96993D01*
X1919991Y97493D01*
X1967582D01*
Y1200D01*
D02*
G37*
G36*
X1067513Y73243D02*
X1067588Y73202D01*
X1067713Y73167D01*
X1067888Y73136D01*
X1068113Y73110D01*
X1068412Y73090D01*
X1069731Y73166D01*
X1069756Y73194D01*
X1069757Y73054D01*
X1069988Y73050D01*
Y70550D01*
X1069764Y70549D01*
X1069768Y69300D01*
X1069742Y69538D01*
X1069666Y69750D01*
X1069540Y69937D01*
X1069364Y70100D01*
X1069138Y70237D01*
X1068862Y70350D01*
X1068536Y70438D01*
X1068326Y70472D01*
X1067713Y70433D01*
X1067588Y70398D01*
X1067513Y70357D01*
X1067488Y70312D01*
Y70544D01*
X1067256Y70550D01*
Y73050D01*
X1067488Y73051D01*
Y73288D01*
X1067513Y73243D01*
D02*
G37*
G36*
X1082674Y70300D02*
X1082480Y70228D01*
X1082309Y70108D01*
X1082161Y69940D01*
X1082035Y69723D01*
X1081933Y69459D01*
X1081853Y69147D01*
X1081796Y68786D01*
X1081761Y68378D01*
X1081750Y67921D01*
X1079250D01*
X1079239Y68378D01*
X1079204Y68786D01*
X1079147Y69147D01*
X1079068Y69459D01*
X1078965Y69723D01*
X1078839Y69940D01*
X1078691Y70108D01*
X1078520Y70228D01*
X1078326Y70300D01*
X1078109Y70324D01*
X1082891D01*
X1082674Y70300D01*
D02*
G37*
G36*
X1157777Y70299D02*
X1157551Y70226D01*
X1157339Y70103D01*
X1157140Y69930D01*
X1156955Y69709D01*
X1156784Y69438D01*
X1156626Y69119D01*
X1156482Y68750D01*
X1156352Y68332D01*
X1156235Y67864D01*
X1153584Y67901D01*
X1153675Y68361D01*
X1153730Y68773D01*
X1153750Y69137D01*
X1153736Y69451D01*
X1153685Y69718D01*
X1153600Y69936D01*
X1153480Y70106D01*
X1153325Y70227D01*
X1153134Y70300D01*
X1152908Y70324D01*
X1158016D01*
X1157777Y70299D01*
D02*
G37*
G36*
X1120162Y70399D02*
X1119950Y70323D01*
X1119763Y70198D01*
X1119600Y70022D01*
X1119462Y69796D01*
X1119350Y69520D01*
X1119263Y69193D01*
X1119200Y68816D01*
X1119162Y68389D01*
X1119150Y67912D01*
X1116650D01*
X1116638Y68389D01*
X1116600Y68816D01*
X1116537Y69193D01*
X1116450Y69520D01*
X1116337Y69796D01*
X1116200Y70022D01*
X1116037Y70198D01*
X1115850Y70323D01*
X1115637Y70399D01*
X1115400Y70424D01*
X1120400D01*
X1120162Y70399D01*
D02*
G37*
%LPC*%
G36*
X1017755Y-4700D02*
X1016836D01*
X1016890Y-5114D01*
X1017165Y-5777D01*
X1017173Y-5770D01*
X1017321Y-5609D01*
X1017450Y-5439D01*
X1017558Y-5259D01*
X1017647Y-5070D01*
X1017715Y-4871D01*
X1017755Y-4700D01*
D02*
G37*
G36*
X1019800Y-736D02*
X1019386Y-790D01*
X1018535Y-1143D01*
X1017804Y-1704D01*
X1017243Y-2435D01*
X1016890Y-3286D01*
X1016836Y-3700D01*
X1019800D01*
Y-736D01*
D02*
G37*
G36*
X995925Y-181985D02*
Y-186200D01*
X1000141D01*
X1000044Y-185463D01*
X999566Y-184309D01*
X998806Y-183319D01*
X997816Y-182560D01*
X996663Y-182082D01*
X995925Y-181985D01*
D02*
G37*
G36*
X994925Y-181985D02*
X994188Y-182082D01*
X993035Y-182560D01*
X992045Y-183319D01*
X991285Y-184309D01*
X990807Y-185463D01*
X990710Y-186200D01*
X994925D01*
Y-181985D01*
D02*
G37*
G36*
X1190543Y58791D02*
X1186500D01*
Y56756D01*
X1188515D01*
X1188276Y56732D01*
X1188051Y56658D01*
X1187840Y56534D01*
X1187644Y56362D01*
X1187462Y56140D01*
X1187295Y55869D01*
X1187230Y55732D01*
X1190543D01*
Y58791D01*
D02*
G37*
G36*
Y62850D02*
X1186500D01*
Y59791D01*
X1190543D01*
Y62850D01*
D02*
G37*
G36*
X1072000Y48757D02*
X1069768D01*
Y47257D01*
X1069748Y47447D01*
X1069688Y47617D01*
X1069587Y47767D01*
X1069446Y47897D01*
X1069265Y48007D01*
X1069044Y48097D01*
X1068782Y48167D01*
X1068744Y48173D01*
Y45895D01*
X1072000D01*
Y48757D01*
D02*
G37*
G36*
X29246Y56070D02*
X27729Y55920D01*
X26270Y55478D01*
X24925Y54759D01*
X23746Y53792D01*
X22779Y52613D01*
X22060Y51269D01*
X21618Y49809D01*
X21468Y48292D01*
X21618Y46775D01*
X22060Y45316D01*
X22779Y43971D01*
X23336Y43292D01*
X22779Y42613D01*
X22060Y41269D01*
X21618Y39809D01*
X21468Y38292D01*
X21618Y36775D01*
X22060Y35316D01*
X22779Y33971D01*
X23746Y32792D01*
X24925Y31825D01*
X26270Y31106D01*
X27729Y30664D01*
X29246Y30514D01*
X30763Y30664D01*
X32222Y31106D01*
X33567Y31825D01*
X34746Y32792D01*
X35713Y33971D01*
X36432Y35316D01*
X36874Y36775D01*
X37024Y38292D01*
X36874Y39809D01*
X36432Y41269D01*
X35713Y42613D01*
X35156Y43292D01*
X35713Y43971D01*
X36432Y45316D01*
X36874Y46775D01*
X37024Y48292D01*
X36874Y49809D01*
X36432Y51269D01*
X35713Y52613D01*
X34746Y53792D01*
X33567Y54759D01*
X32222Y55478D01*
X30763Y55920D01*
X29246Y56070D01*
D02*
G37*
G36*
X1755000Y74885D02*
X1752828Y74714D01*
X1750709Y74206D01*
X1748696Y73372D01*
X1746838Y72233D01*
X1745182Y70818D01*
X1743767Y69162D01*
X1742628Y67304D01*
X1741794Y65291D01*
X1741286Y63172D01*
X1741115Y61000D01*
X1741286Y58828D01*
X1741794Y56709D01*
X1742628Y54696D01*
X1743767Y52838D01*
X1745182Y51182D01*
X1746838Y49766D01*
X1748696Y48628D01*
X1750709Y47794D01*
X1752828Y47286D01*
X1755000Y47115D01*
X1757172Y47286D01*
X1759291Y47794D01*
X1761304Y48628D01*
X1763162Y49766D01*
X1764818Y51182D01*
X1766233Y52838D01*
X1767372Y54696D01*
X1768206Y56709D01*
X1768714Y58828D01*
X1768885Y61000D01*
X1768714Y63172D01*
X1768206Y65291D01*
X1767372Y67304D01*
X1766233Y69162D01*
X1764818Y70818D01*
X1763162Y72233D01*
X1761304Y73372D01*
X1759291Y74206D01*
X1757172Y74714D01*
X1755000Y74885D01*
D02*
G37*
G36*
X1682417Y56026D02*
X1680900Y55877D01*
X1679441Y55434D01*
X1678096Y54716D01*
X1676917Y53748D01*
X1675950Y52570D01*
X1675232Y51225D01*
X1674789Y49766D01*
X1674640Y48249D01*
X1674789Y46731D01*
X1675232Y45272D01*
X1675950Y43928D01*
X1676508Y43249D01*
X1675950Y42570D01*
X1675232Y41225D01*
X1674789Y39766D01*
X1674640Y38249D01*
X1674789Y36731D01*
X1675232Y35272D01*
X1675950Y33928D01*
X1676917Y32749D01*
X1678096Y31782D01*
X1679441Y31063D01*
X1680900Y30621D01*
X1682417Y30471D01*
X1683934Y30621D01*
X1685393Y31063D01*
X1686738Y31782D01*
X1687917Y32749D01*
X1688884Y33928D01*
X1689603Y35272D01*
X1690045Y36731D01*
X1690195Y38249D01*
X1690045Y39766D01*
X1689603Y41225D01*
X1688884Y42570D01*
X1688327Y43249D01*
X1688884Y43928D01*
X1689603Y45272D01*
X1690045Y46731D01*
X1690195Y48249D01*
X1690045Y49766D01*
X1689603Y51225D01*
X1688884Y52570D01*
X1687917Y53748D01*
X1686738Y54716D01*
X1685393Y55434D01*
X1683934Y55877D01*
X1682417Y56026D01*
D02*
G37*
G36*
X1446197D02*
X1444679Y55877D01*
X1443220Y55434D01*
X1441876Y54716D01*
X1440697Y53748D01*
X1439730Y52570D01*
X1439011Y51225D01*
X1438568Y49766D01*
X1438419Y48249D01*
X1438568Y46731D01*
X1439011Y45272D01*
X1439730Y43928D01*
X1440287Y43249D01*
X1439730Y42570D01*
X1439011Y41225D01*
X1438568Y39766D01*
X1438419Y38249D01*
X1438568Y36731D01*
X1439011Y35272D01*
X1439730Y33928D01*
X1440697Y32749D01*
X1441876Y31782D01*
X1443220Y31063D01*
X1444679Y30621D01*
X1446197Y30471D01*
X1447714Y30621D01*
X1449173Y31063D01*
X1450518Y31782D01*
X1451696Y32749D01*
X1452664Y33928D01*
X1453382Y35272D01*
X1453825Y36731D01*
X1453974Y38249D01*
X1453825Y39766D01*
X1453382Y41225D01*
X1452664Y42570D01*
X1452106Y43249D01*
X1452664Y43928D01*
X1453382Y45272D01*
X1453825Y46731D01*
X1453974Y48249D01*
X1453825Y49766D01*
X1453382Y51225D01*
X1452664Y52570D01*
X1451696Y53748D01*
X1450518Y54716D01*
X1449173Y55434D01*
X1447714Y55877D01*
X1446197Y56026D01*
D02*
G37*
G36*
X215000Y74885D02*
X212828Y74714D01*
X210709Y74206D01*
X208696Y73372D01*
X206838Y72233D01*
X205182Y70818D01*
X203766Y69162D01*
X202628Y67304D01*
X201794Y65291D01*
X201286Y63172D01*
X201115Y61000D01*
X201286Y58828D01*
X201794Y56709D01*
X202628Y54696D01*
X203766Y52838D01*
X205182Y51182D01*
X206838Y49766D01*
X208696Y48628D01*
X210709Y47794D01*
X212828Y47286D01*
X215000Y47115D01*
X217172Y47286D01*
X219291Y47794D01*
X221304Y48628D01*
X223162Y49766D01*
X224818Y51182D01*
X226234Y52838D01*
X227372Y54696D01*
X228206Y56709D01*
X228714Y58828D01*
X228885Y61000D01*
X228714Y63172D01*
X228206Y65291D01*
X227372Y67304D01*
X226234Y69162D01*
X224818Y70818D01*
X223162Y72233D01*
X221304Y73372D01*
X219291Y74206D01*
X217172Y74714D01*
X215000Y74885D01*
D02*
G37*
G36*
X131000Y65578D02*
X129483Y65428D01*
X128024Y64986D01*
X126679Y64267D01*
X126000Y63710D01*
X125321Y64267D01*
X123976Y64986D01*
X122517Y65428D01*
X121000Y65578D01*
X119483Y65428D01*
X118024Y64986D01*
X116679Y64267D01*
X115500Y63300D01*
X114533Y62121D01*
X113814Y60776D01*
X113372Y59317D01*
X113222Y57800D01*
X113372Y56283D01*
X113814Y54824D01*
X114533Y53479D01*
X115090Y52800D01*
X114533Y52121D01*
X113814Y50776D01*
X113372Y49317D01*
X113222Y47800D01*
X113372Y46283D01*
X113814Y44824D01*
X114533Y43479D01*
X115500Y42300D01*
X116679Y41333D01*
X118024Y40614D01*
X119483Y40172D01*
X121000Y40022D01*
X122517Y40172D01*
X123976Y40614D01*
X125321Y41333D01*
X126500Y42300D01*
X127467Y43479D01*
X127685Y43888D01*
X128174Y43993D01*
X128610Y43659D01*
X129763Y43182D01*
X130500Y43085D01*
Y47800D01*
X131500D01*
Y43085D01*
X132237Y43182D01*
X133390Y43659D01*
X133826Y43993D01*
X134315Y43888D01*
X134533Y43479D01*
X135500Y42300D01*
X136679Y41333D01*
X138024Y40614D01*
X139483Y40172D01*
X141000Y40022D01*
X142517Y40172D01*
X143976Y40614D01*
X145321Y41333D01*
X146500Y42300D01*
X147467Y43479D01*
X148186Y44824D01*
X148628Y46283D01*
X148778Y47800D01*
X148628Y49317D01*
X148501Y49737D01*
X148740Y50060D01*
X148740D01*
Y65540D01*
X133260D01*
Y65540D01*
X132937Y65301D01*
X132517Y65428D01*
X131000Y65578D01*
D02*
G37*
G36*
X265094Y56026D02*
X263577Y55877D01*
X262118Y55434D01*
X260773Y54716D01*
X259595Y53748D01*
X258627Y52570D01*
X257909Y51225D01*
X257466Y49766D01*
X257317Y48249D01*
X257466Y46731D01*
X257909Y45272D01*
X258627Y43928D01*
X259185Y43249D01*
X258627Y42570D01*
X257909Y41225D01*
X257466Y39766D01*
X257317Y38249D01*
X257466Y36731D01*
X257909Y35272D01*
X258627Y33928D01*
X259595Y32749D01*
X260773Y31782D01*
X262118Y31063D01*
X263577Y30621D01*
X265094Y30471D01*
X266612Y30621D01*
X268071Y31063D01*
X269415Y31782D01*
X270594Y32749D01*
X271561Y33928D01*
X272280Y35272D01*
X272722Y36731D01*
X272872Y38249D01*
X272722Y39766D01*
X272280Y41225D01*
X271561Y42570D01*
X271004Y43249D01*
X271561Y43928D01*
X272280Y45272D01*
X272722Y46731D01*
X272872Y48249D01*
X272722Y49766D01*
X272280Y51225D01*
X271561Y52570D01*
X270594Y53748D01*
X269415Y54716D01*
X268071Y55434D01*
X266612Y55877D01*
X265094Y56026D01*
D02*
G37*
G36*
X921800Y-189300D02*
X913246D01*
Y-193416D01*
X912733Y-193014D01*
X912183Y-192654D01*
X911597Y-192337D01*
X910974Y-192062D01*
X910693Y-191962D01*
X911002Y-192540D01*
X911839Y-193561D01*
X912860Y-194398D01*
X914024Y-195020D01*
X915287Y-195403D01*
X916600Y-195532D01*
X921800D01*
Y-189300D01*
D02*
G37*
G36*
X933110D02*
X922800D01*
Y-195532D01*
X928000D01*
X929313Y-195403D01*
X930576Y-195020D01*
X931740Y-194398D01*
X932761Y-193561D01*
X933598Y-192540D01*
X934220Y-191376D01*
X934590Y-190158D01*
X934550Y-190162D01*
X934168Y-190249D01*
X933845Y-190361D01*
X933580Y-190498D01*
X933375Y-190660D01*
X933228Y-190847D01*
X933139Y-191059D01*
X933110Y-191295D01*
Y-189300D01*
D02*
G37*
G36*
X1876500Y45264D02*
Y42300D01*
X1879464D01*
X1879410Y42714D01*
X1879057Y43565D01*
X1878496Y44296D01*
X1877765Y44857D01*
X1876914Y45210D01*
X1876500Y45264D01*
D02*
G37*
G36*
X1945369Y47749D02*
X1940654D01*
X1937992D01*
X1938032Y45582D01*
X1937736Y45851D01*
X1937438Y46079D01*
X1937138Y46266D01*
X1936835Y46411D01*
X1936530Y46516D01*
X1936223Y46580D01*
X1936214Y46580D01*
X1936514Y45858D01*
X1936847Y45423D01*
X1936742Y44934D01*
X1936333Y44716D01*
X1935154Y43748D01*
X1934187Y42570D01*
X1933468Y41225D01*
X1933026Y39766D01*
X1932876Y38249D01*
X1933026Y36731D01*
X1933468Y35272D01*
X1934187Y33928D01*
X1935154Y32749D01*
X1936333Y31782D01*
X1937678Y31063D01*
X1939137Y30621D01*
X1940654Y30471D01*
X1942171Y30621D01*
X1943630Y31063D01*
X1944975Y31782D01*
X1946154Y32749D01*
X1947121Y33928D01*
X1947840Y35272D01*
X1948282Y36731D01*
X1948432Y38249D01*
X1948282Y39766D01*
X1947840Y41225D01*
X1947121Y42570D01*
X1946154Y43748D01*
X1944975Y44716D01*
X1944566Y44934D01*
X1944460Y45423D01*
X1944794Y45858D01*
X1945272Y47011D01*
X1945369Y47749D01*
D02*
G37*
G36*
X1875500Y41300D02*
X1872536D01*
X1872590Y40886D01*
X1872943Y40035D01*
X1873504Y39304D01*
X1874235Y38743D01*
X1875086Y38390D01*
X1875500Y38336D01*
Y41300D01*
D02*
G37*
G36*
X1879464D02*
X1876500D01*
Y38336D01*
X1876914Y38390D01*
X1877765Y38743D01*
X1878496Y39304D01*
X1879057Y40035D01*
X1879410Y40886D01*
X1879464Y41300D01*
D02*
G37*
G36*
X1875500Y45264D02*
X1875086Y45210D01*
X1874235Y44857D01*
X1873504Y44296D01*
X1872943Y43565D01*
X1872590Y42714D01*
X1872536Y42300D01*
X1875500D01*
Y45264D01*
D02*
G37*
G36*
X1940154Y52964D02*
X1939417Y52867D01*
X1938264Y52389D01*
X1937273Y51630D01*
X1936514Y50639D01*
X1936036Y49486D01*
X1936033Y49463D01*
X1936290Y49588D01*
X1936895Y49943D01*
X1937176Y50141D01*
X1937443Y50353D01*
X1937696Y50578D01*
X1937935Y50817D01*
X1937973Y48749D01*
X1940154D01*
Y52964D01*
D02*
G37*
G36*
X1941154Y52964D02*
Y48749D01*
X1945369D01*
X1945272Y49486D01*
X1944794Y50639D01*
X1944035Y51630D01*
X1943044Y52389D01*
X1941891Y52867D01*
X1941154Y52964D01*
D02*
G37*
G36*
X1839500Y38043D02*
Y37085D01*
X1840237Y37182D01*
X1841190Y37576D01*
X1841094Y37629D01*
X1840785Y37764D01*
X1840462Y37874D01*
X1840126Y37958D01*
X1839777Y38017D01*
X1839500Y38043D01*
D02*
G37*
G36*
X1002864Y-79300D02*
X999900D01*
Y-82264D01*
X1000314Y-82210D01*
X1001165Y-81857D01*
X1001896Y-81296D01*
X1002457Y-80565D01*
X1002810Y-79714D01*
X1002864Y-79300D01*
D02*
G37*
G36*
X990700Y-74423D02*
X986657D01*
Y-81714D01*
X990700D01*
Y-74423D01*
D02*
G37*
G36*
X995743D02*
X991700D01*
Y-81714D01*
X994719D01*
Y-79060D01*
X994742Y-79288D01*
X994808Y-79471D01*
X994919Y-79610D01*
X995075Y-79704D01*
X995275Y-79752D01*
X995520Y-79757D01*
X995809Y-79716D01*
X996142Y-79631D01*
X996509Y-79504D01*
X996571Y-79440D01*
X996683Y-79294D01*
X996773Y-79144D01*
X996839Y-78988D01*
X996883Y-78827D01*
X996904Y-78660D01*
X998900Y-80939D01*
Y-78800D01*
Y-75336D01*
X998486Y-75390D01*
X997635Y-75743D01*
X996904Y-76304D01*
X996343Y-77035D01*
X996243Y-77275D01*
X995743Y-77175D01*
Y-74423D01*
D02*
G37*
G36*
X990700Y-82714D02*
X986657D01*
Y-90005D01*
X990700D01*
Y-82714D01*
D02*
G37*
G36*
X994719D02*
X991700D01*
Y-90005D01*
X995743D01*
Y-82920D01*
X995561Y-83055D01*
X995304Y-83286D01*
X995093Y-83522D01*
X994930Y-83763D01*
X994813Y-84009D01*
X994743Y-84260D01*
X994719Y-84517D01*
Y-82714D01*
D02*
G37*
G36*
X998900Y-81326D02*
X998836Y-81341D01*
X998678Y-81388D01*
X998504Y-81452D01*
X998106Y-81626D01*
X997645Y-81861D01*
X998486Y-82210D01*
X998900Y-82264D01*
Y-81326D01*
D02*
G37*
G36*
X999900Y-75336D02*
Y-78300D01*
X1002864D01*
X1002810Y-77886D01*
X1002457Y-77035D01*
X1001896Y-76304D01*
X1001165Y-75743D01*
X1000314Y-75390D01*
X999900Y-75336D01*
D02*
G37*
%LPD*%
D10*
X1938091Y48249D02*
G03*
X1931020Y45320I0J-10000D01*
G01*
X1930499Y44799D02*
G03*
X1929000Y41179I3622J-3621D01*
G01*
X1926879Y34679D02*
G03*
X1929000Y39800I-5121J5121D01*
G01*
X1922438Y31463D02*
G03*
X1925929Y33729I-3580J9337D01*
G01*
X1920838Y30800D02*
G03*
X1922438Y31463I0J2263D01*
G01*
X1864000Y30800D02*
G03*
X1869975Y33275I0J8450D01*
G01*
X1847071Y33729D02*
G03*
X1854142Y30800I7071J7071D01*
G01*
X1183071Y50471D02*
G03*
X1186000Y57542I-7071J7071D01*
G01*
X1172608Y44150D02*
G03*
X1179679Y47079I0J10000D01*
G01*
X1075207Y46550D02*
G03*
X1081000Y44150I5793J5793D01*
G01*
X1028021Y-249179D02*
G03*
X1030950Y-242108I-7071J7071D01*
G01*
X1022258Y-204000D02*
G03*
X1029329Y-201071I0J10000D01*
G01*
X1024062Y-251138D02*
G03*
X1028021Y-249179I-920J6839D01*
G01*
X1023142Y-251200D02*
G03*
X1024062Y-251138I0J6900D01*
G01*
X940858Y7500D02*
G03*
X947929Y10429I0J10000D01*
G01*
X919700Y9500D02*
G03*
X924528Y7500I4828J4828D01*
G01*
X991844Y-82214D02*
G03*
X998915Y-79285I0J10000D01*
G01*
X991808Y-186700D02*
G03*
X990429Y-187271I0J-1950D01*
G01*
D02*
G03*
X987500Y-194342I7071J-7071D01*
G01*
X989971Y-201071D02*
G03*
X997042Y-204000I7071J7071D01*
G01*
X987500Y-197058D02*
G03*
X988591Y-199690I3723J0D01*
G01*
X940329Y-117729D02*
G03*
X933258Y-114800I-7071J-7071D01*
G01*
X920171Y-111871D02*
G03*
X927242Y-114800I7071J7071D01*
G01*
X915000Y-102558D02*
G03*
X917929Y-109629I10000J0D01*
G01*
X956871Y-248271D02*
G03*
X963942Y-251200I7071J7071D01*
G01*
X951300Y-238558D02*
G03*
X954229Y-245629I10000J0D01*
G01*
X951300Y-132842D02*
G03*
X948371Y-125771I-10000J0D01*
G01*
X941558Y-188800D02*
G03*
X948629Y-185871I0J10000D01*
G01*
X990016Y-4848D02*
G03*
X987872Y328I-7321J0D01*
G01*
X987717Y-17883D02*
G03*
X990016Y-12333I-5549J5549D01*
G01*
X987887Y-145605D02*
G03*
X985281Y-146604I0J-3901D01*
G01*
X985131Y-146746D02*
G03*
X985129Y-146748I2756J-2760D01*
G01*
X994047Y-224290D02*
G03*
X991119Y-217218I-10000J0D01*
G01*
X991687Y-221929D02*
G03*
X984616Y-219000I-7071J-7071D01*
G01*
X985129Y-146748D02*
G03*
X982200Y-153819I7071J-7071D01*
G01*
X981399Y-20500D02*
G03*
X987717Y-17883I0J8935D01*
G01*
X982000Y-195956D02*
G03*
X980411Y-193340I-6149J-1944D01*
G01*
X982300Y-197900D02*
G03*
X982200Y-196769I-6449J0D01*
G01*
X982300Y-204258D02*
G03*
X985229Y-211329I10000J0D01*
G01*
X982200Y-196769D02*
G03*
X982100Y-196306I-6349J-1131D01*
G01*
X971615Y48249D02*
G03*
X968600Y47000I0J-4264D01*
G01*
D02*
G03*
X966600Y42172I4828J-4828D01*
G01*
Y34243D02*
G03*
X969529Y27172I10000J0D01*
G01*
X977300Y14400D02*
G03*
X979775Y8425I8450J0D01*
G01*
X977300Y16900D02*
G03*
X975532Y21169I-6037J0D01*
G01*
X949066Y-4129D02*
G03*
X941995Y-1200I-7071J-7071D01*
G01*
X908942D02*
G03*
X903766Y-2644I0J-10000D01*
G01*
X962508Y-17571D02*
G03*
X969579Y-20500I7071J7071D01*
G01*
X1917438Y92071D02*
G03*
X1910366Y95000I-7071J-7071D01*
G01*
X1700642D02*
G03*
X1693571Y92071I0J-10000D01*
G01*
X1693100Y91600D02*
G03*
X1691200Y87013I4587J-4587D01*
G01*
X1686622Y82501D02*
G03*
X1690000Y83900I0J4777D01*
G01*
X1716700Y81976D02*
G03*
X1715432Y82501I-1268J-1268D01*
G01*
X1480400Y82076D02*
G03*
X1479374Y82501I-1026J-1026D01*
G01*
X1244200Y81976D02*
G03*
X1242932Y82501I-1268J-1268D01*
G01*
X1828642Y82800D02*
G03*
X1821571Y79871I0J-10000D01*
G01*
X1821429Y79729D02*
G03*
X1818500Y72658I7071J-7071D01*
G01*
X1815571Y35071D02*
G03*
X1818500Y42142I-7071J7071D01*
G01*
X1793858Y17500D02*
G03*
X1800929Y20429I0J10000D01*
G01*
X1074000Y20000D02*
G03*
X1080035Y17500I6036J6036D01*
G01*
X1050642Y22200D02*
G03*
X1043571Y19271I0J-10000D01*
G01*
X1074000Y20000D02*
G03*
X1068689Y22200I-5311J-5311D01*
G01*
X1036874Y12574D02*
G03*
X1033945Y5503I7071J-7071D01*
G01*
X1031016Y-26184D02*
G03*
X1033945Y-19113I-7071J7071D01*
G01*
X1018929Y-38271D02*
G03*
X1016000Y-45342I7071J-7071D01*
G01*
X1013071Y-136129D02*
G03*
X1016000Y-129058I-7071J7071D01*
G01*
X1004858Y-140200D02*
G03*
X1011929Y-137271I0J10000D01*
G01*
X984697Y-140200D02*
G03*
X977626Y-143129I0J-10000D01*
G01*
X1912404Y76107D02*
G03*
X1907500Y74076I0J-6936D01*
G01*
X1681018Y91971D02*
G03*
X1673947Y94900I-7071J-7071D01*
G01*
X1464242D02*
G03*
X1457171Y91971I0J-10000D01*
G01*
X1455916Y90716D02*
G03*
X1454600Y87538I3178J-3178D01*
G01*
X1448715Y82501D02*
G03*
X1453300Y84400I0J6484D01*
G01*
X1675782Y75808D02*
G03*
X1671600Y74076I0J-5914D01*
G01*
X1444397Y92371D02*
G03*
X1437326Y95300I-7071J-7071D01*
G01*
X1225915D02*
G03*
X1221451Y93451I0J-6314D01*
G01*
D02*
G03*
X1219400Y88500I4951J-4951D01*
G01*
X1218269Y85769D02*
G03*
X1219400Y88500I-2731J2731D01*
G01*
X1212173Y82501D02*
G03*
X1217000Y84500I0J6826D01*
G01*
X1439240Y75808D02*
G03*
X1435300Y74176I0J-5573D01*
G01*
X1448960Y23500D02*
G03*
X1456031Y26429I0J10000D01*
G01*
X1081500Y25000D02*
G03*
X1077879Y26500I-3621J-3621D01*
G01*
X1081500Y25000D02*
G03*
X1085121Y23500I3621J3621D01*
G01*
X1208277Y92271D02*
G03*
X1201206Y95200I-7071J-7071D01*
G01*
X985121Y95300D02*
G03*
X982121Y92300I0J-3000D01*
G01*
X979023Y82501D02*
G03*
X982121Y85599I0J3098D01*
G01*
X1203282Y75808D02*
G03*
X1199100Y74076I0J-5914D01*
G01*
X1220039Y30800D02*
G03*
X1227110Y33729I0J10000D01*
G01*
X1186000Y70709D02*
G03*
X1183365Y71800I-2635J-2635D01*
G01*
X1152700Y64400D02*
G03*
X1155500Y71160I-6760J6760D01*
G01*
X1151147Y63757D02*
G03*
X1152700Y64400I0J2196D01*
G01*
X1177500Y56800D02*
G03*
X1177259Y56900I-241J-241D01*
G01*
X1117659Y56800D02*
G03*
X1117900Y56900I0J341D01*
G01*
X1080500Y51657D02*
G03*
X1081000Y50450I1707J0D01*
G01*
X940071Y-20271D02*
G03*
X937244Y-19100I-2827J-2827D01*
G01*
X940071Y-20271D02*
G03*
X941541Y-21484I7071J7071D01*
G01*
X982500Y-25600D02*
G03*
X988646Y-23054I0J8691D01*
G01*
X942728Y-22671D02*
G03*
X949799Y-25600I7071J7071D01*
G01*
X1147500Y70843D02*
G03*
X1144949Y71900I-2551J-2551D01*
G01*
X1117686Y66786D02*
G03*
X1117900Y67303I-518J518D01*
G01*
X1110615Y63857D02*
G03*
X1117686Y66786I0J10000D01*
G01*
X1110000Y70943D02*
G03*
X1107932Y71800I-2068J-2068D01*
G01*
X1079000Y64300D02*
G03*
X1080500Y67921I-3621J3621D01*
G01*
X1077688Y63757D02*
G03*
X1079000Y64300I0J1855D01*
G01*
X1072500Y70843D02*
G03*
X1070190Y71800I-2310J-2310D01*
G01*
X1036310D02*
G03*
X1034000Y70843I0J-3266D01*
G01*
X967082Y75808D02*
G03*
X962900Y74076I0J-5914D01*
G01*
X971856Y92471D02*
G03*
X964785Y95400I-7071J-7071D01*
G01*
X752577D02*
G03*
X748520Y93719I0J-5738D01*
G01*
X747280Y92480D02*
G03*
X745900Y89148I3332J-3332D01*
G01*
X744400Y83400D02*
G03*
X745900Y87021I-3621J3621D01*
G01*
X742229Y82501D02*
G03*
X744400Y83400I0J3070D01*
G01*
X972769Y13589D02*
G03*
X969840Y20660I-10000J0D01*
G01*
X975657Y-718D02*
G03*
X976500Y-1700I6879J5053D01*
G01*
X972769Y6253D02*
G03*
X975657Y-718I9858J0D01*
G01*
X959860Y30521D02*
G03*
X960000Y30500I140J461D01*
G01*
X957000Y33500D02*
G03*
X957084Y33297I287J0D01*
G01*
X958853Y31648D02*
G03*
X958853Y31647I854J852D01*
G01*
X955180Y35320D02*
G03*
X948109Y38249I-7071J-7071D01*
G01*
X516322Y95600D02*
G03*
X510802Y93447I0J-8154D01*
G01*
X735436Y92671D02*
G03*
X728365Y95600I-7071J-7071D01*
G01*
X510558Y93213D02*
G03*
X510557Y93212I5764J-5767D01*
G01*
D02*
G03*
X509876Y92161I2117J-2117D01*
G01*
D02*
G03*
X509680Y91094I2798J-1067D01*
G01*
X509140Y85580D02*
G03*
X509580Y87489I-3930J1909D01*
G01*
X502693Y82501D02*
G03*
X508443Y84882I0J8132D01*
G01*
X730640Y75808D02*
G03*
X726700Y74176I0J-5573D01*
G01*
X968400Y11758D02*
G03*
X965471Y18829I-10000J0D01*
G01*
X955650Y28650D02*
G03*
X949011Y31400I-6639J-6639D01*
G01*
X526889Y34329D02*
G03*
X533960Y31400I7071J7071D01*
G01*
X494440Y75808D02*
G03*
X490500Y74176I0J-5573D01*
G01*
X499715Y92171D02*
G03*
X492644Y95100I-7071J-7071D01*
G01*
X955250Y22250D02*
G03*
X948611Y25000I-6639J-6639D01*
G01*
X962400Y10958D02*
G03*
X959471Y18029I-10000J0D01*
G01*
X289677Y26323D02*
G03*
X292871Y25000I3194J3194D01*
G01*
X286748Y33394D02*
G03*
X289677Y26323I10000J0D01*
G01*
X263495Y92171D02*
G03*
X256424Y95100I-7071J-7071D01*
G01*
X44918Y95200D02*
G03*
X38400Y92500I0J-9218D01*
G01*
D02*
G03*
X37337Y89934I2566J-2566D01*
G01*
X30350Y82862D02*
G03*
X34540Y84598I0J5925D01*
G01*
X259206Y75808D02*
G03*
X254300Y73776I0J-6938D01*
G01*
X27597Y89555D02*
G03*
X20526Y86626I0J-10000D01*
G01*
X953029Y16071D02*
G03*
X945958Y19000I-7071J-7071D01*
G01*
X53071Y21929D02*
G03*
X60142Y19000I7071J7071D01*
G01*
X50900Y27170D02*
G03*
X53071Y21929I7412J0D01*
G01*
X1022040Y-15860D02*
G03*
X1022000Y-16653I7813J-793D01*
G01*
X1020023Y-24973D02*
G03*
X1022000Y-20200I-4773J4773D01*
G01*
X1005858Y-35200D02*
G03*
X1011631Y-33365I0J10000D01*
G01*
X980828Y-35200D02*
G03*
X976000Y-37200I0J-6828D01*
G01*
X939958Y-69100D02*
G03*
X947029Y-66171I0J10000D01*
G01*
X1004735Y-42200D02*
G03*
X1011806Y-39271I0J10000D01*
G01*
X983400Y-13500D02*
G03*
X976882Y-10800I-6518J-6518D01*
G01*
X959071Y-7871D02*
G03*
X966142Y-10800I7071J7071D01*
G01*
X950929Y271D02*
G03*
X943858Y3200I-7071J-7071D01*
G01*
X912200Y9500D02*
G03*
X913897Y5403I5794J0D01*
G01*
X914000Y5300D02*
G03*
X919070Y3200I5070J5070D01*
G01*
X1067100Y7958D02*
G03*
X1064171Y15029I-10000J0D01*
G01*
X1027761Y63757D02*
G03*
X1026900Y63400I0J-1218D01*
G01*
X1062525Y-42675D02*
G03*
X1060000Y-48771I6096J-6096D01*
G01*
X1070000Y-153842D02*
G03*
X1067071Y-146771I-10000J0D01*
G01*
X1060000Y-137058D02*
G03*
X1061868Y-141568I6379J0D01*
G01*
X1067071Y-184629D02*
G03*
X1070000Y-177558I-7071J7071D01*
G01*
X1059233Y-188324D02*
G03*
X1066305Y-185395I0J10000D01*
G01*
X1028703Y-119898D02*
G03*
X1028000Y-118200I-2401J0D01*
G01*
X998415Y-61915D02*
G03*
X991344Y-58986I-7071J-7071D01*
G01*
X1025774Y-183426D02*
G03*
X1028703Y-176355I-7071J7071D01*
G01*
X1016733Y-188324D02*
G03*
X1023805Y-185395I0J10000D01*
G01*
X1053000Y-158058D02*
G03*
X1055929Y-165129I10000J0D01*
G01*
X1059000Y-168200D02*
G03*
X1060500Y-164579I-3621J3621D01*
G01*
X1050829Y-52029D02*
G03*
X1043758Y-49100I-7071J-7071D01*
G01*
X1053000Y-56200D02*
G03*
X1051586Y-52786I-4828J0D01*
G01*
X926463Y-39100D02*
G03*
X922429Y-40771I0J-5705D01*
G01*
D02*
G03*
X921500Y-43014I2243J-2243D01*
G01*
Y-94758D02*
G03*
X924429Y-101829I10000J0D01*
G01*
X969629Y-111829D02*
G03*
X962558Y-108900I-7071J-7071D01*
G01*
X928571Y-105971D02*
G03*
X935642Y-108900I7071J7071D01*
G01*
X1042742Y-59100D02*
G03*
X1035671Y-62029I0J-10000D01*
G01*
X1033945Y-94604D02*
G03*
X1035900Y-99324I6675J0D01*
G01*
X1035671Y-62029D02*
G03*
X1033945Y-66196I4167J-4167D01*
G01*
X1041242Y-29100D02*
G03*
X1034171Y-32029I0J-10000D01*
G01*
X1023929Y-42271D02*
G03*
X1021000Y-49342I7071J-7071D01*
G01*
X1018071Y-176129D02*
G03*
X1021000Y-169058I-7071J7071D01*
G01*
X1011892Y-182308D02*
G03*
X1009400Y-188324I6016J-6016D01*
G01*
X1042900Y-19100D02*
G03*
X1045556Y-20200I2656J2656D01*
G01*
X1060500Y-211821D02*
G03*
X1059000Y-208200I-5121J0D01*
G01*
X921542Y-9100D02*
G03*
X914471Y-12029I0J-10000D01*
G01*
X910229Y-16271D02*
G03*
X908400Y-20686I4415J-4415D01*
G01*
X1020371Y-242629D02*
G03*
X1023300Y-235558I-7071J7071D01*
G01*
X1016759Y-245300D02*
G03*
X1017000Y-245200I0J341D01*
G01*
X988400Y-243600D02*
G03*
X992504Y-245300I4104J4104D01*
G01*
X985200Y-238600D02*
G03*
X986473Y-241673I4346J0D01*
G01*
X1015600Y-245300D02*
G03*
X1019185Y-243815I0J5070D01*
G01*
X985200Y-238600D02*
G03*
X983786Y-235186I-4828J0D01*
G01*
D02*
G03*
X978992Y-233200I-4794J-4794D01*
G01*
X965178Y-223578D02*
G03*
X972249Y-226507I7071J7071D01*
G01*
X971944Y-152298D02*
G03*
X964873Y-155227I0J-10000D01*
G01*
X962329Y-157771D02*
G03*
X959400Y-164842I7071J-7071D01*
G01*
Y-213658D02*
G03*
X962329Y-220729I10000J0D01*
G01*
X1061232Y-180968D02*
G03*
X1062899Y-177801I-4268J4268D01*
G01*
X1062000Y-199200D02*
G03*
X1059879Y-194079I-7243J0D01*
G01*
X970728Y-241724D02*
G03*
X975149Y-239893I0J6253D01*
G01*
X984991Y37546D02*
G03*
X987429Y33571I9509J3096D01*
G01*
X992025Y28975D02*
G03*
X998000Y26500I5975J5975D01*
G01*
X984500Y40642D02*
G03*
X984991Y37546I10000J0D01*
G01*
X535600Y82076D02*
G03*
X534574Y82501I-1026J-1026D01*
G01*
X510802Y93447D02*
G03*
X510558Y93213I5521J-6000D01*
G01*
X502793Y82501D02*
G03*
X508713Y84953I0J8373D01*
G01*
X36021Y86079D02*
G03*
X37337Y89256I-3177J3177D01*
G01*
X985281Y-146604D02*
G03*
X985131Y-146746I2606J-2902D01*
G01*
X1025200Y21500D02*
G03*
X1026900Y25604I-4104J4104D01*
G01*
X1024300Y-11100D02*
G03*
X1022040Y-15860I5553J-5553D01*
G01*
X1025225Y-10175D02*
G03*
X1027700Y-4200I-5975J5975D01*
G01*
X980457Y-5657D02*
G03*
X983700Y-7000I3243J3243D01*
G01*
X1874232Y37532D02*
G03*
X1876000Y41800I-4268J4268D01*
G01*
X1025941Y-25136D02*
G03*
X1028200Y-19683I-5453J5453D01*
G01*
X1062899Y-177801D02*
G03*
X1063000Y-176700I-5934J1101D01*
G01*
X975149Y-158991D02*
G03*
X968122Y-161902I0J-9938D01*
G01*
X1068500Y-40200D02*
G03*
X1062525Y-42675I0J-8450D01*
G01*
X982100Y-196306D02*
G03*
X982000Y-195956I-6249J-1594D01*
G01*
X1690000Y83900D02*
G03*
X1691200Y86797I-2897J2897D01*
G01*
X1453300Y84400D02*
G03*
X1454600Y87538I-3139J3139D01*
G01*
X1938091Y48249D02*
X1940654D01*
X1930499Y44799D02*
X1931020Y45320D01*
X1839000Y41800D02*
X1847071Y33729D01*
X1929000Y39800D02*
Y41179D01*
X1925929Y33729D02*
X1926879Y34679D01*
X1869975Y33275D02*
X1874232Y37532D01*
X1864000Y30800D02*
X1920838D01*
X1854142D02*
X1864000D01*
X1831000D02*
X1854142D01*
X1179679Y47079D02*
X1183071Y50471D01*
X1081000Y44150D02*
X1172608D01*
X1029329Y-201071D02*
X1031200Y-199200D01*
X998915Y-79285D02*
X999400Y-78800D01*
X947929Y10429D02*
X948200Y10700D01*
X924528Y7500D02*
X940858D01*
X991200Y-82214D02*
X991844D01*
X997042Y-204000D02*
X1022258D01*
X991808Y-186700D02*
X995425D01*
X963942Y-251200D02*
X1018600D01*
X988591Y-199690D02*
X989971Y-201071D01*
X927242Y-114800D02*
X933258D01*
X917929Y-109629D02*
X920171Y-111871D01*
X915000Y-102558D02*
X915300Y-102258D01*
X987500Y-197058D02*
Y-194342D01*
X951300Y-183200D02*
Y-132842D01*
X948629Y-185871D02*
X951300Y-183200D01*
X954229Y-245629D02*
X956871Y-248271D01*
X951300Y-238558D02*
Y-183200D01*
X940329Y-117729D02*
X948371Y-125771D01*
X926300Y-188800D02*
X941558D01*
X1938194Y89493D02*
X1938914D01*
X990016Y-12333D02*
Y-4848D01*
X979775Y8425D02*
X987872Y328D01*
X987887Y-145605D02*
X994047D01*
X991687Y-221929D02*
X994047Y-224290D01*
X985229Y-211329D02*
X991119Y-217218D01*
X982200Y-196769D02*
Y-153819D01*
X982300Y-204258D02*
Y-197900D01*
X971615Y48249D02*
X973771D01*
X966600Y34243D02*
Y42172D01*
X977300Y14400D02*
Y16900D01*
X969579Y-20500D02*
X981399D01*
X969529Y27172D02*
X975532Y21169D01*
X908942Y-1200D02*
X941995D01*
X949066Y-4129D02*
X962508Y-17571D01*
X973771Y-186700D02*
X980411Y-193340D01*
X970500Y-219000D02*
X984616D01*
X1700642Y95000D02*
X1910366D01*
X1693100Y91600D02*
X1693571Y92071D01*
X1917438D02*
X1920016Y89493D01*
X1691200Y86797D02*
Y87013D01*
X1683795Y82501D02*
X1686622D01*
X1702693D02*
X1715432D01*
X1466473D02*
X1479374D01*
X1230252D02*
X1242932D01*
X1828642Y82800D02*
X1920016D01*
X1821429Y79729D02*
X1821571Y79871D01*
X1818500Y42142D02*
Y72658D01*
X1800929Y20429D02*
X1815571Y35071D01*
X1080035Y17500D02*
X1793858D01*
X1050642Y22200D02*
X1068689D01*
X1036874Y12574D02*
X1043571Y19271D01*
X1033945Y-19113D02*
Y5503D01*
X1018929Y-38271D02*
X1031016Y-26184D01*
X1016000Y-129058D02*
Y-45342D01*
X1011929Y-137271D02*
X1013071Y-136129D01*
X984697Y-140200D02*
X1004858D01*
X975149Y-145605D02*
X977626Y-143129D01*
X1912404Y76107D02*
X1920016D01*
X1464242Y94900D02*
X1673947D01*
X1681018Y91971D02*
X1683795Y89194D01*
X1455916Y90716D02*
X1457171Y91971D01*
X1447575Y82501D02*
X1448715D01*
X1675782Y75808D02*
X1683795D01*
X1225915Y95300D02*
X1437326D01*
X1444397Y92371D02*
X1447575Y89194D01*
X1217000Y84500D02*
X1218269Y85769D01*
X1211354Y82501D02*
X1212173D01*
X1439240Y75808D02*
X1447575D01*
X1456031Y26429D02*
X1467851Y38249D01*
X1085121Y23500D02*
X1448960D01*
X1046600Y26500D02*
X1077879D01*
X985121Y95300D02*
X1201206D01*
X1208277Y92271D02*
X1211354Y89194D01*
X982121Y85599D02*
Y92300D01*
X975134Y82501D02*
X979023D01*
X1203282Y75808D02*
X1211354D01*
X1227110Y33729D02*
X1231630Y38249D01*
X1046800Y30800D02*
X1220039D01*
X1177500Y71800D02*
X1183365D01*
X1147500Y63757D02*
X1151147D01*
X1139900Y56900D02*
X1177259D01*
X1117900D02*
X1139900D01*
X1102500Y56800D02*
X1117659D01*
X1064500D02*
X1080500D01*
Y51657D02*
Y56800D01*
X949799Y-25600D02*
X982500D01*
X941541Y-21484D02*
X942728Y-22671D01*
X941541Y-21484D02*
X941541Y-21484D01*
X932901Y-19100D02*
X937244D01*
X1139900Y71900D02*
X1144949D01*
X1110000Y63857D02*
X1110615D01*
X1102500Y71800D02*
X1107932D01*
X1072500Y63757D02*
X1077688D01*
X1064500Y71800D02*
X1070190D01*
X1036310D02*
X1042500D01*
X967082Y75808D02*
X975134D01*
X752577Y95400D02*
X964785D01*
X747280Y92480D02*
X748520Y93719D01*
X971856Y92471D02*
X975134Y89194D01*
X745900Y87021D02*
Y89148D01*
X738913Y82501D02*
X742229D01*
X972769Y6253D02*
Y13589D01*
X958853Y31647D02*
X960000Y30500D01*
X958853Y31648D02*
X958853Y31647D01*
X960000Y30500D02*
X969840Y20660D01*
X759189Y38249D02*
X948109D01*
X955180Y35320D02*
X957000Y33500D01*
X957084Y33297D02*
X959860Y30521D01*
X516322Y95600D02*
X728365D01*
X735436Y92671D02*
X738913Y89194D01*
X509680Y88100D02*
Y91094D01*
X508443Y84882D02*
X509140Y85580D01*
X730640Y75808D02*
X738913D01*
X968400Y300D02*
Y11758D01*
X533960Y31400D02*
X949011D01*
X955650Y28650D02*
X965471Y18829D01*
X522969Y38249D02*
X526889Y34329D01*
X494440Y75808D02*
X502693D01*
X280718Y95100D02*
X492644D01*
X499715Y92171D02*
X502693Y89194D01*
X962400Y7500D02*
Y10958D01*
X955250Y22250D02*
X959471Y18029D01*
X292871Y25000D02*
X948611D01*
X286748Y33394D02*
Y38249D01*
X44918Y95200D02*
X256424D01*
X263495Y92171D02*
X266472Y89194D01*
X37337Y89256D02*
Y89934D01*
X30350Y82862D02*
X30542D01*
X259206Y75808D02*
X266472D01*
X27597Y89555D02*
X30350D01*
X17900Y84000D02*
X20526Y86626D01*
X21529Y77571D02*
X22931Y76169D01*
X953029Y16071D02*
X955300Y13800D01*
X60142Y19000D02*
X945958D01*
X50900Y27170D02*
Y38292D01*
X1022000Y-20200D02*
Y-16653D01*
X1011631Y-33365D02*
X1020023Y-24973D01*
X980828Y-35200D02*
X1005858D01*
X947029Y-66171D02*
X976000Y-37200D01*
X932901Y-69100D02*
X939958D01*
X1011806Y-39271D02*
X1025941Y-25136D01*
X982500Y-42200D02*
X1004735D01*
X950929Y271D02*
X959071Y-7871D01*
X966142Y-10800D02*
X976882D01*
X913897Y5403D02*
X914000Y5300D01*
X919070Y3200D02*
X943858D01*
X1067100Y-200D02*
Y7958D01*
X1027761Y63757D02*
X1034000D01*
X1061868Y-141568D02*
X1067071Y-146771D01*
X1060000Y-137058D02*
Y-48771D01*
X1070000Y-177558D02*
Y-153842D01*
X1066305Y-185395D02*
X1067071Y-184629D01*
X1028000Y-118200D02*
Y-80200D01*
X1028703Y-176355D02*
Y-119898D01*
X998415Y-61915D02*
X999400Y-62900D01*
X991200Y-58986D02*
X991344D01*
X1023805Y-185395D02*
X1025774Y-183426D01*
X1016733Y-188324D02*
X1059233D01*
X1016400D02*
X1016733D01*
X1053000Y-158058D02*
Y-56200D01*
X1055929Y-165129D02*
X1059000Y-168200D01*
X1050829Y-52029D02*
X1051586Y-52786D01*
X1042900Y-49100D02*
X1043758D01*
X1037000Y-168200D02*
X1059000D01*
X969629Y-111829D02*
X976000Y-118200D01*
X926463Y-39100D02*
X932901D01*
X921500Y-94758D02*
Y-43014D01*
X935642Y-108900D02*
X962558D01*
X924429Y-101829D02*
X928571Y-105971D01*
X1042742Y-59100D02*
X1042900D01*
X1033945Y-94604D02*
Y-66196D01*
X1041242Y-29100D02*
X1042900D01*
X1023929Y-42271D02*
X1034171Y-32029D01*
X1021000Y-169058D02*
Y-49342D01*
X1011892Y-182308D02*
X1018071Y-176129D01*
X1045556Y-20200D02*
X1068500D01*
X1060500Y-214700D02*
Y-211821D01*
X921542Y-9100D02*
X932901D01*
X1038000Y-208200D02*
X1059000D01*
X910229Y-16271D02*
X914471Y-12029D01*
X908400Y-110845D02*
Y-20686D01*
X1019185Y-243815D02*
X1020371Y-242629D01*
X1017000Y-245200D02*
X1017000Y-245200D01*
X975149Y-233200D02*
X978992D01*
X986473Y-241673D02*
X988400Y-243600D01*
X1015600Y-245300D02*
X1016759D01*
X992504D02*
X1015600D01*
X971944Y-152298D02*
X975149D01*
X972249Y-226507D02*
X975149D01*
X962329Y-157771D02*
X964873Y-155227D01*
X962329Y-220729D02*
X965178Y-223578D01*
X959400Y-213658D02*
Y-164842D01*
X1059000Y-183200D02*
X1061232Y-180968D01*
X1059000Y-193200D02*
X1059879Y-194079D01*
X962800Y-241724D02*
X970728D01*
X987429Y33571D02*
X992025Y28975D01*
X984500Y40642D02*
Y41000D01*
X998000Y25400D02*
Y26500D01*
X1038000Y-193200D02*
X1059000D01*
X927600Y13200D02*
X939400D01*
X34540Y84598D02*
X36021Y86079D01*
X994047Y-152298D02*
X996526D01*
X1026900Y25604D02*
Y40600D01*
X1024300Y-11100D02*
X1025225Y-10175D01*
X1938914Y82800D02*
X1950610D01*
X21529Y77571D02*
X21729D01*
X20471D02*
X21529D01*
X22931Y76169D02*
X30350D01*
X915300Y-102258D02*
Y-92000D01*
X976500Y-1700D02*
X980457Y-5657D01*
X1030950Y-242108D02*
Y-202050D01*
X1023300Y-235558D02*
Y-210100D01*
X1060500Y-164579D02*
Y-163200D01*
X1037000Y-183200D02*
X1059000D01*
X1072500Y49257D02*
X1075207Y46550D01*
X1186000Y57542D02*
Y59291D01*
X1155500Y71800D02*
X1177500D01*
X1155500Y71160D02*
Y71800D01*
X1117900Y71900D02*
X1139900D01*
X1117900Y67303D02*
Y71900D01*
X1080500Y56800D02*
X1102500D01*
X970500Y-74700D02*
Y-56342D01*
X965200Y-164824D02*
X968122Y-161902D01*
X1080500Y71800D02*
X1102500D01*
X1080500Y67921D02*
Y71800D01*
X1042500D02*
X1064500D01*
D11*
X1828942Y30800D02*
G03*
X1821871Y27871I0J-10000D01*
G01*
X1797358Y7500D02*
G03*
X1804429Y10429I0J10000D01*
G01*
X1031186Y49257D02*
G03*
X1024115Y46328I0J-10000D01*
G01*
X1022374Y44587D02*
G03*
X1020227Y39400I5193J-5187D01*
G01*
X1084515Y7500D02*
G03*
X1081929Y6429I0J-3657D01*
G01*
D02*
G03*
X1079000Y-642I7071J-7071D01*
G01*
X1076071Y-213629D02*
G03*
X1079000Y-206558I-7071J7071D01*
G01*
X1034358Y-251200D02*
G03*
X1041429Y-248271I0J10000D01*
G01*
X1009200Y14000D02*
G03*
X1015175Y16475I0J8450D01*
G01*
X1007333Y14000D02*
G03*
X1002838Y12138I0J-6357D01*
G01*
X1011696Y-8662D02*
G03*
X1018767Y-5733I0J10000D01*
G01*
X1000100Y9400D02*
G03*
X998314Y5463I4346J-4346D01*
G01*
Y1829D02*
G03*
X1001243Y-5243I10000J0D01*
G01*
X1003767Y-7767D02*
G03*
X1005927Y-8662I2160J2160D01*
G01*
X1046600Y26500D02*
G03*
X1040625Y24025I0J-8450D01*
G01*
X1017158Y4700D02*
G03*
X1024229Y7629I0J10000D01*
G01*
X1046140Y30800D02*
G03*
X1039068Y27871I0J-10000D01*
G01*
X1017255Y10200D02*
G03*
X1024326Y13129I0J10000D01*
G01*
X1009557Y10200D02*
G03*
X1005659Y9280I0J-8715D01*
G01*
X1004735Y8356D02*
G03*
X1002923Y3982I4374J-4374D01*
G01*
D02*
G03*
X1004200Y900I4358J0D01*
G01*
X1027142Y56800D02*
G03*
X1020071Y53871I0J-10000D01*
G01*
X1019329Y53129D02*
G03*
X1016400Y46058I7071J-7071D01*
G01*
X1007200Y17800D02*
G03*
X1013221Y20294I0J8515D01*
G01*
X1005742Y17800D02*
G03*
X998671Y14871I0J-10000D01*
G01*
X997429Y13629D02*
G03*
X994500Y6558I7071J-7071D01*
G01*
X991571Y-20129D02*
G03*
X994500Y-13058I-7071J7071D01*
G01*
X280718Y95100D02*
G03*
X275890Y93100I0J-6828D01*
G01*
X274358Y91568D02*
G03*
X273301Y89016I2552J-2552D01*
G01*
X270832Y83298D02*
G03*
X272521Y85770I-5719J5719D01*
G01*
X268908Y82501D02*
G03*
X270832Y83298I0J2721D01*
G01*
X1008379Y25500D02*
G03*
X1003621Y23529I0J-6730D01*
G01*
X996550Y20600D02*
G03*
X1003621Y23529I0J10000D01*
G01*
X1075200Y-18082D02*
G03*
X1074973Y-17031I-2545J0D01*
G01*
X1072271Y-100745D02*
G03*
X1075200Y-93674I-7071J7071D01*
G01*
X1074973Y-17031D02*
G03*
X1074455Y-16282I-2318J-1051D01*
G01*
Y-16282D02*
G03*
X1074365Y-16065I-308J-0D01*
G01*
X981071Y23629D02*
G03*
X988142Y20700I7071J7071D01*
G01*
X272621Y85770D02*
G03*
X273301Y89016I-7407J3246D01*
G01*
X1022377Y44590D02*
G03*
X1022374Y44587I5190J-5190D01*
G01*
X1018055Y19355D02*
G03*
X1020227Y24600I-5245J5245D01*
G01*
X1014880Y21953D02*
G03*
X1016400Y25622I-3669J3669D01*
G01*
X1828942Y30800D02*
X1831000D01*
X1804429Y10429D02*
X1821871Y27871D01*
X1084515Y7500D02*
X1797358D01*
X1031186Y49257D02*
X1072500D01*
X1022377Y44590D02*
X1024115Y46328D01*
X1020227Y24600D02*
Y39400D01*
X1018767Y-5733D02*
X1020300Y-4200D01*
X1015175Y16475D02*
X1018055Y19355D01*
X1079000Y-206558D02*
Y-642D01*
X1041429Y-248271D02*
X1076071Y-213629D01*
X1023142Y-251200D02*
X1034358D01*
X1018600D02*
X1023142D01*
X1007333Y14000D02*
X1009200D01*
X1000100Y9400D02*
X1002838Y12138D01*
X998314Y1829D02*
Y5463D01*
X1001243Y-5243D02*
X1003767Y-7767D01*
X1005927Y-8662D02*
X1011696D01*
X1024229Y7629D02*
X1040625Y24025D01*
X1009100Y4700D02*
X1017158D01*
X1046140Y30800D02*
X1046800D01*
X1024326Y13129D02*
X1039068Y27871D01*
X1009557Y10200D02*
X1017255D01*
X1004735Y8356D02*
X1005659Y9280D01*
X1027142Y56800D02*
X1042500D01*
X1019329Y53129D02*
X1020071Y53871D01*
X1016400Y25622D02*
Y46058D01*
X1005742Y17800D02*
X1007200D01*
X997429Y13629D02*
X998671Y14871D01*
X994500Y-13058D02*
Y6558D01*
X988646Y-23054D02*
X991571Y-20129D01*
X274358Y91568D02*
X275890Y93100D01*
X266472Y82501D02*
X268908D01*
X1008379Y25800D02*
X1010500D01*
X978200Y26500D02*
X980871Y23829D01*
X988142Y20600D02*
X996550D01*
X1075200Y-93674D02*
Y-18082D01*
X1070900Y-102116D02*
X1072271Y-100745D01*
X1013221Y20294D02*
X1014880Y21953D01*
X1042500Y56800D02*
X1064500D01*
X1068500Y-10200D02*
X1074365Y-16065D01*
D12*
X1939837Y89876D02*
G03*
X1938914Y89493I0J-1306D01*
G01*
X535600Y81776D02*
G03*
X533849Y82501I-1751J-1751D01*
G01*
X1939837Y89876D02*
X1952600D01*
X521591Y82501D02*
X533849D01*
D13*
X1935575Y89493D02*
G03*
X1935025Y89266I0J-777D01*
G01*
X1728953Y86347D02*
G03*
X1721882Y89276I-7071J-7071D01*
G01*
X1935025Y89266D02*
G03*
X1934067Y88868I0J-1355D01*
G01*
X1492753Y86347D02*
G03*
X1485682Y89276I-7071J-7071D01*
G01*
X1931873Y86675D02*
G03*
X1930300Y82877I3798J-3798D01*
G01*
X1732500Y78658D02*
G03*
X1729571Y85729I-10000J0D01*
G01*
X1497000Y77958D02*
G03*
X1494071Y85029I-10000J0D01*
G01*
X1258753Y86747D02*
G03*
X1251682Y89676I-7071J-7071D01*
G01*
X1260300Y83013D02*
G03*
X1258753Y86747I-5281J0D01*
G01*
X1927371Y56620D02*
G03*
X1930300Y63691I-7071J7071D01*
G01*
X1729571Y49971D02*
G03*
X1732500Y57042I-7071J7071D01*
G01*
X1725413Y48249D02*
G03*
X1729571Y49971I0J5880D01*
G01*
X1257371Y50971D02*
G03*
X1260300Y58042I-7071J7071D01*
G01*
X1488099Y48249D02*
G03*
X1494500Y50900I0J9052D01*
G01*
X1250799Y48249D02*
G03*
X1257371Y50971I0J9294D01*
G01*
X985800Y62016D02*
G03*
X988729Y54945I10000J0D01*
G01*
X783735Y86265D02*
G03*
X776664Y89194I-7071J-7071D01*
G01*
X787500Y78358D02*
G03*
X784571Y85429I-10000J0D01*
G01*
X554800Y78858D02*
G03*
X551871Y85929I-10000J0D01*
G01*
X551153Y86647D02*
G03*
X544082Y89576I-7071J-7071D01*
G01*
X316900Y81813D02*
G03*
X315000Y86400I-6487J0D01*
G01*
X784571Y51371D02*
G03*
X787500Y58442I-7071J7071D01*
G01*
X313971Y51371D02*
G03*
X316900Y58442I-7071J7071D01*
G01*
X315000Y86400D02*
G03*
X308541Y89076I-6459J-6459D01*
G01*
X82000Y79758D02*
G03*
X79071Y86829I-10000J0D01*
G01*
X78100Y87800D02*
G03*
X74237Y89400I-3863J-3863D01*
G01*
X62900D02*
G03*
X62525Y89555I-375J-375D01*
G01*
X79071Y50171D02*
G03*
X82000Y57242I-7071J7071D01*
G01*
X903971Y-154371D02*
G03*
X911042Y-157300I7071J7071D01*
G01*
X907571Y-218571D02*
G03*
X914642Y-221500I7071J7071D01*
G01*
X777307Y48249D02*
G03*
X784378Y51178I0J10000D01*
G01*
X547065Y48249D02*
G03*
X552500Y50500I0J7686D01*
G01*
X306707Y48249D02*
G03*
X313778Y51178I0J10000D01*
G01*
X74535Y48292D02*
G03*
X79071Y50171I0J6415D01*
G01*
X901529Y-4881D02*
G03*
X898600Y-11952I7071J-7071D01*
G01*
Y-181058D02*
G03*
X901529Y-188129I10000J0D01*
G01*
X902918Y-153389D02*
G03*
X898600Y-151600I-4318J-4318D01*
G01*
Y-205458D02*
G03*
X901529Y-212529I10000J0D01*
G01*
X1197734Y81976D02*
G03*
X1199000Y82500I0J1790D01*
G01*
X1008000Y81976D02*
G03*
X1006732Y82501I-1268J-1268D01*
G01*
X1000772Y-153689D02*
G03*
X997413Y-152298I-3359J-3360D01*
G01*
X1004700Y-161759D02*
G03*
X1002163Y-155103I-10000J0D01*
G01*
D02*
G03*
X1001771Y-154688I-7463J-6656D01*
G01*
Y-170435D02*
G03*
X1002448Y-169686I-7071J7071D01*
G01*
X1007900Y-233824D02*
G03*
X1006393Y-233200I-1507J-1507D01*
G01*
X994000Y-174200D02*
G03*
X1000839Y-171367I0J9672D01*
G01*
X552500Y50500D02*
G03*
X554800Y56053I-5553J5553D01*
G01*
X1494500Y50900D02*
G03*
X1497000Y56936I-6036J6036D01*
G01*
X299400Y81076D02*
G03*
X295959Y82501I-3441J-3441D01*
G01*
X1002448Y-169686D02*
G03*
X1004700Y-163364I-7748J6322D01*
G01*
X1935575Y89493D02*
X1938194D01*
X1716700Y89276D02*
X1721882D01*
X1702693Y89194D02*
X1716700D01*
X1480400Y89276D02*
X1485682D01*
X1466473Y89194D02*
X1480400D01*
X1728953Y86347D02*
X1729571Y85729D01*
X1930300Y63691D02*
Y82877D01*
X1492753Y86347D02*
X1494071Y85029D01*
X1244200Y89676D02*
X1251682D01*
X1230252Y89594D02*
X1249569D01*
X1032968Y89600D02*
X1198900D01*
X994032Y89594D02*
X1032500D01*
X985700Y61916D02*
Y80100D01*
X1732500Y57042D02*
Y78658D01*
X1919000Y48249D02*
X1927371Y56620D01*
X1497000Y56936D02*
Y77958D01*
X1260300Y58042D02*
Y83013D01*
X1704071Y48249D02*
X1725413D01*
X1467851D02*
X1488099D01*
X1231630D02*
X1250799D01*
X988729Y54945D02*
X995425Y48249D01*
X757811Y89194D02*
X776664D01*
X783735Y86265D02*
X784571Y85429D01*
X551153Y86647D02*
X551871Y85929D01*
X535600Y89576D02*
X544082D01*
X521591Y89194D02*
X535600D01*
X316900Y58442D02*
Y81813D01*
X787500Y58442D02*
Y78358D01*
X784378Y51178D02*
X784571Y51371D01*
X554800Y56053D02*
Y78858D01*
X299400Y89076D02*
X308541D01*
X285655Y89476D02*
X299400D01*
X78100Y87800D02*
X79071Y86829D01*
X82000Y57242D02*
Y79758D01*
X49248Y89555D02*
X62525D01*
X62900Y89400D02*
X74237D01*
X313778Y51178D02*
X313971Y51371D01*
X901529Y-4881D02*
X903766Y-2644D01*
X898600Y-149000D02*
X903971Y-154371D01*
X902918Y-153389D02*
X906830Y-157300D01*
X911042D02*
X922500D01*
X906830D02*
X911042D01*
X901529Y-212529D02*
X907571Y-218571D01*
X914642Y-221500D02*
X922300D01*
X898600Y-151600D02*
Y-149000D01*
X759189Y48249D02*
X777307D01*
X898600Y-149000D02*
Y-11952D01*
Y-181058D02*
Y-151600D01*
Y-205458D02*
Y-181058D01*
X522969Y48249D02*
X547065D01*
X50900Y48292D02*
X74535D01*
X286748Y48249D02*
X306707D01*
X994032Y82501D02*
X1006732D01*
X1008000Y81976D02*
X1197734D01*
X996526Y-152298D02*
X997413D01*
X1004700Y-163364D02*
Y-161759D01*
X1000772Y-153689D02*
X1001771Y-154688D01*
X1000839Y-171367D02*
X1001771Y-170435D01*
X994047Y-233200D02*
X1006393D01*
X49248Y82662D02*
X60504D01*
X285370Y82401D02*
X295959D01*
X903000Y-188800D02*
X922300D01*
X1931873Y86675D02*
X1934067Y88868D01*
D14*
X989061Y88966D02*
G03*
X986795Y86700I0J-2266D01*
G01*
X986700Y82800D02*
G03*
X986795Y82895I0J95D01*
G01*
X985700Y80100D02*
G03*
X986700Y81100I0J1000D01*
G01*
X989528Y89094D02*
X994032D01*
X989061Y88966D02*
X989300D01*
X986795Y82895D02*
Y86700D01*
X986700Y81100D02*
Y82800D01*
D15*
X757811Y82501D02*
G03*
X758838Y82076I1026J1026D01*
G01*
X771800D01*
D16*
X1017000Y-245200D02*
D03*
D17*
X1059000Y-208200D02*
D03*
X1037000D02*
D03*
X1059000Y-193200D02*
D03*
X1037000D02*
D03*
Y-168200D02*
D03*
X1059000D02*
D03*
X1037000Y-183200D02*
D03*
X1059000D02*
D03*
X1042500Y71800D02*
D03*
X1064500D02*
D03*
X1042500Y56800D02*
D03*
X1064500D02*
D03*
X1080500Y71800D02*
D03*
X1102500D02*
D03*
X1080500Y56800D02*
D03*
X1102500D02*
D03*
X1117900Y71900D02*
D03*
X1139900D02*
D03*
X1117900Y56900D02*
D03*
X1139900D02*
D03*
X1155500Y71800D02*
D03*
X1177500D02*
D03*
X1155500Y56800D02*
D03*
X1177500D02*
D03*
D18*
X991200Y-58986D02*
D03*
Y-82214D02*
D03*
D19*
X1072500Y56343D02*
D03*
Y49257D02*
D03*
X1034000Y63757D02*
D03*
Y70843D02*
D03*
X1072500Y70843D02*
D03*
Y63757D02*
D03*
X1110000Y70943D02*
D03*
Y63857D02*
D03*
X1147500Y70843D02*
D03*
Y63757D02*
D03*
D20*
X1081000Y50450D02*
D03*
Y44150D02*
D03*
D21*
X1186000Y59291D02*
D03*
Y70709D02*
D03*
D22*
X994047Y-145605D02*
D03*
Y-152298D02*
D03*
Y-158991D02*
D03*
X975149D02*
D03*
Y-152298D02*
D03*
Y-145605D02*
D03*
X994047Y-226507D02*
D03*
Y-233200D02*
D03*
Y-239893D02*
D03*
X975149D02*
D03*
Y-233200D02*
D03*
Y-226507D02*
D03*
X1938914Y89493D02*
D03*
Y82800D02*
D03*
Y76107D02*
D03*
X1920016D02*
D03*
Y82800D02*
D03*
Y89493D02*
D03*
X1702693Y89194D02*
D03*
Y82501D02*
D03*
Y75808D02*
D03*
X1683795D02*
D03*
Y82501D02*
D03*
Y89194D02*
D03*
X1466473D02*
D03*
Y82501D02*
D03*
Y75808D02*
D03*
X1447575D02*
D03*
Y82501D02*
D03*
Y89194D02*
D03*
X1230252D02*
D03*
Y82501D02*
D03*
Y75808D02*
D03*
X1211354D02*
D03*
Y82501D02*
D03*
Y89194D02*
D03*
X994032D02*
D03*
Y82501D02*
D03*
Y75808D02*
D03*
X975134D02*
D03*
Y82501D02*
D03*
Y89194D02*
D03*
X757811D02*
D03*
Y82501D02*
D03*
Y75808D02*
D03*
X738913D02*
D03*
Y82501D02*
D03*
Y89194D02*
D03*
X521591D02*
D03*
Y82501D02*
D03*
Y75808D02*
D03*
X502693D02*
D03*
Y82501D02*
D03*
Y89194D02*
D03*
X285370D02*
D03*
Y82501D02*
D03*
Y75808D02*
D03*
X266472D02*
D03*
Y82501D02*
D03*
Y89194D02*
D03*
X49248Y89555D02*
D03*
Y82862D02*
D03*
Y76169D02*
D03*
X30350D02*
D03*
Y82862D02*
D03*
Y89555D02*
D03*
D23*
X1446197Y38249D02*
D03*
Y48249D02*
D03*
X1467851D02*
D03*
Y38249D02*
D03*
X1682417D02*
D03*
Y48249D02*
D03*
X1704071D02*
D03*
Y38249D02*
D03*
X1849000Y41800D02*
D03*
X1839000Y51800D02*
D03*
Y41800D02*
D03*
X1829000Y51800D02*
D03*
Y41800D02*
D03*
X1919000Y38249D02*
D03*
Y48249D02*
D03*
X1940654D02*
D03*
Y38249D02*
D03*
X1068500Y-50200D02*
D03*
Y-40200D02*
D03*
Y-30200D02*
D03*
Y-20200D02*
D03*
Y-10200D02*
D03*
X973771Y-196700D02*
D03*
Y-186700D02*
D03*
X995425D02*
D03*
Y-196700D02*
D03*
X1209976Y38249D02*
D03*
Y48249D02*
D03*
X1231630D02*
D03*
Y38249D02*
D03*
X973771D02*
D03*
Y48249D02*
D03*
X995425D02*
D03*
Y38249D02*
D03*
X737535D02*
D03*
Y48249D02*
D03*
X759189D02*
D03*
Y38249D02*
D03*
X501315D02*
D03*
Y48249D02*
D03*
X522969D02*
D03*
Y38249D02*
D03*
X265094D02*
D03*
Y48249D02*
D03*
X286748D02*
D03*
Y38249D02*
D03*
X29246Y38292D02*
D03*
Y48292D02*
D03*
X50900D02*
D03*
Y38292D02*
D03*
X141000Y47800D02*
D03*
X131000Y57800D02*
D03*
Y47800D02*
D03*
X121000Y57800D02*
D03*
Y47800D02*
D03*
D24*
X1849000Y51800D02*
D03*
X141000Y57800D02*
D03*
D25*
X1068500Y-60200D02*
D03*
D26*
X1755000Y61000D02*
D03*
X215000D02*
D03*
X1069600Y-242300D02*
D03*
X906600D02*
D03*
D27*
X922300Y-221500D02*
D03*
Y-205900D02*
D03*
Y-188800D02*
D03*
Y-173200D02*
D03*
X922500Y-126100D02*
D03*
Y-141700D02*
D03*
Y-157300D02*
D03*
D28*
X1042900Y-79100D02*
D03*
Y-69100D02*
D03*
Y-59100D02*
D03*
Y-49100D02*
D03*
Y-39100D02*
D03*
Y-29100D02*
D03*
Y-19100D02*
D03*
Y-9100D02*
D03*
X932901Y-79100D02*
D03*
Y-69100D02*
D03*
Y-59100D02*
D03*
Y-49100D02*
D03*
Y-39100D02*
D03*
Y-29100D02*
D03*
Y-19100D02*
D03*
D29*
Y-9100D02*
D03*
D30*
X948200Y10700D02*
D03*
X970500Y-219000D02*
D03*
X1026900Y40600D02*
D03*
X1025200Y21500D02*
D03*
X1026900Y63400D02*
D03*
X1063400Y15500D02*
D03*
X1067100Y-200D02*
D03*
X1020300Y-4200D02*
D03*
X1027700D02*
D03*
X1198900Y89400D02*
D03*
X1199000Y82500D02*
D03*
X21729Y77571D02*
D03*
X915300Y-92000D02*
D03*
X908400Y-110845D02*
D03*
X939400Y13200D02*
D03*
X927600D02*
D03*
X978400Y26500D02*
D03*
X984500Y41000D02*
D03*
X1010500Y26400D02*
D03*
X997600Y26100D02*
D03*
X1023300Y-210100D02*
D03*
X1031200Y-199200D02*
D03*
X976000Y-118200D02*
D03*
X919700Y9500D02*
D03*
X912200D02*
D03*
X1876000Y41800D02*
D03*
X1027700Y-19683D02*
D03*
X999400Y-78800D02*
D03*
Y-62900D02*
D03*
X994000Y-174200D02*
D03*
X1060500Y-214700D02*
D03*
Y-163200D02*
D03*
X1028000Y-118200D02*
D03*
X1062000Y-199200D02*
D03*
X1063000Y-176700D02*
D03*
X1009100Y4700D02*
D03*
X1004200Y-300D02*
D03*
X955300Y13800D02*
D03*
X962400Y7500D02*
D03*
X968100Y0D02*
D03*
X982500Y-42200D02*
D03*
X1028000Y-80200D02*
D03*
X971000Y-54700D02*
D03*
X970500Y-74700D02*
D03*
X1035900Y-99324D02*
D03*
X1070900Y-101716D02*
D03*
X1059900Y-62824D02*
D03*
X1052900Y-84824D02*
D03*
X1009400Y-188324D02*
D03*
X1016400D02*
D03*
X965200Y-164824D02*
D03*
X1007900Y-233824D02*
D03*
X962800Y-241424D02*
D03*
X17900Y84000D02*
D03*
X1716700Y89276D02*
D03*
Y81976D02*
D03*
X1671600Y74076D02*
D03*
X535600Y89576D02*
D03*
X1952500Y75800D02*
D03*
X1907500Y74076D02*
D03*
X1952600Y82976D02*
D03*
Y89876D02*
D03*
X1435300Y74176D02*
D03*
X1480400Y82076D02*
D03*
Y89276D02*
D03*
X1199100Y74076D02*
D03*
X1244200Y81976D02*
D03*
Y89676D02*
D03*
X962900Y74076D02*
D03*
X1008000Y81976D02*
D03*
Y89576D02*
D03*
X726700Y74176D02*
D03*
X771800Y82076D02*
D03*
Y89776D02*
D03*
X490500Y74176D02*
D03*
X535600Y81776D02*
D03*
X254300Y73776D02*
D03*
X299400Y81076D02*
D03*
Y89076D02*
D03*
X62900Y89400D02*
D03*
Y82600D02*
D03*
D31*
X983800Y-13400D02*
D03*
X983700Y-7000D02*
D03*
M02*
