G04 Layer_Color=8388736*
%FSLAX25Y25*%
%MOIN*%
G70*
G01*
G75*
%ADD51R,0.06800X0.03800*%
%ADD52R,0.07887X0.14383*%
%ADD53R,0.06312X0.05524*%
%ADD54R,0.04737X0.04737*%
%ADD55R,0.07887X0.05918*%
G04:AMPARAMS|DCode=56|XSize=86.74mil|YSize=51.31mil|CornerRadius=25.66mil|HoleSize=0mil|Usage=FLASHONLY|Rotation=0.000|XOffset=0mil|YOffset=0mil|HoleType=Round|Shape=RoundedRectangle|*
%AMROUNDEDRECTD56*
21,1,0.08674,0.00000,0,0,0.0*
21,1,0.03543,0.05131,0,0,0.0*
1,1,0.05131,0.01772,0.00000*
1,1,0.05131,-0.01772,0.00000*
1,1,0.05131,-0.01772,0.00000*
1,1,0.05131,0.01772,0.00000*
%
%ADD56ROUNDEDRECTD56*%
%ADD57C,0.08280*%
%ADD58R,0.08280X0.08280*%
%ADD59R,0.08280X0.08280*%
%ADD60C,0.06800*%
%ADD61O,0.23600X0.12200*%
G04:AMPARAMS|DCode=62|XSize=82.8mil|YSize=126.11mil|CornerRadius=22.7mil|HoleSize=0mil|Usage=FLASHONLY|Rotation=90.000|XOffset=0mil|YOffset=0mil|HoleType=Round|Shape=RoundedRectangle|*
%AMROUNDEDRECTD62*
21,1,0.08280,0.08071,0,0,90.0*
21,1,0.03740,0.12611,0,0,90.0*
1,1,0.04540,0.04035,0.01870*
1,1,0.04540,0.04035,-0.01870*
1,1,0.04540,-0.04035,-0.01870*
1,1,0.04540,-0.04035,0.01870*
%
%ADD62ROUNDEDRECTD62*%
G04:AMPARAMS|DCode=63|XSize=82.8mil|YSize=126.11mil|CornerRadius=0mil|HoleSize=0mil|Usage=FLASHONLY|Rotation=90.000|XOffset=0mil|YOffset=0mil|HoleType=Round|Shape=Octagon|*
%AMOCTAGOND63*
4,1,8,-0.06305,-0.02070,-0.06305,0.02070,-0.04235,0.04140,0.04235,0.04140,0.06305,0.02070,0.06305,-0.02070,0.04235,-0.04140,-0.04235,-0.04140,-0.06305,-0.02070,0.0*
%
%ADD63OCTAGOND63*%

%ADD64C,0.05800*%
%ADD65C,0.05300*%
D51*
X1059000Y-208200D02*
D03*
X1037000D02*
D03*
X1059000Y-193200D02*
D03*
X1037000D02*
D03*
Y-168200D02*
D03*
X1059000D02*
D03*
X1037000Y-183200D02*
D03*
X1059000D02*
D03*
X1042500Y71800D02*
D03*
X1064500D02*
D03*
X1042500Y56800D02*
D03*
X1064500D02*
D03*
X1080500Y71800D02*
D03*
X1102500D02*
D03*
X1080500Y56800D02*
D03*
X1102500D02*
D03*
X1117900Y71900D02*
D03*
X1139900D02*
D03*
X1117900Y56900D02*
D03*
X1139900D02*
D03*
X1155500Y71800D02*
D03*
X1177500D02*
D03*
X1155500Y56800D02*
D03*
X1177500D02*
D03*
D52*
X991200Y-58986D02*
D03*
Y-82214D02*
D03*
D53*
X1072500Y56343D02*
D03*
Y49257D02*
D03*
X1034000Y63757D02*
D03*
Y70843D02*
D03*
X1072500Y70843D02*
D03*
Y63757D02*
D03*
X1110000Y70943D02*
D03*
Y63857D02*
D03*
X1147500Y70843D02*
D03*
Y63757D02*
D03*
D54*
X1081000Y50450D02*
D03*
Y44150D02*
D03*
D55*
X1186000Y59291D02*
D03*
Y70709D02*
D03*
D56*
X994047Y-145605D02*
D03*
Y-152298D02*
D03*
Y-158991D02*
D03*
X975149D02*
D03*
Y-152298D02*
D03*
Y-145605D02*
D03*
X994047Y-226507D02*
D03*
Y-233200D02*
D03*
Y-239893D02*
D03*
X975149D02*
D03*
Y-233200D02*
D03*
Y-226507D02*
D03*
X1938914Y89493D02*
D03*
Y82800D02*
D03*
Y76107D02*
D03*
X1920016D02*
D03*
Y82800D02*
D03*
Y89493D02*
D03*
X1702693Y89194D02*
D03*
Y82501D02*
D03*
Y75808D02*
D03*
X1683795D02*
D03*
Y82501D02*
D03*
Y89194D02*
D03*
X1466473D02*
D03*
Y82501D02*
D03*
Y75808D02*
D03*
X1447575D02*
D03*
Y82501D02*
D03*
Y89194D02*
D03*
X1230252D02*
D03*
Y82501D02*
D03*
Y75808D02*
D03*
X1211354D02*
D03*
Y82501D02*
D03*
Y89194D02*
D03*
X994032D02*
D03*
Y82501D02*
D03*
Y75808D02*
D03*
X975134D02*
D03*
Y82501D02*
D03*
Y89194D02*
D03*
X757811D02*
D03*
Y82501D02*
D03*
Y75808D02*
D03*
X738913D02*
D03*
Y82501D02*
D03*
Y89194D02*
D03*
X521591D02*
D03*
Y82501D02*
D03*
Y75808D02*
D03*
X502693D02*
D03*
Y82501D02*
D03*
Y89194D02*
D03*
X285370D02*
D03*
Y82501D02*
D03*
Y75808D02*
D03*
X266472D02*
D03*
Y82501D02*
D03*
Y89194D02*
D03*
X49248Y89555D02*
D03*
Y82862D02*
D03*
Y76169D02*
D03*
X30350D02*
D03*
Y82862D02*
D03*
Y89555D02*
D03*
D57*
X1446197Y38249D02*
D03*
Y48249D02*
D03*
X1467851D02*
D03*
Y38249D02*
D03*
X1682417D02*
D03*
Y48249D02*
D03*
X1704071D02*
D03*
Y38249D02*
D03*
X1849000Y41800D02*
D03*
X1839000Y51800D02*
D03*
Y41800D02*
D03*
X1829000Y51800D02*
D03*
Y41800D02*
D03*
X1919000Y38249D02*
D03*
Y48249D02*
D03*
X1940654D02*
D03*
Y38249D02*
D03*
X1068500Y-50200D02*
D03*
Y-40200D02*
D03*
Y-30200D02*
D03*
Y-20200D02*
D03*
Y-10200D02*
D03*
X973771Y-196700D02*
D03*
Y-186700D02*
D03*
X995425D02*
D03*
Y-196700D02*
D03*
X1209976Y38249D02*
D03*
Y48249D02*
D03*
X1231630D02*
D03*
Y38249D02*
D03*
X973771D02*
D03*
Y48249D02*
D03*
X995425D02*
D03*
Y38249D02*
D03*
X737535D02*
D03*
Y48249D02*
D03*
X759189D02*
D03*
Y38249D02*
D03*
X501315D02*
D03*
Y48249D02*
D03*
X522969D02*
D03*
Y38249D02*
D03*
X265094D02*
D03*
Y48249D02*
D03*
X286748D02*
D03*
Y38249D02*
D03*
X29246Y38292D02*
D03*
Y48292D02*
D03*
X50900D02*
D03*
Y38292D02*
D03*
X141000Y47800D02*
D03*
X131000Y57800D02*
D03*
Y47800D02*
D03*
X121000Y57800D02*
D03*
Y47800D02*
D03*
D58*
X1849000Y51800D02*
D03*
X141000Y57800D02*
D03*
D59*
X1068500Y-60200D02*
D03*
D60*
X1755000Y61000D02*
D03*
X215000D02*
D03*
X1069600Y-242300D02*
D03*
X906600D02*
D03*
D61*
X922300Y-221500D02*
D03*
Y-205900D02*
D03*
Y-188800D02*
D03*
Y-173200D02*
D03*
X922500Y-126100D02*
D03*
Y-141700D02*
D03*
Y-157300D02*
D03*
D62*
X1042900Y-79100D02*
D03*
Y-69100D02*
D03*
Y-59100D02*
D03*
Y-49100D02*
D03*
Y-39100D02*
D03*
Y-29100D02*
D03*
Y-19100D02*
D03*
Y-9100D02*
D03*
X932901Y-79100D02*
D03*
Y-69100D02*
D03*
Y-59100D02*
D03*
Y-49100D02*
D03*
Y-39100D02*
D03*
Y-29100D02*
D03*
Y-19100D02*
D03*
D63*
Y-9100D02*
D03*
D64*
X948200Y10700D02*
D03*
X970500Y-219000D02*
D03*
X1026900Y40600D02*
D03*
X1025200Y21500D02*
D03*
X1026900Y63400D02*
D03*
X1063400Y15500D02*
D03*
X1067100Y-200D02*
D03*
X1020300Y-4200D02*
D03*
X1027700D02*
D03*
X1198900Y89400D02*
D03*
X1199000Y82500D02*
D03*
X21729Y77571D02*
D03*
X915300Y-92000D02*
D03*
X908400Y-110845D02*
D03*
X939400Y13200D02*
D03*
X927600D02*
D03*
X978400Y26500D02*
D03*
X984500Y41000D02*
D03*
X1010500Y26400D02*
D03*
X997600Y26100D02*
D03*
X1023300Y-210100D02*
D03*
X1031200Y-199200D02*
D03*
X976000Y-118200D02*
D03*
X919700Y9500D02*
D03*
X912200D02*
D03*
X1876000Y41800D02*
D03*
X1027700Y-19683D02*
D03*
X999400Y-78800D02*
D03*
Y-62900D02*
D03*
X994000Y-174200D02*
D03*
X1060500Y-214700D02*
D03*
Y-163200D02*
D03*
X1028000Y-118200D02*
D03*
X1062000Y-199200D02*
D03*
X1063000Y-176700D02*
D03*
X1009100Y4700D02*
D03*
X1004200Y-300D02*
D03*
X955300Y13800D02*
D03*
X962400Y7500D02*
D03*
X968100Y0D02*
D03*
X982500Y-42200D02*
D03*
X1028000Y-80200D02*
D03*
X971000Y-54700D02*
D03*
X970500Y-74700D02*
D03*
X1035900Y-99324D02*
D03*
X1070900Y-101716D02*
D03*
X1059900Y-62824D02*
D03*
X1052900Y-84824D02*
D03*
X1009400Y-188324D02*
D03*
X1016400D02*
D03*
X965200Y-164824D02*
D03*
X1007900Y-233824D02*
D03*
X962800Y-241424D02*
D03*
X17900Y84000D02*
D03*
X1716700Y89276D02*
D03*
Y81976D02*
D03*
X1671600Y74076D02*
D03*
X535600Y89576D02*
D03*
X1952500Y75800D02*
D03*
X1907500Y74076D02*
D03*
X1952600Y82976D02*
D03*
Y89876D02*
D03*
X1435300Y74176D02*
D03*
X1480400Y82076D02*
D03*
Y89276D02*
D03*
X1199100Y74076D02*
D03*
X1244200Y81976D02*
D03*
Y89676D02*
D03*
X962900Y74076D02*
D03*
X1008000Y81976D02*
D03*
Y89576D02*
D03*
X726700Y74176D02*
D03*
X771800Y82076D02*
D03*
Y89776D02*
D03*
X490500Y74176D02*
D03*
X535600Y81776D02*
D03*
X254300Y73776D02*
D03*
X299400Y81076D02*
D03*
Y89076D02*
D03*
X62900Y89400D02*
D03*
Y82600D02*
D03*
D65*
X983800Y-13400D02*
D03*
X983700Y-7000D02*
D03*
M02*
