G04 Layer_Color=128*
%FSLAX25Y25*%
%MOIN*%
G70*
G01*
G75*
%ADD19R,0.05512X0.04724*%
%ADD20R,0.03937X0.03937*%
%ADD21R,0.07087X0.05118*%
%ADD32R,0.03937X0.03543*%
%ADD33R,0.02362X0.05905*%
%ADD34O,0.08661X0.02362*%
%ADD35R,0.05905X0.02362*%
%ADD36R,0.03937X0.09449*%
%ADD37R,0.12992X0.09449*%
%ADD38R,0.05118X0.07087*%
%ADD39R,0.04724X0.05512*%
%ADD40R,0.03937X0.03937*%
%ADD41C,0.05905*%
%ADD42R,0.10000X0.10000*%
%ADD43R,0.07087X0.05512*%
D19*
X1045500Y-183657D02*
D03*
Y-190743D02*
D03*
X1053500Y-183657D02*
D03*
Y-190743D02*
D03*
D20*
X1054000Y-204650D02*
D03*
Y-198350D02*
D03*
X1004500Y-14499D02*
D03*
Y-8200D02*
D03*
D21*
X921300Y-35691D02*
D03*
Y-47109D02*
D03*
X921200Y-78009D02*
D03*
Y-66591D02*
D03*
X1046300Y-205291D02*
D03*
Y-216709D02*
D03*
X1071000Y-69491D02*
D03*
Y-80909D02*
D03*
X1061000D02*
D03*
Y-69491D02*
D03*
X1054100Y83D02*
D03*
Y11500D02*
D03*
X1044600Y11509D02*
D03*
Y91D02*
D03*
X1012300Y-3491D02*
D03*
Y-14909D02*
D03*
X1007000Y-34209D02*
D03*
Y-22791D02*
D03*
X975200Y-23991D02*
D03*
Y-35409D02*
D03*
X966300Y-23991D02*
D03*
Y-35409D02*
D03*
X957400D02*
D03*
Y-23991D02*
D03*
X948500D02*
D03*
Y-35409D02*
D03*
X996300Y-53409D02*
D03*
Y-41991D02*
D03*
X1035500Y-106991D02*
D03*
Y-118409D02*
D03*
X1070500Y-108291D02*
D03*
Y-119709D02*
D03*
X947000Y-148991D02*
D03*
Y-160409D02*
D03*
X970500Y-141409D02*
D03*
Y-129991D02*
D03*
X955000Y-114991D02*
D03*
Y-126409D02*
D03*
X1037000Y-129991D02*
D03*
Y-141409D02*
D03*
X1011000D02*
D03*
Y-129991D02*
D03*
D32*
X1053500Y-98046D02*
D03*
Y-91353D02*
D03*
X1063900Y-142654D02*
D03*
Y-149346D02*
D03*
D33*
X948400Y-4460D02*
D03*
X944660Y-11940D02*
D03*
X952140D02*
D03*
X986100Y-27360D02*
D03*
X982360Y-34840D02*
D03*
X989840D02*
D03*
D34*
X995000Y19800D02*
D03*
Y14800D02*
D03*
Y9800D02*
D03*
Y4800D02*
D03*
Y-200D02*
D03*
Y-5200D02*
D03*
Y-10200D02*
D03*
Y-15200D02*
D03*
X976102Y19800D02*
D03*
Y14800D02*
D03*
Y9800D02*
D03*
Y4800D02*
D03*
Y-200D02*
D03*
Y-5200D02*
D03*
Y-10200D02*
D03*
Y-15200D02*
D03*
D35*
X1024700Y10360D02*
D03*
X1032180Y6620D02*
D03*
Y14100D02*
D03*
X1063260Y-92200D02*
D03*
X1070740Y-95940D02*
D03*
Y-88460D02*
D03*
X1063760Y-131000D02*
D03*
X1071240Y-134740D02*
D03*
Y-127260D02*
D03*
X945260Y-137700D02*
D03*
X952740Y-141440D02*
D03*
Y-133960D02*
D03*
X1025500Y-158200D02*
D03*
X1032980Y-161940D02*
D03*
Y-154460D02*
D03*
D36*
X992055Y-83617D02*
D03*
X983000D02*
D03*
X973945D02*
D03*
D37*
X983000Y-60783D02*
D03*
D38*
X974791Y-156400D02*
D03*
X986209D02*
D03*
X974791Y-166100D02*
D03*
X986209D02*
D03*
X982891Y-212400D02*
D03*
X994309D02*
D03*
X1928591Y78900D02*
D03*
X1940009D02*
D03*
X1920791Y69100D02*
D03*
X1932209D02*
D03*
X1681783Y68500D02*
D03*
X1693200D02*
D03*
X1687191Y77400D02*
D03*
X1698609D02*
D03*
X1446391Y69600D02*
D03*
X1457809D02*
D03*
X1452391Y78900D02*
D03*
X1463809D02*
D03*
X1217091D02*
D03*
X1228509D02*
D03*
X1208691Y69600D02*
D03*
X1220109D02*
D03*
X978791Y78800D02*
D03*
X990209D02*
D03*
X972291Y69300D02*
D03*
X983709D02*
D03*
X741691Y78900D02*
D03*
X753109D02*
D03*
X736383Y69300D02*
D03*
X747800D02*
D03*
X507283Y78900D02*
D03*
X518700D02*
D03*
X498291Y69600D02*
D03*
X509709D02*
D03*
X269791Y78900D02*
D03*
X281209D02*
D03*
X264891Y69600D02*
D03*
X276309D02*
D03*
X24291D02*
D03*
X35709D02*
D03*
X30800Y78900D02*
D03*
X42217D02*
D03*
D39*
X1016543Y-181200D02*
D03*
X1009457D02*
D03*
X1947057Y68700D02*
D03*
X1954143D02*
D03*
X1706557D02*
D03*
X1713643D02*
D03*
X1470857D02*
D03*
X1477943D02*
D03*
X1232700D02*
D03*
X1239787D02*
D03*
X996357D02*
D03*
X1003443D02*
D03*
X760657D02*
D03*
X767743D02*
D03*
X523057D02*
D03*
X530143D02*
D03*
X288557D02*
D03*
X295643D02*
D03*
X49757D02*
D03*
X56843D02*
D03*
D40*
X1008750Y-174100D02*
D03*
X1002450D02*
D03*
X980350Y-174000D02*
D03*
X974050D02*
D03*
X987050Y-220100D02*
D03*
X980750D02*
D03*
X1925150Y61200D02*
D03*
X1918850D02*
D03*
X1687400Y61100D02*
D03*
X1693699D02*
D03*
X1452150Y61200D02*
D03*
X1458450D02*
D03*
X1214000D02*
D03*
X1220299D02*
D03*
X977950D02*
D03*
X984250D02*
D03*
X742150D02*
D03*
X748450D02*
D03*
X504350D02*
D03*
X510650D02*
D03*
X1028150Y-87200D02*
D03*
X1021850D02*
D03*
X977850Y-96200D02*
D03*
X984150D02*
D03*
X1948450Y61200D02*
D03*
X1942150D02*
D03*
X49350Y61200D02*
D03*
X43050D02*
D03*
X288950D02*
D03*
X282650D02*
D03*
X523050D02*
D03*
X516750D02*
D03*
X760600D02*
D03*
X754301D02*
D03*
X996450D02*
D03*
X990150D02*
D03*
X1232450D02*
D03*
X1226150D02*
D03*
X1470599D02*
D03*
X1464300D02*
D03*
X1706250D02*
D03*
X1699950D02*
D03*
X270550Y61200D02*
D03*
X276850D02*
D03*
X30350D02*
D03*
X36650D02*
D03*
D41*
X17900Y84000D02*
D03*
X1045500Y-90700D02*
D03*
X922000Y-19200D02*
D03*
X945000Y-79200D02*
D03*
X1060500Y-214700D02*
D03*
Y-163100D02*
D03*
X1060100Y-19700D02*
D03*
X1060300Y-29700D02*
D03*
X915300Y-92000D02*
D03*
X921300Y-55200D02*
D03*
X1005700Y15800D02*
D03*
X945500Y-127200D02*
D03*
X1876000Y41800D02*
D03*
X1829000Y61800D02*
D03*
X1865000Y41800D02*
D03*
X1849000Y61800D02*
D03*
X948200Y2800D02*
D03*
X912200Y9500D02*
D03*
X948200Y10700D02*
D03*
X1015000Y-23000D02*
D03*
X997600Y26016D02*
D03*
X1036000Y-99200D02*
D03*
X1016000Y-154700D02*
D03*
X69600Y90400D02*
D03*
D42*
X961000Y-81450D02*
D03*
Y-62950D02*
D03*
D43*
X1017000Y19493D02*
D03*
Y6107D02*
D03*
X961500Y-134007D02*
D03*
Y-147393D02*
D03*
X960200Y-12993D02*
D03*
Y393D02*
D03*
X996500Y-34893D02*
D03*
Y-21507D02*
D03*
X1026000Y-128007D02*
D03*
Y-141393D02*
D03*
M02*
