G04 Layer_Color=16711935*
%FSLAX25Y25*%
%MOIN*%
G70*
G01*
G75*
%ADD53R,0.06312X0.05524*%
%ADD54R,0.04737X0.04737*%
%ADD55R,0.07887X0.05918*%
%ADD57C,0.08280*%
%ADD58R,0.08280X0.08280*%
%ADD59R,0.08280X0.08280*%
%ADD60C,0.06800*%
%ADD61O,0.23600X0.12200*%
G04:AMPARAMS|DCode=62|XSize=82.8mil|YSize=126.11mil|CornerRadius=22.7mil|HoleSize=0mil|Usage=FLASHONLY|Rotation=90.000|XOffset=0mil|YOffset=0mil|HoleType=Round|Shape=RoundedRectangle|*
%AMROUNDEDRECTD62*
21,1,0.08280,0.08071,0,0,90.0*
21,1,0.03740,0.12611,0,0,90.0*
1,1,0.04540,0.04035,0.01870*
1,1,0.04540,0.04035,-0.01870*
1,1,0.04540,-0.04035,-0.01870*
1,1,0.04540,-0.04035,0.01870*
%
%ADD62ROUNDEDRECTD62*%
G04:AMPARAMS|DCode=63|XSize=82.8mil|YSize=126.11mil|CornerRadius=0mil|HoleSize=0mil|Usage=FLASHONLY|Rotation=90.000|XOffset=0mil|YOffset=0mil|HoleType=Round|Shape=Octagon|*
%AMOCTAGOND63*
4,1,8,-0.06305,-0.02070,-0.06305,0.02070,-0.04235,0.04140,0.04235,0.04140,0.06305,0.02070,0.06305,-0.02070,0.04235,-0.04140,-0.04235,-0.04140,-0.06305,-0.02070,0.0*
%
%ADD63OCTAGOND63*%

%ADD64C,0.05800*%
%ADD65C,0.05300*%
%ADD66R,0.04737X0.04343*%
%ADD67R,0.03162X0.06706*%
%ADD68O,0.09461X0.03162*%
%ADD69R,0.06706X0.03162*%
%ADD70R,0.04737X0.10249*%
%ADD71R,0.13792X0.10249*%
%ADD72R,0.05918X0.07887*%
%ADD73R,0.05524X0.06312*%
%ADD74R,0.04737X0.04737*%
%ADD75C,0.06706*%
%ADD76R,0.10800X0.10800*%
%ADD77R,0.07887X0.06312*%
D53*
X1045500Y-183657D02*
D03*
Y-190743D02*
D03*
X1053500Y-183657D02*
D03*
Y-190743D02*
D03*
D54*
X1054000Y-204650D02*
D03*
Y-198350D02*
D03*
X1004500Y-14499D02*
D03*
Y-8200D02*
D03*
D55*
X921300Y-35691D02*
D03*
Y-47109D02*
D03*
X921200Y-78009D02*
D03*
Y-66591D02*
D03*
X1046300Y-205291D02*
D03*
Y-216709D02*
D03*
X1071000Y-69491D02*
D03*
Y-80909D02*
D03*
X1061000D02*
D03*
Y-69491D02*
D03*
X1054100Y83D02*
D03*
Y11500D02*
D03*
X1044600Y11509D02*
D03*
Y91D02*
D03*
X1012300Y-3491D02*
D03*
Y-14909D02*
D03*
X1007000Y-34209D02*
D03*
Y-22791D02*
D03*
X975200Y-23991D02*
D03*
Y-35409D02*
D03*
X966300Y-23991D02*
D03*
Y-35409D02*
D03*
X957400D02*
D03*
Y-23991D02*
D03*
X948500D02*
D03*
Y-35409D02*
D03*
X996300Y-53409D02*
D03*
Y-41991D02*
D03*
X1035500Y-106991D02*
D03*
Y-118409D02*
D03*
X1070500Y-108291D02*
D03*
Y-119709D02*
D03*
X947000Y-148991D02*
D03*
Y-160409D02*
D03*
X970500Y-141409D02*
D03*
Y-129991D02*
D03*
X955000Y-114991D02*
D03*
Y-126409D02*
D03*
X1037000Y-129991D02*
D03*
Y-141409D02*
D03*
X1011000D02*
D03*
Y-129991D02*
D03*
D57*
X1446197Y38249D02*
D03*
Y48249D02*
D03*
X1467851D02*
D03*
Y38249D02*
D03*
X1682417D02*
D03*
Y48249D02*
D03*
X1704071D02*
D03*
Y38249D02*
D03*
X1849000Y41800D02*
D03*
X1839000Y51800D02*
D03*
Y41800D02*
D03*
X1829000Y51800D02*
D03*
Y41800D02*
D03*
X1919000Y38249D02*
D03*
Y48249D02*
D03*
X1940654D02*
D03*
Y38249D02*
D03*
X1068500Y-50200D02*
D03*
Y-40200D02*
D03*
Y-30200D02*
D03*
Y-20200D02*
D03*
Y-10200D02*
D03*
X973771Y-196700D02*
D03*
Y-186700D02*
D03*
X995425D02*
D03*
Y-196700D02*
D03*
X1209976Y38249D02*
D03*
Y48249D02*
D03*
X1231630D02*
D03*
Y38249D02*
D03*
X973771D02*
D03*
Y48249D02*
D03*
X995425D02*
D03*
Y38249D02*
D03*
X737535D02*
D03*
Y48249D02*
D03*
X759189D02*
D03*
Y38249D02*
D03*
X501315D02*
D03*
Y48249D02*
D03*
X522969D02*
D03*
Y38249D02*
D03*
X265094D02*
D03*
Y48249D02*
D03*
X286748D02*
D03*
Y38249D02*
D03*
X29246Y38292D02*
D03*
Y48292D02*
D03*
X50900D02*
D03*
Y38292D02*
D03*
X141000Y47800D02*
D03*
X131000Y57800D02*
D03*
Y47800D02*
D03*
X121000Y57800D02*
D03*
Y47800D02*
D03*
D58*
X1849000Y51800D02*
D03*
X141000Y57800D02*
D03*
D59*
X1068500Y-60200D02*
D03*
D60*
X1755000Y61000D02*
D03*
X215000D02*
D03*
X1069600Y-242300D02*
D03*
X906600D02*
D03*
D61*
X922300Y-221500D02*
D03*
Y-205900D02*
D03*
Y-188800D02*
D03*
Y-173200D02*
D03*
X922500Y-126100D02*
D03*
Y-141700D02*
D03*
Y-157300D02*
D03*
D62*
X1042900Y-79100D02*
D03*
Y-69100D02*
D03*
Y-59100D02*
D03*
Y-49100D02*
D03*
Y-39100D02*
D03*
Y-29100D02*
D03*
Y-19100D02*
D03*
Y-9100D02*
D03*
X932901Y-79100D02*
D03*
Y-69100D02*
D03*
Y-59100D02*
D03*
Y-49100D02*
D03*
Y-39100D02*
D03*
Y-29100D02*
D03*
Y-19100D02*
D03*
D63*
Y-9100D02*
D03*
D64*
X948200Y10700D02*
D03*
X970500Y-219000D02*
D03*
X1026900Y40600D02*
D03*
X1025200Y21500D02*
D03*
X1026900Y63400D02*
D03*
X1063400Y15500D02*
D03*
X1067100Y-200D02*
D03*
X1020300Y-4200D02*
D03*
X1027700D02*
D03*
X1198900Y89400D02*
D03*
X1199000Y82500D02*
D03*
X21729Y77571D02*
D03*
X915300Y-92000D02*
D03*
X908400Y-110845D02*
D03*
X939400Y13200D02*
D03*
X927600D02*
D03*
X978400Y26500D02*
D03*
X984500Y41000D02*
D03*
X1010500Y26400D02*
D03*
X997600Y26100D02*
D03*
X1023300Y-210100D02*
D03*
X1031200Y-199200D02*
D03*
X976000Y-118200D02*
D03*
X919700Y9500D02*
D03*
X912200D02*
D03*
X1876000Y41800D02*
D03*
X1027700Y-19683D02*
D03*
X999400Y-78800D02*
D03*
Y-62900D02*
D03*
X994000Y-174200D02*
D03*
X1060500Y-214700D02*
D03*
Y-163200D02*
D03*
X1028000Y-118200D02*
D03*
X1062000Y-199200D02*
D03*
X1063000Y-176700D02*
D03*
X1009100Y4700D02*
D03*
X1004200Y-300D02*
D03*
X955300Y13800D02*
D03*
X962400Y7500D02*
D03*
X968100Y0D02*
D03*
X982500Y-42200D02*
D03*
X1028000Y-80200D02*
D03*
X971000Y-54700D02*
D03*
X970500Y-74700D02*
D03*
X1035900Y-99324D02*
D03*
X1070900Y-101716D02*
D03*
X1059900Y-62824D02*
D03*
X1052900Y-84824D02*
D03*
X1009400Y-188324D02*
D03*
X1016400D02*
D03*
X965200Y-164824D02*
D03*
X1007900Y-233824D02*
D03*
X962800Y-241424D02*
D03*
X17900Y84000D02*
D03*
X1716700Y89276D02*
D03*
Y81976D02*
D03*
X1671600Y74076D02*
D03*
X535600Y89576D02*
D03*
X1952500Y75800D02*
D03*
X1907500Y74076D02*
D03*
X1952600Y82976D02*
D03*
Y89876D02*
D03*
X1435300Y74176D02*
D03*
X1480400Y82076D02*
D03*
Y89276D02*
D03*
X1199100Y74076D02*
D03*
X1244200Y81976D02*
D03*
Y89676D02*
D03*
X962900Y74076D02*
D03*
X1008000Y81976D02*
D03*
Y89576D02*
D03*
X726700Y74176D02*
D03*
X771800Y82076D02*
D03*
Y89776D02*
D03*
X490500Y74176D02*
D03*
X535600Y81776D02*
D03*
X254300Y73776D02*
D03*
X299400Y81076D02*
D03*
Y89076D02*
D03*
X62900Y89400D02*
D03*
Y82600D02*
D03*
D65*
X983800Y-13400D02*
D03*
X983700Y-7000D02*
D03*
D66*
X1053500Y-98046D02*
D03*
Y-91353D02*
D03*
X1063900Y-142654D02*
D03*
Y-149346D02*
D03*
D67*
X948400Y-4460D02*
D03*
X944660Y-11940D02*
D03*
X952140D02*
D03*
X986100Y-27360D02*
D03*
X982360Y-34840D02*
D03*
X989840D02*
D03*
D68*
X995000Y19800D02*
D03*
Y14800D02*
D03*
Y9800D02*
D03*
Y4800D02*
D03*
Y-200D02*
D03*
Y-5200D02*
D03*
Y-10200D02*
D03*
Y-15200D02*
D03*
X976102Y19800D02*
D03*
Y14800D02*
D03*
Y9800D02*
D03*
Y4800D02*
D03*
Y-200D02*
D03*
Y-5200D02*
D03*
Y-10200D02*
D03*
Y-15200D02*
D03*
D69*
X1024700Y10360D02*
D03*
X1032180Y6620D02*
D03*
Y14100D02*
D03*
X1063260Y-92200D02*
D03*
X1070740Y-95940D02*
D03*
Y-88460D02*
D03*
X1063760Y-131000D02*
D03*
X1071240Y-134740D02*
D03*
Y-127260D02*
D03*
X945260Y-137700D02*
D03*
X952740Y-141440D02*
D03*
Y-133960D02*
D03*
X1025500Y-158200D02*
D03*
X1032980Y-161940D02*
D03*
Y-154460D02*
D03*
D70*
X992055Y-83617D02*
D03*
X983000D02*
D03*
X973945D02*
D03*
D71*
X983000Y-60783D02*
D03*
D72*
X974791Y-156400D02*
D03*
X986209D02*
D03*
X974791Y-166100D02*
D03*
X986209D02*
D03*
X982891Y-212400D02*
D03*
X994309D02*
D03*
X1928591Y78900D02*
D03*
X1940009D02*
D03*
X1920791Y69100D02*
D03*
X1932209D02*
D03*
X1681783Y68500D02*
D03*
X1693200D02*
D03*
X1687191Y77400D02*
D03*
X1698609D02*
D03*
X1446391Y69600D02*
D03*
X1457809D02*
D03*
X1452391Y78900D02*
D03*
X1463809D02*
D03*
X1217091D02*
D03*
X1228509D02*
D03*
X1208691Y69600D02*
D03*
X1220109D02*
D03*
X978791Y78800D02*
D03*
X990209D02*
D03*
X972291Y69300D02*
D03*
X983709D02*
D03*
X741691Y78900D02*
D03*
X753109D02*
D03*
X736383Y69300D02*
D03*
X747800D02*
D03*
X507283Y78900D02*
D03*
X518700D02*
D03*
X498291Y69600D02*
D03*
X509709D02*
D03*
X269791Y78900D02*
D03*
X281209D02*
D03*
X264891Y69600D02*
D03*
X276309D02*
D03*
X24291D02*
D03*
X35709D02*
D03*
X30800Y78900D02*
D03*
X42217D02*
D03*
D73*
X1016543Y-181200D02*
D03*
X1009457D02*
D03*
X1947057Y68700D02*
D03*
X1954143D02*
D03*
X1706557D02*
D03*
X1713643D02*
D03*
X1470857D02*
D03*
X1477943D02*
D03*
X1232700D02*
D03*
X1239787D02*
D03*
X996357D02*
D03*
X1003443D02*
D03*
X760657D02*
D03*
X767743D02*
D03*
X523057D02*
D03*
X530143D02*
D03*
X288557D02*
D03*
X295643D02*
D03*
X49757D02*
D03*
X56843D02*
D03*
D74*
X1008750Y-174100D02*
D03*
X1002450D02*
D03*
X980350Y-174000D02*
D03*
X974050D02*
D03*
X987050Y-220100D02*
D03*
X980750D02*
D03*
X1925150Y61200D02*
D03*
X1918850D02*
D03*
X1687400Y61100D02*
D03*
X1693699D02*
D03*
X1452150Y61200D02*
D03*
X1458450D02*
D03*
X1214000D02*
D03*
X1220299D02*
D03*
X977950D02*
D03*
X984250D02*
D03*
X742150D02*
D03*
X748450D02*
D03*
X504350D02*
D03*
X510650D02*
D03*
X1028150Y-87200D02*
D03*
X1021850D02*
D03*
X977850Y-96200D02*
D03*
X984150D02*
D03*
X1948450Y61200D02*
D03*
X1942150D02*
D03*
X49350Y61200D02*
D03*
X43050D02*
D03*
X288950D02*
D03*
X282650D02*
D03*
X523050D02*
D03*
X516750D02*
D03*
X760600D02*
D03*
X754301D02*
D03*
X996450D02*
D03*
X990150D02*
D03*
X1232450D02*
D03*
X1226150D02*
D03*
X1470599D02*
D03*
X1464300D02*
D03*
X1706250D02*
D03*
X1699950D02*
D03*
X270550Y61200D02*
D03*
X276850D02*
D03*
X30350D02*
D03*
X36650D02*
D03*
D75*
X17900Y84000D02*
D03*
X1045500Y-90700D02*
D03*
X922000Y-19200D02*
D03*
X945000Y-79200D02*
D03*
X1060500Y-214700D02*
D03*
Y-163100D02*
D03*
X1060100Y-19700D02*
D03*
X1060300Y-29700D02*
D03*
X915300Y-92000D02*
D03*
X921300Y-55200D02*
D03*
X1005700Y15800D02*
D03*
X945500Y-127200D02*
D03*
X1876000Y41800D02*
D03*
X1829000Y61800D02*
D03*
X1865000Y41800D02*
D03*
X1849000Y61800D02*
D03*
X948200Y2800D02*
D03*
X912200Y9500D02*
D03*
X948200Y10700D02*
D03*
X1015000Y-23000D02*
D03*
X997600Y26016D02*
D03*
X1036000Y-99200D02*
D03*
X1016000Y-154700D02*
D03*
X69600Y90400D02*
D03*
D76*
X961000Y-81450D02*
D03*
Y-62950D02*
D03*
D77*
X1017000Y19493D02*
D03*
Y6107D02*
D03*
X961500Y-134007D02*
D03*
Y-147393D02*
D03*
X960200Y-12993D02*
D03*
Y393D02*
D03*
X996500Y-34893D02*
D03*
Y-21507D02*
D03*
X1026000Y-128007D02*
D03*
Y-141393D02*
D03*
M02*
