%FSTAX24Y24*%
%MOIN*%
%SFA1B1*%

%IPPOS*%
%ADD40C,0.002000*%
%ADD41C,0.002700*%
%LNregistradores-1*%
%LPD*%
G54D40*
X01472Y00152D02*
Y00168D01*
X01488*
Y00152*
X01472*
Y00252D02*
Y00268D01*
X01488*
Y00252*
X01472*
X01572Y00152D02*
Y00168D01*
X01588*
Y00152*
X01572*
Y00252D02*
Y00268D01*
X01588*
Y00252*
X01572*
X01672Y00152D02*
Y00168D01*
X01688*
Y00152*
X01672*
Y00252D02*
Y00268D01*
X01688*
Y00252*
X01672*
X0774Y00192D02*
X07732Y00208D01*
X07748*
X0774Y00192*
X03515D02*
X03507Y00208D01*
X03523*
X03515Y00192*
X08822Y00152D02*
Y00168D01*
X08838*
Y00152*
X08822*
Y00252D02*
Y00268D01*
X08838*
Y00252*
X08822*
X08922Y00152D02*
Y00168D01*
X08938*
Y00152*
X08922*
Y00252D02*
Y00268D01*
X08938*
Y00252*
X08922*
X09022Y00152D02*
Y00168D01*
X09038*
Y00152*
X09022*
Y00252D02*
Y00268D01*
X09038*
Y00252*
X09022*
X0028Y00285D02*
X00284Y00289D01*
X00288*
X00284Y00293*
X00288Y00297*
X00284*
X0028Y00301*
X00276Y00297*
X00272*
X00276Y00293*
X00272Y00289*
X00276*
X0028Y00285*
Y00129D02*
X00284Y00133D01*
X00288*
X00284Y00137*
X00288Y00141*
X00284*
X0028Y00145*
X00276Y00141*
X00272*
X00276Y00137*
X00272Y00133*
X00276*
X0028Y00129*
Y006625D02*
X00284Y006665D01*
X00288*
X00284Y006705*
X00288Y006745*
X00284*
X0028Y006785*
X00276Y006745*
X00272*
X00276Y006705*
X00272Y006665*
X00276*
X0028Y006625*
Y005065D02*
X00284Y005105D01*
X00288*
X00284Y005145*
X00288Y005185*
X00284*
X0028Y005225*
X00276Y005185*
X00272*
X00276Y005145*
X00272Y005105*
X00276*
X0028Y005065*
Y0104D02*
X00284Y01044D01*
X00288*
X00284Y01048*
X00288Y01052*
X00284*
X0028Y01056*
X00276Y01052*
X00272*
X00276Y01048*
X00272Y01044*
X00276*
X0028Y0104*
Y00884D02*
X00284Y00888D01*
X00288*
X00284Y00892*
X00288Y00896*
X00284*
X0028Y009*
X00276Y00896*
X00272*
X00276Y00892*
X00272Y00888*
X00276*
X0028Y00884*
X02317Y00582D02*
X02321Y0059D01*
X02317Y00598*
X02325Y00594*
X02333Y00598*
X02329Y0059*
X02333Y00582*
X02325Y00586*
X02317Y00582*
X08217Y00612D02*
X08221Y0062D01*
X08217Y00628*
X08225Y00624*
X08233Y00628*
X08229Y0062*
X08233Y00612*
X08225Y00616*
X08217Y00612*
X07167D02*
X07171Y0062D01*
X07167Y00628*
X07175Y00624*
X07183Y00628*
X07179Y0062*
X07183Y00612*
X07175Y00616*
X07167Y00612*
X06117D02*
X06121Y0062D01*
X06117Y00628*
X06125Y00624*
X06133Y00628*
X06129Y0062*
X06133Y00612*
X06125Y00616*
X06117Y00612*
X05067D02*
X05071Y0062D01*
X05067Y00628*
X05075Y00624*
X05083Y00628*
X05079Y0062*
X05083Y00612*
X05075Y00616*
X05067Y00612*
X02272Y00252D02*
X02276Y0026D01*
X02272Y00268*
X0228Y00264*
X02288Y00268*
X02284Y0026*
X02288Y00252*
X0228Y00256*
X02272Y00252*
X00922D02*
X00926Y0026D01*
X00922Y00268*
X0093Y00264*
X00938Y00268*
X00934Y0026*
X00938Y00252*
X0093Y00256*
X00922Y00252*
X01047Y00427D02*
X01051Y00435D01*
X01047Y00443*
X01055Y00439*
X01063Y00443*
X01059Y00435*
X01063Y00427*
X01055Y00431*
X01047Y00427*
X00542Y00762D02*
X00546Y0077D01*
X00542Y00778*
X0055Y00774*
X00558Y00778*
X00554Y0077*
X00558Y00762*
X0055Y00766*
X00542Y00762*
X00492Y00822D02*
X00496Y0083D01*
X00492Y00838*
X005Y00834*
X00508Y00838*
X00504Y0083*
X00508Y00822*
X005Y00826*
X00492Y00822*
X00662Y00762D02*
X00666Y0077D01*
X00662Y00778*
X0067Y00774*
X00678Y00778*
X00674Y0077*
X00678Y00762*
X0067Y00766*
X00662Y00762*
X00602Y00822D02*
X00606Y0083D01*
X00602Y00838*
X0061Y00834*
X00618Y00838*
X00614Y0083*
X00618Y00822*
X0061Y00826*
X00602Y00822*
X09402Y00052D02*
X09406Y0006D01*
X09402Y00068*
X0941Y00064*
X09418Y00068*
X09414Y0006*
X09418Y00052*
X0941Y00056*
X09402Y00052*
X09322Y00252D02*
X09326Y0026D01*
X09322Y00268*
X0933Y00264*
X09338Y00268*
X09334Y0026*
X09338Y00252*
X0933Y00256*
X09322Y00252*
X08272D02*
X08276Y0026D01*
X08272Y00268*
X0828Y00264*
X08288Y00268*
X08284Y0026*
X08288Y00252*
X0828Y00256*
X08272Y00252*
X07222D02*
X07226Y0026D01*
X07222Y00268*
X0723Y00264*
X07238Y00268*
X07234Y0026*
X07238Y00252*
X0723Y00256*
X07222Y00252*
X06172D02*
X06176Y0026D01*
X06172Y00268*
X0618Y00264*
X06188Y00268*
X06184Y0026*
X06188Y00252*
X0618Y00256*
X06172Y00252*
X05122D02*
X05126Y0026D01*
X05122Y00268*
X0513Y00264*
X05138Y00268*
X05134Y0026*
X05138Y00252*
X0513Y00256*
X05122Y00252*
X04072D02*
X04076Y0026D01*
X04072Y00268*
X0408Y00264*
X04088Y00268*
X04084Y0026*
X04088Y00252*
X0408Y00256*
X04072Y00252*
X07892Y00762D02*
X07896Y0077D01*
X07892Y00778*
X079Y00774*
X07908Y00778*
X07904Y0077*
X07908Y00762*
X079Y00766*
X07892Y00762*
X07842Y00822D02*
X07846Y0083D01*
X07842Y00838*
X0785Y00834*
X07858Y00838*
X07854Y0083*
X07858Y00822*
X0785Y00826*
X07842Y00822*
X08012Y00762D02*
X08016Y0077D01*
X08012Y00778*
X0802Y00774*
X08028Y00778*
X08024Y0077*
X08028Y00762*
X0802Y00766*
X08012Y00762*
X07952Y00822D02*
X07956Y0083D01*
X07952Y00838*
X0796Y00834*
X07968Y00838*
X07964Y0083*
X07968Y00822*
X0796Y00826*
X07952Y00822*
X06842Y00762D02*
X06846Y0077D01*
X06842Y00778*
X0685Y00774*
X06858Y00778*
X06854Y0077*
X06858Y00762*
X0685Y00766*
X06842Y00762*
X06792Y00822D02*
X06796Y0083D01*
X06792Y00838*
X068Y00834*
X06808Y00838*
X06804Y0083*
X06808Y00822*
X068Y00826*
X06792Y00822*
X06962Y00762D02*
X06966Y0077D01*
X06962Y00778*
X0697Y00774*
X06978Y00778*
X06974Y0077*
X06978Y00762*
X0697Y00766*
X06962Y00762*
X06902Y00822D02*
X06906Y0083D01*
X06902Y00838*
X0691Y00834*
X06918Y00838*
X06914Y0083*
X06918Y00822*
X0691Y00826*
X06902Y00822*
X05792Y00762D02*
X05796Y0077D01*
X05792Y00778*
X058Y00774*
X05808Y00778*
X05804Y0077*
X05808Y00762*
X058Y00766*
X05792Y00762*
X05742Y00822D02*
X05746Y0083D01*
X05742Y00838*
X0575Y00834*
X05758Y00838*
X05754Y0083*
X05758Y00822*
X0575Y00826*
X05742Y00822*
X05912Y00762D02*
X05916Y0077D01*
X05912Y00778*
X0592Y00774*
X05928Y00778*
X05924Y0077*
X05928Y00762*
X0592Y00766*
X05912Y00762*
X05852Y00822D02*
X05856Y0083D01*
X05852Y00838*
X0586Y00834*
X05868Y00838*
X05864Y0083*
X05868Y00822*
X0586Y00826*
X05852Y00822*
X04742Y00762D02*
X04746Y0077D01*
X04742Y00778*
X0475Y00774*
X04758Y00778*
X04754Y0077*
X04758Y00762*
X0475Y00766*
X04742Y00762*
X04692Y00822D02*
X04696Y0083D01*
X04692Y00838*
X047Y00834*
X04708Y00838*
X04704Y0083*
X04708Y00822*
X047Y00826*
X04692Y00822*
X04862Y00762D02*
X04866Y0077D01*
X04862Y00778*
X0487Y00774*
X04878Y00778*
X04874Y0077*
X04878Y00762*
X0487Y00766*
X04862Y00762*
X04802Y00822D02*
X04806Y0083D01*
X04802Y00838*
X0481Y00834*
X04818Y00838*
X04814Y0083*
X04818Y00822*
X0481Y00826*
X04802Y00822*
X03692Y00762D02*
X03696Y0077D01*
X03692Y00778*
X037Y00774*
X03708Y00778*
X03704Y0077*
X03708Y00762*
X037Y00766*
X03692Y00762*
X03642Y00822D02*
X03646Y0083D01*
X03642Y00838*
X0365Y00834*
X03658Y00838*
X03654Y0083*
X03658Y00822*
X0365Y00826*
X03642Y00822*
X03812Y00762D02*
X03816Y0077D01*
X03812Y00778*
X0382Y00774*
X03828Y00778*
X03824Y0077*
X03828Y00762*
X0382Y00766*
X03812Y00762*
X03752Y00822D02*
X03756Y0083D01*
X03752Y00838*
X0376Y00834*
X03768Y00838*
X03764Y0083*
X03768Y00822*
X0376Y00826*
X03752Y00822*
X09607Y01132D02*
X09611Y0114D01*
X09607Y01148*
X09615Y01144*
X09623Y01148*
X09619Y0114*
X09623Y01132*
X09615Y01136*
X09607Y01132*
X09442Y01212D02*
X09446Y0122D01*
X09442Y01228*
X0945Y01224*
X09458Y01228*
X09454Y0122*
X09458Y01212*
X0945Y01216*
X09442Y01212*
X09742D02*
X09746Y0122D01*
X09742Y01228*
X0975Y01224*
X09758Y01228*
X09754Y0122*
X09758Y01212*
X0975Y01216*
X09742Y01212*
X08557Y01132D02*
X08561Y0114D01*
X08557Y01148*
X08565Y01144*
X08573Y01148*
X08569Y0114*
X08573Y01132*
X08565Y01136*
X08557Y01132*
X08392Y01212D02*
X08396Y0122D01*
X08392Y01228*
X084Y01224*
X08408Y01228*
X08404Y0122*
X08408Y01212*
X084Y01216*
X08392Y01212*
X08692D02*
X08696Y0122D01*
X08692Y01228*
X087Y01224*
X08708Y01228*
X08704Y0122*
X08708Y01212*
X087Y01216*
X08692Y01212*
X07507Y01132D02*
X07511Y0114D01*
X07507Y01148*
X07515Y01144*
X07523Y01148*
X07519Y0114*
X07523Y01132*
X07515Y01136*
X07507Y01132*
X07342Y01212D02*
X07346Y0122D01*
X07342Y01228*
X0735Y01224*
X07358Y01228*
X07354Y0122*
X07358Y01212*
X0735Y01216*
X07342Y01212*
X07642D02*
X07646Y0122D01*
X07642Y01228*
X0765Y01224*
X07658Y01228*
X07654Y0122*
X07658Y01212*
X0765Y01216*
X07642Y01212*
X06457Y01132D02*
X06461Y0114D01*
X06457Y01148*
X06465Y01144*
X06473Y01148*
X06469Y0114*
X06473Y01132*
X06465Y01136*
X06457Y01132*
X06292Y01212D02*
X06296Y0122D01*
X06292Y01228*
X063Y01224*
X06308Y01228*
X06304Y0122*
X06308Y01212*
X063Y01216*
X06292Y01212*
X06592D02*
X06596Y0122D01*
X06592Y01228*
X066Y01224*
X06608Y01228*
X06604Y0122*
X06608Y01212*
X066Y01216*
X06592Y01212*
X05407Y01132D02*
X05411Y0114D01*
X05407Y01148*
X05415Y01144*
X05423Y01148*
X05419Y0114*
X05423Y01132*
X05415Y01136*
X05407Y01132*
X05242Y01212D02*
X05246Y0122D01*
X05242Y01228*
X0525Y01224*
X05258Y01228*
X05254Y0122*
X05258Y01212*
X0525Y01216*
X05242Y01212*
X05542D02*
X05546Y0122D01*
X05542Y01228*
X0555Y01224*
X05558Y01228*
X05554Y0122*
X05558Y01212*
X0555Y01216*
X05542Y01212*
X04357Y01132D02*
X04361Y0114D01*
X04357Y01148*
X04365Y01144*
X04373Y01148*
X04369Y0114*
X04373Y01132*
X04365Y01136*
X04357Y01132*
X04192Y01212D02*
X04196Y0122D01*
X04192Y01228*
X042Y01224*
X04208Y01228*
X04204Y0122*
X04208Y01212*
X042Y01216*
X04192Y01212*
X04492D02*
X04496Y0122D01*
X04492Y01228*
X045Y01224*
X04508Y01228*
X04504Y0122*
X04508Y01212*
X045Y01216*
X04492Y01212*
X01207Y01132D02*
X01211Y0114D01*
X01207Y01148*
X01215Y01144*
X01223Y01148*
X01219Y0114*
X01223Y01132*
X01215Y01136*
X01207Y01132*
X01042Y01212D02*
X01046Y0122D01*
X01042Y01228*
X0105Y01224*
X01058Y01228*
X01054Y0122*
X01058Y01212*
X0105Y01216*
X01042Y01212*
X01342D02*
X01346Y0122D01*
X01342Y01228*
X0135Y01224*
X01358Y01228*
X01354Y0122*
X01358Y01212*
X0135Y01216*
X01342Y01212*
X02257Y01132D02*
X02261Y0114D01*
X02257Y01148*
X02265Y01144*
X02273Y01148*
X02269Y0114*
X02273Y01132*
X02265Y01136*
X02257Y01132*
X02092Y01212D02*
X02096Y0122D01*
X02092Y01228*
X021Y01224*
X02108Y01228*
X02104Y0122*
X02108Y01212*
X021Y01216*
X02092Y01212*
X02392D02*
X02396Y0122D01*
X02392Y01228*
X024Y01224*
X02408Y01228*
X02404Y0122*
X02408Y01212*
X024Y01216*
X02392Y01212*
X04017Y00612D02*
X04021Y0062D01*
X04017Y00628*
X04025Y00624*
X04033Y00628*
X04029Y0062*
X04033Y00612*
X04025Y00616*
X04017Y00612*
X01852Y00322D02*
X01856Y0033D01*
X01852Y00338*
X0186Y00334*
X01868Y00338*
X01864Y0033*
X01868Y00322*
X0186Y00326*
X01852Y00322*
X09202D02*
X09206Y0033D01*
X09202Y00338*
X0921Y00334*
X09218Y00338*
X09214Y0033*
X09218Y00322*
X0921Y00326*
X09202Y00322*
X08152D02*
X08156Y0033D01*
X08152Y00338*
X0816Y00334*
X08168Y00338*
X08164Y0033*
X08168Y00322*
X0816Y00326*
X08152Y00322*
X07102D02*
X07106Y0033D01*
X07102Y00338*
X0711Y00334*
X07118Y00338*
X07114Y0033*
X07118Y00322*
X0711Y00326*
X07102Y00322*
X06052D02*
X06056Y0033D01*
X06052Y00338*
X0606Y00334*
X06068Y00338*
X06064Y0033*
X06068Y00322*
X0606Y00326*
X06052Y00322*
X05002D02*
X05006Y0033D01*
X05002Y00338*
X0501Y00334*
X05018Y00338*
X05014Y0033*
X05018Y00322*
X0501Y00326*
X05002Y00322*
X03952D02*
X03956Y0033D01*
X03952Y00338*
X0396Y00334*
X03968Y00338*
X03964Y0033*
X03968Y00322*
X0396Y00326*
X03952Y00322*
X03442Y01212D02*
X03446Y0122D01*
X03442Y01228*
X0345Y01224*
X03458Y01228*
X03454Y0122*
X03458Y01212*
X0345Y01216*
X03442Y01212*
X03142D02*
X03146Y0122D01*
X03142Y01228*
X0315Y01224*
X03158Y01228*
X03154Y0122*
X03158Y01212*
X0315Y01216*
X03142Y01212*
X02702Y00822D02*
X02706Y0083D01*
X02702Y00838*
X0271Y00834*
X02718Y00838*
X02714Y0083*
X02718Y00822*
X0271Y00826*
X02702Y00822*
X02762Y00762D02*
X02766Y0077D01*
X02762Y00778*
X0277Y00774*
X02778Y00778*
X02774Y0077*
X02778Y00762*
X0277Y00766*
X02762Y00762*
X02967Y00612D02*
X02971Y0062D01*
X02967Y00628*
X02975Y00624*
X02983Y00628*
X02979Y0062*
X02983Y00612*
X02975Y00616*
X02967Y00612*
X02902Y00322D02*
X02906Y0033D01*
X02902Y00338*
X0291Y00334*
X02918Y00338*
X02914Y0033*
X02918Y00322*
X0291Y00326*
X02902Y00322*
X03022Y00252D02*
X03026Y0026D01*
X03022Y00268*
X0303Y00264*
X03038Y00268*
X03034Y0026*
X03038Y00252*
X0303Y00256*
X03022Y00252*
X02592Y00822D02*
X02596Y0083D01*
X02592Y00838*
X026Y00834*
X02608Y00838*
X02604Y0083*
X02608Y00822*
X026Y00826*
X02592Y00822*
X02642Y00762D02*
X02646Y0077D01*
X02642Y00778*
X0265Y00774*
X02658Y00778*
X02654Y0077*
X02658Y00762*
X0265Y00766*
X02642Y00762*
X00797D02*
X00801Y0077D01*
X00797Y00778*
X00805Y00774*
X00813Y00778*
X00809Y0077*
X00813Y00762*
X00805Y00766*
X00797Y00762*
X00897D02*
X00901Y0077D01*
X00897Y00778*
X00905Y00774*
X00913Y00778*
X00909Y0077*
X00913Y00762*
X00905Y00766*
X00897Y00762*
X00997D02*
X01001Y0077D01*
X00997Y00778*
X01005Y00774*
X01013Y00778*
X01009Y0077*
X01013Y00762*
X01005Y00766*
X00997Y00762*
X01097D02*
X01101Y0077D01*
X01097Y00778*
X01105Y00774*
X01113Y00778*
X01109Y0077*
X01113Y00762*
X01105Y00766*
X01097Y00762*
X09227D02*
X09231Y0077D01*
X09227Y00778*
X09235Y00774*
X09243Y00778*
X09239Y0077*
X09243Y00762*
X09235Y00766*
X09227Y00762*
X09327D02*
X09331Y0077D01*
X09327Y00778*
X09335Y00774*
X09343Y00778*
X09339Y0077*
X09343Y00762*
X09335Y00766*
X09327Y00762*
X09427D02*
X09431Y0077D01*
X09427Y00778*
X09435Y00774*
X09443Y00778*
X09439Y0077*
X09443Y00762*
X09435Y00766*
X09427Y00762*
X09527D02*
X09531Y0077D01*
X09527Y00778*
X09535Y00774*
X09543Y00778*
X09539Y0077*
X09543Y00762*
X09535Y00766*
X09527Y00762*
X08147D02*
X08151Y0077D01*
X08147Y00778*
X08155Y00774*
X08163Y00778*
X08159Y0077*
X08163Y00762*
X08155Y00766*
X08147Y00762*
X08247D02*
X08251Y0077D01*
X08247Y00778*
X08255Y00774*
X08263Y00778*
X08259Y0077*
X08263Y00762*
X08255Y00766*
X08247Y00762*
X08347D02*
X08351Y0077D01*
X08347Y00778*
X08355Y00774*
X08363Y00778*
X08359Y0077*
X08363Y00762*
X08355Y00766*
X08347Y00762*
X08447D02*
X08451Y0077D01*
X08447Y00778*
X08455Y00774*
X08463Y00778*
X08459Y0077*
X08463Y00762*
X08455Y00766*
X08447Y00762*
X07097D02*
X07101Y0077D01*
X07097Y00778*
X07105Y00774*
X07113Y00778*
X07109Y0077*
X07113Y00762*
X07105Y00766*
X07097Y00762*
X07197D02*
X07201Y0077D01*
X07197Y00778*
X07205Y00774*
X07213Y00778*
X07209Y0077*
X07213Y00762*
X07205Y00766*
X07197Y00762*
X07297D02*
X07301Y0077D01*
X07297Y00778*
X07305Y00774*
X07313Y00778*
X07309Y0077*
X07313Y00762*
X07305Y00766*
X07297Y00762*
X07397D02*
X07401Y0077D01*
X07397Y00778*
X07405Y00774*
X07413Y00778*
X07409Y0077*
X07413Y00762*
X07405Y00766*
X07397Y00762*
X06047D02*
X06051Y0077D01*
X06047Y00778*
X06055Y00774*
X06063Y00778*
X06059Y0077*
X06063Y00762*
X06055Y00766*
X06047Y00762*
X06147D02*
X06151Y0077D01*
X06147Y00778*
X06155Y00774*
X06163Y00778*
X06159Y0077*
X06163Y00762*
X06155Y00766*
X06147Y00762*
X06247D02*
X06251Y0077D01*
X06247Y00778*
X06255Y00774*
X06263Y00778*
X06259Y0077*
X06263Y00762*
X06255Y00766*
X06247Y00762*
X06347D02*
X06351Y0077D01*
X06347Y00778*
X06355Y00774*
X06363Y00778*
X06359Y0077*
X06363Y00762*
X06355Y00766*
X06347Y00762*
X04997Y00772D02*
X05001Y0078D01*
X04997Y00788*
X05005Y00784*
X05013Y00788*
X05009Y0078*
X05013Y00772*
X05005Y00776*
X04997Y00772*
X05097D02*
X05101Y0078D01*
X05097Y00788*
X05105Y00784*
X05113Y00788*
X05109Y0078*
X05113Y00772*
X05105Y00776*
X05097Y00772*
X05197D02*
X05201Y0078D01*
X05197Y00788*
X05205Y00784*
X05213Y00788*
X05209Y0078*
X05213Y00772*
X05205Y00776*
X05197Y00772*
X05297D02*
X05301Y0078D01*
X05297Y00788*
X05305Y00784*
X05313Y00788*
X05309Y0078*
X05313Y00772*
X05305Y00776*
X05297Y00772*
X03947Y00762D02*
X03951Y0077D01*
X03947Y00778*
X03955Y00774*
X03963Y00778*
X03959Y0077*
X03963Y00762*
X03955Y00766*
X03947Y00762*
X04047D02*
X04051Y0077D01*
X04047Y00778*
X04055Y00774*
X04063Y00778*
X04059Y0077*
X04063Y00762*
X04055Y00766*
X04047Y00762*
X04147D02*
X04151Y0077D01*
X04147Y00778*
X04155Y00774*
X04163Y00778*
X04159Y0077*
X04163Y00762*
X04155Y00766*
X04147Y00762*
X04247D02*
X04251Y0077D01*
X04247Y00778*
X04255Y00774*
X04263Y00778*
X04259Y0077*
X04263Y00762*
X04255Y00766*
X04247Y00762*
X02897Y00772D02*
X02901Y0078D01*
X02897Y00788*
X02905Y00784*
X02913Y00788*
X02909Y0078*
X02913Y00772*
X02905Y00776*
X02897Y00772*
X02997D02*
X03001Y0078D01*
X02997Y00788*
X03005Y00784*
X03013Y00788*
X03009Y0078*
X03013Y00772*
X03005Y00776*
X02997Y00772*
X03097D02*
X03101Y0078D01*
X03097Y00788*
X03105Y00784*
X03113Y00788*
X03109Y0078*
X03113Y00772*
X03105Y00776*
X03097Y00772*
X03197D02*
X03201Y0078D01*
X03197Y00788*
X03205Y00784*
X03213Y00788*
X03209Y0078*
X03213Y00772*
X03205Y00776*
X03197Y00772*
X00806Y00531D02*
Y00527D01*
X00814*
Y00531*
X00818*
Y00539*
X00814*
Y00543*
X00806*
Y00539*
X00802*
Y00531*
X00806*
X01856D02*
Y00527D01*
X01864*
Y00531*
X01868*
Y00539*
X01864*
Y00543*
X01856*
Y00539*
X01852*
Y00531*
X01856*
X02906D02*
Y00527D01*
X02914*
Y00531*
X02918*
Y00539*
X02914*
Y00543*
X02906*
Y00539*
X02902*
Y00531*
X02906*
X03956D02*
Y00527D01*
X03964*
Y00531*
X03968*
Y00539*
X03964*
Y00543*
X03956*
Y00539*
X03952*
Y00531*
X03956*
X05006D02*
Y00527D01*
X05014*
Y00531*
X05018*
Y00539*
X05014*
Y00543*
X05006*
Y00539*
X05002*
Y00531*
X05006*
X06056D02*
Y00527D01*
X06064*
Y00531*
X06068*
Y00539*
X06064*
Y00543*
X06056*
Y00539*
X06052*
Y00531*
X06056*
X07106D02*
Y00527D01*
X07114*
Y00531*
X07118*
Y00539*
X07114*
Y00543*
X07106*
Y00539*
X07102*
Y00531*
X07106*
X08156D02*
Y00527D01*
X08164*
Y00531*
X08168*
Y00539*
X08164*
Y00543*
X08156*
Y00539*
X08152*
Y00531*
X08156*
X09206D02*
Y00527D01*
X09214*
Y00531*
X09218*
Y00539*
X09214*
Y00543*
X09206*
Y00539*
X09202*
Y00531*
X09206*
X02172Y00427D02*
X02176Y00435D01*
X02172Y00443*
X0218Y00439*
X02188Y00443*
X02184Y00435*
X02188Y00427*
X0218Y00431*
X02172Y00427*
X01282Y00467D02*
X01286Y00475D01*
X01282Y00483*
X0129Y00479*
X01298Y00483*
X01294Y00475*
X01298Y00467*
X0129Y00471*
X01282Y00467*
X02322Y00427D02*
X02326Y00435D01*
X02322Y00443*
X0233Y00439*
X02338Y00443*
X02334Y00435*
X02338Y00427*
X0233Y00431*
X02322Y00427*
X03222D02*
X03226Y00435D01*
X03222Y00443*
X0323Y00439*
X03238Y00443*
X03234Y00435*
X03238Y00427*
X0323Y00431*
X03222Y00427*
X04272D02*
X04276Y00435D01*
X04272Y00443*
X0428Y00439*
X04288Y00443*
X04284Y00435*
X04288Y00427*
X0428Y00431*
X04272Y00427*
X03372D02*
X03376Y00435D01*
X03372Y00443*
X0338Y00439*
X03388Y00443*
X03384Y00435*
X03388Y00427*
X0338Y00431*
X03372Y00427*
X05322D02*
X05326Y00435D01*
X05322Y00443*
X0533Y00439*
X05338Y00443*
X05334Y00435*
X05338Y00427*
X0533Y00431*
X05322Y00427*
X04422D02*
X04426Y00435D01*
X04422Y00443*
X0443Y00439*
X04438Y00443*
X04434Y00435*
X04438Y00427*
X0443Y00431*
X04422Y00427*
X06372D02*
X06376Y00435D01*
X06372Y00443*
X0638Y00439*
X06388Y00443*
X06384Y00435*
X06388Y00427*
X0638Y00431*
X06372Y00427*
X05472D02*
X05476Y00435D01*
X05472Y00443*
X0548Y00439*
X05488Y00443*
X05484Y00435*
X05488Y00427*
X0548Y00431*
X05472Y00427*
X07422D02*
X07426Y00435D01*
X07422Y00443*
X0743Y00439*
X07438Y00443*
X07434Y00435*
X07438Y00427*
X0743Y00431*
X07422Y00427*
X06522D02*
X06526Y00435D01*
X06522Y00443*
X0653Y00439*
X06538Y00443*
X06534Y00435*
X06538Y00427*
X0653Y00431*
X06522Y00427*
X08472D02*
X08476Y00435D01*
X08472Y00443*
X0848Y00439*
X08488Y00443*
X08484Y00435*
X08488Y00427*
X0848Y00431*
X08472Y00427*
X07572D02*
X07576Y00435D01*
X07572Y00443*
X0758Y00439*
X07588Y00443*
X07584Y00435*
X07588Y00427*
X0758Y00431*
X07572Y00427*
X09522D02*
X09526Y00435D01*
X09522Y00443*
X0953Y00439*
X09538Y00443*
X09534Y00435*
X09538Y00427*
X0953Y00431*
X09522Y00427*
X08622D02*
X08626Y00435D01*
X08622Y00443*
X0863Y00439*
X08638Y00443*
X08634Y00435*
X08638Y00427*
X0863Y00431*
X08622Y00427*
X09692Y00332D02*
X09696Y0034D01*
X09692Y00348*
X097Y00344*
X09708Y00348*
X09704Y0034*
X09708Y00332*
X097Y00336*
X09692Y00332*
X01972Y00252D02*
X01976Y0026D01*
X01972Y00268*
X0198Y00264*
X01988Y00268*
X01984Y0026*
X01988Y00252*
X0198Y00256*
X01972Y00252*
X09027Y00762D02*
X09031Y0077D01*
X09027Y00778*
X09035Y00774*
X09043Y00778*
X09039Y0077*
X09043Y00762*
X09035Y00766*
X09027Y00762*
X09127D02*
X09131Y0077D01*
X09127Y00778*
X09135Y00774*
X09143Y00778*
X09139Y0077*
X09143Y00762*
X09135Y00766*
X09127Y00762*
X08827D02*
X08831Y0077D01*
X08827Y00778*
X08835Y00774*
X08843Y00778*
X08839Y0077*
X08843Y00762*
X08835Y00766*
X08827Y00762*
X08927D02*
X08931Y0077D01*
X08927Y00778*
X08935Y00774*
X08943Y00778*
X08939Y0077*
X08943Y00762*
X08935Y00766*
X08927Y00762*
X09622Y00252D02*
X09626Y0026D01*
X09622Y00268*
X0963Y00264*
X09638Y00268*
X09634Y0026*
X09638Y00252*
X0963Y00256*
X09622Y00252*
X01577Y00762D02*
X01581Y0077D01*
X01577Y00778*
X01585Y00774*
X01593Y00778*
X01589Y0077*
X01593Y00762*
X01585Y00766*
X01577Y00762*
X01477D02*
X01481Y0077D01*
X01477Y00778*
X01485Y00774*
X01493Y00778*
X01489Y0077*
X01493Y00762*
X01485Y00766*
X01477Y00762*
X01777D02*
X01781Y0077D01*
X01777Y00778*
X01785Y00774*
X01793Y00778*
X01789Y0077*
X01793Y00762*
X01785Y00766*
X01777Y00762*
X01677D02*
X01681Y0077D01*
X01677Y00778*
X01685Y00774*
X01693Y00778*
X01689Y0077*
X01693Y00762*
X01685Y00766*
X01677Y00762*
X02177D02*
X02181Y0077D01*
X02177Y00778*
X02185Y00774*
X02193Y00778*
X02189Y0077*
X02193Y00762*
X02185Y00766*
X02177Y00762*
X02077D02*
X02081Y0077D01*
X02077Y00778*
X02085Y00774*
X02093Y00778*
X02089Y0077*
X02093Y00762*
X02085Y00766*
X02077Y00762*
X01977D02*
X01981Y0077D01*
X01977Y00778*
X01985Y00774*
X01993Y00778*
X01989Y0077*
X01993Y00762*
X01985Y00766*
X01977Y00762*
X01877D02*
X01881Y0077D01*
X01877Y00778*
X01885Y00774*
X01893Y00778*
X01889Y0077*
X01893Y00762*
X01885Y00766*
X01877Y00762*
X00867Y00612D02*
X00871Y0062D01*
X00867Y00628*
X00875Y00624*
X00883Y00628*
X00879Y0062*
X00883Y00612*
X00875Y00616*
X00867Y00612*
X09131Y00586D02*
Y00582D01*
X09139*
Y00586*
X09143*
Y00594*
X09139*
Y00598*
X09131*
Y00594*
X09127*
Y00586*
X09131*
X01781D02*
Y00582D01*
X01789*
Y00586*
X01793*
Y00594*
X01789*
Y00598*
X01781*
Y00594*
X01777*
Y00586*
X01781*
X03307Y01132D02*
X03311Y0114D01*
X03307Y01148*
X03315Y01144*
X03323Y01148*
X03319Y0114*
X03323Y01132*
X03315Y01136*
X03307Y01132*
G54D41*
X09163Y00905D02*
D01*
X091629Y009055*
X091629Y009061*
X091628Y009066*
X091626Y009072*
X091625Y009077*
X091623Y009082*
X09162Y009087*
X091617Y009092*
X091614Y009097*
X091611Y009101*
X091607Y009105*
X091603Y009109*
X091599Y009113*
X091594Y009116*
X09159Y009119*
X091585Y009121*
X091579Y009124*
X091574Y009126*
X091569Y009127*
X091563Y009128*
X091558Y009129*
X091552Y009129*
X091547*
X091541Y009129*
X091536Y009128*
X09153Y009127*
X091525Y009126*
X09152Y009124*
X091514Y009121*
X09151Y009119*
X091505Y009116*
X0915Y009113*
X091496Y009109*
X091492Y009105*
X091488Y009101*
X091485Y009097*
X091482Y009092*
X091479Y009087*
X091476Y009082*
X091474Y009077*
X091473Y009072*
X091471Y009066*
X09147Y009061*
X09147Y009055*
X09147Y00905*
X09147Y009044*
X09147Y009038*
X091471Y009033*
X091473Y009027*
X091474Y009022*
X091476Y009017*
X091479Y009012*
X091482Y009007*
X091485Y009002*
X091488Y008998*
X091492Y008994*
X091496Y00899*
X0915Y008986*
X091505Y008983*
X09151Y00898*
X091514Y008978*
X09152Y008975*
X091525Y008973*
X09153Y008972*
X091536Y008971*
X091541Y00897*
X091547Y00897*
X091552*
X091558Y00897*
X091563Y008971*
X091569Y008972*
X091574Y008973*
X091579Y008975*
X091585Y008978*
X09159Y00898*
X091594Y008983*
X091599Y008986*
X091603Y00899*
X091607Y008994*
X091611Y008998*
X091614Y009002*
X091617Y009007*
X09162Y009012*
X091623Y009017*
X091625Y009022*
X091626Y009027*
X091628Y009033*
X091629Y009038*
X091629Y009044*
X09163Y00905*
Y01005D02*
D01*
X091629Y010055*
X091629Y010061*
X091628Y010066*
X091626Y010072*
X091625Y010077*
X091623Y010082*
X09162Y010087*
X091617Y010092*
X091614Y010097*
X091611Y010101*
X091607Y010105*
X091603Y010109*
X091599Y010113*
X091594Y010116*
X09159Y010119*
X091585Y010121*
X091579Y010124*
X091574Y010126*
X091569Y010127*
X091563Y010128*
X091558Y010129*
X091552Y010129*
X091547*
X091541Y010129*
X091536Y010128*
X09153Y010127*
X091525Y010126*
X09152Y010124*
X091514Y010121*
X09151Y010119*
X091505Y010116*
X0915Y010113*
X091496Y010109*
X091492Y010105*
X091488Y010101*
X091485Y010097*
X091482Y010092*
X091479Y010087*
X091476Y010082*
X091474Y010077*
X091473Y010072*
X091471Y010066*
X09147Y010061*
X09147Y010055*
X09147Y01005*
X09147Y010044*
X09147Y010038*
X091471Y010033*
X091473Y010027*
X091474Y010022*
X091476Y010017*
X091479Y010012*
X091482Y010007*
X091485Y010002*
X091488Y009998*
X091492Y009994*
X091496Y00999*
X0915Y009986*
X091505Y009983*
X09151Y00998*
X091514Y009978*
X09152Y009975*
X091525Y009973*
X09153Y009972*
X091536Y009971*
X091541Y00997*
X091547Y00997*
X091552*
X091558Y00997*
X091563Y009971*
X091569Y009972*
X091574Y009973*
X091579Y009975*
X091585Y009978*
X09159Y00998*
X091594Y009983*
X091599Y009986*
X091603Y00999*
X091607Y009994*
X091611Y009998*
X091614Y010002*
X091617Y010007*
X09162Y010012*
X091623Y010017*
X091625Y010022*
X091626Y010027*
X091628Y010033*
X091629Y010038*
X091629Y010044*
X09163Y01005*
X09263Y00905D02*
D01*
X092629Y009055*
X092629Y009061*
X092628Y009066*
X092626Y009072*
X092625Y009077*
X092623Y009082*
X09262Y009087*
X092617Y009092*
X092614Y009097*
X092611Y009101*
X092607Y009105*
X092603Y009109*
X092599Y009113*
X092594Y009116*
X09259Y009119*
X092585Y009121*
X092579Y009124*
X092574Y009126*
X092569Y009127*
X092563Y009128*
X092558Y009129*
X092552Y009129*
X092547*
X092541Y009129*
X092536Y009128*
X09253Y009127*
X092525Y009126*
X09252Y009124*
X092514Y009121*
X09251Y009119*
X092505Y009116*
X0925Y009113*
X092496Y009109*
X092492Y009105*
X092488Y009101*
X092485Y009097*
X092482Y009092*
X092479Y009087*
X092476Y009082*
X092474Y009077*
X092473Y009072*
X092471Y009066*
X09247Y009061*
X09247Y009055*
X09247Y00905*
X09247Y009044*
X09247Y009038*
X092471Y009033*
X092473Y009027*
X092474Y009022*
X092476Y009017*
X092479Y009012*
X092482Y009007*
X092485Y009002*
X092488Y008998*
X092492Y008994*
X092496Y00899*
X0925Y008986*
X092505Y008983*
X09251Y00898*
X092514Y008978*
X09252Y008975*
X092525Y008973*
X09253Y008972*
X092536Y008971*
X092541Y00897*
X092547Y00897*
X092552*
X092558Y00897*
X092563Y008971*
X092569Y008972*
X092574Y008973*
X092579Y008975*
X092585Y008978*
X09259Y00898*
X092594Y008983*
X092599Y008986*
X092603Y00899*
X092607Y008994*
X092611Y008998*
X092614Y009002*
X092617Y009007*
X09262Y009012*
X092623Y009017*
X092625Y009022*
X092626Y009027*
X092628Y009033*
X092629Y009038*
X092629Y009044*
X09263Y00905*
Y01005D02*
D01*
X092629Y010055*
X092629Y010061*
X092628Y010066*
X092626Y010072*
X092625Y010077*
X092623Y010082*
X09262Y010087*
X092617Y010092*
X092614Y010097*
X092611Y010101*
X092607Y010105*
X092603Y010109*
X092599Y010113*
X092594Y010116*
X09259Y010119*
X092585Y010121*
X092579Y010124*
X092574Y010126*
X092569Y010127*
X092563Y010128*
X092558Y010129*
X092552Y010129*
X092547*
X092541Y010129*
X092536Y010128*
X09253Y010127*
X092525Y010126*
X09252Y010124*
X092514Y010121*
X09251Y010119*
X092505Y010116*
X0925Y010113*
X092496Y010109*
X092492Y010105*
X092488Y010101*
X092485Y010097*
X092482Y010092*
X092479Y010087*
X092476Y010082*
X092474Y010077*
X092473Y010072*
X092471Y010066*
X09247Y010061*
X09247Y010055*
X09247Y01005*
X09247Y010044*
X09247Y010038*
X092471Y010033*
X092473Y010027*
X092474Y010022*
X092476Y010017*
X092479Y010012*
X092482Y010007*
X092485Y010002*
X092488Y009998*
X092492Y009994*
X092496Y00999*
X0925Y009986*
X092505Y009983*
X09251Y00998*
X092514Y009978*
X09252Y009975*
X092525Y009973*
X09253Y009972*
X092536Y009971*
X092541Y00997*
X092547Y00997*
X092552*
X092558Y00997*
X092563Y009971*
X092569Y009972*
X092574Y009973*
X092579Y009975*
X092585Y009978*
X09259Y00998*
X092594Y009983*
X092599Y009986*
X092603Y00999*
X092607Y009994*
X092611Y009998*
X092614Y010002*
X092617Y010007*
X09262Y010012*
X092623Y010017*
X092625Y010022*
X092626Y010027*
X092628Y010033*
X092629Y010038*
X092629Y010044*
X09263Y01005*
X09363Y00905D02*
D01*
X093629Y009055*
X093629Y009061*
X093628Y009066*
X093626Y009072*
X093625Y009077*
X093623Y009082*
X09362Y009087*
X093617Y009092*
X093614Y009097*
X093611Y009101*
X093607Y009105*
X093603Y009109*
X093599Y009113*
X093594Y009116*
X09359Y009119*
X093585Y009121*
X093579Y009124*
X093574Y009126*
X093569Y009127*
X093563Y009128*
X093558Y009129*
X093552Y009129*
X093547*
X093541Y009129*
X093536Y009128*
X09353Y009127*
X093525Y009126*
X09352Y009124*
X093514Y009121*
X09351Y009119*
X093505Y009116*
X0935Y009113*
X093496Y009109*
X093492Y009105*
X093488Y009101*
X093485Y009097*
X093482Y009092*
X093479Y009087*
X093476Y009082*
X093474Y009077*
X093473Y009072*
X093471Y009066*
X09347Y009061*
X09347Y009055*
X09347Y00905*
X09347Y009044*
X09347Y009038*
X093471Y009033*
X093473Y009027*
X093474Y009022*
X093476Y009017*
X093479Y009012*
X093482Y009007*
X093485Y009002*
X093488Y008998*
X093492Y008994*
X093496Y00899*
X0935Y008986*
X093505Y008983*
X09351Y00898*
X093514Y008978*
X09352Y008975*
X093525Y008973*
X09353Y008972*
X093536Y008971*
X093541Y00897*
X093547Y00897*
X093552*
X093558Y00897*
X093563Y008971*
X093569Y008972*
X093574Y008973*
X093579Y008975*
X093585Y008978*
X09359Y00898*
X093594Y008983*
X093599Y008986*
X093603Y00899*
X093607Y008994*
X093611Y008998*
X093614Y009002*
X093617Y009007*
X09362Y009012*
X093623Y009017*
X093625Y009022*
X093626Y009027*
X093628Y009033*
X093629Y009038*
X093629Y009044*
X09363Y00905*
Y01005D02*
D01*
X093629Y010055*
X093629Y010061*
X093628Y010066*
X093626Y010072*
X093625Y010077*
X093623Y010082*
X09362Y010087*
X093617Y010092*
X093614Y010097*
X093611Y010101*
X093607Y010105*
X093603Y010109*
X093599Y010113*
X093594Y010116*
X09359Y010119*
X093585Y010121*
X093579Y010124*
X093574Y010126*
X093569Y010127*
X093563Y010128*
X093558Y010129*
X093552Y010129*
X093547*
X093541Y010129*
X093536Y010128*
X09353Y010127*
X093525Y010126*
X09352Y010124*
X093514Y010121*
X09351Y010119*
X093505Y010116*
X0935Y010113*
X093496Y010109*
X093492Y010105*
X093488Y010101*
X093485Y010097*
X093482Y010092*
X093479Y010087*
X093476Y010082*
X093474Y010077*
X093473Y010072*
X093471Y010066*
X09347Y010061*
X09347Y010055*
X09347Y01005*
X09347Y010044*
X09347Y010038*
X093471Y010033*
X093473Y010027*
X093474Y010022*
X093476Y010017*
X093479Y010012*
X093482Y010007*
X093485Y010002*
X093488Y009998*
X093492Y009994*
X093496Y00999*
X0935Y009986*
X093505Y009983*
X09351Y00998*
X093514Y009978*
X09352Y009975*
X093525Y009973*
X09353Y009972*
X093536Y009971*
X093541Y00997*
X093547Y00997*
X093552*
X093558Y00997*
X093563Y009971*
X093569Y009972*
X093574Y009973*
X093579Y009975*
X093585Y009978*
X09359Y00998*
X093594Y009983*
X093599Y009986*
X093603Y00999*
X093607Y009994*
X093611Y009998*
X093614Y010002*
X093617Y010007*
X09362Y010012*
X093623Y010017*
X093625Y010022*
X093626Y010027*
X093628Y010033*
X093629Y010038*
X093629Y010044*
X09363Y01005*
X09463Y00905D02*
D01*
X094629Y009055*
X094629Y009061*
X094628Y009066*
X094626Y009072*
X094625Y009077*
X094623Y009082*
X09462Y009087*
X094617Y009092*
X094614Y009097*
X094611Y009101*
X094607Y009105*
X094603Y009109*
X094599Y009113*
X094594Y009116*
X09459Y009119*
X094585Y009121*
X094579Y009124*
X094574Y009126*
X094569Y009127*
X094563Y009128*
X094558Y009129*
X094552Y009129*
X094547*
X094541Y009129*
X094536Y009128*
X09453Y009127*
X094525Y009126*
X09452Y009124*
X094514Y009121*
X09451Y009119*
X094505Y009116*
X0945Y009113*
X094496Y009109*
X094492Y009105*
X094488Y009101*
X094485Y009097*
X094482Y009092*
X094479Y009087*
X094476Y009082*
X094474Y009077*
X094473Y009072*
X094471Y009066*
X09447Y009061*
X09447Y009055*
X09447Y00905*
X09447Y009044*
X09447Y009038*
X094471Y009033*
X094473Y009027*
X094474Y009022*
X094476Y009017*
X094479Y009012*
X094482Y009007*
X094485Y009002*
X094488Y008998*
X094492Y008994*
X094496Y00899*
X0945Y008986*
X094505Y008983*
X09451Y00898*
X094514Y008978*
X09452Y008975*
X094525Y008973*
X09453Y008972*
X094536Y008971*
X094541Y00897*
X094547Y00897*
X094552*
X094558Y00897*
X094563Y008971*
X094569Y008972*
X094574Y008973*
X094579Y008975*
X094585Y008978*
X09459Y00898*
X094594Y008983*
X094599Y008986*
X094603Y00899*
X094607Y008994*
X094611Y008998*
X094614Y009002*
X094617Y009007*
X09462Y009012*
X094623Y009017*
X094625Y009022*
X094626Y009027*
X094628Y009033*
X094629Y009038*
X094629Y009044*
X09463Y00905*
Y01005D02*
D01*
X094629Y010055*
X094629Y010061*
X094628Y010066*
X094626Y010072*
X094625Y010077*
X094623Y010082*
X09462Y010087*
X094617Y010092*
X094614Y010097*
X094611Y010101*
X094607Y010105*
X094603Y010109*
X094599Y010113*
X094594Y010116*
X09459Y010119*
X094585Y010121*
X094579Y010124*
X094574Y010126*
X094569Y010127*
X094563Y010128*
X094558Y010129*
X094552Y010129*
X094547*
X094541Y010129*
X094536Y010128*
X09453Y010127*
X094525Y010126*
X09452Y010124*
X094514Y010121*
X09451Y010119*
X094505Y010116*
X0945Y010113*
X094496Y010109*
X094492Y010105*
X094488Y010101*
X094485Y010097*
X094482Y010092*
X094479Y010087*
X094476Y010082*
X094474Y010077*
X094473Y010072*
X094471Y010066*
X09447Y010061*
X09447Y010055*
X09447Y01005*
X09447Y010044*
X09447Y010038*
X094471Y010033*
X094473Y010027*
X094474Y010022*
X094476Y010017*
X094479Y010012*
X094482Y010007*
X094485Y010002*
X094488Y009998*
X094492Y009994*
X094496Y00999*
X0945Y009986*
X094505Y009983*
X09451Y00998*
X094514Y009978*
X09452Y009975*
X094525Y009973*
X09453Y009972*
X094536Y009971*
X094541Y00997*
X094547Y00997*
X094552*
X094558Y00997*
X094563Y009971*
X094569Y009972*
X094574Y009973*
X094579Y009975*
X094585Y009978*
X09459Y00998*
X094594Y009983*
X094599Y009986*
X094603Y00999*
X094607Y009994*
X094611Y009998*
X094614Y010002*
X094617Y010007*
X09462Y010012*
X094623Y010017*
X094625Y010022*
X094626Y010027*
X094628Y010033*
X094629Y010038*
X094629Y010044*
X09463Y01005*
X09563Y00905D02*
D01*
X095629Y009055*
X095629Y009061*
X095628Y009066*
X095626Y009072*
X095625Y009077*
X095623Y009082*
X09562Y009087*
X095617Y009092*
X095614Y009097*
X095611Y009101*
X095607Y009105*
X095603Y009109*
X095599Y009113*
X095594Y009116*
X09559Y009119*
X095585Y009121*
X095579Y009124*
X095574Y009126*
X095569Y009127*
X095563Y009128*
X095558Y009129*
X095552Y009129*
X095547*
X095541Y009129*
X095536Y009128*
X09553Y009127*
X095525Y009126*
X09552Y009124*
X095514Y009121*
X09551Y009119*
X095505Y009116*
X0955Y009113*
X095496Y009109*
X095492Y009105*
X095488Y009101*
X095485Y009097*
X095482Y009092*
X095479Y009087*
X095476Y009082*
X095474Y009077*
X095473Y009072*
X095471Y009066*
X09547Y009061*
X09547Y009055*
X09547Y00905*
X09547Y009044*
X09547Y009038*
X095471Y009033*
X095473Y009027*
X095474Y009022*
X095476Y009017*
X095479Y009012*
X095482Y009007*
X095485Y009002*
X095488Y008998*
X095492Y008994*
X095496Y00899*
X0955Y008986*
X095505Y008983*
X09551Y00898*
X095514Y008978*
X09552Y008975*
X095525Y008973*
X09553Y008972*
X095536Y008971*
X095541Y00897*
X095547Y00897*
X095552*
X095558Y00897*
X095563Y008971*
X095569Y008972*
X095574Y008973*
X095579Y008975*
X095585Y008978*
X09559Y00898*
X095594Y008983*
X095599Y008986*
X095603Y00899*
X095607Y008994*
X095611Y008998*
X095614Y009002*
X095617Y009007*
X09562Y009012*
X095623Y009017*
X095625Y009022*
X095626Y009027*
X095628Y009033*
X095629Y009038*
X095629Y009044*
X09563Y00905*
Y01005D02*
D01*
X095629Y010055*
X095629Y010061*
X095628Y010066*
X095626Y010072*
X095625Y010077*
X095623Y010082*
X09562Y010087*
X095617Y010092*
X095614Y010097*
X095611Y010101*
X095607Y010105*
X095603Y010109*
X095599Y010113*
X095594Y010116*
X09559Y010119*
X095585Y010121*
X095579Y010124*
X095574Y010126*
X095569Y010127*
X095563Y010128*
X095558Y010129*
X095552Y010129*
X095547*
X095541Y010129*
X095536Y010128*
X09553Y010127*
X095525Y010126*
X09552Y010124*
X095514Y010121*
X09551Y010119*
X095505Y010116*
X0955Y010113*
X095496Y010109*
X095492Y010105*
X095488Y010101*
X095485Y010097*
X095482Y010092*
X095479Y010087*
X095476Y010082*
X095474Y010077*
X095473Y010072*
X095471Y010066*
X09547Y010061*
X09547Y010055*
X09547Y01005*
X09547Y010044*
X09547Y010038*
X095471Y010033*
X095473Y010027*
X095474Y010022*
X095476Y010017*
X095479Y010012*
X095482Y010007*
X095485Y010002*
X095488Y009998*
X095492Y009994*
X095496Y00999*
X0955Y009986*
X095505Y009983*
X09551Y00998*
X095514Y009978*
X09552Y009975*
X095525Y009973*
X09553Y009972*
X095536Y009971*
X095541Y00997*
X095547Y00997*
X095552*
X095558Y00997*
X095563Y009971*
X095569Y009972*
X095574Y009973*
X095579Y009975*
X095585Y009978*
X09559Y00998*
X095594Y009983*
X095599Y009986*
X095603Y00999*
X095607Y009994*
X095611Y009998*
X095614Y010002*
X095617Y010007*
X09562Y010012*
X095623Y010017*
X095625Y010022*
X095626Y010027*
X095628Y010033*
X095629Y010038*
X095629Y010044*
X09563Y01005*
X09663Y00905D02*
D01*
X096629Y009055*
X096629Y009061*
X096628Y009066*
X096626Y009072*
X096625Y009077*
X096623Y009082*
X09662Y009087*
X096617Y009092*
X096614Y009097*
X096611Y009101*
X096607Y009105*
X096603Y009109*
X096599Y009113*
X096594Y009116*
X09659Y009119*
X096585Y009121*
X096579Y009124*
X096574Y009126*
X096569Y009127*
X096563Y009128*
X096558Y009129*
X096552Y009129*
X096547*
X096541Y009129*
X096536Y009128*
X09653Y009127*
X096525Y009126*
X09652Y009124*
X096514Y009121*
X09651Y009119*
X096505Y009116*
X0965Y009113*
X096496Y009109*
X096492Y009105*
X096488Y009101*
X096485Y009097*
X096482Y009092*
X096479Y009087*
X096476Y009082*
X096474Y009077*
X096473Y009072*
X096471Y009066*
X09647Y009061*
X09647Y009055*
X09647Y00905*
X09647Y009044*
X09647Y009038*
X096471Y009033*
X096473Y009027*
X096474Y009022*
X096476Y009017*
X096479Y009012*
X096482Y009007*
X096485Y009002*
X096488Y008998*
X096492Y008994*
X096496Y00899*
X0965Y008986*
X096505Y008983*
X09651Y00898*
X096514Y008978*
X09652Y008975*
X096525Y008973*
X09653Y008972*
X096536Y008971*
X096541Y00897*
X096547Y00897*
X096552*
X096558Y00897*
X096563Y008971*
X096569Y008972*
X096574Y008973*
X096579Y008975*
X096585Y008978*
X09659Y00898*
X096594Y008983*
X096599Y008986*
X096603Y00899*
X096607Y008994*
X096611Y008998*
X096614Y009002*
X096617Y009007*
X09662Y009012*
X096623Y009017*
X096625Y009022*
X096626Y009027*
X096628Y009033*
X096629Y009038*
X096629Y009044*
X09663Y00905*
Y01005D02*
D01*
X096629Y010055*
X096629Y010061*
X096628Y010066*
X096626Y010072*
X096625Y010077*
X096623Y010082*
X09662Y010087*
X096617Y010092*
X096614Y010097*
X096611Y010101*
X096607Y010105*
X096603Y010109*
X096599Y010113*
X096594Y010116*
X09659Y010119*
X096585Y010121*
X096579Y010124*
X096574Y010126*
X096569Y010127*
X096563Y010128*
X096558Y010129*
X096552Y010129*
X096547*
X096541Y010129*
X096536Y010128*
X09653Y010127*
X096525Y010126*
X09652Y010124*
X096514Y010121*
X09651Y010119*
X096505Y010116*
X0965Y010113*
X096496Y010109*
X096492Y010105*
X096488Y010101*
X096485Y010097*
X096482Y010092*
X096479Y010087*
X096476Y010082*
X096474Y010077*
X096473Y010072*
X096471Y010066*
X09647Y010061*
X09647Y010055*
X09647Y01005*
X09647Y010044*
X09647Y010038*
X096471Y010033*
X096473Y010027*
X096474Y010022*
X096476Y010017*
X096479Y010012*
X096482Y010007*
X096485Y010002*
X096488Y009998*
X096492Y009994*
X096496Y00999*
X0965Y009986*
X096505Y009983*
X09651Y00998*
X096514Y009978*
X09652Y009975*
X096525Y009973*
X09653Y009972*
X096536Y009971*
X096541Y00997*
X096547Y00997*
X096552*
X096558Y00997*
X096563Y009971*
X096569Y009972*
X096574Y009973*
X096579Y009975*
X096585Y009978*
X09659Y00998*
X096594Y009983*
X096599Y009986*
X096603Y00999*
X096607Y009994*
X096611Y009998*
X096614Y010002*
X096617Y010007*
X09662Y010012*
X096623Y010017*
X096625Y010022*
X096626Y010027*
X096628Y010033*
X096629Y010038*
X096629Y010044*
X09663Y01005*
X09763Y00905D02*
D01*
X097629Y009055*
X097629Y009061*
X097628Y009066*
X097626Y009072*
X097625Y009077*
X097623Y009082*
X09762Y009087*
X097617Y009092*
X097614Y009097*
X097611Y009101*
X097607Y009105*
X097603Y009109*
X097599Y009113*
X097594Y009116*
X09759Y009119*
X097585Y009121*
X097579Y009124*
X097574Y009126*
X097569Y009127*
X097563Y009128*
X097558Y009129*
X097552Y009129*
X097547*
X097541Y009129*
X097536Y009128*
X09753Y009127*
X097525Y009126*
X09752Y009124*
X097514Y009121*
X09751Y009119*
X097505Y009116*
X0975Y009113*
X097496Y009109*
X097492Y009105*
X097488Y009101*
X097485Y009097*
X097482Y009092*
X097479Y009087*
X097476Y009082*
X097474Y009077*
X097473Y009072*
X097471Y009066*
X09747Y009061*
X09747Y009055*
X09747Y00905*
X09747Y009044*
X09747Y009038*
X097471Y009033*
X097473Y009027*
X097474Y009022*
X097476Y009017*
X097479Y009012*
X097482Y009007*
X097485Y009002*
X097488Y008998*
X097492Y008994*
X097496Y00899*
X0975Y008986*
X097505Y008983*
X09751Y00898*
X097514Y008978*
X09752Y008975*
X097525Y008973*
X09753Y008972*
X097536Y008971*
X097541Y00897*
X097547Y00897*
X097552*
X097558Y00897*
X097563Y008971*
X097569Y008972*
X097574Y008973*
X097579Y008975*
X097585Y008978*
X09759Y00898*
X097594Y008983*
X097599Y008986*
X097603Y00899*
X097607Y008994*
X097611Y008998*
X097614Y009002*
X097617Y009007*
X09762Y009012*
X097623Y009017*
X097625Y009022*
X097626Y009027*
X097628Y009033*
X097629Y009038*
X097629Y009044*
X09763Y00905*
Y01005D02*
D01*
X097629Y010055*
X097629Y010061*
X097628Y010066*
X097626Y010072*
X097625Y010077*
X097623Y010082*
X09762Y010087*
X097617Y010092*
X097614Y010097*
X097611Y010101*
X097607Y010105*
X097603Y010109*
X097599Y010113*
X097594Y010116*
X09759Y010119*
X097585Y010121*
X097579Y010124*
X097574Y010126*
X097569Y010127*
X097563Y010128*
X097558Y010129*
X097552Y010129*
X097547*
X097541Y010129*
X097536Y010128*
X09753Y010127*
X097525Y010126*
X09752Y010124*
X097514Y010121*
X09751Y010119*
X097505Y010116*
X0975Y010113*
X097496Y010109*
X097492Y010105*
X097488Y010101*
X097485Y010097*
X097482Y010092*
X097479Y010087*
X097476Y010082*
X097474Y010077*
X097473Y010072*
X097471Y010066*
X09747Y010061*
X09747Y010055*
X09747Y01005*
X09747Y010044*
X09747Y010038*
X097471Y010033*
X097473Y010027*
X097474Y010022*
X097476Y010017*
X097479Y010012*
X097482Y010007*
X097485Y010002*
X097488Y009998*
X097492Y009994*
X097496Y00999*
X0975Y009986*
X097505Y009983*
X09751Y00998*
X097514Y009978*
X09752Y009975*
X097525Y009973*
X09753Y009972*
X097536Y009971*
X097541Y00997*
X097547Y00997*
X097552*
X097558Y00997*
X097563Y009971*
X097569Y009972*
X097574Y009973*
X097579Y009975*
X097585Y009978*
X09759Y00998*
X097594Y009983*
X097599Y009986*
X097603Y00999*
X097607Y009994*
X097611Y009998*
X097614Y010002*
X097617Y010007*
X09762Y010012*
X097623Y010017*
X097625Y010022*
X097626Y010027*
X097628Y010033*
X097629Y010038*
X097629Y010044*
X09763Y01005*
X08113Y00905D02*
D01*
X081129Y009055*
X081129Y009061*
X081128Y009066*
X081126Y009072*
X081125Y009077*
X081123Y009082*
X08112Y009087*
X081117Y009092*
X081114Y009097*
X081111Y009101*
X081107Y009105*
X081103Y009109*
X081099Y009113*
X081094Y009116*
X08109Y009119*
X081085Y009121*
X081079Y009124*
X081074Y009126*
X081069Y009127*
X081063Y009128*
X081058Y009129*
X081052Y009129*
X081047*
X081041Y009129*
X081036Y009128*
X08103Y009127*
X081025Y009126*
X08102Y009124*
X081014Y009121*
X08101Y009119*
X081005Y009116*
X081Y009113*
X080996Y009109*
X080992Y009105*
X080988Y009101*
X080985Y009097*
X080982Y009092*
X080979Y009087*
X080976Y009082*
X080974Y009077*
X080973Y009072*
X080971Y009066*
X08097Y009061*
X08097Y009055*
X08097Y00905*
X08097Y009044*
X08097Y009038*
X080971Y009033*
X080973Y009027*
X080974Y009022*
X080976Y009017*
X080979Y009012*
X080982Y009007*
X080985Y009002*
X080988Y008998*
X080992Y008994*
X080996Y00899*
X081Y008986*
X081005Y008983*
X08101Y00898*
X081014Y008978*
X08102Y008975*
X081025Y008973*
X08103Y008972*
X081036Y008971*
X081041Y00897*
X081047Y00897*
X081052*
X081058Y00897*
X081063Y008971*
X081069Y008972*
X081074Y008973*
X081079Y008975*
X081085Y008978*
X08109Y00898*
X081094Y008983*
X081099Y008986*
X081103Y00899*
X081107Y008994*
X081111Y008998*
X081114Y009002*
X081117Y009007*
X08112Y009012*
X081123Y009017*
X081125Y009022*
X081126Y009027*
X081128Y009033*
X081129Y009038*
X081129Y009044*
X08113Y00905*
Y01005D02*
D01*
X081129Y010055*
X081129Y010061*
X081128Y010066*
X081126Y010072*
X081125Y010077*
X081123Y010082*
X08112Y010087*
X081117Y010092*
X081114Y010097*
X081111Y010101*
X081107Y010105*
X081103Y010109*
X081099Y010113*
X081094Y010116*
X08109Y010119*
X081085Y010121*
X081079Y010124*
X081074Y010126*
X081069Y010127*
X081063Y010128*
X081058Y010129*
X081052Y010129*
X081047*
X081041Y010129*
X081036Y010128*
X08103Y010127*
X081025Y010126*
X08102Y010124*
X081014Y010121*
X08101Y010119*
X081005Y010116*
X081Y010113*
X080996Y010109*
X080992Y010105*
X080988Y010101*
X080985Y010097*
X080982Y010092*
X080979Y010087*
X080976Y010082*
X080974Y010077*
X080973Y010072*
X080971Y010066*
X08097Y010061*
X08097Y010055*
X08097Y01005*
X08097Y010044*
X08097Y010038*
X080971Y010033*
X080973Y010027*
X080974Y010022*
X080976Y010017*
X080979Y010012*
X080982Y010007*
X080985Y010002*
X080988Y009998*
X080992Y009994*
X080996Y00999*
X081Y009986*
X081005Y009983*
X08101Y00998*
X081014Y009978*
X08102Y009975*
X081025Y009973*
X08103Y009972*
X081036Y009971*
X081041Y00997*
X081047Y00997*
X081052*
X081058Y00997*
X081063Y009971*
X081069Y009972*
X081074Y009973*
X081079Y009975*
X081085Y009978*
X08109Y00998*
X081094Y009983*
X081099Y009986*
X081103Y00999*
X081107Y009994*
X081111Y009998*
X081114Y010002*
X081117Y010007*
X08112Y010012*
X081123Y010017*
X081125Y010022*
X081126Y010027*
X081128Y010033*
X081129Y010038*
X081129Y010044*
X08113Y01005*
X08213Y00905D02*
D01*
X082129Y009055*
X082129Y009061*
X082128Y009066*
X082126Y009072*
X082125Y009077*
X082123Y009082*
X08212Y009087*
X082117Y009092*
X082114Y009097*
X082111Y009101*
X082107Y009105*
X082103Y009109*
X082099Y009113*
X082094Y009116*
X08209Y009119*
X082085Y009121*
X082079Y009124*
X082074Y009126*
X082069Y009127*
X082063Y009128*
X082058Y009129*
X082052Y009129*
X082047*
X082041Y009129*
X082036Y009128*
X08203Y009127*
X082025Y009126*
X08202Y009124*
X082014Y009121*
X08201Y009119*
X082005Y009116*
X082Y009113*
X081996Y009109*
X081992Y009105*
X081988Y009101*
X081985Y009097*
X081982Y009092*
X081979Y009087*
X081976Y009082*
X081974Y009077*
X081973Y009072*
X081971Y009066*
X08197Y009061*
X08197Y009055*
X08197Y00905*
X08197Y009044*
X08197Y009038*
X081971Y009033*
X081973Y009027*
X081974Y009022*
X081976Y009017*
X081979Y009012*
X081982Y009007*
X081985Y009002*
X081988Y008998*
X081992Y008994*
X081996Y00899*
X082Y008986*
X082005Y008983*
X08201Y00898*
X082014Y008978*
X08202Y008975*
X082025Y008973*
X08203Y008972*
X082036Y008971*
X082041Y00897*
X082047Y00897*
X082052*
X082058Y00897*
X082063Y008971*
X082069Y008972*
X082074Y008973*
X082079Y008975*
X082085Y008978*
X08209Y00898*
X082094Y008983*
X082099Y008986*
X082103Y00899*
X082107Y008994*
X082111Y008998*
X082114Y009002*
X082117Y009007*
X08212Y009012*
X082123Y009017*
X082125Y009022*
X082126Y009027*
X082128Y009033*
X082129Y009038*
X082129Y009044*
X08213Y00905*
Y01005D02*
D01*
X082129Y010055*
X082129Y010061*
X082128Y010066*
X082126Y010072*
X082125Y010077*
X082123Y010082*
X08212Y010087*
X082117Y010092*
X082114Y010097*
X082111Y010101*
X082107Y010105*
X082103Y010109*
X082099Y010113*
X082094Y010116*
X08209Y010119*
X082085Y010121*
X082079Y010124*
X082074Y010126*
X082069Y010127*
X082063Y010128*
X082058Y010129*
X082052Y010129*
X082047*
X082041Y010129*
X082036Y010128*
X08203Y010127*
X082025Y010126*
X08202Y010124*
X082014Y010121*
X08201Y010119*
X082005Y010116*
X082Y010113*
X081996Y010109*
X081992Y010105*
X081988Y010101*
X081985Y010097*
X081982Y010092*
X081979Y010087*
X081976Y010082*
X081974Y010077*
X081973Y010072*
X081971Y010066*
X08197Y010061*
X08197Y010055*
X08197Y01005*
X08197Y010044*
X08197Y010038*
X081971Y010033*
X081973Y010027*
X081974Y010022*
X081976Y010017*
X081979Y010012*
X081982Y010007*
X081985Y010002*
X081988Y009998*
X081992Y009994*
X081996Y00999*
X082Y009986*
X082005Y009983*
X08201Y00998*
X082014Y009978*
X08202Y009975*
X082025Y009973*
X08203Y009972*
X082036Y009971*
X082041Y00997*
X082047Y00997*
X082052*
X082058Y00997*
X082063Y009971*
X082069Y009972*
X082074Y009973*
X082079Y009975*
X082085Y009978*
X08209Y00998*
X082094Y009983*
X082099Y009986*
X082103Y00999*
X082107Y009994*
X082111Y009998*
X082114Y010002*
X082117Y010007*
X08212Y010012*
X082123Y010017*
X082125Y010022*
X082126Y010027*
X082128Y010033*
X082129Y010038*
X082129Y010044*
X08213Y01005*
X08313Y00905D02*
D01*
X083129Y009055*
X083129Y009061*
X083128Y009066*
X083126Y009072*
X083125Y009077*
X083123Y009082*
X08312Y009087*
X083117Y009092*
X083114Y009097*
X083111Y009101*
X083107Y009105*
X083103Y009109*
X083099Y009113*
X083094Y009116*
X08309Y009119*
X083085Y009121*
X083079Y009124*
X083074Y009126*
X083069Y009127*
X083063Y009128*
X083058Y009129*
X083052Y009129*
X083047*
X083041Y009129*
X083036Y009128*
X08303Y009127*
X083025Y009126*
X08302Y009124*
X083014Y009121*
X08301Y009119*
X083005Y009116*
X083Y009113*
X082996Y009109*
X082992Y009105*
X082988Y009101*
X082985Y009097*
X082982Y009092*
X082979Y009087*
X082976Y009082*
X082974Y009077*
X082973Y009072*
X082971Y009066*
X08297Y009061*
X08297Y009055*
X08297Y00905*
X08297Y009044*
X08297Y009038*
X082971Y009033*
X082973Y009027*
X082974Y009022*
X082976Y009017*
X082979Y009012*
X082982Y009007*
X082985Y009002*
X082988Y008998*
X082992Y008994*
X082996Y00899*
X083Y008986*
X083005Y008983*
X08301Y00898*
X083014Y008978*
X08302Y008975*
X083025Y008973*
X08303Y008972*
X083036Y008971*
X083041Y00897*
X083047Y00897*
X083052*
X083058Y00897*
X083063Y008971*
X083069Y008972*
X083074Y008973*
X083079Y008975*
X083085Y008978*
X08309Y00898*
X083094Y008983*
X083099Y008986*
X083103Y00899*
X083107Y008994*
X083111Y008998*
X083114Y009002*
X083117Y009007*
X08312Y009012*
X083123Y009017*
X083125Y009022*
X083126Y009027*
X083128Y009033*
X083129Y009038*
X083129Y009044*
X08313Y00905*
Y01005D02*
D01*
X083129Y010055*
X083129Y010061*
X083128Y010066*
X083126Y010072*
X083125Y010077*
X083123Y010082*
X08312Y010087*
X083117Y010092*
X083114Y010097*
X083111Y010101*
X083107Y010105*
X083103Y010109*
X083099Y010113*
X083094Y010116*
X08309Y010119*
X083085Y010121*
X083079Y010124*
X083074Y010126*
X083069Y010127*
X083063Y010128*
X083058Y010129*
X083052Y010129*
X083047*
X083041Y010129*
X083036Y010128*
X08303Y010127*
X083025Y010126*
X08302Y010124*
X083014Y010121*
X08301Y010119*
X083005Y010116*
X083Y010113*
X082996Y010109*
X082992Y010105*
X082988Y010101*
X082985Y010097*
X082982Y010092*
X082979Y010087*
X082976Y010082*
X082974Y010077*
X082973Y010072*
X082971Y010066*
X08297Y010061*
X08297Y010055*
X08297Y01005*
X08297Y010044*
X08297Y010038*
X082971Y010033*
X082973Y010027*
X082974Y010022*
X082976Y010017*
X082979Y010012*
X082982Y010007*
X082985Y010002*
X082988Y009998*
X082992Y009994*
X082996Y00999*
X083Y009986*
X083005Y009983*
X08301Y00998*
X083014Y009978*
X08302Y009975*
X083025Y009973*
X08303Y009972*
X083036Y009971*
X083041Y00997*
X083047Y00997*
X083052*
X083058Y00997*
X083063Y009971*
X083069Y009972*
X083074Y009973*
X083079Y009975*
X083085Y009978*
X08309Y00998*
X083094Y009983*
X083099Y009986*
X083103Y00999*
X083107Y009994*
X083111Y009998*
X083114Y010002*
X083117Y010007*
X08312Y010012*
X083123Y010017*
X083125Y010022*
X083126Y010027*
X083128Y010033*
X083129Y010038*
X083129Y010044*
X08313Y01005*
X08413Y00905D02*
D01*
X084129Y009055*
X084129Y009061*
X084128Y009066*
X084126Y009072*
X084125Y009077*
X084123Y009082*
X08412Y009087*
X084117Y009092*
X084114Y009097*
X084111Y009101*
X084107Y009105*
X084103Y009109*
X084099Y009113*
X084094Y009116*
X08409Y009119*
X084085Y009121*
X084079Y009124*
X084074Y009126*
X084069Y009127*
X084063Y009128*
X084058Y009129*
X084052Y009129*
X084047*
X084041Y009129*
X084036Y009128*
X08403Y009127*
X084025Y009126*
X08402Y009124*
X084014Y009121*
X08401Y009119*
X084005Y009116*
X084Y009113*
X083996Y009109*
X083992Y009105*
X083988Y009101*
X083985Y009097*
X083982Y009092*
X083979Y009087*
X083976Y009082*
X083974Y009077*
X083973Y009072*
X083971Y009066*
X08397Y009061*
X08397Y009055*
X08397Y00905*
X08397Y009044*
X08397Y009038*
X083971Y009033*
X083973Y009027*
X083974Y009022*
X083976Y009017*
X083979Y009012*
X083982Y009007*
X083985Y009002*
X083988Y008998*
X083992Y008994*
X083996Y00899*
X084Y008986*
X084005Y008983*
X08401Y00898*
X084014Y008978*
X08402Y008975*
X084025Y008973*
X08403Y008972*
X084036Y008971*
X084041Y00897*
X084047Y00897*
X084052*
X084058Y00897*
X084063Y008971*
X084069Y008972*
X084074Y008973*
X084079Y008975*
X084085Y008978*
X08409Y00898*
X084094Y008983*
X084099Y008986*
X084103Y00899*
X084107Y008994*
X084111Y008998*
X084114Y009002*
X084117Y009007*
X08412Y009012*
X084123Y009017*
X084125Y009022*
X084126Y009027*
X084128Y009033*
X084129Y009038*
X084129Y009044*
X08413Y00905*
Y01005D02*
D01*
X084129Y010055*
X084129Y010061*
X084128Y010066*
X084126Y010072*
X084125Y010077*
X084123Y010082*
X08412Y010087*
X084117Y010092*
X084114Y010097*
X084111Y010101*
X084107Y010105*
X084103Y010109*
X084099Y010113*
X084094Y010116*
X08409Y010119*
X084085Y010121*
X084079Y010124*
X084074Y010126*
X084069Y010127*
X084063Y010128*
X084058Y010129*
X084052Y010129*
X084047*
X084041Y010129*
X084036Y010128*
X08403Y010127*
X084025Y010126*
X08402Y010124*
X084014Y010121*
X08401Y010119*
X084005Y010116*
X084Y010113*
X083996Y010109*
X083992Y010105*
X083988Y010101*
X083985Y010097*
X083982Y010092*
X083979Y010087*
X083976Y010082*
X083974Y010077*
X083973Y010072*
X083971Y010066*
X08397Y010061*
X08397Y010055*
X08397Y01005*
X08397Y010044*
X08397Y010038*
X083971Y010033*
X083973Y010027*
X083974Y010022*
X083976Y010017*
X083979Y010012*
X083982Y010007*
X083985Y010002*
X083988Y009998*
X083992Y009994*
X083996Y00999*
X084Y009986*
X084005Y009983*
X08401Y00998*
X084014Y009978*
X08402Y009975*
X084025Y009973*
X08403Y009972*
X084036Y009971*
X084041Y00997*
X084047Y00997*
X084052*
X084058Y00997*
X084063Y009971*
X084069Y009972*
X084074Y009973*
X084079Y009975*
X084085Y009978*
X08409Y00998*
X084094Y009983*
X084099Y009986*
X084103Y00999*
X084107Y009994*
X084111Y009998*
X084114Y010002*
X084117Y010007*
X08412Y010012*
X084123Y010017*
X084125Y010022*
X084126Y010027*
X084128Y010033*
X084129Y010038*
X084129Y010044*
X08413Y01005*
X08513Y00905D02*
D01*
X085129Y009055*
X085129Y009061*
X085128Y009066*
X085126Y009072*
X085125Y009077*
X085123Y009082*
X08512Y009087*
X085117Y009092*
X085114Y009097*
X085111Y009101*
X085107Y009105*
X085103Y009109*
X085099Y009113*
X085094Y009116*
X08509Y009119*
X085085Y009121*
X085079Y009124*
X085074Y009126*
X085069Y009127*
X085063Y009128*
X085058Y009129*
X085052Y009129*
X085047*
X085041Y009129*
X085036Y009128*
X08503Y009127*
X085025Y009126*
X08502Y009124*
X085014Y009121*
X08501Y009119*
X085005Y009116*
X085Y009113*
X084996Y009109*
X084992Y009105*
X084988Y009101*
X084985Y009097*
X084982Y009092*
X084979Y009087*
X084976Y009082*
X084974Y009077*
X084973Y009072*
X084971Y009066*
X08497Y009061*
X08497Y009055*
X08497Y00905*
X08497Y009044*
X08497Y009038*
X084971Y009033*
X084973Y009027*
X084974Y009022*
X084976Y009017*
X084979Y009012*
X084982Y009007*
X084985Y009002*
X084988Y008998*
X084992Y008994*
X084996Y00899*
X085Y008986*
X085005Y008983*
X08501Y00898*
X085014Y008978*
X08502Y008975*
X085025Y008973*
X08503Y008972*
X085036Y008971*
X085041Y00897*
X085047Y00897*
X085052*
X085058Y00897*
X085063Y008971*
X085069Y008972*
X085074Y008973*
X085079Y008975*
X085085Y008978*
X08509Y00898*
X085094Y008983*
X085099Y008986*
X085103Y00899*
X085107Y008994*
X085111Y008998*
X085114Y009002*
X085117Y009007*
X08512Y009012*
X085123Y009017*
X085125Y009022*
X085126Y009027*
X085128Y009033*
X085129Y009038*
X085129Y009044*
X08513Y00905*
Y01005D02*
D01*
X085129Y010055*
X085129Y010061*
X085128Y010066*
X085126Y010072*
X085125Y010077*
X085123Y010082*
X08512Y010087*
X085117Y010092*
X085114Y010097*
X085111Y010101*
X085107Y010105*
X085103Y010109*
X085099Y010113*
X085094Y010116*
X08509Y010119*
X085085Y010121*
X085079Y010124*
X085074Y010126*
X085069Y010127*
X085063Y010128*
X085058Y010129*
X085052Y010129*
X085047*
X085041Y010129*
X085036Y010128*
X08503Y010127*
X085025Y010126*
X08502Y010124*
X085014Y010121*
X08501Y010119*
X085005Y010116*
X085Y010113*
X084996Y010109*
X084992Y010105*
X084988Y010101*
X084985Y010097*
X084982Y010092*
X084979Y010087*
X084976Y010082*
X084974Y010077*
X084973Y010072*
X084971Y010066*
X08497Y010061*
X08497Y010055*
X08497Y01005*
X08497Y010044*
X08497Y010038*
X084971Y010033*
X084973Y010027*
X084974Y010022*
X084976Y010017*
X084979Y010012*
X084982Y010007*
X084985Y010002*
X084988Y009998*
X084992Y009994*
X084996Y00999*
X085Y009986*
X085005Y009983*
X08501Y00998*
X085014Y009978*
X08502Y009975*
X085025Y009973*
X08503Y009972*
X085036Y009971*
X085041Y00997*
X085047Y00997*
X085052*
X085058Y00997*
X085063Y009971*
X085069Y009972*
X085074Y009973*
X085079Y009975*
X085085Y009978*
X08509Y00998*
X085094Y009983*
X085099Y009986*
X085103Y00999*
X085107Y009994*
X085111Y009998*
X085114Y010002*
X085117Y010007*
X08512Y010012*
X085123Y010017*
X085125Y010022*
X085126Y010027*
X085128Y010033*
X085129Y010038*
X085129Y010044*
X08513Y01005*
X08613Y00905D02*
D01*
X086129Y009055*
X086129Y009061*
X086128Y009066*
X086126Y009072*
X086125Y009077*
X086123Y009082*
X08612Y009087*
X086117Y009092*
X086114Y009097*
X086111Y009101*
X086107Y009105*
X086103Y009109*
X086099Y009113*
X086094Y009116*
X08609Y009119*
X086085Y009121*
X086079Y009124*
X086074Y009126*
X086069Y009127*
X086063Y009128*
X086058Y009129*
X086052Y009129*
X086047*
X086041Y009129*
X086036Y009128*
X08603Y009127*
X086025Y009126*
X08602Y009124*
X086014Y009121*
X08601Y009119*
X086005Y009116*
X086Y009113*
X085996Y009109*
X085992Y009105*
X085988Y009101*
X085985Y009097*
X085982Y009092*
X085979Y009087*
X085976Y009082*
X085974Y009077*
X085973Y009072*
X085971Y009066*
X08597Y009061*
X08597Y009055*
X08597Y00905*
X08597Y009044*
X08597Y009038*
X085971Y009033*
X085973Y009027*
X085974Y009022*
X085976Y009017*
X085979Y009012*
X085982Y009007*
X085985Y009002*
X085988Y008998*
X085992Y008994*
X085996Y00899*
X086Y008986*
X086005Y008983*
X08601Y00898*
X086014Y008978*
X08602Y008975*
X086025Y008973*
X08603Y008972*
X086036Y008971*
X086041Y00897*
X086047Y00897*
X086052*
X086058Y00897*
X086063Y008971*
X086069Y008972*
X086074Y008973*
X086079Y008975*
X086085Y008978*
X08609Y00898*
X086094Y008983*
X086099Y008986*
X086103Y00899*
X086107Y008994*
X086111Y008998*
X086114Y009002*
X086117Y009007*
X08612Y009012*
X086123Y009017*
X086125Y009022*
X086126Y009027*
X086128Y009033*
X086129Y009038*
X086129Y009044*
X08613Y00905*
Y01005D02*
D01*
X086129Y010055*
X086129Y010061*
X086128Y010066*
X086126Y010072*
X086125Y010077*
X086123Y010082*
X08612Y010087*
X086117Y010092*
X086114Y010097*
X086111Y010101*
X086107Y010105*
X086103Y010109*
X086099Y010113*
X086094Y010116*
X08609Y010119*
X086085Y010121*
X086079Y010124*
X086074Y010126*
X086069Y010127*
X086063Y010128*
X086058Y010129*
X086052Y010129*
X086047*
X086041Y010129*
X086036Y010128*
X08603Y010127*
X086025Y010126*
X08602Y010124*
X086014Y010121*
X08601Y010119*
X086005Y010116*
X086Y010113*
X085996Y010109*
X085992Y010105*
X085988Y010101*
X085985Y010097*
X085982Y010092*
X085979Y010087*
X085976Y010082*
X085974Y010077*
X085973Y010072*
X085971Y010066*
X08597Y010061*
X08597Y010055*
X08597Y01005*
X08597Y010044*
X08597Y010038*
X085971Y010033*
X085973Y010027*
X085974Y010022*
X085976Y010017*
X085979Y010012*
X085982Y010007*
X085985Y010002*
X085988Y009998*
X085992Y009994*
X085996Y00999*
X086Y009986*
X086005Y009983*
X08601Y00998*
X086014Y009978*
X08602Y009975*
X086025Y009973*
X08603Y009972*
X086036Y009971*
X086041Y00997*
X086047Y00997*
X086052*
X086058Y00997*
X086063Y009971*
X086069Y009972*
X086074Y009973*
X086079Y009975*
X086085Y009978*
X08609Y00998*
X086094Y009983*
X086099Y009986*
X086103Y00999*
X086107Y009994*
X086111Y009998*
X086114Y010002*
X086117Y010007*
X08612Y010012*
X086123Y010017*
X086125Y010022*
X086126Y010027*
X086128Y010033*
X086129Y010038*
X086129Y010044*
X08613Y01005*
X08713Y00905D02*
D01*
X087129Y009055*
X087129Y009061*
X087128Y009066*
X087126Y009072*
X087125Y009077*
X087123Y009082*
X08712Y009087*
X087117Y009092*
X087114Y009097*
X087111Y009101*
X087107Y009105*
X087103Y009109*
X087099Y009113*
X087094Y009116*
X08709Y009119*
X087085Y009121*
X087079Y009124*
X087074Y009126*
X087069Y009127*
X087063Y009128*
X087058Y009129*
X087052Y009129*
X087047*
X087041Y009129*
X087036Y009128*
X08703Y009127*
X087025Y009126*
X08702Y009124*
X087014Y009121*
X08701Y009119*
X087005Y009116*
X087Y009113*
X086996Y009109*
X086992Y009105*
X086988Y009101*
X086985Y009097*
X086982Y009092*
X086979Y009087*
X086976Y009082*
X086974Y009077*
X086973Y009072*
X086971Y009066*
X08697Y009061*
X08697Y009055*
X08697Y00905*
X08697Y009044*
X08697Y009038*
X086971Y009033*
X086973Y009027*
X086974Y009022*
X086976Y009017*
X086979Y009012*
X086982Y009007*
X086985Y009002*
X086988Y008998*
X086992Y008994*
X086996Y00899*
X087Y008986*
X087005Y008983*
X08701Y00898*
X087014Y008978*
X08702Y008975*
X087025Y008973*
X08703Y008972*
X087036Y008971*
X087041Y00897*
X087047Y00897*
X087052*
X087058Y00897*
X087063Y008971*
X087069Y008972*
X087074Y008973*
X087079Y008975*
X087085Y008978*
X08709Y00898*
X087094Y008983*
X087099Y008986*
X087103Y00899*
X087107Y008994*
X087111Y008998*
X087114Y009002*
X087117Y009007*
X08712Y009012*
X087123Y009017*
X087125Y009022*
X087126Y009027*
X087128Y009033*
X087129Y009038*
X087129Y009044*
X08713Y00905*
Y01005D02*
D01*
X087129Y010055*
X087129Y010061*
X087128Y010066*
X087126Y010072*
X087125Y010077*
X087123Y010082*
X08712Y010087*
X087117Y010092*
X087114Y010097*
X087111Y010101*
X087107Y010105*
X087103Y010109*
X087099Y010113*
X087094Y010116*
X08709Y010119*
X087085Y010121*
X087079Y010124*
X087074Y010126*
X087069Y010127*
X087063Y010128*
X087058Y010129*
X087052Y010129*
X087047*
X087041Y010129*
X087036Y010128*
X08703Y010127*
X087025Y010126*
X08702Y010124*
X087014Y010121*
X08701Y010119*
X087005Y010116*
X087Y010113*
X086996Y010109*
X086992Y010105*
X086988Y010101*
X086985Y010097*
X086982Y010092*
X086979Y010087*
X086976Y010082*
X086974Y010077*
X086973Y010072*
X086971Y010066*
X08697Y010061*
X08697Y010055*
X08697Y01005*
X08697Y010044*
X08697Y010038*
X086971Y010033*
X086973Y010027*
X086974Y010022*
X086976Y010017*
X086979Y010012*
X086982Y010007*
X086985Y010002*
X086988Y009998*
X086992Y009994*
X086996Y00999*
X087Y009986*
X087005Y009983*
X08701Y00998*
X087014Y009978*
X08702Y009975*
X087025Y009973*
X08703Y009972*
X087036Y009971*
X087041Y00997*
X087047Y00997*
X087052*
X087058Y00997*
X087063Y009971*
X087069Y009972*
X087074Y009973*
X087079Y009975*
X087085Y009978*
X08709Y00998*
X087094Y009983*
X087099Y009986*
X087103Y00999*
X087107Y009994*
X087111Y009998*
X087114Y010002*
X087117Y010007*
X08712Y010012*
X087123Y010017*
X087125Y010022*
X087126Y010027*
X087128Y010033*
X087129Y010038*
X087129Y010044*
X08713Y01005*
X07063Y00905D02*
D01*
X070629Y009055*
X070629Y009061*
X070628Y009066*
X070626Y009072*
X070625Y009077*
X070623Y009082*
X07062Y009087*
X070617Y009092*
X070614Y009097*
X070611Y009101*
X070607Y009105*
X070603Y009109*
X070599Y009113*
X070594Y009116*
X07059Y009119*
X070585Y009121*
X070579Y009124*
X070574Y009126*
X070569Y009127*
X070563Y009128*
X070558Y009129*
X070552Y009129*
X070547*
X070541Y009129*
X070536Y009128*
X07053Y009127*
X070525Y009126*
X07052Y009124*
X070514Y009121*
X07051Y009119*
X070505Y009116*
X0705Y009113*
X070496Y009109*
X070492Y009105*
X070488Y009101*
X070485Y009097*
X070482Y009092*
X070479Y009087*
X070476Y009082*
X070474Y009077*
X070473Y009072*
X070471Y009066*
X07047Y009061*
X07047Y009055*
X07047Y00905*
X07047Y009044*
X07047Y009038*
X070471Y009033*
X070473Y009027*
X070474Y009022*
X070476Y009017*
X070479Y009012*
X070482Y009007*
X070485Y009002*
X070488Y008998*
X070492Y008994*
X070496Y00899*
X0705Y008986*
X070505Y008983*
X07051Y00898*
X070514Y008978*
X07052Y008975*
X070525Y008973*
X07053Y008972*
X070536Y008971*
X070541Y00897*
X070547Y00897*
X070552*
X070558Y00897*
X070563Y008971*
X070569Y008972*
X070574Y008973*
X070579Y008975*
X070585Y008978*
X07059Y00898*
X070594Y008983*
X070599Y008986*
X070603Y00899*
X070607Y008994*
X070611Y008998*
X070614Y009002*
X070617Y009007*
X07062Y009012*
X070623Y009017*
X070625Y009022*
X070626Y009027*
X070628Y009033*
X070629Y009038*
X070629Y009044*
X07063Y00905*
Y01005D02*
D01*
X070629Y010055*
X070629Y010061*
X070628Y010066*
X070626Y010072*
X070625Y010077*
X070623Y010082*
X07062Y010087*
X070617Y010092*
X070614Y010097*
X070611Y010101*
X070607Y010105*
X070603Y010109*
X070599Y010113*
X070594Y010116*
X07059Y010119*
X070585Y010121*
X070579Y010124*
X070574Y010126*
X070569Y010127*
X070563Y010128*
X070558Y010129*
X070552Y010129*
X070547*
X070541Y010129*
X070536Y010128*
X07053Y010127*
X070525Y010126*
X07052Y010124*
X070514Y010121*
X07051Y010119*
X070505Y010116*
X0705Y010113*
X070496Y010109*
X070492Y010105*
X070488Y010101*
X070485Y010097*
X070482Y010092*
X070479Y010087*
X070476Y010082*
X070474Y010077*
X070473Y010072*
X070471Y010066*
X07047Y010061*
X07047Y010055*
X07047Y01005*
X07047Y010044*
X07047Y010038*
X070471Y010033*
X070473Y010027*
X070474Y010022*
X070476Y010017*
X070479Y010012*
X070482Y010007*
X070485Y010002*
X070488Y009998*
X070492Y009994*
X070496Y00999*
X0705Y009986*
X070505Y009983*
X07051Y00998*
X070514Y009978*
X07052Y009975*
X070525Y009973*
X07053Y009972*
X070536Y009971*
X070541Y00997*
X070547Y00997*
X070552*
X070558Y00997*
X070563Y009971*
X070569Y009972*
X070574Y009973*
X070579Y009975*
X070585Y009978*
X07059Y00998*
X070594Y009983*
X070599Y009986*
X070603Y00999*
X070607Y009994*
X070611Y009998*
X070614Y010002*
X070617Y010007*
X07062Y010012*
X070623Y010017*
X070625Y010022*
X070626Y010027*
X070628Y010033*
X070629Y010038*
X070629Y010044*
X07063Y01005*
X07163Y00905D02*
D01*
X071629Y009055*
X071629Y009061*
X071628Y009066*
X071626Y009072*
X071625Y009077*
X071623Y009082*
X07162Y009087*
X071617Y009092*
X071614Y009097*
X071611Y009101*
X071607Y009105*
X071603Y009109*
X071599Y009113*
X071594Y009116*
X07159Y009119*
X071585Y009121*
X071579Y009124*
X071574Y009126*
X071569Y009127*
X071563Y009128*
X071558Y009129*
X071552Y009129*
X071547*
X071541Y009129*
X071536Y009128*
X07153Y009127*
X071525Y009126*
X07152Y009124*
X071514Y009121*
X07151Y009119*
X071505Y009116*
X0715Y009113*
X071496Y009109*
X071492Y009105*
X071488Y009101*
X071485Y009097*
X071482Y009092*
X071479Y009087*
X071476Y009082*
X071474Y009077*
X071473Y009072*
X071471Y009066*
X07147Y009061*
X07147Y009055*
X07147Y00905*
X07147Y009044*
X07147Y009038*
X071471Y009033*
X071473Y009027*
X071474Y009022*
X071476Y009017*
X071479Y009012*
X071482Y009007*
X071485Y009002*
X071488Y008998*
X071492Y008994*
X071496Y00899*
X0715Y008986*
X071505Y008983*
X07151Y00898*
X071514Y008978*
X07152Y008975*
X071525Y008973*
X07153Y008972*
X071536Y008971*
X071541Y00897*
X071547Y00897*
X071552*
X071558Y00897*
X071563Y008971*
X071569Y008972*
X071574Y008973*
X071579Y008975*
X071585Y008978*
X07159Y00898*
X071594Y008983*
X071599Y008986*
X071603Y00899*
X071607Y008994*
X071611Y008998*
X071614Y009002*
X071617Y009007*
X07162Y009012*
X071623Y009017*
X071625Y009022*
X071626Y009027*
X071628Y009033*
X071629Y009038*
X071629Y009044*
X07163Y00905*
Y01005D02*
D01*
X071629Y010055*
X071629Y010061*
X071628Y010066*
X071626Y010072*
X071625Y010077*
X071623Y010082*
X07162Y010087*
X071617Y010092*
X071614Y010097*
X071611Y010101*
X071607Y010105*
X071603Y010109*
X071599Y010113*
X071594Y010116*
X07159Y010119*
X071585Y010121*
X071579Y010124*
X071574Y010126*
X071569Y010127*
X071563Y010128*
X071558Y010129*
X071552Y010129*
X071547*
X071541Y010129*
X071536Y010128*
X07153Y010127*
X071525Y010126*
X07152Y010124*
X071514Y010121*
X07151Y010119*
X071505Y010116*
X0715Y010113*
X071496Y010109*
X071492Y010105*
X071488Y010101*
X071485Y010097*
X071482Y010092*
X071479Y010087*
X071476Y010082*
X071474Y010077*
X071473Y010072*
X071471Y010066*
X07147Y010061*
X07147Y010055*
X07147Y01005*
X07147Y010044*
X07147Y010038*
X071471Y010033*
X071473Y010027*
X071474Y010022*
X071476Y010017*
X071479Y010012*
X071482Y010007*
X071485Y010002*
X071488Y009998*
X071492Y009994*
X071496Y00999*
X0715Y009986*
X071505Y009983*
X07151Y00998*
X071514Y009978*
X07152Y009975*
X071525Y009973*
X07153Y009972*
X071536Y009971*
X071541Y00997*
X071547Y00997*
X071552*
X071558Y00997*
X071563Y009971*
X071569Y009972*
X071574Y009973*
X071579Y009975*
X071585Y009978*
X07159Y00998*
X071594Y009983*
X071599Y009986*
X071603Y00999*
X071607Y009994*
X071611Y009998*
X071614Y010002*
X071617Y010007*
X07162Y010012*
X071623Y010017*
X071625Y010022*
X071626Y010027*
X071628Y010033*
X071629Y010038*
X071629Y010044*
X07163Y01005*
X07263Y00905D02*
D01*
X072629Y009055*
X072629Y009061*
X072628Y009066*
X072626Y009072*
X072625Y009077*
X072623Y009082*
X07262Y009087*
X072617Y009092*
X072614Y009097*
X072611Y009101*
X072607Y009105*
X072603Y009109*
X072599Y009113*
X072594Y009116*
X07259Y009119*
X072585Y009121*
X072579Y009124*
X072574Y009126*
X072569Y009127*
X072563Y009128*
X072558Y009129*
X072552Y009129*
X072547*
X072541Y009129*
X072536Y009128*
X07253Y009127*
X072525Y009126*
X07252Y009124*
X072514Y009121*
X07251Y009119*
X072505Y009116*
X0725Y009113*
X072496Y009109*
X072492Y009105*
X072488Y009101*
X072485Y009097*
X072482Y009092*
X072479Y009087*
X072476Y009082*
X072474Y009077*
X072473Y009072*
X072471Y009066*
X07247Y009061*
X07247Y009055*
X07247Y00905*
X07247Y009044*
X07247Y009038*
X072471Y009033*
X072473Y009027*
X072474Y009022*
X072476Y009017*
X072479Y009012*
X072482Y009007*
X072485Y009002*
X072488Y008998*
X072492Y008994*
X072496Y00899*
X0725Y008986*
X072505Y008983*
X07251Y00898*
X072514Y008978*
X07252Y008975*
X072525Y008973*
X07253Y008972*
X072536Y008971*
X072541Y00897*
X072547Y00897*
X072552*
X072558Y00897*
X072563Y008971*
X072569Y008972*
X072574Y008973*
X072579Y008975*
X072585Y008978*
X07259Y00898*
X072594Y008983*
X072599Y008986*
X072603Y00899*
X072607Y008994*
X072611Y008998*
X072614Y009002*
X072617Y009007*
X07262Y009012*
X072623Y009017*
X072625Y009022*
X072626Y009027*
X072628Y009033*
X072629Y009038*
X072629Y009044*
X07263Y00905*
Y01005D02*
D01*
X072629Y010055*
X072629Y010061*
X072628Y010066*
X072626Y010072*
X072625Y010077*
X072623Y010082*
X07262Y010087*
X072617Y010092*
X072614Y010097*
X072611Y010101*
X072607Y010105*
X072603Y010109*
X072599Y010113*
X072594Y010116*
X07259Y010119*
X072585Y010121*
X072579Y010124*
X072574Y010126*
X072569Y010127*
X072563Y010128*
X072558Y010129*
X072552Y010129*
X072547*
X072541Y010129*
X072536Y010128*
X07253Y010127*
X072525Y010126*
X07252Y010124*
X072514Y010121*
X07251Y010119*
X072505Y010116*
X0725Y010113*
X072496Y010109*
X072492Y010105*
X072488Y010101*
X072485Y010097*
X072482Y010092*
X072479Y010087*
X072476Y010082*
X072474Y010077*
X072473Y010072*
X072471Y010066*
X07247Y010061*
X07247Y010055*
X07247Y01005*
X07247Y010044*
X07247Y010038*
X072471Y010033*
X072473Y010027*
X072474Y010022*
X072476Y010017*
X072479Y010012*
X072482Y010007*
X072485Y010002*
X072488Y009998*
X072492Y009994*
X072496Y00999*
X0725Y009986*
X072505Y009983*
X07251Y00998*
X072514Y009978*
X07252Y009975*
X072525Y009973*
X07253Y009972*
X072536Y009971*
X072541Y00997*
X072547Y00997*
X072552*
X072558Y00997*
X072563Y009971*
X072569Y009972*
X072574Y009973*
X072579Y009975*
X072585Y009978*
X07259Y00998*
X072594Y009983*
X072599Y009986*
X072603Y00999*
X072607Y009994*
X072611Y009998*
X072614Y010002*
X072617Y010007*
X07262Y010012*
X072623Y010017*
X072625Y010022*
X072626Y010027*
X072628Y010033*
X072629Y010038*
X072629Y010044*
X07263Y01005*
X07363Y00905D02*
D01*
X073629Y009055*
X073629Y009061*
X073628Y009066*
X073626Y009072*
X073625Y009077*
X073623Y009082*
X07362Y009087*
X073617Y009092*
X073614Y009097*
X073611Y009101*
X073607Y009105*
X073603Y009109*
X073599Y009113*
X073594Y009116*
X07359Y009119*
X073585Y009121*
X073579Y009124*
X073574Y009126*
X073569Y009127*
X073563Y009128*
X073558Y009129*
X073552Y009129*
X073547*
X073541Y009129*
X073536Y009128*
X07353Y009127*
X073525Y009126*
X07352Y009124*
X073514Y009121*
X07351Y009119*
X073505Y009116*
X0735Y009113*
X073496Y009109*
X073492Y009105*
X073488Y009101*
X073485Y009097*
X073482Y009092*
X073479Y009087*
X073476Y009082*
X073474Y009077*
X073473Y009072*
X073471Y009066*
X07347Y009061*
X07347Y009055*
X07347Y00905*
X07347Y009044*
X07347Y009038*
X073471Y009033*
X073473Y009027*
X073474Y009022*
X073476Y009017*
X073479Y009012*
X073482Y009007*
X073485Y009002*
X073488Y008998*
X073492Y008994*
X073496Y00899*
X0735Y008986*
X073505Y008983*
X07351Y00898*
X073514Y008978*
X07352Y008975*
X073525Y008973*
X07353Y008972*
X073536Y008971*
X073541Y00897*
X073547Y00897*
X073552*
X073558Y00897*
X073563Y008971*
X073569Y008972*
X073574Y008973*
X073579Y008975*
X073585Y008978*
X07359Y00898*
X073594Y008983*
X073599Y008986*
X073603Y00899*
X073607Y008994*
X073611Y008998*
X073614Y009002*
X073617Y009007*
X07362Y009012*
X073623Y009017*
X073625Y009022*
X073626Y009027*
X073628Y009033*
X073629Y009038*
X073629Y009044*
X07363Y00905*
Y01005D02*
D01*
X073629Y010055*
X073629Y010061*
X073628Y010066*
X073626Y010072*
X073625Y010077*
X073623Y010082*
X07362Y010087*
X073617Y010092*
X073614Y010097*
X073611Y010101*
X073607Y010105*
X073603Y010109*
X073599Y010113*
X073594Y010116*
X07359Y010119*
X073585Y010121*
X073579Y010124*
X073574Y010126*
X073569Y010127*
X073563Y010128*
X073558Y010129*
X073552Y010129*
X073547*
X073541Y010129*
X073536Y010128*
X07353Y010127*
X073525Y010126*
X07352Y010124*
X073514Y010121*
X07351Y010119*
X073505Y010116*
X0735Y010113*
X073496Y010109*
X073492Y010105*
X073488Y010101*
X073485Y010097*
X073482Y010092*
X073479Y010087*
X073476Y010082*
X073474Y010077*
X073473Y010072*
X073471Y010066*
X07347Y010061*
X07347Y010055*
X07347Y01005*
X07347Y010044*
X07347Y010038*
X073471Y010033*
X073473Y010027*
X073474Y010022*
X073476Y010017*
X073479Y010012*
X073482Y010007*
X073485Y010002*
X073488Y009998*
X073492Y009994*
X073496Y00999*
X0735Y009986*
X073505Y009983*
X07351Y00998*
X073514Y009978*
X07352Y009975*
X073525Y009973*
X07353Y009972*
X073536Y009971*
X073541Y00997*
X073547Y00997*
X073552*
X073558Y00997*
X073563Y009971*
X073569Y009972*
X073574Y009973*
X073579Y009975*
X073585Y009978*
X07359Y00998*
X073594Y009983*
X073599Y009986*
X073603Y00999*
X073607Y009994*
X073611Y009998*
X073614Y010002*
X073617Y010007*
X07362Y010012*
X073623Y010017*
X073625Y010022*
X073626Y010027*
X073628Y010033*
X073629Y010038*
X073629Y010044*
X07363Y01005*
X07463Y00905D02*
D01*
X074629Y009055*
X074629Y009061*
X074628Y009066*
X074626Y009072*
X074625Y009077*
X074623Y009082*
X07462Y009087*
X074617Y009092*
X074614Y009097*
X074611Y009101*
X074607Y009105*
X074603Y009109*
X074599Y009113*
X074594Y009116*
X07459Y009119*
X074585Y009121*
X074579Y009124*
X074574Y009126*
X074569Y009127*
X074563Y009128*
X074558Y009129*
X074552Y009129*
X074547*
X074541Y009129*
X074536Y009128*
X07453Y009127*
X074525Y009126*
X07452Y009124*
X074514Y009121*
X07451Y009119*
X074505Y009116*
X0745Y009113*
X074496Y009109*
X074492Y009105*
X074488Y009101*
X074485Y009097*
X074482Y009092*
X074479Y009087*
X074476Y009082*
X074474Y009077*
X074473Y009072*
X074471Y009066*
X07447Y009061*
X07447Y009055*
X07447Y00905*
X07447Y009044*
X07447Y009038*
X074471Y009033*
X074473Y009027*
X074474Y009022*
X074476Y009017*
X074479Y009012*
X074482Y009007*
X074485Y009002*
X074488Y008998*
X074492Y008994*
X074496Y00899*
X0745Y008986*
X074505Y008983*
X07451Y00898*
X074514Y008978*
X07452Y008975*
X074525Y008973*
X07453Y008972*
X074536Y008971*
X074541Y00897*
X074547Y00897*
X074552*
X074558Y00897*
X074563Y008971*
X074569Y008972*
X074574Y008973*
X074579Y008975*
X074585Y008978*
X07459Y00898*
X074594Y008983*
X074599Y008986*
X074603Y00899*
X074607Y008994*
X074611Y008998*
X074614Y009002*
X074617Y009007*
X07462Y009012*
X074623Y009017*
X074625Y009022*
X074626Y009027*
X074628Y009033*
X074629Y009038*
X074629Y009044*
X07463Y00905*
Y01005D02*
D01*
X074629Y010055*
X074629Y010061*
X074628Y010066*
X074626Y010072*
X074625Y010077*
X074623Y010082*
X07462Y010087*
X074617Y010092*
X074614Y010097*
X074611Y010101*
X074607Y010105*
X074603Y010109*
X074599Y010113*
X074594Y010116*
X07459Y010119*
X074585Y010121*
X074579Y010124*
X074574Y010126*
X074569Y010127*
X074563Y010128*
X074558Y010129*
X074552Y010129*
X074547*
X074541Y010129*
X074536Y010128*
X07453Y010127*
X074525Y010126*
X07452Y010124*
X074514Y010121*
X07451Y010119*
X074505Y010116*
X0745Y010113*
X074496Y010109*
X074492Y010105*
X074488Y010101*
X074485Y010097*
X074482Y010092*
X074479Y010087*
X074476Y010082*
X074474Y010077*
X074473Y010072*
X074471Y010066*
X07447Y010061*
X07447Y010055*
X07447Y01005*
X07447Y010044*
X07447Y010038*
X074471Y010033*
X074473Y010027*
X074474Y010022*
X074476Y010017*
X074479Y010012*
X074482Y010007*
X074485Y010002*
X074488Y009998*
X074492Y009994*
X074496Y00999*
X0745Y009986*
X074505Y009983*
X07451Y00998*
X074514Y009978*
X07452Y009975*
X074525Y009973*
X07453Y009972*
X074536Y009971*
X074541Y00997*
X074547Y00997*
X074552*
X074558Y00997*
X074563Y009971*
X074569Y009972*
X074574Y009973*
X074579Y009975*
X074585Y009978*
X07459Y00998*
X074594Y009983*
X074599Y009986*
X074603Y00999*
X074607Y009994*
X074611Y009998*
X074614Y010002*
X074617Y010007*
X07462Y010012*
X074623Y010017*
X074625Y010022*
X074626Y010027*
X074628Y010033*
X074629Y010038*
X074629Y010044*
X07463Y01005*
X07563Y00905D02*
D01*
X075629Y009055*
X075629Y009061*
X075628Y009066*
X075626Y009072*
X075625Y009077*
X075623Y009082*
X07562Y009087*
X075617Y009092*
X075614Y009097*
X075611Y009101*
X075607Y009105*
X075603Y009109*
X075599Y009113*
X075594Y009116*
X07559Y009119*
X075585Y009121*
X075579Y009124*
X075574Y009126*
X075569Y009127*
X075563Y009128*
X075558Y009129*
X075552Y009129*
X075547*
X075541Y009129*
X075536Y009128*
X07553Y009127*
X075525Y009126*
X07552Y009124*
X075514Y009121*
X07551Y009119*
X075505Y009116*
X0755Y009113*
X075496Y009109*
X075492Y009105*
X075488Y009101*
X075485Y009097*
X075482Y009092*
X075479Y009087*
X075476Y009082*
X075474Y009077*
X075473Y009072*
X075471Y009066*
X07547Y009061*
X07547Y009055*
X07547Y00905*
X07547Y009044*
X07547Y009038*
X075471Y009033*
X075473Y009027*
X075474Y009022*
X075476Y009017*
X075479Y009012*
X075482Y009007*
X075485Y009002*
X075488Y008998*
X075492Y008994*
X075496Y00899*
X0755Y008986*
X075505Y008983*
X07551Y00898*
X075514Y008978*
X07552Y008975*
X075525Y008973*
X07553Y008972*
X075536Y008971*
X075541Y00897*
X075547Y00897*
X075552*
X075558Y00897*
X075563Y008971*
X075569Y008972*
X075574Y008973*
X075579Y008975*
X075585Y008978*
X07559Y00898*
X075594Y008983*
X075599Y008986*
X075603Y00899*
X075607Y008994*
X075611Y008998*
X075614Y009002*
X075617Y009007*
X07562Y009012*
X075623Y009017*
X075625Y009022*
X075626Y009027*
X075628Y009033*
X075629Y009038*
X075629Y009044*
X07563Y00905*
Y01005D02*
D01*
X075629Y010055*
X075629Y010061*
X075628Y010066*
X075626Y010072*
X075625Y010077*
X075623Y010082*
X07562Y010087*
X075617Y010092*
X075614Y010097*
X075611Y010101*
X075607Y010105*
X075603Y010109*
X075599Y010113*
X075594Y010116*
X07559Y010119*
X075585Y010121*
X075579Y010124*
X075574Y010126*
X075569Y010127*
X075563Y010128*
X075558Y010129*
X075552Y010129*
X075547*
X075541Y010129*
X075536Y010128*
X07553Y010127*
X075525Y010126*
X07552Y010124*
X075514Y010121*
X07551Y010119*
X075505Y010116*
X0755Y010113*
X075496Y010109*
X075492Y010105*
X075488Y010101*
X075485Y010097*
X075482Y010092*
X075479Y010087*
X075476Y010082*
X075474Y010077*
X075473Y010072*
X075471Y010066*
X07547Y010061*
X07547Y010055*
X07547Y01005*
X07547Y010044*
X07547Y010038*
X075471Y010033*
X075473Y010027*
X075474Y010022*
X075476Y010017*
X075479Y010012*
X075482Y010007*
X075485Y010002*
X075488Y009998*
X075492Y009994*
X075496Y00999*
X0755Y009986*
X075505Y009983*
X07551Y00998*
X075514Y009978*
X07552Y009975*
X075525Y009973*
X07553Y009972*
X075536Y009971*
X075541Y00997*
X075547Y00997*
X075552*
X075558Y00997*
X075563Y009971*
X075569Y009972*
X075574Y009973*
X075579Y009975*
X075585Y009978*
X07559Y00998*
X075594Y009983*
X075599Y009986*
X075603Y00999*
X075607Y009994*
X075611Y009998*
X075614Y010002*
X075617Y010007*
X07562Y010012*
X075623Y010017*
X075625Y010022*
X075626Y010027*
X075628Y010033*
X075629Y010038*
X075629Y010044*
X07563Y01005*
X07663Y00905D02*
D01*
X076629Y009055*
X076629Y009061*
X076628Y009066*
X076626Y009072*
X076625Y009077*
X076623Y009082*
X07662Y009087*
X076617Y009092*
X076614Y009097*
X076611Y009101*
X076607Y009105*
X076603Y009109*
X076599Y009113*
X076594Y009116*
X07659Y009119*
X076585Y009121*
X076579Y009124*
X076574Y009126*
X076569Y009127*
X076563Y009128*
X076558Y009129*
X076552Y009129*
X076547*
X076541Y009129*
X076536Y009128*
X07653Y009127*
X076525Y009126*
X07652Y009124*
X076514Y009121*
X07651Y009119*
X076505Y009116*
X0765Y009113*
X076496Y009109*
X076492Y009105*
X076488Y009101*
X076485Y009097*
X076482Y009092*
X076479Y009087*
X076476Y009082*
X076474Y009077*
X076473Y009072*
X076471Y009066*
X07647Y009061*
X07647Y009055*
X07647Y00905*
X07647Y009044*
X07647Y009038*
X076471Y009033*
X076473Y009027*
X076474Y009022*
X076476Y009017*
X076479Y009012*
X076482Y009007*
X076485Y009002*
X076488Y008998*
X076492Y008994*
X076496Y00899*
X0765Y008986*
X076505Y008983*
X07651Y00898*
X076514Y008978*
X07652Y008975*
X076525Y008973*
X07653Y008972*
X076536Y008971*
X076541Y00897*
X076547Y00897*
X076552*
X076558Y00897*
X076563Y008971*
X076569Y008972*
X076574Y008973*
X076579Y008975*
X076585Y008978*
X07659Y00898*
X076594Y008983*
X076599Y008986*
X076603Y00899*
X076607Y008994*
X076611Y008998*
X076614Y009002*
X076617Y009007*
X07662Y009012*
X076623Y009017*
X076625Y009022*
X076626Y009027*
X076628Y009033*
X076629Y009038*
X076629Y009044*
X07663Y00905*
Y01005D02*
D01*
X076629Y010055*
X076629Y010061*
X076628Y010066*
X076626Y010072*
X076625Y010077*
X076623Y010082*
X07662Y010087*
X076617Y010092*
X076614Y010097*
X076611Y010101*
X076607Y010105*
X076603Y010109*
X076599Y010113*
X076594Y010116*
X07659Y010119*
X076585Y010121*
X076579Y010124*
X076574Y010126*
X076569Y010127*
X076563Y010128*
X076558Y010129*
X076552Y010129*
X076547*
X076541Y010129*
X076536Y010128*
X07653Y010127*
X076525Y010126*
X07652Y010124*
X076514Y010121*
X07651Y010119*
X076505Y010116*
X0765Y010113*
X076496Y010109*
X076492Y010105*
X076488Y010101*
X076485Y010097*
X076482Y010092*
X076479Y010087*
X076476Y010082*
X076474Y010077*
X076473Y010072*
X076471Y010066*
X07647Y010061*
X07647Y010055*
X07647Y01005*
X07647Y010044*
X07647Y010038*
X076471Y010033*
X076473Y010027*
X076474Y010022*
X076476Y010017*
X076479Y010012*
X076482Y010007*
X076485Y010002*
X076488Y009998*
X076492Y009994*
X076496Y00999*
X0765Y009986*
X076505Y009983*
X07651Y00998*
X076514Y009978*
X07652Y009975*
X076525Y009973*
X07653Y009972*
X076536Y009971*
X076541Y00997*
X076547Y00997*
X076552*
X076558Y00997*
X076563Y009971*
X076569Y009972*
X076574Y009973*
X076579Y009975*
X076585Y009978*
X07659Y00998*
X076594Y009983*
X076599Y009986*
X076603Y00999*
X076607Y009994*
X076611Y009998*
X076614Y010002*
X076617Y010007*
X07662Y010012*
X076623Y010017*
X076625Y010022*
X076626Y010027*
X076628Y010033*
X076629Y010038*
X076629Y010044*
X07663Y01005*
X06013Y00905D02*
D01*
X060129Y009055*
X060129Y009061*
X060128Y009066*
X060126Y009072*
X060125Y009077*
X060123Y009082*
X06012Y009087*
X060117Y009092*
X060114Y009097*
X060111Y009101*
X060107Y009105*
X060103Y009109*
X060099Y009113*
X060094Y009116*
X06009Y009119*
X060085Y009121*
X060079Y009124*
X060074Y009126*
X060069Y009127*
X060063Y009128*
X060058Y009129*
X060052Y009129*
X060047*
X060041Y009129*
X060036Y009128*
X06003Y009127*
X060025Y009126*
X06002Y009124*
X060014Y009121*
X06001Y009119*
X060005Y009116*
X06Y009113*
X059996Y009109*
X059992Y009105*
X059988Y009101*
X059985Y009097*
X059982Y009092*
X059979Y009087*
X059976Y009082*
X059974Y009077*
X059973Y009072*
X059971Y009066*
X05997Y009061*
X05997Y009055*
X05997Y00905*
X05997Y009044*
X05997Y009038*
X059971Y009033*
X059973Y009027*
X059974Y009022*
X059976Y009017*
X059979Y009012*
X059982Y009007*
X059985Y009002*
X059988Y008998*
X059992Y008994*
X059996Y00899*
X06Y008986*
X060005Y008983*
X06001Y00898*
X060014Y008978*
X06002Y008975*
X060025Y008973*
X06003Y008972*
X060036Y008971*
X060041Y00897*
X060047Y00897*
X060052*
X060058Y00897*
X060063Y008971*
X060069Y008972*
X060074Y008973*
X060079Y008975*
X060085Y008978*
X06009Y00898*
X060094Y008983*
X060099Y008986*
X060103Y00899*
X060107Y008994*
X060111Y008998*
X060114Y009002*
X060117Y009007*
X06012Y009012*
X060123Y009017*
X060125Y009022*
X060126Y009027*
X060128Y009033*
X060129Y009038*
X060129Y009044*
X06013Y00905*
Y01005D02*
D01*
X060129Y010055*
X060129Y010061*
X060128Y010066*
X060126Y010072*
X060125Y010077*
X060123Y010082*
X06012Y010087*
X060117Y010092*
X060114Y010097*
X060111Y010101*
X060107Y010105*
X060103Y010109*
X060099Y010113*
X060094Y010116*
X06009Y010119*
X060085Y010121*
X060079Y010124*
X060074Y010126*
X060069Y010127*
X060063Y010128*
X060058Y010129*
X060052Y010129*
X060047*
X060041Y010129*
X060036Y010128*
X06003Y010127*
X060025Y010126*
X06002Y010124*
X060014Y010121*
X06001Y010119*
X060005Y010116*
X06Y010113*
X059996Y010109*
X059992Y010105*
X059988Y010101*
X059985Y010097*
X059982Y010092*
X059979Y010087*
X059976Y010082*
X059974Y010077*
X059973Y010072*
X059971Y010066*
X05997Y010061*
X05997Y010055*
X05997Y01005*
X05997Y010044*
X05997Y010038*
X059971Y010033*
X059973Y010027*
X059974Y010022*
X059976Y010017*
X059979Y010012*
X059982Y010007*
X059985Y010002*
X059988Y009998*
X059992Y009994*
X059996Y00999*
X06Y009986*
X060005Y009983*
X06001Y00998*
X060014Y009978*
X06002Y009975*
X060025Y009973*
X06003Y009972*
X060036Y009971*
X060041Y00997*
X060047Y00997*
X060052*
X060058Y00997*
X060063Y009971*
X060069Y009972*
X060074Y009973*
X060079Y009975*
X060085Y009978*
X06009Y00998*
X060094Y009983*
X060099Y009986*
X060103Y00999*
X060107Y009994*
X060111Y009998*
X060114Y010002*
X060117Y010007*
X06012Y010012*
X060123Y010017*
X060125Y010022*
X060126Y010027*
X060128Y010033*
X060129Y010038*
X060129Y010044*
X06013Y01005*
X06113Y00905D02*
D01*
X061129Y009055*
X061129Y009061*
X061128Y009066*
X061126Y009072*
X061125Y009077*
X061123Y009082*
X06112Y009087*
X061117Y009092*
X061114Y009097*
X061111Y009101*
X061107Y009105*
X061103Y009109*
X061099Y009113*
X061094Y009116*
X06109Y009119*
X061085Y009121*
X061079Y009124*
X061074Y009126*
X061069Y009127*
X061063Y009128*
X061058Y009129*
X061052Y009129*
X061047*
X061041Y009129*
X061036Y009128*
X06103Y009127*
X061025Y009126*
X06102Y009124*
X061014Y009121*
X06101Y009119*
X061005Y009116*
X061Y009113*
X060996Y009109*
X060992Y009105*
X060988Y009101*
X060985Y009097*
X060982Y009092*
X060979Y009087*
X060976Y009082*
X060974Y009077*
X060973Y009072*
X060971Y009066*
X06097Y009061*
X06097Y009055*
X06097Y00905*
X06097Y009044*
X06097Y009038*
X060971Y009033*
X060973Y009027*
X060974Y009022*
X060976Y009017*
X060979Y009012*
X060982Y009007*
X060985Y009002*
X060988Y008998*
X060992Y008994*
X060996Y00899*
X061Y008986*
X061005Y008983*
X06101Y00898*
X061014Y008978*
X06102Y008975*
X061025Y008973*
X06103Y008972*
X061036Y008971*
X061041Y00897*
X061047Y00897*
X061052*
X061058Y00897*
X061063Y008971*
X061069Y008972*
X061074Y008973*
X061079Y008975*
X061085Y008978*
X06109Y00898*
X061094Y008983*
X061099Y008986*
X061103Y00899*
X061107Y008994*
X061111Y008998*
X061114Y009002*
X061117Y009007*
X06112Y009012*
X061123Y009017*
X061125Y009022*
X061126Y009027*
X061128Y009033*
X061129Y009038*
X061129Y009044*
X06113Y00905*
Y01005D02*
D01*
X061129Y010055*
X061129Y010061*
X061128Y010066*
X061126Y010072*
X061125Y010077*
X061123Y010082*
X06112Y010087*
X061117Y010092*
X061114Y010097*
X061111Y010101*
X061107Y010105*
X061103Y010109*
X061099Y010113*
X061094Y010116*
X06109Y010119*
X061085Y010121*
X061079Y010124*
X061074Y010126*
X061069Y010127*
X061063Y010128*
X061058Y010129*
X061052Y010129*
X061047*
X061041Y010129*
X061036Y010128*
X06103Y010127*
X061025Y010126*
X06102Y010124*
X061014Y010121*
X06101Y010119*
X061005Y010116*
X061Y010113*
X060996Y010109*
X060992Y010105*
X060988Y010101*
X060985Y010097*
X060982Y010092*
X060979Y010087*
X060976Y010082*
X060974Y010077*
X060973Y010072*
X060971Y010066*
X06097Y010061*
X06097Y010055*
X06097Y01005*
X06097Y010044*
X06097Y010038*
X060971Y010033*
X060973Y010027*
X060974Y010022*
X060976Y010017*
X060979Y010012*
X060982Y010007*
X060985Y010002*
X060988Y009998*
X060992Y009994*
X060996Y00999*
X061Y009986*
X061005Y009983*
X06101Y00998*
X061014Y009978*
X06102Y009975*
X061025Y009973*
X06103Y009972*
X061036Y009971*
X061041Y00997*
X061047Y00997*
X061052*
X061058Y00997*
X061063Y009971*
X061069Y009972*
X061074Y009973*
X061079Y009975*
X061085Y009978*
X06109Y00998*
X061094Y009983*
X061099Y009986*
X061103Y00999*
X061107Y009994*
X061111Y009998*
X061114Y010002*
X061117Y010007*
X06112Y010012*
X061123Y010017*
X061125Y010022*
X061126Y010027*
X061128Y010033*
X061129Y010038*
X061129Y010044*
X06113Y01005*
X06213Y00905D02*
D01*
X062129Y009055*
X062129Y009061*
X062128Y009066*
X062126Y009072*
X062125Y009077*
X062123Y009082*
X06212Y009087*
X062117Y009092*
X062114Y009097*
X062111Y009101*
X062107Y009105*
X062103Y009109*
X062099Y009113*
X062094Y009116*
X06209Y009119*
X062085Y009121*
X062079Y009124*
X062074Y009126*
X062069Y009127*
X062063Y009128*
X062058Y009129*
X062052Y009129*
X062047*
X062041Y009129*
X062036Y009128*
X06203Y009127*
X062025Y009126*
X06202Y009124*
X062014Y009121*
X06201Y009119*
X062005Y009116*
X062Y009113*
X061996Y009109*
X061992Y009105*
X061988Y009101*
X061985Y009097*
X061982Y009092*
X061979Y009087*
X061976Y009082*
X061974Y009077*
X061973Y009072*
X061971Y009066*
X06197Y009061*
X06197Y009055*
X06197Y00905*
X06197Y009044*
X06197Y009038*
X061971Y009033*
X061973Y009027*
X061974Y009022*
X061976Y009017*
X061979Y009012*
X061982Y009007*
X061985Y009002*
X061988Y008998*
X061992Y008994*
X061996Y00899*
X062Y008986*
X062005Y008983*
X06201Y00898*
X062014Y008978*
X06202Y008975*
X062025Y008973*
X06203Y008972*
X062036Y008971*
X062041Y00897*
X062047Y00897*
X062052*
X062058Y00897*
X062063Y008971*
X062069Y008972*
X062074Y008973*
X062079Y008975*
X062085Y008978*
X06209Y00898*
X062094Y008983*
X062099Y008986*
X062103Y00899*
X062107Y008994*
X062111Y008998*
X062114Y009002*
X062117Y009007*
X06212Y009012*
X062123Y009017*
X062125Y009022*
X062126Y009027*
X062128Y009033*
X062129Y009038*
X062129Y009044*
X06213Y00905*
Y01005D02*
D01*
X062129Y010055*
X062129Y010061*
X062128Y010066*
X062126Y010072*
X062125Y010077*
X062123Y010082*
X06212Y010087*
X062117Y010092*
X062114Y010097*
X062111Y010101*
X062107Y010105*
X062103Y010109*
X062099Y010113*
X062094Y010116*
X06209Y010119*
X062085Y010121*
X062079Y010124*
X062074Y010126*
X062069Y010127*
X062063Y010128*
X062058Y010129*
X062052Y010129*
X062047*
X062041Y010129*
X062036Y010128*
X06203Y010127*
X062025Y010126*
X06202Y010124*
X062014Y010121*
X06201Y010119*
X062005Y010116*
X062Y010113*
X061996Y010109*
X061992Y010105*
X061988Y010101*
X061985Y010097*
X061982Y010092*
X061979Y010087*
X061976Y010082*
X061974Y010077*
X061973Y010072*
X061971Y010066*
X06197Y010061*
X06197Y010055*
X06197Y01005*
X06197Y010044*
X06197Y010038*
X061971Y010033*
X061973Y010027*
X061974Y010022*
X061976Y010017*
X061979Y010012*
X061982Y010007*
X061985Y010002*
X061988Y009998*
X061992Y009994*
X061996Y00999*
X062Y009986*
X062005Y009983*
X06201Y00998*
X062014Y009978*
X06202Y009975*
X062025Y009973*
X06203Y009972*
X062036Y009971*
X062041Y00997*
X062047Y00997*
X062052*
X062058Y00997*
X062063Y009971*
X062069Y009972*
X062074Y009973*
X062079Y009975*
X062085Y009978*
X06209Y00998*
X062094Y009983*
X062099Y009986*
X062103Y00999*
X062107Y009994*
X062111Y009998*
X062114Y010002*
X062117Y010007*
X06212Y010012*
X062123Y010017*
X062125Y010022*
X062126Y010027*
X062128Y010033*
X062129Y010038*
X062129Y010044*
X06213Y01005*
X06313Y00905D02*
D01*
X063129Y009055*
X063129Y009061*
X063128Y009066*
X063126Y009072*
X063125Y009077*
X063123Y009082*
X06312Y009087*
X063117Y009092*
X063114Y009097*
X063111Y009101*
X063107Y009105*
X063103Y009109*
X063099Y009113*
X063094Y009116*
X06309Y009119*
X063085Y009121*
X063079Y009124*
X063074Y009126*
X063069Y009127*
X063063Y009128*
X063058Y009129*
X063052Y009129*
X063047*
X063041Y009129*
X063036Y009128*
X06303Y009127*
X063025Y009126*
X06302Y009124*
X063014Y009121*
X06301Y009119*
X063005Y009116*
X063Y009113*
X062996Y009109*
X062992Y009105*
X062988Y009101*
X062985Y009097*
X062982Y009092*
X062979Y009087*
X062976Y009082*
X062974Y009077*
X062973Y009072*
X062971Y009066*
X06297Y009061*
X06297Y009055*
X06297Y00905*
X06297Y009044*
X06297Y009038*
X062971Y009033*
X062973Y009027*
X062974Y009022*
X062976Y009017*
X062979Y009012*
X062982Y009007*
X062985Y009002*
X062988Y008998*
X062992Y008994*
X062996Y00899*
X063Y008986*
X063005Y008983*
X06301Y00898*
X063014Y008978*
X06302Y008975*
X063025Y008973*
X06303Y008972*
X063036Y008971*
X063041Y00897*
X063047Y00897*
X063052*
X063058Y00897*
X063063Y008971*
X063069Y008972*
X063074Y008973*
X063079Y008975*
X063085Y008978*
X06309Y00898*
X063094Y008983*
X063099Y008986*
X063103Y00899*
X063107Y008994*
X063111Y008998*
X063114Y009002*
X063117Y009007*
X06312Y009012*
X063123Y009017*
X063125Y009022*
X063126Y009027*
X063128Y009033*
X063129Y009038*
X063129Y009044*
X06313Y00905*
Y01005D02*
D01*
X063129Y010055*
X063129Y010061*
X063128Y010066*
X063126Y010072*
X063125Y010077*
X063123Y010082*
X06312Y010087*
X063117Y010092*
X063114Y010097*
X063111Y010101*
X063107Y010105*
X063103Y010109*
X063099Y010113*
X063094Y010116*
X06309Y010119*
X063085Y010121*
X063079Y010124*
X063074Y010126*
X063069Y010127*
X063063Y010128*
X063058Y010129*
X063052Y010129*
X063047*
X063041Y010129*
X063036Y010128*
X06303Y010127*
X063025Y010126*
X06302Y010124*
X063014Y010121*
X06301Y010119*
X063005Y010116*
X063Y010113*
X062996Y010109*
X062992Y010105*
X062988Y010101*
X062985Y010097*
X062982Y010092*
X062979Y010087*
X062976Y010082*
X062974Y010077*
X062973Y010072*
X062971Y010066*
X06297Y010061*
X06297Y010055*
X06297Y01005*
X06297Y010044*
X06297Y010038*
X062971Y010033*
X062973Y010027*
X062974Y010022*
X062976Y010017*
X062979Y010012*
X062982Y010007*
X062985Y010002*
X062988Y009998*
X062992Y009994*
X062996Y00999*
X063Y009986*
X063005Y009983*
X06301Y00998*
X063014Y009978*
X06302Y009975*
X063025Y009973*
X06303Y009972*
X063036Y009971*
X063041Y00997*
X063047Y00997*
X063052*
X063058Y00997*
X063063Y009971*
X063069Y009972*
X063074Y009973*
X063079Y009975*
X063085Y009978*
X06309Y00998*
X063094Y009983*
X063099Y009986*
X063103Y00999*
X063107Y009994*
X063111Y009998*
X063114Y010002*
X063117Y010007*
X06312Y010012*
X063123Y010017*
X063125Y010022*
X063126Y010027*
X063128Y010033*
X063129Y010038*
X063129Y010044*
X06313Y01005*
X06413Y00905D02*
D01*
X064129Y009055*
X064129Y009061*
X064128Y009066*
X064126Y009072*
X064125Y009077*
X064123Y009082*
X06412Y009087*
X064117Y009092*
X064114Y009097*
X064111Y009101*
X064107Y009105*
X064103Y009109*
X064099Y009113*
X064094Y009116*
X06409Y009119*
X064085Y009121*
X064079Y009124*
X064074Y009126*
X064069Y009127*
X064063Y009128*
X064058Y009129*
X064052Y009129*
X064047*
X064041Y009129*
X064036Y009128*
X06403Y009127*
X064025Y009126*
X06402Y009124*
X064014Y009121*
X06401Y009119*
X064005Y009116*
X064Y009113*
X063996Y009109*
X063992Y009105*
X063988Y009101*
X063985Y009097*
X063982Y009092*
X063979Y009087*
X063976Y009082*
X063974Y009077*
X063973Y009072*
X063971Y009066*
X06397Y009061*
X06397Y009055*
X06397Y00905*
X06397Y009044*
X06397Y009038*
X063971Y009033*
X063973Y009027*
X063974Y009022*
X063976Y009017*
X063979Y009012*
X063982Y009007*
X063985Y009002*
X063988Y008998*
X063992Y008994*
X063996Y00899*
X064Y008986*
X064005Y008983*
X06401Y00898*
X064014Y008978*
X06402Y008975*
X064025Y008973*
X06403Y008972*
X064036Y008971*
X064041Y00897*
X064047Y00897*
X064052*
X064058Y00897*
X064063Y008971*
X064069Y008972*
X064074Y008973*
X064079Y008975*
X064085Y008978*
X06409Y00898*
X064094Y008983*
X064099Y008986*
X064103Y00899*
X064107Y008994*
X064111Y008998*
X064114Y009002*
X064117Y009007*
X06412Y009012*
X064123Y009017*
X064125Y009022*
X064126Y009027*
X064128Y009033*
X064129Y009038*
X064129Y009044*
X06413Y00905*
Y01005D02*
D01*
X064129Y010055*
X064129Y010061*
X064128Y010066*
X064126Y010072*
X064125Y010077*
X064123Y010082*
X06412Y010087*
X064117Y010092*
X064114Y010097*
X064111Y010101*
X064107Y010105*
X064103Y010109*
X064099Y010113*
X064094Y010116*
X06409Y010119*
X064085Y010121*
X064079Y010124*
X064074Y010126*
X064069Y010127*
X064063Y010128*
X064058Y010129*
X064052Y010129*
X064047*
X064041Y010129*
X064036Y010128*
X06403Y010127*
X064025Y010126*
X06402Y010124*
X064014Y010121*
X06401Y010119*
X064005Y010116*
X064Y010113*
X063996Y010109*
X063992Y010105*
X063988Y010101*
X063985Y010097*
X063982Y010092*
X063979Y010087*
X063976Y010082*
X063974Y010077*
X063973Y010072*
X063971Y010066*
X06397Y010061*
X06397Y010055*
X06397Y01005*
X06397Y010044*
X06397Y010038*
X063971Y010033*
X063973Y010027*
X063974Y010022*
X063976Y010017*
X063979Y010012*
X063982Y010007*
X063985Y010002*
X063988Y009998*
X063992Y009994*
X063996Y00999*
X064Y009986*
X064005Y009983*
X06401Y00998*
X064014Y009978*
X06402Y009975*
X064025Y009973*
X06403Y009972*
X064036Y009971*
X064041Y00997*
X064047Y00997*
X064052*
X064058Y00997*
X064063Y009971*
X064069Y009972*
X064074Y009973*
X064079Y009975*
X064085Y009978*
X06409Y00998*
X064094Y009983*
X064099Y009986*
X064103Y00999*
X064107Y009994*
X064111Y009998*
X064114Y010002*
X064117Y010007*
X06412Y010012*
X064123Y010017*
X064125Y010022*
X064126Y010027*
X064128Y010033*
X064129Y010038*
X064129Y010044*
X06413Y01005*
X06513Y00905D02*
D01*
X065129Y009055*
X065129Y009061*
X065128Y009066*
X065126Y009072*
X065125Y009077*
X065123Y009082*
X06512Y009087*
X065117Y009092*
X065114Y009097*
X065111Y009101*
X065107Y009105*
X065103Y009109*
X065099Y009113*
X065094Y009116*
X06509Y009119*
X065085Y009121*
X065079Y009124*
X065074Y009126*
X065069Y009127*
X065063Y009128*
X065058Y009129*
X065052Y009129*
X065047*
X065041Y009129*
X065036Y009128*
X06503Y009127*
X065025Y009126*
X06502Y009124*
X065014Y009121*
X06501Y009119*
X065005Y009116*
X065Y009113*
X064996Y009109*
X064992Y009105*
X064988Y009101*
X064985Y009097*
X064982Y009092*
X064979Y009087*
X064976Y009082*
X064974Y009077*
X064973Y009072*
X064971Y009066*
X06497Y009061*
X06497Y009055*
X06497Y00905*
X06497Y009044*
X06497Y009038*
X064971Y009033*
X064973Y009027*
X064974Y009022*
X064976Y009017*
X064979Y009012*
X064982Y009007*
X064985Y009002*
X064988Y008998*
X064992Y008994*
X064996Y00899*
X065Y008986*
X065005Y008983*
X06501Y00898*
X065014Y008978*
X06502Y008975*
X065025Y008973*
X06503Y008972*
X065036Y008971*
X065041Y00897*
X065047Y00897*
X065052*
X065058Y00897*
X065063Y008971*
X065069Y008972*
X065074Y008973*
X065079Y008975*
X065085Y008978*
X06509Y00898*
X065094Y008983*
X065099Y008986*
X065103Y00899*
X065107Y008994*
X065111Y008998*
X065114Y009002*
X065117Y009007*
X06512Y009012*
X065123Y009017*
X065125Y009022*
X065126Y009027*
X065128Y009033*
X065129Y009038*
X065129Y009044*
X06513Y00905*
Y01005D02*
D01*
X065129Y010055*
X065129Y010061*
X065128Y010066*
X065126Y010072*
X065125Y010077*
X065123Y010082*
X06512Y010087*
X065117Y010092*
X065114Y010097*
X065111Y010101*
X065107Y010105*
X065103Y010109*
X065099Y010113*
X065094Y010116*
X06509Y010119*
X065085Y010121*
X065079Y010124*
X065074Y010126*
X065069Y010127*
X065063Y010128*
X065058Y010129*
X065052Y010129*
X065047*
X065041Y010129*
X065036Y010128*
X06503Y010127*
X065025Y010126*
X06502Y010124*
X065014Y010121*
X06501Y010119*
X065005Y010116*
X065Y010113*
X064996Y010109*
X064992Y010105*
X064988Y010101*
X064985Y010097*
X064982Y010092*
X064979Y010087*
X064976Y010082*
X064974Y010077*
X064973Y010072*
X064971Y010066*
X06497Y010061*
X06497Y010055*
X06497Y01005*
X06497Y010044*
X06497Y010038*
X064971Y010033*
X064973Y010027*
X064974Y010022*
X064976Y010017*
X064979Y010012*
X064982Y010007*
X064985Y010002*
X064988Y009998*
X064992Y009994*
X064996Y00999*
X065Y009986*
X065005Y009983*
X06501Y00998*
X065014Y009978*
X06502Y009975*
X065025Y009973*
X06503Y009972*
X065036Y009971*
X065041Y00997*
X065047Y00997*
X065052*
X065058Y00997*
X065063Y009971*
X065069Y009972*
X065074Y009973*
X065079Y009975*
X065085Y009978*
X06509Y00998*
X065094Y009983*
X065099Y009986*
X065103Y00999*
X065107Y009994*
X065111Y009998*
X065114Y010002*
X065117Y010007*
X06512Y010012*
X065123Y010017*
X065125Y010022*
X065126Y010027*
X065128Y010033*
X065129Y010038*
X065129Y010044*
X06513Y01005*
X06613Y00905D02*
D01*
X066129Y009055*
X066129Y009061*
X066128Y009066*
X066126Y009072*
X066125Y009077*
X066123Y009082*
X06612Y009087*
X066117Y009092*
X066114Y009097*
X066111Y009101*
X066107Y009105*
X066103Y009109*
X066099Y009113*
X066094Y009116*
X06609Y009119*
X066085Y009121*
X066079Y009124*
X066074Y009126*
X066069Y009127*
X066063Y009128*
X066058Y009129*
X066052Y009129*
X066047*
X066041Y009129*
X066036Y009128*
X06603Y009127*
X066025Y009126*
X06602Y009124*
X066014Y009121*
X06601Y009119*
X066005Y009116*
X066Y009113*
X065996Y009109*
X065992Y009105*
X065988Y009101*
X065985Y009097*
X065982Y009092*
X065979Y009087*
X065976Y009082*
X065974Y009077*
X065973Y009072*
X065971Y009066*
X06597Y009061*
X06597Y009055*
X06597Y00905*
X06597Y009044*
X06597Y009038*
X065971Y009033*
X065973Y009027*
X065974Y009022*
X065976Y009017*
X065979Y009012*
X065982Y009007*
X065985Y009002*
X065988Y008998*
X065992Y008994*
X065996Y00899*
X066Y008986*
X066005Y008983*
X06601Y00898*
X066014Y008978*
X06602Y008975*
X066025Y008973*
X06603Y008972*
X066036Y008971*
X066041Y00897*
X066047Y00897*
X066052*
X066058Y00897*
X066063Y008971*
X066069Y008972*
X066074Y008973*
X066079Y008975*
X066085Y008978*
X06609Y00898*
X066094Y008983*
X066099Y008986*
X066103Y00899*
X066107Y008994*
X066111Y008998*
X066114Y009002*
X066117Y009007*
X06612Y009012*
X066123Y009017*
X066125Y009022*
X066126Y009027*
X066128Y009033*
X066129Y009038*
X066129Y009044*
X06613Y00905*
Y01005D02*
D01*
X066129Y010055*
X066129Y010061*
X066128Y010066*
X066126Y010072*
X066125Y010077*
X066123Y010082*
X06612Y010087*
X066117Y010092*
X066114Y010097*
X066111Y010101*
X066107Y010105*
X066103Y010109*
X066099Y010113*
X066094Y010116*
X06609Y010119*
X066085Y010121*
X066079Y010124*
X066074Y010126*
X066069Y010127*
X066063Y010128*
X066058Y010129*
X066052Y010129*
X066047*
X066041Y010129*
X066036Y010128*
X06603Y010127*
X066025Y010126*
X06602Y010124*
X066014Y010121*
X06601Y010119*
X066005Y010116*
X066Y010113*
X065996Y010109*
X065992Y010105*
X065988Y010101*
X065985Y010097*
X065982Y010092*
X065979Y010087*
X065976Y010082*
X065974Y010077*
X065973Y010072*
X065971Y010066*
X06597Y010061*
X06597Y010055*
X06597Y01005*
X06597Y010044*
X06597Y010038*
X065971Y010033*
X065973Y010027*
X065974Y010022*
X065976Y010017*
X065979Y010012*
X065982Y010007*
X065985Y010002*
X065988Y009998*
X065992Y009994*
X065996Y00999*
X066Y009986*
X066005Y009983*
X06601Y00998*
X066014Y009978*
X06602Y009975*
X066025Y009973*
X06603Y009972*
X066036Y009971*
X066041Y00997*
X066047Y00997*
X066052*
X066058Y00997*
X066063Y009971*
X066069Y009972*
X066074Y009973*
X066079Y009975*
X066085Y009978*
X06609Y00998*
X066094Y009983*
X066099Y009986*
X066103Y00999*
X066107Y009994*
X066111Y009998*
X066114Y010002*
X066117Y010007*
X06612Y010012*
X066123Y010017*
X066125Y010022*
X066126Y010027*
X066128Y010033*
X066129Y010038*
X066129Y010044*
X06613Y01005*
X04963Y00905D02*
D01*
X049629Y009055*
X049629Y009061*
X049628Y009066*
X049626Y009072*
X049625Y009077*
X049623Y009082*
X04962Y009087*
X049617Y009092*
X049614Y009097*
X049611Y009101*
X049607Y009105*
X049603Y009109*
X049599Y009113*
X049594Y009116*
X04959Y009119*
X049585Y009121*
X049579Y009124*
X049574Y009126*
X049569Y009127*
X049563Y009128*
X049558Y009129*
X049552Y009129*
X049547*
X049541Y009129*
X049536Y009128*
X04953Y009127*
X049525Y009126*
X04952Y009124*
X049514Y009121*
X04951Y009119*
X049505Y009116*
X0495Y009113*
X049496Y009109*
X049492Y009105*
X049488Y009101*
X049485Y009097*
X049482Y009092*
X049479Y009087*
X049476Y009082*
X049474Y009077*
X049473Y009072*
X049471Y009066*
X04947Y009061*
X04947Y009055*
X04947Y00905*
X04947Y009044*
X04947Y009038*
X049471Y009033*
X049473Y009027*
X049474Y009022*
X049476Y009017*
X049479Y009012*
X049482Y009007*
X049485Y009002*
X049488Y008998*
X049492Y008994*
X049496Y00899*
X0495Y008986*
X049505Y008983*
X04951Y00898*
X049514Y008978*
X04952Y008975*
X049525Y008973*
X04953Y008972*
X049536Y008971*
X049541Y00897*
X049547Y00897*
X049552*
X049558Y00897*
X049563Y008971*
X049569Y008972*
X049574Y008973*
X049579Y008975*
X049585Y008978*
X04959Y00898*
X049594Y008983*
X049599Y008986*
X049603Y00899*
X049607Y008994*
X049611Y008998*
X049614Y009002*
X049617Y009007*
X04962Y009012*
X049623Y009017*
X049625Y009022*
X049626Y009027*
X049628Y009033*
X049629Y009038*
X049629Y009044*
X04963Y00905*
Y01005D02*
D01*
X049629Y010055*
X049629Y010061*
X049628Y010066*
X049626Y010072*
X049625Y010077*
X049623Y010082*
X04962Y010087*
X049617Y010092*
X049614Y010097*
X049611Y010101*
X049607Y010105*
X049603Y010109*
X049599Y010113*
X049594Y010116*
X04959Y010119*
X049585Y010121*
X049579Y010124*
X049574Y010126*
X049569Y010127*
X049563Y010128*
X049558Y010129*
X049552Y010129*
X049547*
X049541Y010129*
X049536Y010128*
X04953Y010127*
X049525Y010126*
X04952Y010124*
X049514Y010121*
X04951Y010119*
X049505Y010116*
X0495Y010113*
X049496Y010109*
X049492Y010105*
X049488Y010101*
X049485Y010097*
X049482Y010092*
X049479Y010087*
X049476Y010082*
X049474Y010077*
X049473Y010072*
X049471Y010066*
X04947Y010061*
X04947Y010055*
X04947Y01005*
X04947Y010044*
X04947Y010038*
X049471Y010033*
X049473Y010027*
X049474Y010022*
X049476Y010017*
X049479Y010012*
X049482Y010007*
X049485Y010002*
X049488Y009998*
X049492Y009994*
X049496Y00999*
X0495Y009986*
X049505Y009983*
X04951Y00998*
X049514Y009978*
X04952Y009975*
X049525Y009973*
X04953Y009972*
X049536Y009971*
X049541Y00997*
X049547Y00997*
X049552*
X049558Y00997*
X049563Y009971*
X049569Y009972*
X049574Y009973*
X049579Y009975*
X049585Y009978*
X04959Y00998*
X049594Y009983*
X049599Y009986*
X049603Y00999*
X049607Y009994*
X049611Y009998*
X049614Y010002*
X049617Y010007*
X04962Y010012*
X049623Y010017*
X049625Y010022*
X049626Y010027*
X049628Y010033*
X049629Y010038*
X049629Y010044*
X04963Y01005*
X05063Y00905D02*
D01*
X050629Y009055*
X050629Y009061*
X050628Y009066*
X050626Y009072*
X050625Y009077*
X050623Y009082*
X05062Y009087*
X050617Y009092*
X050614Y009097*
X050611Y009101*
X050607Y009105*
X050603Y009109*
X050599Y009113*
X050594Y009116*
X05059Y009119*
X050585Y009121*
X050579Y009124*
X050574Y009126*
X050569Y009127*
X050563Y009128*
X050558Y009129*
X050552Y009129*
X050547*
X050541Y009129*
X050536Y009128*
X05053Y009127*
X050525Y009126*
X05052Y009124*
X050514Y009121*
X05051Y009119*
X050505Y009116*
X0505Y009113*
X050496Y009109*
X050492Y009105*
X050488Y009101*
X050485Y009097*
X050482Y009092*
X050479Y009087*
X050476Y009082*
X050474Y009077*
X050473Y009072*
X050471Y009066*
X05047Y009061*
X05047Y009055*
X05047Y00905*
X05047Y009044*
X05047Y009038*
X050471Y009033*
X050473Y009027*
X050474Y009022*
X050476Y009017*
X050479Y009012*
X050482Y009007*
X050485Y009002*
X050488Y008998*
X050492Y008994*
X050496Y00899*
X0505Y008986*
X050505Y008983*
X05051Y00898*
X050514Y008978*
X05052Y008975*
X050525Y008973*
X05053Y008972*
X050536Y008971*
X050541Y00897*
X050547Y00897*
X050552*
X050558Y00897*
X050563Y008971*
X050569Y008972*
X050574Y008973*
X050579Y008975*
X050585Y008978*
X05059Y00898*
X050594Y008983*
X050599Y008986*
X050603Y00899*
X050607Y008994*
X050611Y008998*
X050614Y009002*
X050617Y009007*
X05062Y009012*
X050623Y009017*
X050625Y009022*
X050626Y009027*
X050628Y009033*
X050629Y009038*
X050629Y009044*
X05063Y00905*
Y01005D02*
D01*
X050629Y010055*
X050629Y010061*
X050628Y010066*
X050626Y010072*
X050625Y010077*
X050623Y010082*
X05062Y010087*
X050617Y010092*
X050614Y010097*
X050611Y010101*
X050607Y010105*
X050603Y010109*
X050599Y010113*
X050594Y010116*
X05059Y010119*
X050585Y010121*
X050579Y010124*
X050574Y010126*
X050569Y010127*
X050563Y010128*
X050558Y010129*
X050552Y010129*
X050547*
X050541Y010129*
X050536Y010128*
X05053Y010127*
X050525Y010126*
X05052Y010124*
X050514Y010121*
X05051Y010119*
X050505Y010116*
X0505Y010113*
X050496Y010109*
X050492Y010105*
X050488Y010101*
X050485Y010097*
X050482Y010092*
X050479Y010087*
X050476Y010082*
X050474Y010077*
X050473Y010072*
X050471Y010066*
X05047Y010061*
X05047Y010055*
X05047Y01005*
X05047Y010044*
X05047Y010038*
X050471Y010033*
X050473Y010027*
X050474Y010022*
X050476Y010017*
X050479Y010012*
X050482Y010007*
X050485Y010002*
X050488Y009998*
X050492Y009994*
X050496Y00999*
X0505Y009986*
X050505Y009983*
X05051Y00998*
X050514Y009978*
X05052Y009975*
X050525Y009973*
X05053Y009972*
X050536Y009971*
X050541Y00997*
X050547Y00997*
X050552*
X050558Y00997*
X050563Y009971*
X050569Y009972*
X050574Y009973*
X050579Y009975*
X050585Y009978*
X05059Y00998*
X050594Y009983*
X050599Y009986*
X050603Y00999*
X050607Y009994*
X050611Y009998*
X050614Y010002*
X050617Y010007*
X05062Y010012*
X050623Y010017*
X050625Y010022*
X050626Y010027*
X050628Y010033*
X050629Y010038*
X050629Y010044*
X05063Y01005*
X05163Y00905D02*
D01*
X051629Y009055*
X051629Y009061*
X051628Y009066*
X051626Y009072*
X051625Y009077*
X051623Y009082*
X05162Y009087*
X051617Y009092*
X051614Y009097*
X051611Y009101*
X051607Y009105*
X051603Y009109*
X051599Y009113*
X051594Y009116*
X05159Y009119*
X051585Y009121*
X051579Y009124*
X051574Y009126*
X051569Y009127*
X051563Y009128*
X051558Y009129*
X051552Y009129*
X051547*
X051541Y009129*
X051536Y009128*
X05153Y009127*
X051525Y009126*
X05152Y009124*
X051514Y009121*
X05151Y009119*
X051505Y009116*
X0515Y009113*
X051496Y009109*
X051492Y009105*
X051488Y009101*
X051485Y009097*
X051482Y009092*
X051479Y009087*
X051476Y009082*
X051474Y009077*
X051473Y009072*
X051471Y009066*
X05147Y009061*
X05147Y009055*
X05147Y00905*
X05147Y009044*
X05147Y009038*
X051471Y009033*
X051473Y009027*
X051474Y009022*
X051476Y009017*
X051479Y009012*
X051482Y009007*
X051485Y009002*
X051488Y008998*
X051492Y008994*
X051496Y00899*
X0515Y008986*
X051505Y008983*
X05151Y00898*
X051514Y008978*
X05152Y008975*
X051525Y008973*
X05153Y008972*
X051536Y008971*
X051541Y00897*
X051547Y00897*
X051552*
X051558Y00897*
X051563Y008971*
X051569Y008972*
X051574Y008973*
X051579Y008975*
X051585Y008978*
X05159Y00898*
X051594Y008983*
X051599Y008986*
X051603Y00899*
X051607Y008994*
X051611Y008998*
X051614Y009002*
X051617Y009007*
X05162Y009012*
X051623Y009017*
X051625Y009022*
X051626Y009027*
X051628Y009033*
X051629Y009038*
X051629Y009044*
X05163Y00905*
Y01005D02*
D01*
X051629Y010055*
X051629Y010061*
X051628Y010066*
X051626Y010072*
X051625Y010077*
X051623Y010082*
X05162Y010087*
X051617Y010092*
X051614Y010097*
X051611Y010101*
X051607Y010105*
X051603Y010109*
X051599Y010113*
X051594Y010116*
X05159Y010119*
X051585Y010121*
X051579Y010124*
X051574Y010126*
X051569Y010127*
X051563Y010128*
X051558Y010129*
X051552Y010129*
X051547*
X051541Y010129*
X051536Y010128*
X05153Y010127*
X051525Y010126*
X05152Y010124*
X051514Y010121*
X05151Y010119*
X051505Y010116*
X0515Y010113*
X051496Y010109*
X051492Y010105*
X051488Y010101*
X051485Y010097*
X051482Y010092*
X051479Y010087*
X051476Y010082*
X051474Y010077*
X051473Y010072*
X051471Y010066*
X05147Y010061*
X05147Y010055*
X05147Y01005*
X05147Y010044*
X05147Y010038*
X051471Y010033*
X051473Y010027*
X051474Y010022*
X051476Y010017*
X051479Y010012*
X051482Y010007*
X051485Y010002*
X051488Y009998*
X051492Y009994*
X051496Y00999*
X0515Y009986*
X051505Y009983*
X05151Y00998*
X051514Y009978*
X05152Y009975*
X051525Y009973*
X05153Y009972*
X051536Y009971*
X051541Y00997*
X051547Y00997*
X051552*
X051558Y00997*
X051563Y009971*
X051569Y009972*
X051574Y009973*
X051579Y009975*
X051585Y009978*
X05159Y00998*
X051594Y009983*
X051599Y009986*
X051603Y00999*
X051607Y009994*
X051611Y009998*
X051614Y010002*
X051617Y010007*
X05162Y010012*
X051623Y010017*
X051625Y010022*
X051626Y010027*
X051628Y010033*
X051629Y010038*
X051629Y010044*
X05163Y01005*
X05263Y00905D02*
D01*
X052629Y009055*
X052629Y009061*
X052628Y009066*
X052626Y009072*
X052625Y009077*
X052623Y009082*
X05262Y009087*
X052617Y009092*
X052614Y009097*
X052611Y009101*
X052607Y009105*
X052603Y009109*
X052599Y009113*
X052594Y009116*
X05259Y009119*
X052585Y009121*
X052579Y009124*
X052574Y009126*
X052569Y009127*
X052563Y009128*
X052558Y009129*
X052552Y009129*
X052547*
X052541Y009129*
X052536Y009128*
X05253Y009127*
X052525Y009126*
X05252Y009124*
X052514Y009121*
X05251Y009119*
X052505Y009116*
X0525Y009113*
X052496Y009109*
X052492Y009105*
X052488Y009101*
X052485Y009097*
X052482Y009092*
X052479Y009087*
X052476Y009082*
X052474Y009077*
X052473Y009072*
X052471Y009066*
X05247Y009061*
X05247Y009055*
X05247Y00905*
X05247Y009044*
X05247Y009038*
X052471Y009033*
X052473Y009027*
X052474Y009022*
X052476Y009017*
X052479Y009012*
X052482Y009007*
X052485Y009002*
X052488Y008998*
X052492Y008994*
X052496Y00899*
X0525Y008986*
X052505Y008983*
X05251Y00898*
X052514Y008978*
X05252Y008975*
X052525Y008973*
X05253Y008972*
X052536Y008971*
X052541Y00897*
X052547Y00897*
X052552*
X052558Y00897*
X052563Y008971*
X052569Y008972*
X052574Y008973*
X052579Y008975*
X052585Y008978*
X05259Y00898*
X052594Y008983*
X052599Y008986*
X052603Y00899*
X052607Y008994*
X052611Y008998*
X052614Y009002*
X052617Y009007*
X05262Y009012*
X052623Y009017*
X052625Y009022*
X052626Y009027*
X052628Y009033*
X052629Y009038*
X052629Y009044*
X05263Y00905*
Y01005D02*
D01*
X052629Y010055*
X052629Y010061*
X052628Y010066*
X052626Y010072*
X052625Y010077*
X052623Y010082*
X05262Y010087*
X052617Y010092*
X052614Y010097*
X052611Y010101*
X052607Y010105*
X052603Y010109*
X052599Y010113*
X052594Y010116*
X05259Y010119*
X052585Y010121*
X052579Y010124*
X052574Y010126*
X052569Y010127*
X052563Y010128*
X052558Y010129*
X052552Y010129*
X052547*
X052541Y010129*
X052536Y010128*
X05253Y010127*
X052525Y010126*
X05252Y010124*
X052514Y010121*
X05251Y010119*
X052505Y010116*
X0525Y010113*
X052496Y010109*
X052492Y010105*
X052488Y010101*
X052485Y010097*
X052482Y010092*
X052479Y010087*
X052476Y010082*
X052474Y010077*
X052473Y010072*
X052471Y010066*
X05247Y010061*
X05247Y010055*
X05247Y01005*
X05247Y010044*
X05247Y010038*
X052471Y010033*
X052473Y010027*
X052474Y010022*
X052476Y010017*
X052479Y010012*
X052482Y010007*
X052485Y010002*
X052488Y009998*
X052492Y009994*
X052496Y00999*
X0525Y009986*
X052505Y009983*
X05251Y00998*
X052514Y009978*
X05252Y009975*
X052525Y009973*
X05253Y009972*
X052536Y009971*
X052541Y00997*
X052547Y00997*
X052552*
X052558Y00997*
X052563Y009971*
X052569Y009972*
X052574Y009973*
X052579Y009975*
X052585Y009978*
X05259Y00998*
X052594Y009983*
X052599Y009986*
X052603Y00999*
X052607Y009994*
X052611Y009998*
X052614Y010002*
X052617Y010007*
X05262Y010012*
X052623Y010017*
X052625Y010022*
X052626Y010027*
X052628Y010033*
X052629Y010038*
X052629Y010044*
X05263Y01005*
X05363Y00905D02*
D01*
X053629Y009055*
X053629Y009061*
X053628Y009066*
X053626Y009072*
X053625Y009077*
X053623Y009082*
X05362Y009087*
X053617Y009092*
X053614Y009097*
X053611Y009101*
X053607Y009105*
X053603Y009109*
X053599Y009113*
X053594Y009116*
X05359Y009119*
X053585Y009121*
X053579Y009124*
X053574Y009126*
X053569Y009127*
X053563Y009128*
X053558Y009129*
X053552Y009129*
X053547*
X053541Y009129*
X053536Y009128*
X05353Y009127*
X053525Y009126*
X05352Y009124*
X053514Y009121*
X05351Y009119*
X053505Y009116*
X0535Y009113*
X053496Y009109*
X053492Y009105*
X053488Y009101*
X053485Y009097*
X053482Y009092*
X053479Y009087*
X053476Y009082*
X053474Y009077*
X053473Y009072*
X053471Y009066*
X05347Y009061*
X05347Y009055*
X05347Y00905*
X05347Y009044*
X05347Y009038*
X053471Y009033*
X053473Y009027*
X053474Y009022*
X053476Y009017*
X053479Y009012*
X053482Y009007*
X053485Y009002*
X053488Y008998*
X053492Y008994*
X053496Y00899*
X0535Y008986*
X053505Y008983*
X05351Y00898*
X053514Y008978*
X05352Y008975*
X053525Y008973*
X05353Y008972*
X053536Y008971*
X053541Y00897*
X053547Y00897*
X053552*
X053558Y00897*
X053563Y008971*
X053569Y008972*
X053574Y008973*
X053579Y008975*
X053585Y008978*
X05359Y00898*
X053594Y008983*
X053599Y008986*
X053603Y00899*
X053607Y008994*
X053611Y008998*
X053614Y009002*
X053617Y009007*
X05362Y009012*
X053623Y009017*
X053625Y009022*
X053626Y009027*
X053628Y009033*
X053629Y009038*
X053629Y009044*
X05363Y00905*
Y01005D02*
D01*
X053629Y010055*
X053629Y010061*
X053628Y010066*
X053626Y010072*
X053625Y010077*
X053623Y010082*
X05362Y010087*
X053617Y010092*
X053614Y010097*
X053611Y010101*
X053607Y010105*
X053603Y010109*
X053599Y010113*
X053594Y010116*
X05359Y010119*
X053585Y010121*
X053579Y010124*
X053574Y010126*
X053569Y010127*
X053563Y010128*
X053558Y010129*
X053552Y010129*
X053547*
X053541Y010129*
X053536Y010128*
X05353Y010127*
X053525Y010126*
X05352Y010124*
X053514Y010121*
X05351Y010119*
X053505Y010116*
X0535Y010113*
X053496Y010109*
X053492Y010105*
X053488Y010101*
X053485Y010097*
X053482Y010092*
X053479Y010087*
X053476Y010082*
X053474Y010077*
X053473Y010072*
X053471Y010066*
X05347Y010061*
X05347Y010055*
X05347Y01005*
X05347Y010044*
X05347Y010038*
X053471Y010033*
X053473Y010027*
X053474Y010022*
X053476Y010017*
X053479Y010012*
X053482Y010007*
X053485Y010002*
X053488Y009998*
X053492Y009994*
X053496Y00999*
X0535Y009986*
X053505Y009983*
X05351Y00998*
X053514Y009978*
X05352Y009975*
X053525Y009973*
X05353Y009972*
X053536Y009971*
X053541Y00997*
X053547Y00997*
X053552*
X053558Y00997*
X053563Y009971*
X053569Y009972*
X053574Y009973*
X053579Y009975*
X053585Y009978*
X05359Y00998*
X053594Y009983*
X053599Y009986*
X053603Y00999*
X053607Y009994*
X053611Y009998*
X053614Y010002*
X053617Y010007*
X05362Y010012*
X053623Y010017*
X053625Y010022*
X053626Y010027*
X053628Y010033*
X053629Y010038*
X053629Y010044*
X05363Y01005*
X05463Y00905D02*
D01*
X054629Y009055*
X054629Y009061*
X054628Y009066*
X054626Y009072*
X054625Y009077*
X054623Y009082*
X05462Y009087*
X054617Y009092*
X054614Y009097*
X054611Y009101*
X054607Y009105*
X054603Y009109*
X054599Y009113*
X054594Y009116*
X05459Y009119*
X054585Y009121*
X054579Y009124*
X054574Y009126*
X054569Y009127*
X054563Y009128*
X054558Y009129*
X054552Y009129*
X054547*
X054541Y009129*
X054536Y009128*
X05453Y009127*
X054525Y009126*
X05452Y009124*
X054514Y009121*
X05451Y009119*
X054505Y009116*
X0545Y009113*
X054496Y009109*
X054492Y009105*
X054488Y009101*
X054485Y009097*
X054482Y009092*
X054479Y009087*
X054476Y009082*
X054474Y009077*
X054473Y009072*
X054471Y009066*
X05447Y009061*
X05447Y009055*
X05447Y00905*
X05447Y009044*
X05447Y009038*
X054471Y009033*
X054473Y009027*
X054474Y009022*
X054476Y009017*
X054479Y009012*
X054482Y009007*
X054485Y009002*
X054488Y008998*
X054492Y008994*
X054496Y00899*
X0545Y008986*
X054505Y008983*
X05451Y00898*
X054514Y008978*
X05452Y008975*
X054525Y008973*
X05453Y008972*
X054536Y008971*
X054541Y00897*
X054547Y00897*
X054552*
X054558Y00897*
X054563Y008971*
X054569Y008972*
X054574Y008973*
X054579Y008975*
X054585Y008978*
X05459Y00898*
X054594Y008983*
X054599Y008986*
X054603Y00899*
X054607Y008994*
X054611Y008998*
X054614Y009002*
X054617Y009007*
X05462Y009012*
X054623Y009017*
X054625Y009022*
X054626Y009027*
X054628Y009033*
X054629Y009038*
X054629Y009044*
X05463Y00905*
Y01005D02*
D01*
X054629Y010055*
X054629Y010061*
X054628Y010066*
X054626Y010072*
X054625Y010077*
X054623Y010082*
X05462Y010087*
X054617Y010092*
X054614Y010097*
X054611Y010101*
X054607Y010105*
X054603Y010109*
X054599Y010113*
X054594Y010116*
X05459Y010119*
X054585Y010121*
X054579Y010124*
X054574Y010126*
X054569Y010127*
X054563Y010128*
X054558Y010129*
X054552Y010129*
X054547*
X054541Y010129*
X054536Y010128*
X05453Y010127*
X054525Y010126*
X05452Y010124*
X054514Y010121*
X05451Y010119*
X054505Y010116*
X0545Y010113*
X054496Y010109*
X054492Y010105*
X054488Y010101*
X054485Y010097*
X054482Y010092*
X054479Y010087*
X054476Y010082*
X054474Y010077*
X054473Y010072*
X054471Y010066*
X05447Y010061*
X05447Y010055*
X05447Y01005*
X05447Y010044*
X05447Y010038*
X054471Y010033*
X054473Y010027*
X054474Y010022*
X054476Y010017*
X054479Y010012*
X054482Y010007*
X054485Y010002*
X054488Y009998*
X054492Y009994*
X054496Y00999*
X0545Y009986*
X054505Y009983*
X05451Y00998*
X054514Y009978*
X05452Y009975*
X054525Y009973*
X05453Y009972*
X054536Y009971*
X054541Y00997*
X054547Y00997*
X054552*
X054558Y00997*
X054563Y009971*
X054569Y009972*
X054574Y009973*
X054579Y009975*
X054585Y009978*
X05459Y00998*
X054594Y009983*
X054599Y009986*
X054603Y00999*
X054607Y009994*
X054611Y009998*
X054614Y010002*
X054617Y010007*
X05462Y010012*
X054623Y010017*
X054625Y010022*
X054626Y010027*
X054628Y010033*
X054629Y010038*
X054629Y010044*
X05463Y01005*
X05563Y00905D02*
D01*
X055629Y009055*
X055629Y009061*
X055628Y009066*
X055626Y009072*
X055625Y009077*
X055623Y009082*
X05562Y009087*
X055617Y009092*
X055614Y009097*
X055611Y009101*
X055607Y009105*
X055603Y009109*
X055599Y009113*
X055594Y009116*
X05559Y009119*
X055585Y009121*
X055579Y009124*
X055574Y009126*
X055569Y009127*
X055563Y009128*
X055558Y009129*
X055552Y009129*
X055547*
X055541Y009129*
X055536Y009128*
X05553Y009127*
X055525Y009126*
X05552Y009124*
X055514Y009121*
X05551Y009119*
X055505Y009116*
X0555Y009113*
X055496Y009109*
X055492Y009105*
X055488Y009101*
X055485Y009097*
X055482Y009092*
X055479Y009087*
X055476Y009082*
X055474Y009077*
X055473Y009072*
X055471Y009066*
X05547Y009061*
X05547Y009055*
X05547Y00905*
X05547Y009044*
X05547Y009038*
X055471Y009033*
X055473Y009027*
X055474Y009022*
X055476Y009017*
X055479Y009012*
X055482Y009007*
X055485Y009002*
X055488Y008998*
X055492Y008994*
X055496Y00899*
X0555Y008986*
X055505Y008983*
X05551Y00898*
X055514Y008978*
X05552Y008975*
X055525Y008973*
X05553Y008972*
X055536Y008971*
X055541Y00897*
X055547Y00897*
X055552*
X055558Y00897*
X055563Y008971*
X055569Y008972*
X055574Y008973*
X055579Y008975*
X055585Y008978*
X05559Y00898*
X055594Y008983*
X055599Y008986*
X055603Y00899*
X055607Y008994*
X055611Y008998*
X055614Y009002*
X055617Y009007*
X05562Y009012*
X055623Y009017*
X055625Y009022*
X055626Y009027*
X055628Y009033*
X055629Y009038*
X055629Y009044*
X05563Y00905*
Y01005D02*
D01*
X055629Y010055*
X055629Y010061*
X055628Y010066*
X055626Y010072*
X055625Y010077*
X055623Y010082*
X05562Y010087*
X055617Y010092*
X055614Y010097*
X055611Y010101*
X055607Y010105*
X055603Y010109*
X055599Y010113*
X055594Y010116*
X05559Y010119*
X055585Y010121*
X055579Y010124*
X055574Y010126*
X055569Y010127*
X055563Y010128*
X055558Y010129*
X055552Y010129*
X055547*
X055541Y010129*
X055536Y010128*
X05553Y010127*
X055525Y010126*
X05552Y010124*
X055514Y010121*
X05551Y010119*
X055505Y010116*
X0555Y010113*
X055496Y010109*
X055492Y010105*
X055488Y010101*
X055485Y010097*
X055482Y010092*
X055479Y010087*
X055476Y010082*
X055474Y010077*
X055473Y010072*
X055471Y010066*
X05547Y010061*
X05547Y010055*
X05547Y01005*
X05547Y010044*
X05547Y010038*
X055471Y010033*
X055473Y010027*
X055474Y010022*
X055476Y010017*
X055479Y010012*
X055482Y010007*
X055485Y010002*
X055488Y009998*
X055492Y009994*
X055496Y00999*
X0555Y009986*
X055505Y009983*
X05551Y00998*
X055514Y009978*
X05552Y009975*
X055525Y009973*
X05553Y009972*
X055536Y009971*
X055541Y00997*
X055547Y00997*
X055552*
X055558Y00997*
X055563Y009971*
X055569Y009972*
X055574Y009973*
X055579Y009975*
X055585Y009978*
X05559Y00998*
X055594Y009983*
X055599Y009986*
X055603Y00999*
X055607Y009994*
X055611Y009998*
X055614Y010002*
X055617Y010007*
X05562Y010012*
X055623Y010017*
X055625Y010022*
X055626Y010027*
X055628Y010033*
X055629Y010038*
X055629Y010044*
X05563Y01005*
X03913Y00905D02*
D01*
X039129Y009055*
X039129Y009061*
X039128Y009066*
X039126Y009072*
X039125Y009077*
X039123Y009082*
X03912Y009087*
X039117Y009092*
X039114Y009097*
X039111Y009101*
X039107Y009105*
X039103Y009109*
X039099Y009113*
X039094Y009116*
X03909Y009119*
X039085Y009121*
X039079Y009124*
X039074Y009126*
X039069Y009127*
X039063Y009128*
X039058Y009129*
X039052Y009129*
X039047*
X039041Y009129*
X039036Y009128*
X03903Y009127*
X039025Y009126*
X03902Y009124*
X039014Y009121*
X03901Y009119*
X039005Y009116*
X039Y009113*
X038996Y009109*
X038992Y009105*
X038988Y009101*
X038985Y009097*
X038982Y009092*
X038979Y009087*
X038976Y009082*
X038974Y009077*
X038973Y009072*
X038971Y009066*
X03897Y009061*
X03897Y009055*
X03897Y00905*
X03897Y009044*
X03897Y009038*
X038971Y009033*
X038973Y009027*
X038974Y009022*
X038976Y009017*
X038979Y009012*
X038982Y009007*
X038985Y009002*
X038988Y008998*
X038992Y008994*
X038996Y00899*
X039Y008986*
X039005Y008983*
X03901Y00898*
X039014Y008978*
X03902Y008975*
X039025Y008973*
X03903Y008972*
X039036Y008971*
X039041Y00897*
X039047Y00897*
X039052*
X039058Y00897*
X039063Y008971*
X039069Y008972*
X039074Y008973*
X039079Y008975*
X039085Y008978*
X03909Y00898*
X039094Y008983*
X039099Y008986*
X039103Y00899*
X039107Y008994*
X039111Y008998*
X039114Y009002*
X039117Y009007*
X03912Y009012*
X039123Y009017*
X039125Y009022*
X039126Y009027*
X039128Y009033*
X039129Y009038*
X039129Y009044*
X03913Y00905*
Y01005D02*
D01*
X039129Y010055*
X039129Y010061*
X039128Y010066*
X039126Y010072*
X039125Y010077*
X039123Y010082*
X03912Y010087*
X039117Y010092*
X039114Y010097*
X039111Y010101*
X039107Y010105*
X039103Y010109*
X039099Y010113*
X039094Y010116*
X03909Y010119*
X039085Y010121*
X039079Y010124*
X039074Y010126*
X039069Y010127*
X039063Y010128*
X039058Y010129*
X039052Y010129*
X039047*
X039041Y010129*
X039036Y010128*
X03903Y010127*
X039025Y010126*
X03902Y010124*
X039014Y010121*
X03901Y010119*
X039005Y010116*
X039Y010113*
X038996Y010109*
X038992Y010105*
X038988Y010101*
X038985Y010097*
X038982Y010092*
X038979Y010087*
X038976Y010082*
X038974Y010077*
X038973Y010072*
X038971Y010066*
X03897Y010061*
X03897Y010055*
X03897Y01005*
X03897Y010044*
X03897Y010038*
X038971Y010033*
X038973Y010027*
X038974Y010022*
X038976Y010017*
X038979Y010012*
X038982Y010007*
X038985Y010002*
X038988Y009998*
X038992Y009994*
X038996Y00999*
X039Y009986*
X039005Y009983*
X03901Y00998*
X039014Y009978*
X03902Y009975*
X039025Y009973*
X03903Y009972*
X039036Y009971*
X039041Y00997*
X039047Y00997*
X039052*
X039058Y00997*
X039063Y009971*
X039069Y009972*
X039074Y009973*
X039079Y009975*
X039085Y009978*
X03909Y00998*
X039094Y009983*
X039099Y009986*
X039103Y00999*
X039107Y009994*
X039111Y009998*
X039114Y010002*
X039117Y010007*
X03912Y010012*
X039123Y010017*
X039125Y010022*
X039126Y010027*
X039128Y010033*
X039129Y010038*
X039129Y010044*
X03913Y01005*
X04013Y00905D02*
D01*
X040129Y009055*
X040129Y009061*
X040128Y009066*
X040126Y009072*
X040125Y009077*
X040123Y009082*
X04012Y009087*
X040117Y009092*
X040114Y009097*
X040111Y009101*
X040107Y009105*
X040103Y009109*
X040099Y009113*
X040094Y009116*
X04009Y009119*
X040085Y009121*
X040079Y009124*
X040074Y009126*
X040069Y009127*
X040063Y009128*
X040058Y009129*
X040052Y009129*
X040047*
X040041Y009129*
X040036Y009128*
X04003Y009127*
X040025Y009126*
X04002Y009124*
X040014Y009121*
X04001Y009119*
X040005Y009116*
X04Y009113*
X039996Y009109*
X039992Y009105*
X039988Y009101*
X039985Y009097*
X039982Y009092*
X039979Y009087*
X039976Y009082*
X039974Y009077*
X039973Y009072*
X039971Y009066*
X03997Y009061*
X03997Y009055*
X03997Y00905*
X03997Y009044*
X03997Y009038*
X039971Y009033*
X039973Y009027*
X039974Y009022*
X039976Y009017*
X039979Y009012*
X039982Y009007*
X039985Y009002*
X039988Y008998*
X039992Y008994*
X039996Y00899*
X04Y008986*
X040005Y008983*
X04001Y00898*
X040014Y008978*
X04002Y008975*
X040025Y008973*
X04003Y008972*
X040036Y008971*
X040041Y00897*
X040047Y00897*
X040052*
X040058Y00897*
X040063Y008971*
X040069Y008972*
X040074Y008973*
X040079Y008975*
X040085Y008978*
X04009Y00898*
X040094Y008983*
X040099Y008986*
X040103Y00899*
X040107Y008994*
X040111Y008998*
X040114Y009002*
X040117Y009007*
X04012Y009012*
X040123Y009017*
X040125Y009022*
X040126Y009027*
X040128Y009033*
X040129Y009038*
X040129Y009044*
X04013Y00905*
Y01005D02*
D01*
X040129Y010055*
X040129Y010061*
X040128Y010066*
X040126Y010072*
X040125Y010077*
X040123Y010082*
X04012Y010087*
X040117Y010092*
X040114Y010097*
X040111Y010101*
X040107Y010105*
X040103Y010109*
X040099Y010113*
X040094Y010116*
X04009Y010119*
X040085Y010121*
X040079Y010124*
X040074Y010126*
X040069Y010127*
X040063Y010128*
X040058Y010129*
X040052Y010129*
X040047*
X040041Y010129*
X040036Y010128*
X04003Y010127*
X040025Y010126*
X04002Y010124*
X040014Y010121*
X04001Y010119*
X040005Y010116*
X04Y010113*
X039996Y010109*
X039992Y010105*
X039988Y010101*
X039985Y010097*
X039982Y010092*
X039979Y010087*
X039976Y010082*
X039974Y010077*
X039973Y010072*
X039971Y010066*
X03997Y010061*
X03997Y010055*
X03997Y01005*
X03997Y010044*
X03997Y010038*
X039971Y010033*
X039973Y010027*
X039974Y010022*
X039976Y010017*
X039979Y010012*
X039982Y010007*
X039985Y010002*
X039988Y009998*
X039992Y009994*
X039996Y00999*
X04Y009986*
X040005Y009983*
X04001Y00998*
X040014Y009978*
X04002Y009975*
X040025Y009973*
X04003Y009972*
X040036Y009971*
X040041Y00997*
X040047Y00997*
X040052*
X040058Y00997*
X040063Y009971*
X040069Y009972*
X040074Y009973*
X040079Y009975*
X040085Y009978*
X04009Y00998*
X040094Y009983*
X040099Y009986*
X040103Y00999*
X040107Y009994*
X040111Y009998*
X040114Y010002*
X040117Y010007*
X04012Y010012*
X040123Y010017*
X040125Y010022*
X040126Y010027*
X040128Y010033*
X040129Y010038*
X040129Y010044*
X04013Y01005*
X04113Y00905D02*
D01*
X041129Y009055*
X041129Y009061*
X041128Y009066*
X041126Y009072*
X041125Y009077*
X041123Y009082*
X04112Y009087*
X041117Y009092*
X041114Y009097*
X041111Y009101*
X041107Y009105*
X041103Y009109*
X041099Y009113*
X041094Y009116*
X04109Y009119*
X041085Y009121*
X041079Y009124*
X041074Y009126*
X041069Y009127*
X041063Y009128*
X041058Y009129*
X041052Y009129*
X041047*
X041041Y009129*
X041036Y009128*
X04103Y009127*
X041025Y009126*
X04102Y009124*
X041014Y009121*
X04101Y009119*
X041005Y009116*
X041Y009113*
X040996Y009109*
X040992Y009105*
X040988Y009101*
X040985Y009097*
X040982Y009092*
X040979Y009087*
X040976Y009082*
X040974Y009077*
X040973Y009072*
X040971Y009066*
X04097Y009061*
X04097Y009055*
X04097Y00905*
X04097Y009044*
X04097Y009038*
X040971Y009033*
X040973Y009027*
X040974Y009022*
X040976Y009017*
X040979Y009012*
X040982Y009007*
X040985Y009002*
X040988Y008998*
X040992Y008994*
X040996Y00899*
X041Y008986*
X041005Y008983*
X04101Y00898*
X041014Y008978*
X04102Y008975*
X041025Y008973*
X04103Y008972*
X041036Y008971*
X041041Y00897*
X041047Y00897*
X041052*
X041058Y00897*
X041063Y008971*
X041069Y008972*
X041074Y008973*
X041079Y008975*
X041085Y008978*
X04109Y00898*
X041094Y008983*
X041099Y008986*
X041103Y00899*
X041107Y008994*
X041111Y008998*
X041114Y009002*
X041117Y009007*
X04112Y009012*
X041123Y009017*
X041125Y009022*
X041126Y009027*
X041128Y009033*
X041129Y009038*
X041129Y009044*
X04113Y00905*
Y01005D02*
D01*
X041129Y010055*
X041129Y010061*
X041128Y010066*
X041126Y010072*
X041125Y010077*
X041123Y010082*
X04112Y010087*
X041117Y010092*
X041114Y010097*
X041111Y010101*
X041107Y010105*
X041103Y010109*
X041099Y010113*
X041094Y010116*
X04109Y010119*
X041085Y010121*
X041079Y010124*
X041074Y010126*
X041069Y010127*
X041063Y010128*
X041058Y010129*
X041052Y010129*
X041047*
X041041Y010129*
X041036Y010128*
X04103Y010127*
X041025Y010126*
X04102Y010124*
X041014Y010121*
X04101Y010119*
X041005Y010116*
X041Y010113*
X040996Y010109*
X040992Y010105*
X040988Y010101*
X040985Y010097*
X040982Y010092*
X040979Y010087*
X040976Y010082*
X040974Y010077*
X040973Y010072*
X040971Y010066*
X04097Y010061*
X04097Y010055*
X04097Y01005*
X04097Y010044*
X04097Y010038*
X040971Y010033*
X040973Y010027*
X040974Y010022*
X040976Y010017*
X040979Y010012*
X040982Y010007*
X040985Y010002*
X040988Y009998*
X040992Y009994*
X040996Y00999*
X041Y009986*
X041005Y009983*
X04101Y00998*
X041014Y009978*
X04102Y009975*
X041025Y009973*
X04103Y009972*
X041036Y009971*
X041041Y00997*
X041047Y00997*
X041052*
X041058Y00997*
X041063Y009971*
X041069Y009972*
X041074Y009973*
X041079Y009975*
X041085Y009978*
X04109Y00998*
X041094Y009983*
X041099Y009986*
X041103Y00999*
X041107Y009994*
X041111Y009998*
X041114Y010002*
X041117Y010007*
X04112Y010012*
X041123Y010017*
X041125Y010022*
X041126Y010027*
X041128Y010033*
X041129Y010038*
X041129Y010044*
X04113Y01005*
X04213Y00905D02*
D01*
X042129Y009055*
X042129Y009061*
X042128Y009066*
X042126Y009072*
X042125Y009077*
X042123Y009082*
X04212Y009087*
X042117Y009092*
X042114Y009097*
X042111Y009101*
X042107Y009105*
X042103Y009109*
X042099Y009113*
X042094Y009116*
X04209Y009119*
X042085Y009121*
X042079Y009124*
X042074Y009126*
X042069Y009127*
X042063Y009128*
X042058Y009129*
X042052Y009129*
X042047*
X042041Y009129*
X042036Y009128*
X04203Y009127*
X042025Y009126*
X04202Y009124*
X042014Y009121*
X04201Y009119*
X042005Y009116*
X042Y009113*
X041996Y009109*
X041992Y009105*
X041988Y009101*
X041985Y009097*
X041982Y009092*
X041979Y009087*
X041976Y009082*
X041974Y009077*
X041973Y009072*
X041971Y009066*
X04197Y009061*
X04197Y009055*
X04197Y00905*
X04197Y009044*
X04197Y009038*
X041971Y009033*
X041973Y009027*
X041974Y009022*
X041976Y009017*
X041979Y009012*
X041982Y009007*
X041985Y009002*
X041988Y008998*
X041992Y008994*
X041996Y00899*
X042Y008986*
X042005Y008983*
X04201Y00898*
X042014Y008978*
X04202Y008975*
X042025Y008973*
X04203Y008972*
X042036Y008971*
X042041Y00897*
X042047Y00897*
X042052*
X042058Y00897*
X042063Y008971*
X042069Y008972*
X042074Y008973*
X042079Y008975*
X042085Y008978*
X04209Y00898*
X042094Y008983*
X042099Y008986*
X042103Y00899*
X042107Y008994*
X042111Y008998*
X042114Y009002*
X042117Y009007*
X04212Y009012*
X042123Y009017*
X042125Y009022*
X042126Y009027*
X042128Y009033*
X042129Y009038*
X042129Y009044*
X04213Y00905*
Y01005D02*
D01*
X042129Y010055*
X042129Y010061*
X042128Y010066*
X042126Y010072*
X042125Y010077*
X042123Y010082*
X04212Y010087*
X042117Y010092*
X042114Y010097*
X042111Y010101*
X042107Y010105*
X042103Y010109*
X042099Y010113*
X042094Y010116*
X04209Y010119*
X042085Y010121*
X042079Y010124*
X042074Y010126*
X042069Y010127*
X042063Y010128*
X042058Y010129*
X042052Y010129*
X042047*
X042041Y010129*
X042036Y010128*
X04203Y010127*
X042025Y010126*
X04202Y010124*
X042014Y010121*
X04201Y010119*
X042005Y010116*
X042Y010113*
X041996Y010109*
X041992Y010105*
X041988Y010101*
X041985Y010097*
X041982Y010092*
X041979Y010087*
X041976Y010082*
X041974Y010077*
X041973Y010072*
X041971Y010066*
X04197Y010061*
X04197Y010055*
X04197Y01005*
X04197Y010044*
X04197Y010038*
X041971Y010033*
X041973Y010027*
X041974Y010022*
X041976Y010017*
X041979Y010012*
X041982Y010007*
X041985Y010002*
X041988Y009998*
X041992Y009994*
X041996Y00999*
X042Y009986*
X042005Y009983*
X04201Y00998*
X042014Y009978*
X04202Y009975*
X042025Y009973*
X04203Y009972*
X042036Y009971*
X042041Y00997*
X042047Y00997*
X042052*
X042058Y00997*
X042063Y009971*
X042069Y009972*
X042074Y009973*
X042079Y009975*
X042085Y009978*
X04209Y00998*
X042094Y009983*
X042099Y009986*
X042103Y00999*
X042107Y009994*
X042111Y009998*
X042114Y010002*
X042117Y010007*
X04212Y010012*
X042123Y010017*
X042125Y010022*
X042126Y010027*
X042128Y010033*
X042129Y010038*
X042129Y010044*
X04213Y01005*
X04313Y00905D02*
D01*
X043129Y009055*
X043129Y009061*
X043128Y009066*
X043126Y009072*
X043125Y009077*
X043123Y009082*
X04312Y009087*
X043117Y009092*
X043114Y009097*
X043111Y009101*
X043107Y009105*
X043103Y009109*
X043099Y009113*
X043094Y009116*
X04309Y009119*
X043085Y009121*
X043079Y009124*
X043074Y009126*
X043069Y009127*
X043063Y009128*
X043058Y009129*
X043052Y009129*
X043047*
X043041Y009129*
X043036Y009128*
X04303Y009127*
X043025Y009126*
X04302Y009124*
X043014Y009121*
X04301Y009119*
X043005Y009116*
X043Y009113*
X042996Y009109*
X042992Y009105*
X042988Y009101*
X042985Y009097*
X042982Y009092*
X042979Y009087*
X042976Y009082*
X042974Y009077*
X042973Y009072*
X042971Y009066*
X04297Y009061*
X04297Y009055*
X04297Y00905*
X04297Y009044*
X04297Y009038*
X042971Y009033*
X042973Y009027*
X042974Y009022*
X042976Y009017*
X042979Y009012*
X042982Y009007*
X042985Y009002*
X042988Y008998*
X042992Y008994*
X042996Y00899*
X043Y008986*
X043005Y008983*
X04301Y00898*
X043014Y008978*
X04302Y008975*
X043025Y008973*
X04303Y008972*
X043036Y008971*
X043041Y00897*
X043047Y00897*
X043052*
X043058Y00897*
X043063Y008971*
X043069Y008972*
X043074Y008973*
X043079Y008975*
X043085Y008978*
X04309Y00898*
X043094Y008983*
X043099Y008986*
X043103Y00899*
X043107Y008994*
X043111Y008998*
X043114Y009002*
X043117Y009007*
X04312Y009012*
X043123Y009017*
X043125Y009022*
X043126Y009027*
X043128Y009033*
X043129Y009038*
X043129Y009044*
X04313Y00905*
Y01005D02*
D01*
X043129Y010055*
X043129Y010061*
X043128Y010066*
X043126Y010072*
X043125Y010077*
X043123Y010082*
X04312Y010087*
X043117Y010092*
X043114Y010097*
X043111Y010101*
X043107Y010105*
X043103Y010109*
X043099Y010113*
X043094Y010116*
X04309Y010119*
X043085Y010121*
X043079Y010124*
X043074Y010126*
X043069Y010127*
X043063Y010128*
X043058Y010129*
X043052Y010129*
X043047*
X043041Y010129*
X043036Y010128*
X04303Y010127*
X043025Y010126*
X04302Y010124*
X043014Y010121*
X04301Y010119*
X043005Y010116*
X043Y010113*
X042996Y010109*
X042992Y010105*
X042988Y010101*
X042985Y010097*
X042982Y010092*
X042979Y010087*
X042976Y010082*
X042974Y010077*
X042973Y010072*
X042971Y010066*
X04297Y010061*
X04297Y010055*
X04297Y01005*
X04297Y010044*
X04297Y010038*
X042971Y010033*
X042973Y010027*
X042974Y010022*
X042976Y010017*
X042979Y010012*
X042982Y010007*
X042985Y010002*
X042988Y009998*
X042992Y009994*
X042996Y00999*
X043Y009986*
X043005Y009983*
X04301Y00998*
X043014Y009978*
X04302Y009975*
X043025Y009973*
X04303Y009972*
X043036Y009971*
X043041Y00997*
X043047Y00997*
X043052*
X043058Y00997*
X043063Y009971*
X043069Y009972*
X043074Y009973*
X043079Y009975*
X043085Y009978*
X04309Y00998*
X043094Y009983*
X043099Y009986*
X043103Y00999*
X043107Y009994*
X043111Y009998*
X043114Y010002*
X043117Y010007*
X04312Y010012*
X043123Y010017*
X043125Y010022*
X043126Y010027*
X043128Y010033*
X043129Y010038*
X043129Y010044*
X04313Y01005*
X04413Y00905D02*
D01*
X044129Y009055*
X044129Y009061*
X044128Y009066*
X044126Y009072*
X044125Y009077*
X044123Y009082*
X04412Y009087*
X044117Y009092*
X044114Y009097*
X044111Y009101*
X044107Y009105*
X044103Y009109*
X044099Y009113*
X044094Y009116*
X04409Y009119*
X044085Y009121*
X044079Y009124*
X044074Y009126*
X044069Y009127*
X044063Y009128*
X044058Y009129*
X044052Y009129*
X044047*
X044041Y009129*
X044036Y009128*
X04403Y009127*
X044025Y009126*
X04402Y009124*
X044014Y009121*
X04401Y009119*
X044005Y009116*
X044Y009113*
X043996Y009109*
X043992Y009105*
X043988Y009101*
X043985Y009097*
X043982Y009092*
X043979Y009087*
X043976Y009082*
X043974Y009077*
X043973Y009072*
X043971Y009066*
X04397Y009061*
X04397Y009055*
X04397Y00905*
X04397Y009044*
X04397Y009038*
X043971Y009033*
X043973Y009027*
X043974Y009022*
X043976Y009017*
X043979Y009012*
X043982Y009007*
X043985Y009002*
X043988Y008998*
X043992Y008994*
X043996Y00899*
X044Y008986*
X044005Y008983*
X04401Y00898*
X044014Y008978*
X04402Y008975*
X044025Y008973*
X04403Y008972*
X044036Y008971*
X044041Y00897*
X044047Y00897*
X044052*
X044058Y00897*
X044063Y008971*
X044069Y008972*
X044074Y008973*
X044079Y008975*
X044085Y008978*
X04409Y00898*
X044094Y008983*
X044099Y008986*
X044103Y00899*
X044107Y008994*
X044111Y008998*
X044114Y009002*
X044117Y009007*
X04412Y009012*
X044123Y009017*
X044125Y009022*
X044126Y009027*
X044128Y009033*
X044129Y009038*
X044129Y009044*
X04413Y00905*
Y01005D02*
D01*
X044129Y010055*
X044129Y010061*
X044128Y010066*
X044126Y010072*
X044125Y010077*
X044123Y010082*
X04412Y010087*
X044117Y010092*
X044114Y010097*
X044111Y010101*
X044107Y010105*
X044103Y010109*
X044099Y010113*
X044094Y010116*
X04409Y010119*
X044085Y010121*
X044079Y010124*
X044074Y010126*
X044069Y010127*
X044063Y010128*
X044058Y010129*
X044052Y010129*
X044047*
X044041Y010129*
X044036Y010128*
X04403Y010127*
X044025Y010126*
X04402Y010124*
X044014Y010121*
X04401Y010119*
X044005Y010116*
X044Y010113*
X043996Y010109*
X043992Y010105*
X043988Y010101*
X043985Y010097*
X043982Y010092*
X043979Y010087*
X043976Y010082*
X043974Y010077*
X043973Y010072*
X043971Y010066*
X04397Y010061*
X04397Y010055*
X04397Y01005*
X04397Y010044*
X04397Y010038*
X043971Y010033*
X043973Y010027*
X043974Y010022*
X043976Y010017*
X043979Y010012*
X043982Y010007*
X043985Y010002*
X043988Y009998*
X043992Y009994*
X043996Y00999*
X044Y009986*
X044005Y009983*
X04401Y00998*
X044014Y009978*
X04402Y009975*
X044025Y009973*
X04403Y009972*
X044036Y009971*
X044041Y00997*
X044047Y00997*
X044052*
X044058Y00997*
X044063Y009971*
X044069Y009972*
X044074Y009973*
X044079Y009975*
X044085Y009978*
X04409Y00998*
X044094Y009983*
X044099Y009986*
X044103Y00999*
X044107Y009994*
X044111Y009998*
X044114Y010002*
X044117Y010007*
X04412Y010012*
X044123Y010017*
X044125Y010022*
X044126Y010027*
X044128Y010033*
X044129Y010038*
X044129Y010044*
X04413Y01005*
X04513Y00905D02*
D01*
X045129Y009055*
X045129Y009061*
X045128Y009066*
X045126Y009072*
X045125Y009077*
X045123Y009082*
X04512Y009087*
X045117Y009092*
X045114Y009097*
X045111Y009101*
X045107Y009105*
X045103Y009109*
X045099Y009113*
X045094Y009116*
X04509Y009119*
X045085Y009121*
X045079Y009124*
X045074Y009126*
X045069Y009127*
X045063Y009128*
X045058Y009129*
X045052Y009129*
X045047*
X045041Y009129*
X045036Y009128*
X04503Y009127*
X045025Y009126*
X04502Y009124*
X045014Y009121*
X04501Y009119*
X045005Y009116*
X045Y009113*
X044996Y009109*
X044992Y009105*
X044988Y009101*
X044985Y009097*
X044982Y009092*
X044979Y009087*
X044976Y009082*
X044974Y009077*
X044973Y009072*
X044971Y009066*
X04497Y009061*
X04497Y009055*
X04497Y00905*
X04497Y009044*
X04497Y009038*
X044971Y009033*
X044973Y009027*
X044974Y009022*
X044976Y009017*
X044979Y009012*
X044982Y009007*
X044985Y009002*
X044988Y008998*
X044992Y008994*
X044996Y00899*
X045Y008986*
X045005Y008983*
X04501Y00898*
X045014Y008978*
X04502Y008975*
X045025Y008973*
X04503Y008972*
X045036Y008971*
X045041Y00897*
X045047Y00897*
X045052*
X045058Y00897*
X045063Y008971*
X045069Y008972*
X045074Y008973*
X045079Y008975*
X045085Y008978*
X04509Y00898*
X045094Y008983*
X045099Y008986*
X045103Y00899*
X045107Y008994*
X045111Y008998*
X045114Y009002*
X045117Y009007*
X04512Y009012*
X045123Y009017*
X045125Y009022*
X045126Y009027*
X045128Y009033*
X045129Y009038*
X045129Y009044*
X04513Y00905*
Y01005D02*
D01*
X045129Y010055*
X045129Y010061*
X045128Y010066*
X045126Y010072*
X045125Y010077*
X045123Y010082*
X04512Y010087*
X045117Y010092*
X045114Y010097*
X045111Y010101*
X045107Y010105*
X045103Y010109*
X045099Y010113*
X045094Y010116*
X04509Y010119*
X045085Y010121*
X045079Y010124*
X045074Y010126*
X045069Y010127*
X045063Y010128*
X045058Y010129*
X045052Y010129*
X045047*
X045041Y010129*
X045036Y010128*
X04503Y010127*
X045025Y010126*
X04502Y010124*
X045014Y010121*
X04501Y010119*
X045005Y010116*
X045Y010113*
X044996Y010109*
X044992Y010105*
X044988Y010101*
X044985Y010097*
X044982Y010092*
X044979Y010087*
X044976Y010082*
X044974Y010077*
X044973Y010072*
X044971Y010066*
X04497Y010061*
X04497Y010055*
X04497Y01005*
X04497Y010044*
X04497Y010038*
X044971Y010033*
X044973Y010027*
X044974Y010022*
X044976Y010017*
X044979Y010012*
X044982Y010007*
X044985Y010002*
X044988Y009998*
X044992Y009994*
X044996Y00999*
X045Y009986*
X045005Y009983*
X04501Y00998*
X045014Y009978*
X04502Y009975*
X045025Y009973*
X04503Y009972*
X045036Y009971*
X045041Y00997*
X045047Y00997*
X045052*
X045058Y00997*
X045063Y009971*
X045069Y009972*
X045074Y009973*
X045079Y009975*
X045085Y009978*
X04509Y00998*
X045094Y009983*
X045099Y009986*
X045103Y00999*
X045107Y009994*
X045111Y009998*
X045114Y010002*
X045117Y010007*
X04512Y010012*
X045123Y010017*
X045125Y010022*
X045126Y010027*
X045128Y010033*
X045129Y010038*
X045129Y010044*
X04513Y01005*
X02863Y00905D02*
D01*
X028629Y009055*
X028629Y009061*
X028628Y009066*
X028626Y009072*
X028625Y009077*
X028623Y009082*
X02862Y009087*
X028617Y009092*
X028614Y009097*
X028611Y009101*
X028607Y009105*
X028603Y009109*
X028599Y009113*
X028594Y009116*
X02859Y009119*
X028585Y009121*
X028579Y009124*
X028574Y009126*
X028569Y009127*
X028563Y009128*
X028558Y009129*
X028552Y009129*
X028547*
X028541Y009129*
X028536Y009128*
X02853Y009127*
X028525Y009126*
X02852Y009124*
X028514Y009121*
X02851Y009119*
X028505Y009116*
X0285Y009113*
X028496Y009109*
X028492Y009105*
X028488Y009101*
X028485Y009097*
X028482Y009092*
X028479Y009087*
X028476Y009082*
X028474Y009077*
X028473Y009072*
X028471Y009066*
X02847Y009061*
X02847Y009055*
X02847Y00905*
X02847Y009044*
X02847Y009038*
X028471Y009033*
X028473Y009027*
X028474Y009022*
X028476Y009017*
X028479Y009012*
X028482Y009007*
X028485Y009002*
X028488Y008998*
X028492Y008994*
X028496Y00899*
X0285Y008986*
X028505Y008983*
X02851Y00898*
X028514Y008978*
X02852Y008975*
X028525Y008973*
X02853Y008972*
X028536Y008971*
X028541Y00897*
X028547Y00897*
X028552*
X028558Y00897*
X028563Y008971*
X028569Y008972*
X028574Y008973*
X028579Y008975*
X028585Y008978*
X02859Y00898*
X028594Y008983*
X028599Y008986*
X028603Y00899*
X028607Y008994*
X028611Y008998*
X028614Y009002*
X028617Y009007*
X02862Y009012*
X028623Y009017*
X028625Y009022*
X028626Y009027*
X028628Y009033*
X028629Y009038*
X028629Y009044*
X02863Y00905*
Y01005D02*
D01*
X028629Y010055*
X028629Y010061*
X028628Y010066*
X028626Y010072*
X028625Y010077*
X028623Y010082*
X02862Y010087*
X028617Y010092*
X028614Y010097*
X028611Y010101*
X028607Y010105*
X028603Y010109*
X028599Y010113*
X028594Y010116*
X02859Y010119*
X028585Y010121*
X028579Y010124*
X028574Y010126*
X028569Y010127*
X028563Y010128*
X028558Y010129*
X028552Y010129*
X028547*
X028541Y010129*
X028536Y010128*
X02853Y010127*
X028525Y010126*
X02852Y010124*
X028514Y010121*
X02851Y010119*
X028505Y010116*
X0285Y010113*
X028496Y010109*
X028492Y010105*
X028488Y010101*
X028485Y010097*
X028482Y010092*
X028479Y010087*
X028476Y010082*
X028474Y010077*
X028473Y010072*
X028471Y010066*
X02847Y010061*
X02847Y010055*
X02847Y01005*
X02847Y010044*
X02847Y010038*
X028471Y010033*
X028473Y010027*
X028474Y010022*
X028476Y010017*
X028479Y010012*
X028482Y010007*
X028485Y010002*
X028488Y009998*
X028492Y009994*
X028496Y00999*
X0285Y009986*
X028505Y009983*
X02851Y00998*
X028514Y009978*
X02852Y009975*
X028525Y009973*
X02853Y009972*
X028536Y009971*
X028541Y00997*
X028547Y00997*
X028552*
X028558Y00997*
X028563Y009971*
X028569Y009972*
X028574Y009973*
X028579Y009975*
X028585Y009978*
X02859Y00998*
X028594Y009983*
X028599Y009986*
X028603Y00999*
X028607Y009994*
X028611Y009998*
X028614Y010002*
X028617Y010007*
X02862Y010012*
X028623Y010017*
X028625Y010022*
X028626Y010027*
X028628Y010033*
X028629Y010038*
X028629Y010044*
X02863Y01005*
X02963Y00905D02*
D01*
X029629Y009055*
X029629Y009061*
X029628Y009066*
X029626Y009072*
X029625Y009077*
X029623Y009082*
X02962Y009087*
X029617Y009092*
X029614Y009097*
X029611Y009101*
X029607Y009105*
X029603Y009109*
X029599Y009113*
X029594Y009116*
X02959Y009119*
X029585Y009121*
X029579Y009124*
X029574Y009126*
X029569Y009127*
X029563Y009128*
X029558Y009129*
X029552Y009129*
X029547*
X029541Y009129*
X029536Y009128*
X02953Y009127*
X029525Y009126*
X02952Y009124*
X029514Y009121*
X02951Y009119*
X029505Y009116*
X0295Y009113*
X029496Y009109*
X029492Y009105*
X029488Y009101*
X029485Y009097*
X029482Y009092*
X029479Y009087*
X029476Y009082*
X029474Y009077*
X029473Y009072*
X029471Y009066*
X02947Y009061*
X02947Y009055*
X02947Y00905*
X02947Y009044*
X02947Y009038*
X029471Y009033*
X029473Y009027*
X029474Y009022*
X029476Y009017*
X029479Y009012*
X029482Y009007*
X029485Y009002*
X029488Y008998*
X029492Y008994*
X029496Y00899*
X0295Y008986*
X029505Y008983*
X02951Y00898*
X029514Y008978*
X02952Y008975*
X029525Y008973*
X02953Y008972*
X029536Y008971*
X029541Y00897*
X029547Y00897*
X029552*
X029558Y00897*
X029563Y008971*
X029569Y008972*
X029574Y008973*
X029579Y008975*
X029585Y008978*
X02959Y00898*
X029594Y008983*
X029599Y008986*
X029603Y00899*
X029607Y008994*
X029611Y008998*
X029614Y009002*
X029617Y009007*
X02962Y009012*
X029623Y009017*
X029625Y009022*
X029626Y009027*
X029628Y009033*
X029629Y009038*
X029629Y009044*
X02963Y00905*
Y01005D02*
D01*
X029629Y010055*
X029629Y010061*
X029628Y010066*
X029626Y010072*
X029625Y010077*
X029623Y010082*
X02962Y010087*
X029617Y010092*
X029614Y010097*
X029611Y010101*
X029607Y010105*
X029603Y010109*
X029599Y010113*
X029594Y010116*
X02959Y010119*
X029585Y010121*
X029579Y010124*
X029574Y010126*
X029569Y010127*
X029563Y010128*
X029558Y010129*
X029552Y010129*
X029547*
X029541Y010129*
X029536Y010128*
X02953Y010127*
X029525Y010126*
X02952Y010124*
X029514Y010121*
X02951Y010119*
X029505Y010116*
X0295Y010113*
X029496Y010109*
X029492Y010105*
X029488Y010101*
X029485Y010097*
X029482Y010092*
X029479Y010087*
X029476Y010082*
X029474Y010077*
X029473Y010072*
X029471Y010066*
X02947Y010061*
X02947Y010055*
X02947Y01005*
X02947Y010044*
X02947Y010038*
X029471Y010033*
X029473Y010027*
X029474Y010022*
X029476Y010017*
X029479Y010012*
X029482Y010007*
X029485Y010002*
X029488Y009998*
X029492Y009994*
X029496Y00999*
X0295Y009986*
X029505Y009983*
X02951Y00998*
X029514Y009978*
X02952Y009975*
X029525Y009973*
X02953Y009972*
X029536Y009971*
X029541Y00997*
X029547Y00997*
X029552*
X029558Y00997*
X029563Y009971*
X029569Y009972*
X029574Y009973*
X029579Y009975*
X029585Y009978*
X02959Y00998*
X029594Y009983*
X029599Y009986*
X029603Y00999*
X029607Y009994*
X029611Y009998*
X029614Y010002*
X029617Y010007*
X02962Y010012*
X029623Y010017*
X029625Y010022*
X029626Y010027*
X029628Y010033*
X029629Y010038*
X029629Y010044*
X02963Y01005*
X03063Y00905D02*
D01*
X030629Y009055*
X030629Y009061*
X030628Y009066*
X030626Y009072*
X030625Y009077*
X030623Y009082*
X03062Y009087*
X030617Y009092*
X030614Y009097*
X030611Y009101*
X030607Y009105*
X030603Y009109*
X030599Y009113*
X030594Y009116*
X03059Y009119*
X030585Y009121*
X030579Y009124*
X030574Y009126*
X030569Y009127*
X030563Y009128*
X030558Y009129*
X030552Y009129*
X030547*
X030541Y009129*
X030536Y009128*
X03053Y009127*
X030525Y009126*
X03052Y009124*
X030514Y009121*
X03051Y009119*
X030505Y009116*
X0305Y009113*
X030496Y009109*
X030492Y009105*
X030488Y009101*
X030485Y009097*
X030482Y009092*
X030479Y009087*
X030476Y009082*
X030474Y009077*
X030473Y009072*
X030471Y009066*
X03047Y009061*
X03047Y009055*
X03047Y00905*
X03047Y009044*
X03047Y009038*
X030471Y009033*
X030473Y009027*
X030474Y009022*
X030476Y009017*
X030479Y009012*
X030482Y009007*
X030485Y009002*
X030488Y008998*
X030492Y008994*
X030496Y00899*
X0305Y008986*
X030505Y008983*
X03051Y00898*
X030514Y008978*
X03052Y008975*
X030525Y008973*
X03053Y008972*
X030536Y008971*
X030541Y00897*
X030547Y00897*
X030552*
X030558Y00897*
X030563Y008971*
X030569Y008972*
X030574Y008973*
X030579Y008975*
X030585Y008978*
X03059Y00898*
X030594Y008983*
X030599Y008986*
X030603Y00899*
X030607Y008994*
X030611Y008998*
X030614Y009002*
X030617Y009007*
X03062Y009012*
X030623Y009017*
X030625Y009022*
X030626Y009027*
X030628Y009033*
X030629Y009038*
X030629Y009044*
X03063Y00905*
Y01005D02*
D01*
X030629Y010055*
X030629Y010061*
X030628Y010066*
X030626Y010072*
X030625Y010077*
X030623Y010082*
X03062Y010087*
X030617Y010092*
X030614Y010097*
X030611Y010101*
X030607Y010105*
X030603Y010109*
X030599Y010113*
X030594Y010116*
X03059Y010119*
X030585Y010121*
X030579Y010124*
X030574Y010126*
X030569Y010127*
X030563Y010128*
X030558Y010129*
X030552Y010129*
X030547*
X030541Y010129*
X030536Y010128*
X03053Y010127*
X030525Y010126*
X03052Y010124*
X030514Y010121*
X03051Y010119*
X030505Y010116*
X0305Y010113*
X030496Y010109*
X030492Y010105*
X030488Y010101*
X030485Y010097*
X030482Y010092*
X030479Y010087*
X030476Y010082*
X030474Y010077*
X030473Y010072*
X030471Y010066*
X03047Y010061*
X03047Y010055*
X03047Y01005*
X03047Y010044*
X03047Y010038*
X030471Y010033*
X030473Y010027*
X030474Y010022*
X030476Y010017*
X030479Y010012*
X030482Y010007*
X030485Y010002*
X030488Y009998*
X030492Y009994*
X030496Y00999*
X0305Y009986*
X030505Y009983*
X03051Y00998*
X030514Y009978*
X03052Y009975*
X030525Y009973*
X03053Y009972*
X030536Y009971*
X030541Y00997*
X030547Y00997*
X030552*
X030558Y00997*
X030563Y009971*
X030569Y009972*
X030574Y009973*
X030579Y009975*
X030585Y009978*
X03059Y00998*
X030594Y009983*
X030599Y009986*
X030603Y00999*
X030607Y009994*
X030611Y009998*
X030614Y010002*
X030617Y010007*
X03062Y010012*
X030623Y010017*
X030625Y010022*
X030626Y010027*
X030628Y010033*
X030629Y010038*
X030629Y010044*
X03063Y01005*
X03163Y00905D02*
D01*
X031629Y009055*
X031629Y009061*
X031628Y009066*
X031626Y009072*
X031625Y009077*
X031623Y009082*
X03162Y009087*
X031617Y009092*
X031614Y009097*
X031611Y009101*
X031607Y009105*
X031603Y009109*
X031599Y009113*
X031594Y009116*
X03159Y009119*
X031585Y009121*
X031579Y009124*
X031574Y009126*
X031569Y009127*
X031563Y009128*
X031558Y009129*
X031552Y009129*
X031547*
X031541Y009129*
X031536Y009128*
X03153Y009127*
X031525Y009126*
X03152Y009124*
X031514Y009121*
X03151Y009119*
X031505Y009116*
X0315Y009113*
X031496Y009109*
X031492Y009105*
X031488Y009101*
X031485Y009097*
X031482Y009092*
X031479Y009087*
X031476Y009082*
X031474Y009077*
X031473Y009072*
X031471Y009066*
X03147Y009061*
X03147Y009055*
X03147Y00905*
X03147Y009044*
X03147Y009038*
X031471Y009033*
X031473Y009027*
X031474Y009022*
X031476Y009017*
X031479Y009012*
X031482Y009007*
X031485Y009002*
X031488Y008998*
X031492Y008994*
X031496Y00899*
X0315Y008986*
X031505Y008983*
X03151Y00898*
X031514Y008978*
X03152Y008975*
X031525Y008973*
X03153Y008972*
X031536Y008971*
X031541Y00897*
X031547Y00897*
X031552*
X031558Y00897*
X031563Y008971*
X031569Y008972*
X031574Y008973*
X031579Y008975*
X031585Y008978*
X03159Y00898*
X031594Y008983*
X031599Y008986*
X031603Y00899*
X031607Y008994*
X031611Y008998*
X031614Y009002*
X031617Y009007*
X03162Y009012*
X031623Y009017*
X031625Y009022*
X031626Y009027*
X031628Y009033*
X031629Y009038*
X031629Y009044*
X03163Y00905*
Y01005D02*
D01*
X031629Y010055*
X031629Y010061*
X031628Y010066*
X031626Y010072*
X031625Y010077*
X031623Y010082*
X03162Y010087*
X031617Y010092*
X031614Y010097*
X031611Y010101*
X031607Y010105*
X031603Y010109*
X031599Y010113*
X031594Y010116*
X03159Y010119*
X031585Y010121*
X031579Y010124*
X031574Y010126*
X031569Y010127*
X031563Y010128*
X031558Y010129*
X031552Y010129*
X031547*
X031541Y010129*
X031536Y010128*
X03153Y010127*
X031525Y010126*
X03152Y010124*
X031514Y010121*
X03151Y010119*
X031505Y010116*
X0315Y010113*
X031496Y010109*
X031492Y010105*
X031488Y010101*
X031485Y010097*
X031482Y010092*
X031479Y010087*
X031476Y010082*
X031474Y010077*
X031473Y010072*
X031471Y010066*
X03147Y010061*
X03147Y010055*
X03147Y01005*
X03147Y010044*
X03147Y010038*
X031471Y010033*
X031473Y010027*
X031474Y010022*
X031476Y010017*
X031479Y010012*
X031482Y010007*
X031485Y010002*
X031488Y009998*
X031492Y009994*
X031496Y00999*
X0315Y009986*
X031505Y009983*
X03151Y00998*
X031514Y009978*
X03152Y009975*
X031525Y009973*
X03153Y009972*
X031536Y009971*
X031541Y00997*
X031547Y00997*
X031552*
X031558Y00997*
X031563Y009971*
X031569Y009972*
X031574Y009973*
X031579Y009975*
X031585Y009978*
X03159Y00998*
X031594Y009983*
X031599Y009986*
X031603Y00999*
X031607Y009994*
X031611Y009998*
X031614Y010002*
X031617Y010007*
X03162Y010012*
X031623Y010017*
X031625Y010022*
X031626Y010027*
X031628Y010033*
X031629Y010038*
X031629Y010044*
X03163Y01005*
X03263Y00905D02*
D01*
X032629Y009055*
X032629Y009061*
X032628Y009066*
X032626Y009072*
X032625Y009077*
X032623Y009082*
X03262Y009087*
X032617Y009092*
X032614Y009097*
X032611Y009101*
X032607Y009105*
X032603Y009109*
X032599Y009113*
X032594Y009116*
X03259Y009119*
X032585Y009121*
X032579Y009124*
X032574Y009126*
X032569Y009127*
X032563Y009128*
X032558Y009129*
X032552Y009129*
X032547*
X032541Y009129*
X032536Y009128*
X03253Y009127*
X032525Y009126*
X03252Y009124*
X032514Y009121*
X03251Y009119*
X032505Y009116*
X0325Y009113*
X032496Y009109*
X032492Y009105*
X032488Y009101*
X032485Y009097*
X032482Y009092*
X032479Y009087*
X032476Y009082*
X032474Y009077*
X032473Y009072*
X032471Y009066*
X03247Y009061*
X03247Y009055*
X03247Y00905*
X03247Y009044*
X03247Y009038*
X032471Y009033*
X032473Y009027*
X032474Y009022*
X032476Y009017*
X032479Y009012*
X032482Y009007*
X032485Y009002*
X032488Y008998*
X032492Y008994*
X032496Y00899*
X0325Y008986*
X032505Y008983*
X03251Y00898*
X032514Y008978*
X03252Y008975*
X032525Y008973*
X03253Y008972*
X032536Y008971*
X032541Y00897*
X032547Y00897*
X032552*
X032558Y00897*
X032563Y008971*
X032569Y008972*
X032574Y008973*
X032579Y008975*
X032585Y008978*
X03259Y00898*
X032594Y008983*
X032599Y008986*
X032603Y00899*
X032607Y008994*
X032611Y008998*
X032614Y009002*
X032617Y009007*
X03262Y009012*
X032623Y009017*
X032625Y009022*
X032626Y009027*
X032628Y009033*
X032629Y009038*
X032629Y009044*
X03263Y00905*
Y01005D02*
D01*
X032629Y010055*
X032629Y010061*
X032628Y010066*
X032626Y010072*
X032625Y010077*
X032623Y010082*
X03262Y010087*
X032617Y010092*
X032614Y010097*
X032611Y010101*
X032607Y010105*
X032603Y010109*
X032599Y010113*
X032594Y010116*
X03259Y010119*
X032585Y010121*
X032579Y010124*
X032574Y010126*
X032569Y010127*
X032563Y010128*
X032558Y010129*
X032552Y010129*
X032547*
X032541Y010129*
X032536Y010128*
X03253Y010127*
X032525Y010126*
X03252Y010124*
X032514Y010121*
X03251Y010119*
X032505Y010116*
X0325Y010113*
X032496Y010109*
X032492Y010105*
X032488Y010101*
X032485Y010097*
X032482Y010092*
X032479Y010087*
X032476Y010082*
X032474Y010077*
X032473Y010072*
X032471Y010066*
X03247Y010061*
X03247Y010055*
X03247Y01005*
X03247Y010044*
X03247Y010038*
X032471Y010033*
X032473Y010027*
X032474Y010022*
X032476Y010017*
X032479Y010012*
X032482Y010007*
X032485Y010002*
X032488Y009998*
X032492Y009994*
X032496Y00999*
X0325Y009986*
X032505Y009983*
X03251Y00998*
X032514Y009978*
X03252Y009975*
X032525Y009973*
X03253Y009972*
X032536Y009971*
X032541Y00997*
X032547Y00997*
X032552*
X032558Y00997*
X032563Y009971*
X032569Y009972*
X032574Y009973*
X032579Y009975*
X032585Y009978*
X03259Y00998*
X032594Y009983*
X032599Y009986*
X032603Y00999*
X032607Y009994*
X032611Y009998*
X032614Y010002*
X032617Y010007*
X03262Y010012*
X032623Y010017*
X032625Y010022*
X032626Y010027*
X032628Y010033*
X032629Y010038*
X032629Y010044*
X03263Y01005*
X03363Y00905D02*
D01*
X033629Y009055*
X033629Y009061*
X033628Y009066*
X033626Y009072*
X033625Y009077*
X033623Y009082*
X03362Y009087*
X033617Y009092*
X033614Y009097*
X033611Y009101*
X033607Y009105*
X033603Y009109*
X033599Y009113*
X033594Y009116*
X03359Y009119*
X033585Y009121*
X033579Y009124*
X033574Y009126*
X033569Y009127*
X033563Y009128*
X033558Y009129*
X033552Y009129*
X033547*
X033541Y009129*
X033536Y009128*
X03353Y009127*
X033525Y009126*
X03352Y009124*
X033514Y009121*
X03351Y009119*
X033505Y009116*
X0335Y009113*
X033496Y009109*
X033492Y009105*
X033488Y009101*
X033485Y009097*
X033482Y009092*
X033479Y009087*
X033476Y009082*
X033474Y009077*
X033473Y009072*
X033471Y009066*
X03347Y009061*
X03347Y009055*
X03347Y00905*
X03347Y009044*
X03347Y009038*
X033471Y009033*
X033473Y009027*
X033474Y009022*
X033476Y009017*
X033479Y009012*
X033482Y009007*
X033485Y009002*
X033488Y008998*
X033492Y008994*
X033496Y00899*
X0335Y008986*
X033505Y008983*
X03351Y00898*
X033514Y008978*
X03352Y008975*
X033525Y008973*
X03353Y008972*
X033536Y008971*
X033541Y00897*
X033547Y00897*
X033552*
X033558Y00897*
X033563Y008971*
X033569Y008972*
X033574Y008973*
X033579Y008975*
X033585Y008978*
X03359Y00898*
X033594Y008983*
X033599Y008986*
X033603Y00899*
X033607Y008994*
X033611Y008998*
X033614Y009002*
X033617Y009007*
X03362Y009012*
X033623Y009017*
X033625Y009022*
X033626Y009027*
X033628Y009033*
X033629Y009038*
X033629Y009044*
X03363Y00905*
Y01005D02*
D01*
X033629Y010055*
X033629Y010061*
X033628Y010066*
X033626Y010072*
X033625Y010077*
X033623Y010082*
X03362Y010087*
X033617Y010092*
X033614Y010097*
X033611Y010101*
X033607Y010105*
X033603Y010109*
X033599Y010113*
X033594Y010116*
X03359Y010119*
X033585Y010121*
X033579Y010124*
X033574Y010126*
X033569Y010127*
X033563Y010128*
X033558Y010129*
X033552Y010129*
X033547*
X033541Y010129*
X033536Y010128*
X03353Y010127*
X033525Y010126*
X03352Y010124*
X033514Y010121*
X03351Y010119*
X033505Y010116*
X0335Y010113*
X033496Y010109*
X033492Y010105*
X033488Y010101*
X033485Y010097*
X033482Y010092*
X033479Y010087*
X033476Y010082*
X033474Y010077*
X033473Y010072*
X033471Y010066*
X03347Y010061*
X03347Y010055*
X03347Y01005*
X03347Y010044*
X03347Y010038*
X033471Y010033*
X033473Y010027*
X033474Y010022*
X033476Y010017*
X033479Y010012*
X033482Y010007*
X033485Y010002*
X033488Y009998*
X033492Y009994*
X033496Y00999*
X0335Y009986*
X033505Y009983*
X03351Y00998*
X033514Y009978*
X03352Y009975*
X033525Y009973*
X03353Y009972*
X033536Y009971*
X033541Y00997*
X033547Y00997*
X033552*
X033558Y00997*
X033563Y009971*
X033569Y009972*
X033574Y009973*
X033579Y009975*
X033585Y009978*
X03359Y00998*
X033594Y009983*
X033599Y009986*
X033603Y00999*
X033607Y009994*
X033611Y009998*
X033614Y010002*
X033617Y010007*
X03362Y010012*
X033623Y010017*
X033625Y010022*
X033626Y010027*
X033628Y010033*
X033629Y010038*
X033629Y010044*
X03363Y01005*
X03463Y00905D02*
D01*
X034629Y009055*
X034629Y009061*
X034628Y009066*
X034626Y009072*
X034625Y009077*
X034623Y009082*
X03462Y009087*
X034617Y009092*
X034614Y009097*
X034611Y009101*
X034607Y009105*
X034603Y009109*
X034599Y009113*
X034594Y009116*
X03459Y009119*
X034585Y009121*
X034579Y009124*
X034574Y009126*
X034569Y009127*
X034563Y009128*
X034558Y009129*
X034552Y009129*
X034547*
X034541Y009129*
X034536Y009128*
X03453Y009127*
X034525Y009126*
X03452Y009124*
X034514Y009121*
X03451Y009119*
X034505Y009116*
X0345Y009113*
X034496Y009109*
X034492Y009105*
X034488Y009101*
X034485Y009097*
X034482Y009092*
X034479Y009087*
X034476Y009082*
X034474Y009077*
X034473Y009072*
X034471Y009066*
X03447Y009061*
X03447Y009055*
X03447Y00905*
X03447Y009044*
X03447Y009038*
X034471Y009033*
X034473Y009027*
X034474Y009022*
X034476Y009017*
X034479Y009012*
X034482Y009007*
X034485Y009002*
X034488Y008998*
X034492Y008994*
X034496Y00899*
X0345Y008986*
X034505Y008983*
X03451Y00898*
X034514Y008978*
X03452Y008975*
X034525Y008973*
X03453Y008972*
X034536Y008971*
X034541Y00897*
X034547Y00897*
X034552*
X034558Y00897*
X034563Y008971*
X034569Y008972*
X034574Y008973*
X034579Y008975*
X034585Y008978*
X03459Y00898*
X034594Y008983*
X034599Y008986*
X034603Y00899*
X034607Y008994*
X034611Y008998*
X034614Y009002*
X034617Y009007*
X03462Y009012*
X034623Y009017*
X034625Y009022*
X034626Y009027*
X034628Y009033*
X034629Y009038*
X034629Y009044*
X03463Y00905*
Y01005D02*
D01*
X034629Y010055*
X034629Y010061*
X034628Y010066*
X034626Y010072*
X034625Y010077*
X034623Y010082*
X03462Y010087*
X034617Y010092*
X034614Y010097*
X034611Y010101*
X034607Y010105*
X034603Y010109*
X034599Y010113*
X034594Y010116*
X03459Y010119*
X034585Y010121*
X034579Y010124*
X034574Y010126*
X034569Y010127*
X034563Y010128*
X034558Y010129*
X034552Y010129*
X034547*
X034541Y010129*
X034536Y010128*
X03453Y010127*
X034525Y010126*
X03452Y010124*
X034514Y010121*
X03451Y010119*
X034505Y010116*
X0345Y010113*
X034496Y010109*
X034492Y010105*
X034488Y010101*
X034485Y010097*
X034482Y010092*
X034479Y010087*
X034476Y010082*
X034474Y010077*
X034473Y010072*
X034471Y010066*
X03447Y010061*
X03447Y010055*
X03447Y01005*
X03447Y010044*
X03447Y010038*
X034471Y010033*
X034473Y010027*
X034474Y010022*
X034476Y010017*
X034479Y010012*
X034482Y010007*
X034485Y010002*
X034488Y009998*
X034492Y009994*
X034496Y00999*
X0345Y009986*
X034505Y009983*
X03451Y00998*
X034514Y009978*
X03452Y009975*
X034525Y009973*
X03453Y009972*
X034536Y009971*
X034541Y00997*
X034547Y00997*
X034552*
X034558Y00997*
X034563Y009971*
X034569Y009972*
X034574Y009973*
X034579Y009975*
X034585Y009978*
X03459Y00998*
X034594Y009983*
X034599Y009986*
X034603Y00999*
X034607Y009994*
X034611Y009998*
X034614Y010002*
X034617Y010007*
X03462Y010012*
X034623Y010017*
X034625Y010022*
X034626Y010027*
X034628Y010033*
X034629Y010038*
X034629Y010044*
X03463Y01005*
X00763Y00905D02*
D01*
X007629Y009055*
X007629Y009061*
X007628Y009066*
X007626Y009072*
X007625Y009077*
X007623Y009082*
X00762Y009087*
X007617Y009092*
X007614Y009097*
X007611Y009101*
X007607Y009105*
X007603Y009109*
X007599Y009113*
X007594Y009116*
X00759Y009119*
X007585Y009121*
X007579Y009124*
X007574Y009126*
X007569Y009127*
X007563Y009128*
X007558Y009129*
X007552Y009129*
X007547*
X007541Y009129*
X007536Y009128*
X00753Y009127*
X007525Y009126*
X00752Y009124*
X007514Y009121*
X00751Y009119*
X007505Y009116*
X0075Y009113*
X007496Y009109*
X007492Y009105*
X007488Y009101*
X007485Y009097*
X007482Y009092*
X007479Y009087*
X007476Y009082*
X007474Y009077*
X007473Y009072*
X007471Y009066*
X00747Y009061*
X00747Y009055*
X00747Y00905*
X00747Y009044*
X00747Y009038*
X007471Y009033*
X007473Y009027*
X007474Y009022*
X007476Y009017*
X007479Y009012*
X007482Y009007*
X007485Y009002*
X007488Y008998*
X007492Y008994*
X007496Y00899*
X0075Y008986*
X007505Y008983*
X00751Y00898*
X007514Y008978*
X00752Y008975*
X007525Y008973*
X00753Y008972*
X007536Y008971*
X007541Y00897*
X007547Y00897*
X007552*
X007558Y00897*
X007563Y008971*
X007569Y008972*
X007574Y008973*
X007579Y008975*
X007585Y008978*
X00759Y00898*
X007594Y008983*
X007599Y008986*
X007603Y00899*
X007607Y008994*
X007611Y008998*
X007614Y009002*
X007617Y009007*
X00762Y009012*
X007623Y009017*
X007625Y009022*
X007626Y009027*
X007628Y009033*
X007629Y009038*
X007629Y009044*
X00763Y00905*
Y01005D02*
D01*
X007629Y010055*
X007629Y010061*
X007628Y010066*
X007626Y010072*
X007625Y010077*
X007623Y010082*
X00762Y010087*
X007617Y010092*
X007614Y010097*
X007611Y010101*
X007607Y010105*
X007603Y010109*
X007599Y010113*
X007594Y010116*
X00759Y010119*
X007585Y010121*
X007579Y010124*
X007574Y010126*
X007569Y010127*
X007563Y010128*
X007558Y010129*
X007552Y010129*
X007547*
X007541Y010129*
X007536Y010128*
X00753Y010127*
X007525Y010126*
X00752Y010124*
X007514Y010121*
X00751Y010119*
X007505Y010116*
X0075Y010113*
X007496Y010109*
X007492Y010105*
X007488Y010101*
X007485Y010097*
X007482Y010092*
X007479Y010087*
X007476Y010082*
X007474Y010077*
X007473Y010072*
X007471Y010066*
X00747Y010061*
X00747Y010055*
X00747Y01005*
X00747Y010044*
X00747Y010038*
X007471Y010033*
X007473Y010027*
X007474Y010022*
X007476Y010017*
X007479Y010012*
X007482Y010007*
X007485Y010002*
X007488Y009998*
X007492Y009994*
X007496Y00999*
X0075Y009986*
X007505Y009983*
X00751Y00998*
X007514Y009978*
X00752Y009975*
X007525Y009973*
X00753Y009972*
X007536Y009971*
X007541Y00997*
X007547Y00997*
X007552*
X007558Y00997*
X007563Y009971*
X007569Y009972*
X007574Y009973*
X007579Y009975*
X007585Y009978*
X00759Y00998*
X007594Y009983*
X007599Y009986*
X007603Y00999*
X007607Y009994*
X007611Y009998*
X007614Y010002*
X007617Y010007*
X00762Y010012*
X007623Y010017*
X007625Y010022*
X007626Y010027*
X007628Y010033*
X007629Y010038*
X007629Y010044*
X00763Y01005*
X00863Y00905D02*
D01*
X008629Y009055*
X008629Y009061*
X008628Y009066*
X008626Y009072*
X008625Y009077*
X008623Y009082*
X00862Y009087*
X008617Y009092*
X008614Y009097*
X008611Y009101*
X008607Y009105*
X008603Y009109*
X008599Y009113*
X008594Y009116*
X00859Y009119*
X008585Y009121*
X008579Y009124*
X008574Y009126*
X008569Y009127*
X008563Y009128*
X008558Y009129*
X008552Y009129*
X008547*
X008541Y009129*
X008536Y009128*
X00853Y009127*
X008525Y009126*
X00852Y009124*
X008514Y009121*
X00851Y009119*
X008505Y009116*
X0085Y009113*
X008496Y009109*
X008492Y009105*
X008488Y009101*
X008485Y009097*
X008482Y009092*
X008479Y009087*
X008476Y009082*
X008474Y009077*
X008473Y009072*
X008471Y009066*
X00847Y009061*
X00847Y009055*
X00847Y00905*
X00847Y009044*
X00847Y009038*
X008471Y009033*
X008473Y009027*
X008474Y009022*
X008476Y009017*
X008479Y009012*
X008482Y009007*
X008485Y009002*
X008488Y008998*
X008492Y008994*
X008496Y00899*
X0085Y008986*
X008505Y008983*
X00851Y00898*
X008514Y008978*
X00852Y008975*
X008525Y008973*
X00853Y008972*
X008536Y008971*
X008541Y00897*
X008547Y00897*
X008552*
X008558Y00897*
X008563Y008971*
X008569Y008972*
X008574Y008973*
X008579Y008975*
X008585Y008978*
X00859Y00898*
X008594Y008983*
X008599Y008986*
X008603Y00899*
X008607Y008994*
X008611Y008998*
X008614Y009002*
X008617Y009007*
X00862Y009012*
X008623Y009017*
X008625Y009022*
X008626Y009027*
X008628Y009033*
X008629Y009038*
X008629Y009044*
X00863Y00905*
Y01005D02*
D01*
X008629Y010055*
X008629Y010061*
X008628Y010066*
X008626Y010072*
X008625Y010077*
X008623Y010082*
X00862Y010087*
X008617Y010092*
X008614Y010097*
X008611Y010101*
X008607Y010105*
X008603Y010109*
X008599Y010113*
X008594Y010116*
X00859Y010119*
X008585Y010121*
X008579Y010124*
X008574Y010126*
X008569Y010127*
X008563Y010128*
X008558Y010129*
X008552Y010129*
X008547*
X008541Y010129*
X008536Y010128*
X00853Y010127*
X008525Y010126*
X00852Y010124*
X008514Y010121*
X00851Y010119*
X008505Y010116*
X0085Y010113*
X008496Y010109*
X008492Y010105*
X008488Y010101*
X008485Y010097*
X008482Y010092*
X008479Y010087*
X008476Y010082*
X008474Y010077*
X008473Y010072*
X008471Y010066*
X00847Y010061*
X00847Y010055*
X00847Y01005*
X00847Y010044*
X00847Y010038*
X008471Y010033*
X008473Y010027*
X008474Y010022*
X008476Y010017*
X008479Y010012*
X008482Y010007*
X008485Y010002*
X008488Y009998*
X008492Y009994*
X008496Y00999*
X0085Y009986*
X008505Y009983*
X00851Y00998*
X008514Y009978*
X00852Y009975*
X008525Y009973*
X00853Y009972*
X008536Y009971*
X008541Y00997*
X008547Y00997*
X008552*
X008558Y00997*
X008563Y009971*
X008569Y009972*
X008574Y009973*
X008579Y009975*
X008585Y009978*
X00859Y00998*
X008594Y009983*
X008599Y009986*
X008603Y00999*
X008607Y009994*
X008611Y009998*
X008614Y010002*
X008617Y010007*
X00862Y010012*
X008623Y010017*
X008625Y010022*
X008626Y010027*
X008628Y010033*
X008629Y010038*
X008629Y010044*
X00863Y01005*
X00963Y00905D02*
D01*
X009629Y009055*
X009629Y009061*
X009628Y009066*
X009626Y009072*
X009625Y009077*
X009623Y009082*
X00962Y009087*
X009617Y009092*
X009614Y009097*
X009611Y009101*
X009607Y009105*
X009603Y009109*
X009599Y009113*
X009594Y009116*
X00959Y009119*
X009585Y009121*
X009579Y009124*
X009574Y009126*
X009569Y009127*
X009563Y009128*
X009558Y009129*
X009552Y009129*
X009547*
X009541Y009129*
X009536Y009128*
X00953Y009127*
X009525Y009126*
X00952Y009124*
X009514Y009121*
X00951Y009119*
X009505Y009116*
X0095Y009113*
X009496Y009109*
X009492Y009105*
X009488Y009101*
X009485Y009097*
X009482Y009092*
X009479Y009087*
X009476Y009082*
X009474Y009077*
X009473Y009072*
X009471Y009066*
X00947Y009061*
X00947Y009055*
X00947Y00905*
X00947Y009044*
X00947Y009038*
X009471Y009033*
X009473Y009027*
X009474Y009022*
X009476Y009017*
X009479Y009012*
X009482Y009007*
X009485Y009002*
X009488Y008998*
X009492Y008994*
X009496Y00899*
X0095Y008986*
X009505Y008983*
X00951Y00898*
X009514Y008978*
X00952Y008975*
X009525Y008973*
X00953Y008972*
X009536Y008971*
X009541Y00897*
X009547Y00897*
X009552*
X009558Y00897*
X009563Y008971*
X009569Y008972*
X009574Y008973*
X009579Y008975*
X009585Y008978*
X00959Y00898*
X009594Y008983*
X009599Y008986*
X009603Y00899*
X009607Y008994*
X009611Y008998*
X009614Y009002*
X009617Y009007*
X00962Y009012*
X009623Y009017*
X009625Y009022*
X009626Y009027*
X009628Y009033*
X009629Y009038*
X009629Y009044*
X00963Y00905*
Y01005D02*
D01*
X009629Y010055*
X009629Y010061*
X009628Y010066*
X009626Y010072*
X009625Y010077*
X009623Y010082*
X00962Y010087*
X009617Y010092*
X009614Y010097*
X009611Y010101*
X009607Y010105*
X009603Y010109*
X009599Y010113*
X009594Y010116*
X00959Y010119*
X009585Y010121*
X009579Y010124*
X009574Y010126*
X009569Y010127*
X009563Y010128*
X009558Y010129*
X009552Y010129*
X009547*
X009541Y010129*
X009536Y010128*
X00953Y010127*
X009525Y010126*
X00952Y010124*
X009514Y010121*
X00951Y010119*
X009505Y010116*
X0095Y010113*
X009496Y010109*
X009492Y010105*
X009488Y010101*
X009485Y010097*
X009482Y010092*
X009479Y010087*
X009476Y010082*
X009474Y010077*
X009473Y010072*
X009471Y010066*
X00947Y010061*
X00947Y010055*
X00947Y01005*
X00947Y010044*
X00947Y010038*
X009471Y010033*
X009473Y010027*
X009474Y010022*
X009476Y010017*
X009479Y010012*
X009482Y010007*
X009485Y010002*
X009488Y009998*
X009492Y009994*
X009496Y00999*
X0095Y009986*
X009505Y009983*
X00951Y00998*
X009514Y009978*
X00952Y009975*
X009525Y009973*
X00953Y009972*
X009536Y009971*
X009541Y00997*
X009547Y00997*
X009552*
X009558Y00997*
X009563Y009971*
X009569Y009972*
X009574Y009973*
X009579Y009975*
X009585Y009978*
X00959Y00998*
X009594Y009983*
X009599Y009986*
X009603Y00999*
X009607Y009994*
X009611Y009998*
X009614Y010002*
X009617Y010007*
X00962Y010012*
X009623Y010017*
X009625Y010022*
X009626Y010027*
X009628Y010033*
X009629Y010038*
X009629Y010044*
X00963Y01005*
X01063Y00905D02*
D01*
X010629Y009055*
X010629Y009061*
X010628Y009066*
X010626Y009072*
X010625Y009077*
X010623Y009082*
X01062Y009087*
X010617Y009092*
X010614Y009097*
X010611Y009101*
X010607Y009105*
X010603Y009109*
X010599Y009113*
X010594Y009116*
X01059Y009119*
X010585Y009121*
X010579Y009124*
X010574Y009126*
X010569Y009127*
X010563Y009128*
X010558Y009129*
X010552Y009129*
X010547*
X010541Y009129*
X010536Y009128*
X01053Y009127*
X010525Y009126*
X01052Y009124*
X010514Y009121*
X01051Y009119*
X010505Y009116*
X0105Y009113*
X010496Y009109*
X010492Y009105*
X010488Y009101*
X010485Y009097*
X010482Y009092*
X010479Y009087*
X010476Y009082*
X010474Y009077*
X010473Y009072*
X010471Y009066*
X01047Y009061*
X01047Y009055*
X01047Y00905*
X01047Y009044*
X01047Y009038*
X010471Y009033*
X010473Y009027*
X010474Y009022*
X010476Y009017*
X010479Y009012*
X010482Y009007*
X010485Y009002*
X010488Y008998*
X010492Y008994*
X010496Y00899*
X0105Y008986*
X010505Y008983*
X01051Y00898*
X010514Y008978*
X01052Y008975*
X010525Y008973*
X01053Y008972*
X010536Y008971*
X010541Y00897*
X010547Y00897*
X010552*
X010558Y00897*
X010563Y008971*
X010569Y008972*
X010574Y008973*
X010579Y008975*
X010585Y008978*
X01059Y00898*
X010594Y008983*
X010599Y008986*
X010603Y00899*
X010607Y008994*
X010611Y008998*
X010614Y009002*
X010617Y009007*
X01062Y009012*
X010623Y009017*
X010625Y009022*
X010626Y009027*
X010628Y009033*
X010629Y009038*
X010629Y009044*
X01063Y00905*
Y01005D02*
D01*
X010629Y010055*
X010629Y010061*
X010628Y010066*
X010626Y010072*
X010625Y010077*
X010623Y010082*
X01062Y010087*
X010617Y010092*
X010614Y010097*
X010611Y010101*
X010607Y010105*
X010603Y010109*
X010599Y010113*
X010594Y010116*
X01059Y010119*
X010585Y010121*
X010579Y010124*
X010574Y010126*
X010569Y010127*
X010563Y010128*
X010558Y010129*
X010552Y010129*
X010547*
X010541Y010129*
X010536Y010128*
X01053Y010127*
X010525Y010126*
X01052Y010124*
X010514Y010121*
X01051Y010119*
X010505Y010116*
X0105Y010113*
X010496Y010109*
X010492Y010105*
X010488Y010101*
X010485Y010097*
X010482Y010092*
X010479Y010087*
X010476Y010082*
X010474Y010077*
X010473Y010072*
X010471Y010066*
X01047Y010061*
X01047Y010055*
X01047Y01005*
X01047Y010044*
X01047Y010038*
X010471Y010033*
X010473Y010027*
X010474Y010022*
X010476Y010017*
X010479Y010012*
X010482Y010007*
X010485Y010002*
X010488Y009998*
X010492Y009994*
X010496Y00999*
X0105Y009986*
X010505Y009983*
X01051Y00998*
X010514Y009978*
X01052Y009975*
X010525Y009973*
X01053Y009972*
X010536Y009971*
X010541Y00997*
X010547Y00997*
X010552*
X010558Y00997*
X010563Y009971*
X010569Y009972*
X010574Y009973*
X010579Y009975*
X010585Y009978*
X01059Y00998*
X010594Y009983*
X010599Y009986*
X010603Y00999*
X010607Y009994*
X010611Y009998*
X010614Y010002*
X010617Y010007*
X01062Y010012*
X010623Y010017*
X010625Y010022*
X010626Y010027*
X010628Y010033*
X010629Y010038*
X010629Y010044*
X01063Y01005*
X01163Y00905D02*
D01*
X011629Y009055*
X011629Y009061*
X011628Y009066*
X011626Y009072*
X011625Y009077*
X011623Y009082*
X01162Y009087*
X011617Y009092*
X011614Y009097*
X011611Y009101*
X011607Y009105*
X011603Y009109*
X011599Y009113*
X011594Y009116*
X01159Y009119*
X011585Y009121*
X011579Y009124*
X011574Y009126*
X011569Y009127*
X011563Y009128*
X011558Y009129*
X011552Y009129*
X011547*
X011541Y009129*
X011536Y009128*
X01153Y009127*
X011525Y009126*
X01152Y009124*
X011514Y009121*
X01151Y009119*
X011505Y009116*
X0115Y009113*
X011496Y009109*
X011492Y009105*
X011488Y009101*
X011485Y009097*
X011482Y009092*
X011479Y009087*
X011476Y009082*
X011474Y009077*
X011473Y009072*
X011471Y009066*
X01147Y009061*
X01147Y009055*
X01147Y00905*
X01147Y009044*
X01147Y009038*
X011471Y009033*
X011473Y009027*
X011474Y009022*
X011476Y009017*
X011479Y009012*
X011482Y009007*
X011485Y009002*
X011488Y008998*
X011492Y008994*
X011496Y00899*
X0115Y008986*
X011505Y008983*
X01151Y00898*
X011514Y008978*
X01152Y008975*
X011525Y008973*
X01153Y008972*
X011536Y008971*
X011541Y00897*
X011547Y00897*
X011552*
X011558Y00897*
X011563Y008971*
X011569Y008972*
X011574Y008973*
X011579Y008975*
X011585Y008978*
X01159Y00898*
X011594Y008983*
X011599Y008986*
X011603Y00899*
X011607Y008994*
X011611Y008998*
X011614Y009002*
X011617Y009007*
X01162Y009012*
X011623Y009017*
X011625Y009022*
X011626Y009027*
X011628Y009033*
X011629Y009038*
X011629Y009044*
X01163Y00905*
Y01005D02*
D01*
X011629Y010055*
X011629Y010061*
X011628Y010066*
X011626Y010072*
X011625Y010077*
X011623Y010082*
X01162Y010087*
X011617Y010092*
X011614Y010097*
X011611Y010101*
X011607Y010105*
X011603Y010109*
X011599Y010113*
X011594Y010116*
X01159Y010119*
X011585Y010121*
X011579Y010124*
X011574Y010126*
X011569Y010127*
X011563Y010128*
X011558Y010129*
X011552Y010129*
X011547*
X011541Y010129*
X011536Y010128*
X01153Y010127*
X011525Y010126*
X01152Y010124*
X011514Y010121*
X01151Y010119*
X011505Y010116*
X0115Y010113*
X011496Y010109*
X011492Y010105*
X011488Y010101*
X011485Y010097*
X011482Y010092*
X011479Y010087*
X011476Y010082*
X011474Y010077*
X011473Y010072*
X011471Y010066*
X01147Y010061*
X01147Y010055*
X01147Y01005*
X01147Y010044*
X01147Y010038*
X011471Y010033*
X011473Y010027*
X011474Y010022*
X011476Y010017*
X011479Y010012*
X011482Y010007*
X011485Y010002*
X011488Y009998*
X011492Y009994*
X011496Y00999*
X0115Y009986*
X011505Y009983*
X01151Y00998*
X011514Y009978*
X01152Y009975*
X011525Y009973*
X01153Y009972*
X011536Y009971*
X011541Y00997*
X011547Y00997*
X011552*
X011558Y00997*
X011563Y009971*
X011569Y009972*
X011574Y009973*
X011579Y009975*
X011585Y009978*
X01159Y00998*
X011594Y009983*
X011599Y009986*
X011603Y00999*
X011607Y009994*
X011611Y009998*
X011614Y010002*
X011617Y010007*
X01162Y010012*
X011623Y010017*
X011625Y010022*
X011626Y010027*
X011628Y010033*
X011629Y010038*
X011629Y010044*
X01163Y01005*
X01263Y00905D02*
D01*
X012629Y009055*
X012629Y009061*
X012628Y009066*
X012626Y009072*
X012625Y009077*
X012623Y009082*
X01262Y009087*
X012617Y009092*
X012614Y009097*
X012611Y009101*
X012607Y009105*
X012603Y009109*
X012599Y009113*
X012594Y009116*
X01259Y009119*
X012585Y009121*
X012579Y009124*
X012574Y009126*
X012569Y009127*
X012563Y009128*
X012558Y009129*
X012552Y009129*
X012547*
X012541Y009129*
X012536Y009128*
X01253Y009127*
X012525Y009126*
X01252Y009124*
X012514Y009121*
X01251Y009119*
X012505Y009116*
X0125Y009113*
X012496Y009109*
X012492Y009105*
X012488Y009101*
X012485Y009097*
X012482Y009092*
X012479Y009087*
X012476Y009082*
X012474Y009077*
X012473Y009072*
X012471Y009066*
X01247Y009061*
X01247Y009055*
X01247Y00905*
X01247Y009044*
X01247Y009038*
X012471Y009033*
X012473Y009027*
X012474Y009022*
X012476Y009017*
X012479Y009012*
X012482Y009007*
X012485Y009002*
X012488Y008998*
X012492Y008994*
X012496Y00899*
X0125Y008986*
X012505Y008983*
X01251Y00898*
X012514Y008978*
X01252Y008975*
X012525Y008973*
X01253Y008972*
X012536Y008971*
X012541Y00897*
X012547Y00897*
X012552*
X012558Y00897*
X012563Y008971*
X012569Y008972*
X012574Y008973*
X012579Y008975*
X012585Y008978*
X01259Y00898*
X012594Y008983*
X012599Y008986*
X012603Y00899*
X012607Y008994*
X012611Y008998*
X012614Y009002*
X012617Y009007*
X01262Y009012*
X012623Y009017*
X012625Y009022*
X012626Y009027*
X012628Y009033*
X012629Y009038*
X012629Y009044*
X01263Y00905*
Y01005D02*
D01*
X012629Y010055*
X012629Y010061*
X012628Y010066*
X012626Y010072*
X012625Y010077*
X012623Y010082*
X01262Y010087*
X012617Y010092*
X012614Y010097*
X012611Y010101*
X012607Y010105*
X012603Y010109*
X012599Y010113*
X012594Y010116*
X01259Y010119*
X012585Y010121*
X012579Y010124*
X012574Y010126*
X012569Y010127*
X012563Y010128*
X012558Y010129*
X012552Y010129*
X012547*
X012541Y010129*
X012536Y010128*
X01253Y010127*
X012525Y010126*
X01252Y010124*
X012514Y010121*
X01251Y010119*
X012505Y010116*
X0125Y010113*
X012496Y010109*
X012492Y010105*
X012488Y010101*
X012485Y010097*
X012482Y010092*
X012479Y010087*
X012476Y010082*
X012474Y010077*
X012473Y010072*
X012471Y010066*
X01247Y010061*
X01247Y010055*
X01247Y01005*
X01247Y010044*
X01247Y010038*
X012471Y010033*
X012473Y010027*
X012474Y010022*
X012476Y010017*
X012479Y010012*
X012482Y010007*
X012485Y010002*
X012488Y009998*
X012492Y009994*
X012496Y00999*
X0125Y009986*
X012505Y009983*
X01251Y00998*
X012514Y009978*
X01252Y009975*
X012525Y009973*
X01253Y009972*
X012536Y009971*
X012541Y00997*
X012547Y00997*
X012552*
X012558Y00997*
X012563Y009971*
X012569Y009972*
X012574Y009973*
X012579Y009975*
X012585Y009978*
X01259Y00998*
X012594Y009983*
X012599Y009986*
X012603Y00999*
X012607Y009994*
X012611Y009998*
X012614Y010002*
X012617Y010007*
X01262Y010012*
X012623Y010017*
X012625Y010022*
X012626Y010027*
X012628Y010033*
X012629Y010038*
X012629Y010044*
X01263Y01005*
X01363Y00905D02*
D01*
X013629Y009055*
X013629Y009061*
X013628Y009066*
X013626Y009072*
X013625Y009077*
X013623Y009082*
X01362Y009087*
X013617Y009092*
X013614Y009097*
X013611Y009101*
X013607Y009105*
X013603Y009109*
X013599Y009113*
X013594Y009116*
X01359Y009119*
X013585Y009121*
X013579Y009124*
X013574Y009126*
X013569Y009127*
X013563Y009128*
X013558Y009129*
X013552Y009129*
X013547*
X013541Y009129*
X013536Y009128*
X01353Y009127*
X013525Y009126*
X01352Y009124*
X013514Y009121*
X01351Y009119*
X013505Y009116*
X0135Y009113*
X013496Y009109*
X013492Y009105*
X013488Y009101*
X013485Y009097*
X013482Y009092*
X013479Y009087*
X013476Y009082*
X013474Y009077*
X013473Y009072*
X013471Y009066*
X01347Y009061*
X01347Y009055*
X01347Y00905*
X01347Y009044*
X01347Y009038*
X013471Y009033*
X013473Y009027*
X013474Y009022*
X013476Y009017*
X013479Y009012*
X013482Y009007*
X013485Y009002*
X013488Y008998*
X013492Y008994*
X013496Y00899*
X0135Y008986*
X013505Y008983*
X01351Y00898*
X013514Y008978*
X01352Y008975*
X013525Y008973*
X01353Y008972*
X013536Y008971*
X013541Y00897*
X013547Y00897*
X013552*
X013558Y00897*
X013563Y008971*
X013569Y008972*
X013574Y008973*
X013579Y008975*
X013585Y008978*
X01359Y00898*
X013594Y008983*
X013599Y008986*
X013603Y00899*
X013607Y008994*
X013611Y008998*
X013614Y009002*
X013617Y009007*
X01362Y009012*
X013623Y009017*
X013625Y009022*
X013626Y009027*
X013628Y009033*
X013629Y009038*
X013629Y009044*
X01363Y00905*
Y01005D02*
D01*
X013629Y010055*
X013629Y010061*
X013628Y010066*
X013626Y010072*
X013625Y010077*
X013623Y010082*
X01362Y010087*
X013617Y010092*
X013614Y010097*
X013611Y010101*
X013607Y010105*
X013603Y010109*
X013599Y010113*
X013594Y010116*
X01359Y010119*
X013585Y010121*
X013579Y010124*
X013574Y010126*
X013569Y010127*
X013563Y010128*
X013558Y010129*
X013552Y010129*
X013547*
X013541Y010129*
X013536Y010128*
X01353Y010127*
X013525Y010126*
X01352Y010124*
X013514Y010121*
X01351Y010119*
X013505Y010116*
X0135Y010113*
X013496Y010109*
X013492Y010105*
X013488Y010101*
X013485Y010097*
X013482Y010092*
X013479Y010087*
X013476Y010082*
X013474Y010077*
X013473Y010072*
X013471Y010066*
X01347Y010061*
X01347Y010055*
X01347Y01005*
X01347Y010044*
X01347Y010038*
X013471Y010033*
X013473Y010027*
X013474Y010022*
X013476Y010017*
X013479Y010012*
X013482Y010007*
X013485Y010002*
X013488Y009998*
X013492Y009994*
X013496Y00999*
X0135Y009986*
X013505Y009983*
X01351Y00998*
X013514Y009978*
X01352Y009975*
X013525Y009973*
X01353Y009972*
X013536Y009971*
X013541Y00997*
X013547Y00997*
X013552*
X013558Y00997*
X013563Y009971*
X013569Y009972*
X013574Y009973*
X013579Y009975*
X013585Y009978*
X01359Y00998*
X013594Y009983*
X013599Y009986*
X013603Y00999*
X013607Y009994*
X013611Y009998*
X013614Y010002*
X013617Y010007*
X01362Y010012*
X013623Y010017*
X013625Y010022*
X013626Y010027*
X013628Y010033*
X013629Y010038*
X013629Y010044*
X01363Y01005*
X01813Y00905D02*
D01*
X018129Y009055*
X018129Y009061*
X018128Y009066*
X018126Y009072*
X018125Y009077*
X018123Y009082*
X01812Y009087*
X018117Y009092*
X018114Y009097*
X018111Y009101*
X018107Y009105*
X018103Y009109*
X018099Y009113*
X018094Y009116*
X01809Y009119*
X018085Y009121*
X018079Y009124*
X018074Y009126*
X018069Y009127*
X018063Y009128*
X018058Y009129*
X018052Y009129*
X018047*
X018041Y009129*
X018036Y009128*
X01803Y009127*
X018025Y009126*
X01802Y009124*
X018014Y009121*
X01801Y009119*
X018005Y009116*
X018Y009113*
X017996Y009109*
X017992Y009105*
X017988Y009101*
X017985Y009097*
X017982Y009092*
X017979Y009087*
X017976Y009082*
X017974Y009077*
X017973Y009072*
X017971Y009066*
X01797Y009061*
X01797Y009055*
X01797Y00905*
X01797Y009044*
X01797Y009038*
X017971Y009033*
X017973Y009027*
X017974Y009022*
X017976Y009017*
X017979Y009012*
X017982Y009007*
X017985Y009002*
X017988Y008998*
X017992Y008994*
X017996Y00899*
X018Y008986*
X018005Y008983*
X01801Y00898*
X018014Y008978*
X01802Y008975*
X018025Y008973*
X01803Y008972*
X018036Y008971*
X018041Y00897*
X018047Y00897*
X018052*
X018058Y00897*
X018063Y008971*
X018069Y008972*
X018074Y008973*
X018079Y008975*
X018085Y008978*
X01809Y00898*
X018094Y008983*
X018099Y008986*
X018103Y00899*
X018107Y008994*
X018111Y008998*
X018114Y009002*
X018117Y009007*
X01812Y009012*
X018123Y009017*
X018125Y009022*
X018126Y009027*
X018128Y009033*
X018129Y009038*
X018129Y009044*
X01813Y00905*
Y01005D02*
D01*
X018129Y010055*
X018129Y010061*
X018128Y010066*
X018126Y010072*
X018125Y010077*
X018123Y010082*
X01812Y010087*
X018117Y010092*
X018114Y010097*
X018111Y010101*
X018107Y010105*
X018103Y010109*
X018099Y010113*
X018094Y010116*
X01809Y010119*
X018085Y010121*
X018079Y010124*
X018074Y010126*
X018069Y010127*
X018063Y010128*
X018058Y010129*
X018052Y010129*
X018047*
X018041Y010129*
X018036Y010128*
X01803Y010127*
X018025Y010126*
X01802Y010124*
X018014Y010121*
X01801Y010119*
X018005Y010116*
X018Y010113*
X017996Y010109*
X017992Y010105*
X017988Y010101*
X017985Y010097*
X017982Y010092*
X017979Y010087*
X017976Y010082*
X017974Y010077*
X017973Y010072*
X017971Y010066*
X01797Y010061*
X01797Y010055*
X01797Y01005*
X01797Y010044*
X01797Y010038*
X017971Y010033*
X017973Y010027*
X017974Y010022*
X017976Y010017*
X017979Y010012*
X017982Y010007*
X017985Y010002*
X017988Y009998*
X017992Y009994*
X017996Y00999*
X018Y009986*
X018005Y009983*
X01801Y00998*
X018014Y009978*
X01802Y009975*
X018025Y009973*
X01803Y009972*
X018036Y009971*
X018041Y00997*
X018047Y00997*
X018052*
X018058Y00997*
X018063Y009971*
X018069Y009972*
X018074Y009973*
X018079Y009975*
X018085Y009978*
X01809Y00998*
X018094Y009983*
X018099Y009986*
X018103Y00999*
X018107Y009994*
X018111Y009998*
X018114Y010002*
X018117Y010007*
X01812Y010012*
X018123Y010017*
X018125Y010022*
X018126Y010027*
X018128Y010033*
X018129Y010038*
X018129Y010044*
X01813Y01005*
X01913Y00905D02*
D01*
X019129Y009055*
X019129Y009061*
X019128Y009066*
X019126Y009072*
X019125Y009077*
X019123Y009082*
X01912Y009087*
X019117Y009092*
X019114Y009097*
X019111Y009101*
X019107Y009105*
X019103Y009109*
X019099Y009113*
X019094Y009116*
X01909Y009119*
X019085Y009121*
X019079Y009124*
X019074Y009126*
X019069Y009127*
X019063Y009128*
X019058Y009129*
X019052Y009129*
X019047*
X019041Y009129*
X019036Y009128*
X01903Y009127*
X019025Y009126*
X01902Y009124*
X019014Y009121*
X01901Y009119*
X019005Y009116*
X019Y009113*
X018996Y009109*
X018992Y009105*
X018988Y009101*
X018985Y009097*
X018982Y009092*
X018979Y009087*
X018976Y009082*
X018974Y009077*
X018973Y009072*
X018971Y009066*
X01897Y009061*
X01897Y009055*
X01897Y00905*
X01897Y009044*
X01897Y009038*
X018971Y009033*
X018973Y009027*
X018974Y009022*
X018976Y009017*
X018979Y009012*
X018982Y009007*
X018985Y009002*
X018988Y008998*
X018992Y008994*
X018996Y00899*
X019Y008986*
X019005Y008983*
X01901Y00898*
X019014Y008978*
X01902Y008975*
X019025Y008973*
X01903Y008972*
X019036Y008971*
X019041Y00897*
X019047Y00897*
X019052*
X019058Y00897*
X019063Y008971*
X019069Y008972*
X019074Y008973*
X019079Y008975*
X019085Y008978*
X01909Y00898*
X019094Y008983*
X019099Y008986*
X019103Y00899*
X019107Y008994*
X019111Y008998*
X019114Y009002*
X019117Y009007*
X01912Y009012*
X019123Y009017*
X019125Y009022*
X019126Y009027*
X019128Y009033*
X019129Y009038*
X019129Y009044*
X01913Y00905*
Y01005D02*
D01*
X019129Y010055*
X019129Y010061*
X019128Y010066*
X019126Y010072*
X019125Y010077*
X019123Y010082*
X01912Y010087*
X019117Y010092*
X019114Y010097*
X019111Y010101*
X019107Y010105*
X019103Y010109*
X019099Y010113*
X019094Y010116*
X01909Y010119*
X019085Y010121*
X019079Y010124*
X019074Y010126*
X019069Y010127*
X019063Y010128*
X019058Y010129*
X019052Y010129*
X019047*
X019041Y010129*
X019036Y010128*
X01903Y010127*
X019025Y010126*
X01902Y010124*
X019014Y010121*
X01901Y010119*
X019005Y010116*
X019Y010113*
X018996Y010109*
X018992Y010105*
X018988Y010101*
X018985Y010097*
X018982Y010092*
X018979Y010087*
X018976Y010082*
X018974Y010077*
X018973Y010072*
X018971Y010066*
X01897Y010061*
X01897Y010055*
X01897Y01005*
X01897Y010044*
X01897Y010038*
X018971Y010033*
X018973Y010027*
X018974Y010022*
X018976Y010017*
X018979Y010012*
X018982Y010007*
X018985Y010002*
X018988Y009998*
X018992Y009994*
X018996Y00999*
X019Y009986*
X019005Y009983*
X01901Y00998*
X019014Y009978*
X01902Y009975*
X019025Y009973*
X01903Y009972*
X019036Y009971*
X019041Y00997*
X019047Y00997*
X019052*
X019058Y00997*
X019063Y009971*
X019069Y009972*
X019074Y009973*
X019079Y009975*
X019085Y009978*
X01909Y00998*
X019094Y009983*
X019099Y009986*
X019103Y00999*
X019107Y009994*
X019111Y009998*
X019114Y010002*
X019117Y010007*
X01912Y010012*
X019123Y010017*
X019125Y010022*
X019126Y010027*
X019128Y010033*
X019129Y010038*
X019129Y010044*
X01913Y01005*
X02013Y00905D02*
D01*
X020129Y009055*
X020129Y009061*
X020128Y009066*
X020126Y009072*
X020125Y009077*
X020123Y009082*
X02012Y009087*
X020117Y009092*
X020114Y009097*
X020111Y009101*
X020107Y009105*
X020103Y009109*
X020099Y009113*
X020094Y009116*
X02009Y009119*
X020085Y009121*
X020079Y009124*
X020074Y009126*
X020069Y009127*
X020063Y009128*
X020058Y009129*
X020052Y009129*
X020047*
X020041Y009129*
X020036Y009128*
X02003Y009127*
X020025Y009126*
X02002Y009124*
X020014Y009121*
X02001Y009119*
X020005Y009116*
X02Y009113*
X019996Y009109*
X019992Y009105*
X019988Y009101*
X019985Y009097*
X019982Y009092*
X019979Y009087*
X019976Y009082*
X019974Y009077*
X019973Y009072*
X019971Y009066*
X01997Y009061*
X01997Y009055*
X01997Y00905*
X01997Y009044*
X01997Y009038*
X019971Y009033*
X019973Y009027*
X019974Y009022*
X019976Y009017*
X019979Y009012*
X019982Y009007*
X019985Y009002*
X019988Y008998*
X019992Y008994*
X019996Y00899*
X02Y008986*
X020005Y008983*
X02001Y00898*
X020014Y008978*
X02002Y008975*
X020025Y008973*
X02003Y008972*
X020036Y008971*
X020041Y00897*
X020047Y00897*
X020052*
X020058Y00897*
X020063Y008971*
X020069Y008972*
X020074Y008973*
X020079Y008975*
X020085Y008978*
X02009Y00898*
X020094Y008983*
X020099Y008986*
X020103Y00899*
X020107Y008994*
X020111Y008998*
X020114Y009002*
X020117Y009007*
X02012Y009012*
X020123Y009017*
X020125Y009022*
X020126Y009027*
X020128Y009033*
X020129Y009038*
X020129Y009044*
X02013Y00905*
Y01005D02*
D01*
X020129Y010055*
X020129Y010061*
X020128Y010066*
X020126Y010072*
X020125Y010077*
X020123Y010082*
X02012Y010087*
X020117Y010092*
X020114Y010097*
X020111Y010101*
X020107Y010105*
X020103Y010109*
X020099Y010113*
X020094Y010116*
X02009Y010119*
X020085Y010121*
X020079Y010124*
X020074Y010126*
X020069Y010127*
X020063Y010128*
X020058Y010129*
X020052Y010129*
X020047*
X020041Y010129*
X020036Y010128*
X02003Y010127*
X020025Y010126*
X02002Y010124*
X020014Y010121*
X02001Y010119*
X020005Y010116*
X02Y010113*
X019996Y010109*
X019992Y010105*
X019988Y010101*
X019985Y010097*
X019982Y010092*
X019979Y010087*
X019976Y010082*
X019974Y010077*
X019973Y010072*
X019971Y010066*
X01997Y010061*
X01997Y010055*
X01997Y01005*
X01997Y010044*
X01997Y010038*
X019971Y010033*
X019973Y010027*
X019974Y010022*
X019976Y010017*
X019979Y010012*
X019982Y010007*
X019985Y010002*
X019988Y009998*
X019992Y009994*
X019996Y00999*
X02Y009986*
X020005Y009983*
X02001Y00998*
X020014Y009978*
X02002Y009975*
X020025Y009973*
X02003Y009972*
X020036Y009971*
X020041Y00997*
X020047Y00997*
X020052*
X020058Y00997*
X020063Y009971*
X020069Y009972*
X020074Y009973*
X020079Y009975*
X020085Y009978*
X02009Y00998*
X020094Y009983*
X020099Y009986*
X020103Y00999*
X020107Y009994*
X020111Y009998*
X020114Y010002*
X020117Y010007*
X02012Y010012*
X020123Y010017*
X020125Y010022*
X020126Y010027*
X020128Y010033*
X020129Y010038*
X020129Y010044*
X02013Y01005*
X02113Y00905D02*
D01*
X021129Y009055*
X021129Y009061*
X021128Y009066*
X021126Y009072*
X021125Y009077*
X021123Y009082*
X02112Y009087*
X021117Y009092*
X021114Y009097*
X021111Y009101*
X021107Y009105*
X021103Y009109*
X021099Y009113*
X021094Y009116*
X02109Y009119*
X021085Y009121*
X021079Y009124*
X021074Y009126*
X021069Y009127*
X021063Y009128*
X021058Y009129*
X021052Y009129*
X021047*
X021041Y009129*
X021036Y009128*
X02103Y009127*
X021025Y009126*
X02102Y009124*
X021014Y009121*
X02101Y009119*
X021005Y009116*
X021Y009113*
X020996Y009109*
X020992Y009105*
X020988Y009101*
X020985Y009097*
X020982Y009092*
X020979Y009087*
X020976Y009082*
X020974Y009077*
X020973Y009072*
X020971Y009066*
X02097Y009061*
X02097Y009055*
X02097Y00905*
X02097Y009044*
X02097Y009038*
X020971Y009033*
X020973Y009027*
X020974Y009022*
X020976Y009017*
X020979Y009012*
X020982Y009007*
X020985Y009002*
X020988Y008998*
X020992Y008994*
X020996Y00899*
X021Y008986*
X021005Y008983*
X02101Y00898*
X021014Y008978*
X02102Y008975*
X021025Y008973*
X02103Y008972*
X021036Y008971*
X021041Y00897*
X021047Y00897*
X021052*
X021058Y00897*
X021063Y008971*
X021069Y008972*
X021074Y008973*
X021079Y008975*
X021085Y008978*
X02109Y00898*
X021094Y008983*
X021099Y008986*
X021103Y00899*
X021107Y008994*
X021111Y008998*
X021114Y009002*
X021117Y009007*
X02112Y009012*
X021123Y009017*
X021125Y009022*
X021126Y009027*
X021128Y009033*
X021129Y009038*
X021129Y009044*
X02113Y00905*
Y01005D02*
D01*
X021129Y010055*
X021129Y010061*
X021128Y010066*
X021126Y010072*
X021125Y010077*
X021123Y010082*
X02112Y010087*
X021117Y010092*
X021114Y010097*
X021111Y010101*
X021107Y010105*
X021103Y010109*
X021099Y010113*
X021094Y010116*
X02109Y010119*
X021085Y010121*
X021079Y010124*
X021074Y010126*
X021069Y010127*
X021063Y010128*
X021058Y010129*
X021052Y010129*
X021047*
X021041Y010129*
X021036Y010128*
X02103Y010127*
X021025Y010126*
X02102Y010124*
X021014Y010121*
X02101Y010119*
X021005Y010116*
X021Y010113*
X020996Y010109*
X020992Y010105*
X020988Y010101*
X020985Y010097*
X020982Y010092*
X020979Y010087*
X020976Y010082*
X020974Y010077*
X020973Y010072*
X020971Y010066*
X02097Y010061*
X02097Y010055*
X02097Y01005*
X02097Y010044*
X02097Y010038*
X020971Y010033*
X020973Y010027*
X020974Y010022*
X020976Y010017*
X020979Y010012*
X020982Y010007*
X020985Y010002*
X020988Y009998*
X020992Y009994*
X020996Y00999*
X021Y009986*
X021005Y009983*
X02101Y00998*
X021014Y009978*
X02102Y009975*
X021025Y009973*
X02103Y009972*
X021036Y009971*
X021041Y00997*
X021047Y00997*
X021052*
X021058Y00997*
X021063Y009971*
X021069Y009972*
X021074Y009973*
X021079Y009975*
X021085Y009978*
X02109Y00998*
X021094Y009983*
X021099Y009986*
X021103Y00999*
X021107Y009994*
X021111Y009998*
X021114Y010002*
X021117Y010007*
X02112Y010012*
X021123Y010017*
X021125Y010022*
X021126Y010027*
X021128Y010033*
X021129Y010038*
X021129Y010044*
X02113Y01005*
X02213Y00905D02*
D01*
X022129Y009055*
X022129Y009061*
X022128Y009066*
X022126Y009072*
X022125Y009077*
X022123Y009082*
X02212Y009087*
X022117Y009092*
X022114Y009097*
X022111Y009101*
X022107Y009105*
X022103Y009109*
X022099Y009113*
X022094Y009116*
X02209Y009119*
X022085Y009121*
X022079Y009124*
X022074Y009126*
X022069Y009127*
X022063Y009128*
X022058Y009129*
X022052Y009129*
X022047*
X022041Y009129*
X022036Y009128*
X02203Y009127*
X022025Y009126*
X02202Y009124*
X022014Y009121*
X02201Y009119*
X022005Y009116*
X022Y009113*
X021996Y009109*
X021992Y009105*
X021988Y009101*
X021985Y009097*
X021982Y009092*
X021979Y009087*
X021976Y009082*
X021974Y009077*
X021973Y009072*
X021971Y009066*
X02197Y009061*
X02197Y009055*
X02197Y00905*
X02197Y009044*
X02197Y009038*
X021971Y009033*
X021973Y009027*
X021974Y009022*
X021976Y009017*
X021979Y009012*
X021982Y009007*
X021985Y009002*
X021988Y008998*
X021992Y008994*
X021996Y00899*
X022Y008986*
X022005Y008983*
X02201Y00898*
X022014Y008978*
X02202Y008975*
X022025Y008973*
X02203Y008972*
X022036Y008971*
X022041Y00897*
X022047Y00897*
X022052*
X022058Y00897*
X022063Y008971*
X022069Y008972*
X022074Y008973*
X022079Y008975*
X022085Y008978*
X02209Y00898*
X022094Y008983*
X022099Y008986*
X022103Y00899*
X022107Y008994*
X022111Y008998*
X022114Y009002*
X022117Y009007*
X02212Y009012*
X022123Y009017*
X022125Y009022*
X022126Y009027*
X022128Y009033*
X022129Y009038*
X022129Y009044*
X02213Y00905*
Y01005D02*
D01*
X022129Y010055*
X022129Y010061*
X022128Y010066*
X022126Y010072*
X022125Y010077*
X022123Y010082*
X02212Y010087*
X022117Y010092*
X022114Y010097*
X022111Y010101*
X022107Y010105*
X022103Y010109*
X022099Y010113*
X022094Y010116*
X02209Y010119*
X022085Y010121*
X022079Y010124*
X022074Y010126*
X022069Y010127*
X022063Y010128*
X022058Y010129*
X022052Y010129*
X022047*
X022041Y010129*
X022036Y010128*
X02203Y010127*
X022025Y010126*
X02202Y010124*
X022014Y010121*
X02201Y010119*
X022005Y010116*
X022Y010113*
X021996Y010109*
X021992Y010105*
X021988Y010101*
X021985Y010097*
X021982Y010092*
X021979Y010087*
X021976Y010082*
X021974Y010077*
X021973Y010072*
X021971Y010066*
X02197Y010061*
X02197Y010055*
X02197Y01005*
X02197Y010044*
X02197Y010038*
X021971Y010033*
X021973Y010027*
X021974Y010022*
X021976Y010017*
X021979Y010012*
X021982Y010007*
X021985Y010002*
X021988Y009998*
X021992Y009994*
X021996Y00999*
X022Y009986*
X022005Y009983*
X02201Y00998*
X022014Y009978*
X02202Y009975*
X022025Y009973*
X02203Y009972*
X022036Y009971*
X022041Y00997*
X022047Y00997*
X022052*
X022058Y00997*
X022063Y009971*
X022069Y009972*
X022074Y009973*
X022079Y009975*
X022085Y009978*
X02209Y00998*
X022094Y009983*
X022099Y009986*
X022103Y00999*
X022107Y009994*
X022111Y009998*
X022114Y010002*
X022117Y010007*
X02212Y010012*
X022123Y010017*
X022125Y010022*
X022126Y010027*
X022128Y010033*
X022129Y010038*
X022129Y010044*
X02213Y01005*
X02313Y00905D02*
D01*
X023129Y009055*
X023129Y009061*
X023128Y009066*
X023126Y009072*
X023125Y009077*
X023123Y009082*
X02312Y009087*
X023117Y009092*
X023114Y009097*
X023111Y009101*
X023107Y009105*
X023103Y009109*
X023099Y009113*
X023094Y009116*
X02309Y009119*
X023085Y009121*
X023079Y009124*
X023074Y009126*
X023069Y009127*
X023063Y009128*
X023058Y009129*
X023052Y009129*
X023047*
X023041Y009129*
X023036Y009128*
X02303Y009127*
X023025Y009126*
X02302Y009124*
X023014Y009121*
X02301Y009119*
X023005Y009116*
X023Y009113*
X022996Y009109*
X022992Y009105*
X022988Y009101*
X022985Y009097*
X022982Y009092*
X022979Y009087*
X022976Y009082*
X022974Y009077*
X022973Y009072*
X022971Y009066*
X02297Y009061*
X02297Y009055*
X02297Y00905*
X02297Y009044*
X02297Y009038*
X022971Y009033*
X022973Y009027*
X022974Y009022*
X022976Y009017*
X022979Y009012*
X022982Y009007*
X022985Y009002*
X022988Y008998*
X022992Y008994*
X022996Y00899*
X023Y008986*
X023005Y008983*
X02301Y00898*
X023014Y008978*
X02302Y008975*
X023025Y008973*
X02303Y008972*
X023036Y008971*
X023041Y00897*
X023047Y00897*
X023052*
X023058Y00897*
X023063Y008971*
X023069Y008972*
X023074Y008973*
X023079Y008975*
X023085Y008978*
X02309Y00898*
X023094Y008983*
X023099Y008986*
X023103Y00899*
X023107Y008994*
X023111Y008998*
X023114Y009002*
X023117Y009007*
X02312Y009012*
X023123Y009017*
X023125Y009022*
X023126Y009027*
X023128Y009033*
X023129Y009038*
X023129Y009044*
X02313Y00905*
Y01005D02*
D01*
X023129Y010055*
X023129Y010061*
X023128Y010066*
X023126Y010072*
X023125Y010077*
X023123Y010082*
X02312Y010087*
X023117Y010092*
X023114Y010097*
X023111Y010101*
X023107Y010105*
X023103Y010109*
X023099Y010113*
X023094Y010116*
X02309Y010119*
X023085Y010121*
X023079Y010124*
X023074Y010126*
X023069Y010127*
X023063Y010128*
X023058Y010129*
X023052Y010129*
X023047*
X023041Y010129*
X023036Y010128*
X02303Y010127*
X023025Y010126*
X02302Y010124*
X023014Y010121*
X02301Y010119*
X023005Y010116*
X023Y010113*
X022996Y010109*
X022992Y010105*
X022988Y010101*
X022985Y010097*
X022982Y010092*
X022979Y010087*
X022976Y010082*
X022974Y010077*
X022973Y010072*
X022971Y010066*
X02297Y010061*
X02297Y010055*
X02297Y01005*
X02297Y010044*
X02297Y010038*
X022971Y010033*
X022973Y010027*
X022974Y010022*
X022976Y010017*
X022979Y010012*
X022982Y010007*
X022985Y010002*
X022988Y009998*
X022992Y009994*
X022996Y00999*
X023Y009986*
X023005Y009983*
X02301Y00998*
X023014Y009978*
X02302Y009975*
X023025Y009973*
X02303Y009972*
X023036Y009971*
X023041Y00997*
X023047Y00997*
X023052*
X023058Y00997*
X023063Y009971*
X023069Y009972*
X023074Y009973*
X023079Y009975*
X023085Y009978*
X02309Y00998*
X023094Y009983*
X023099Y009986*
X023103Y00999*
X023107Y009994*
X023111Y009998*
X023114Y010002*
X023117Y010007*
X02312Y010012*
X023123Y010017*
X023125Y010022*
X023126Y010027*
X023128Y010033*
X023129Y010038*
X023129Y010044*
X02313Y01005*
X02413Y00905D02*
D01*
X024129Y009055*
X024129Y009061*
X024128Y009066*
X024126Y009072*
X024125Y009077*
X024123Y009082*
X02412Y009087*
X024117Y009092*
X024114Y009097*
X024111Y009101*
X024107Y009105*
X024103Y009109*
X024099Y009113*
X024094Y009116*
X02409Y009119*
X024085Y009121*
X024079Y009124*
X024074Y009126*
X024069Y009127*
X024063Y009128*
X024058Y009129*
X024052Y009129*
X024047*
X024041Y009129*
X024036Y009128*
X02403Y009127*
X024025Y009126*
X02402Y009124*
X024014Y009121*
X02401Y009119*
X024005Y009116*
X024Y009113*
X023996Y009109*
X023992Y009105*
X023988Y009101*
X023985Y009097*
X023982Y009092*
X023979Y009087*
X023976Y009082*
X023974Y009077*
X023973Y009072*
X023971Y009066*
X02397Y009061*
X02397Y009055*
X02397Y00905*
X02397Y009044*
X02397Y009038*
X023971Y009033*
X023973Y009027*
X023974Y009022*
X023976Y009017*
X023979Y009012*
X023982Y009007*
X023985Y009002*
X023988Y008998*
X023992Y008994*
X023996Y00899*
X024Y008986*
X024005Y008983*
X02401Y00898*
X024014Y008978*
X02402Y008975*
X024025Y008973*
X02403Y008972*
X024036Y008971*
X024041Y00897*
X024047Y00897*
X024052*
X024058Y00897*
X024063Y008971*
X024069Y008972*
X024074Y008973*
X024079Y008975*
X024085Y008978*
X02409Y00898*
X024094Y008983*
X024099Y008986*
X024103Y00899*
X024107Y008994*
X024111Y008998*
X024114Y009002*
X024117Y009007*
X02412Y009012*
X024123Y009017*
X024125Y009022*
X024126Y009027*
X024128Y009033*
X024129Y009038*
X024129Y009044*
X02413Y00905*
Y01005D02*
D01*
X024129Y010055*
X024129Y010061*
X024128Y010066*
X024126Y010072*
X024125Y010077*
X024123Y010082*
X02412Y010087*
X024117Y010092*
X024114Y010097*
X024111Y010101*
X024107Y010105*
X024103Y010109*
X024099Y010113*
X024094Y010116*
X02409Y010119*
X024085Y010121*
X024079Y010124*
X024074Y010126*
X024069Y010127*
X024063Y010128*
X024058Y010129*
X024052Y010129*
X024047*
X024041Y010129*
X024036Y010128*
X02403Y010127*
X024025Y010126*
X02402Y010124*
X024014Y010121*
X02401Y010119*
X024005Y010116*
X024Y010113*
X023996Y010109*
X023992Y010105*
X023988Y010101*
X023985Y010097*
X023982Y010092*
X023979Y010087*
X023976Y010082*
X023974Y010077*
X023973Y010072*
X023971Y010066*
X02397Y010061*
X02397Y010055*
X02397Y01005*
X02397Y010044*
X02397Y010038*
X023971Y010033*
X023973Y010027*
X023974Y010022*
X023976Y010017*
X023979Y010012*
X023982Y010007*
X023985Y010002*
X023988Y009998*
X023992Y009994*
X023996Y00999*
X024Y009986*
X024005Y009983*
X02401Y00998*
X024014Y009978*
X02402Y009975*
X024025Y009973*
X02403Y009972*
X024036Y009971*
X024041Y00997*
X024047Y00997*
X024052*
X024058Y00997*
X024063Y009971*
X024069Y009972*
X024074Y009973*
X024079Y009975*
X024085Y009978*
X02409Y00998*
X024094Y009983*
X024099Y009986*
X024103Y00999*
X024107Y009994*
X024111Y009998*
X024114Y010002*
X024117Y010007*
X02412Y010012*
X024123Y010017*
X024125Y010022*
X024126Y010027*
X024128Y010033*
X024129Y010038*
X024129Y010044*
X02413Y01005*
M02*