%FSTAX24Y24*%
%MOIN*%
%SFA1B1*%

%IPPOS*%
%ADD32R,0.067100X0.067100*%
%ADD33C,0.067100*%
%ADD34C,0.082000*%
%ADD35R,0.082000X0.082000*%
%ADD36C,0.068000*%
%ADD37O,0.236000X0.122000*%
%ADD38C,0.058000*%
%LNregistradores-1*%
%LPD*%
G54D32*
X0148Y0016D03*
X0883D03*
G54D33*
X0148Y0026D03*
X0158Y0016D03*
Y0026D03*
X0168Y0016D03*
Y0026D03*
X0883D03*
X0893Y0016D03*
Y0026D03*
X0903Y0016D03*
Y0026D03*
G54D34*
X09155Y00905D03*
Y01005D03*
X09255Y00905D03*
Y01005D03*
X09355Y00905D03*
Y01005D03*
X09455Y00905D03*
Y01005D03*
X09555Y00905D03*
Y01005D03*
X09655Y00905D03*
Y01005D03*
X09755Y00905D03*
X08105D03*
Y01005D03*
X08205Y00905D03*
Y01005D03*
X08305Y00905D03*
Y01005D03*
X08405Y00905D03*
Y01005D03*
X08505Y00905D03*
Y01005D03*
X08605Y00905D03*
Y01005D03*
X08705Y00905D03*
X07055D03*
Y01005D03*
X07155Y00905D03*
Y01005D03*
X07255Y00905D03*
Y01005D03*
X07355Y00905D03*
Y01005D03*
X07455Y00905D03*
Y01005D03*
X07555Y00905D03*
Y01005D03*
X07655Y00905D03*
X06005D03*
Y01005D03*
X06105Y00905D03*
Y01005D03*
X06205Y00905D03*
Y01005D03*
X06305Y00905D03*
Y01005D03*
X06405Y00905D03*
Y01005D03*
X06505Y00905D03*
Y01005D03*
X06605Y00905D03*
X04955D03*
Y01005D03*
X05055Y00905D03*
Y01005D03*
X05155Y00905D03*
Y01005D03*
X05255Y00905D03*
Y01005D03*
X05355Y00905D03*
Y01005D03*
X05455Y00905D03*
Y01005D03*
X05555Y00905D03*
X03905D03*
Y01005D03*
X04005Y00905D03*
Y01005D03*
X04105Y00905D03*
Y01005D03*
X04205Y00905D03*
Y01005D03*
X04305Y00905D03*
Y01005D03*
X04405Y00905D03*
Y01005D03*
X04505Y00905D03*
X02855D03*
Y01005D03*
X02955Y00905D03*
Y01005D03*
X03055Y00905D03*
Y01005D03*
X03155Y00905D03*
Y01005D03*
X03255Y00905D03*
Y01005D03*
X03355Y00905D03*
Y01005D03*
X03455Y00905D03*
X00755D03*
Y01005D03*
X00855Y00905D03*
Y01005D03*
X00955Y00905D03*
Y01005D03*
X01055Y00905D03*
Y01005D03*
X01155Y00905D03*
Y01005D03*
X01255Y00905D03*
Y01005D03*
X01355Y00905D03*
X01805D03*
Y01005D03*
X01905Y00905D03*
Y01005D03*
X02005Y00905D03*
Y01005D03*
X02105Y00905D03*
Y01005D03*
X02205Y00905D03*
Y01005D03*
X02305Y00905D03*
Y01005D03*
X02405Y00905D03*
G54D35*
X09755Y01005D03*
X08705D03*
X07655D03*
X06605D03*
X05555D03*
X04505D03*
X03455D03*
X01355D03*
X02405D03*
G54D36*
X0774Y002D03*
X03515D03*
G54D37*
X0028Y00293D03*
Y00137D03*
Y006705D03*
Y005145D03*
Y01048D03*
Y00892D03*
G54D38*
X02325Y0059D03*
X08225Y0062D03*
X07175D03*
X06125D03*
X05075D03*
X0228Y0026D03*
X0093D03*
X01055Y00435D03*
X0055Y0077D03*
X005Y0083D03*
X0067Y0077D03*
X0061Y0083D03*
X0941Y0006D03*
X0933Y0026D03*
X0828D03*
X0723D03*
X0618D03*
X0513D03*
X0408D03*
X079Y0077D03*
X0785Y0083D03*
X0802Y0077D03*
X0796Y0083D03*
X0685Y0077D03*
X068Y0083D03*
X0697Y0077D03*
X0691Y0083D03*
X058Y0077D03*
X0575Y0083D03*
X0592Y0077D03*
X0586Y0083D03*
X0475Y0077D03*
X047Y0083D03*
X0487Y0077D03*
X0481Y0083D03*
X037Y0077D03*
X0365Y0083D03*
X0382Y0077D03*
X0376Y0083D03*
X09615Y0114D03*
X0945Y0122D03*
X0975D03*
X08565Y0114D03*
X084Y0122D03*
X087D03*
X07515Y0114D03*
X0735Y0122D03*
X0765D03*
X06465Y0114D03*
X063Y0122D03*
X066D03*
X05415Y0114D03*
X0525Y0122D03*
X0555D03*
X04365Y0114D03*
X042Y0122D03*
X045D03*
X01215Y0114D03*
X0105Y0122D03*
X0135D03*
X02265Y0114D03*
X021Y0122D03*
X024D03*
X04025Y0062D03*
X0186Y0033D03*
X0921D03*
X0816D03*
X0711D03*
X0606D03*
X0501D03*
X0396D03*
X0345Y0122D03*
X0315D03*
X0271Y0083D03*
X0277Y0077D03*
X02975Y0062D03*
X0291Y0033D03*
X0303Y0026D03*
X026Y0083D03*
X0265Y0077D03*
X00805D03*
X00905D03*
X01005D03*
X01105D03*
X09235D03*
X09335D03*
X09435D03*
X09535D03*
X08155D03*
X08255D03*
X08355D03*
X08455D03*
X07105D03*
X07205D03*
X07305D03*
X07405D03*
X06055D03*
X06155D03*
X06255D03*
X06355D03*
X05005Y0078D03*
X05105D03*
X05205D03*
X05305D03*
X03955Y0077D03*
X04055D03*
X04155D03*
X04255D03*
X02905Y0078D03*
X03005D03*
X03105D03*
X03205D03*
X0081Y00535D03*
X0186D03*
X0291D03*
X0396D03*
X0501D03*
X0606D03*
X0711D03*
X0816D03*
X0921D03*
X0218Y00435D03*
X0129Y00475D03*
X0233Y00435D03*
X0323D03*
X0428D03*
X0338D03*
X0533D03*
X0443D03*
X0638D03*
X0548D03*
X0743D03*
X0653D03*
X0848D03*
X0758D03*
X0953D03*
X0863D03*
X097Y0034D03*
X0198Y0026D03*
X09035Y0077D03*
X09135D03*
X08835D03*
X08935D03*
X0963Y0026D03*
X01585Y0077D03*
X01485D03*
X01785D03*
X01685D03*
X02185D03*
X02085D03*
X01985D03*
X01885D03*
X00875Y0062D03*
X09135Y0059D03*
X01785D03*
X03315Y0114D03*
M02*