%FSTAX24Y24*%
%MOIN*%
%SFA1B1*%

%IPPOS*%
%ADD26C,0.010000*%
%ADD27C,0.008000*%
%LNregistradores-1*%
%LPD*%
G54D26*
X00085Y00055D02*
Y00375D01*
X0048*
Y00055D02*
Y00375D01*
X004357Y00055D02*
Y00375D01*
X00085Y00055D02*
X0048D01*
X00085Y004325D02*
Y007525D01*
X0048*
Y004325D02*
Y007525D01*
X004357Y004325D02*
Y007525D01*
X00085Y004325D02*
X0048D01*
X00085Y0081D02*
Y0113D01*
X0048*
Y0081D02*
Y0113D01*
X004357Y0081D02*
Y0113D01*
X00085Y0081D02*
X0048D01*
G54D27*
X093684Y010731D02*
Y011322D01*
Y010731D02*
X095416D01*
Y011322*
X09955Y007778D02*
Y011322D01*
X095416D02*
X09955D01*
X093684D02*
X095416D01*
X08955Y007778D02*
X09955D01*
X0973Y01065D02*
X0978D01*
X08955Y007778D02*
Y011322D01*
X093684*
X083184Y010731D02*
Y011322D01*
Y010731D02*
X084916D01*
Y011322*
X08905Y007778D02*
Y011322D01*
X084916D02*
X08905D01*
X083184D02*
X084916D01*
X07905Y007778D02*
X08905D01*
X0868Y01065D02*
X0873D01*
X07905Y007778D02*
Y011322D01*
X083184*
X072684Y010731D02*
Y011322D01*
Y010731D02*
X074416D01*
Y011322*
X07855Y007778D02*
Y011322D01*
X074416D02*
X07855D01*
X072684D02*
X074416D01*
X06855Y007778D02*
X07855D01*
X0763Y01065D02*
X0768D01*
X06855Y007778D02*
Y011322D01*
X072684*
X062184Y010731D02*
Y011322D01*
Y010731D02*
X063916D01*
Y011322*
X06805Y007778D02*
Y011322D01*
X063916D02*
X06805D01*
X062184D02*
X063916D01*
X05805Y007778D02*
X06805D01*
X0658Y01065D02*
X0663D01*
X05805Y007778D02*
Y011322D01*
X062184*
X051684Y010731D02*
Y011322D01*
Y010731D02*
X053416D01*
Y011322*
X05755Y007778D02*
Y011322D01*
X053416D02*
X05755D01*
X051684D02*
X053416D01*
X04755Y007778D02*
X05755D01*
X0553Y01065D02*
X0558D01*
X04755Y007778D02*
Y011322D01*
X051684*
X041184Y010731D02*
Y011322D01*
Y010731D02*
X042916D01*
Y011322*
X04705Y007778D02*
Y011322D01*
X042916D02*
X04705D01*
X041184D02*
X042916D01*
X03705Y007778D02*
X04705D01*
X0448Y01065D02*
X0453D01*
X03705Y007778D02*
Y011322D01*
X041184*
X030684Y010731D02*
Y011322D01*
Y010731D02*
X032416D01*
Y011322*
X03655Y007778D02*
Y011322D01*
X032416D02*
X03655D01*
X030684D02*
X032416D01*
X02655Y007778D02*
X03655D01*
X0343Y01065D02*
X0348D01*
X02655Y007778D02*
Y011322D01*
X030684*
X009684Y010731D02*
Y011322D01*
Y010731D02*
X011416D01*
Y011322*
X01555Y007778D02*
Y011322D01*
X011416D02*
X01555D01*
X009684D02*
X011416D01*
X00555Y007778D02*
X01555D01*
X0133Y01065D02*
X0138D01*
X00555Y007778D02*
Y011322D01*
X009684*
X020184Y010731D02*
Y011322D01*
Y010731D02*
X021916D01*
Y011322*
X02605Y007778D02*
Y011322D01*
X021916D02*
X02605D01*
X020184D02*
X021916D01*
X01605Y007778D02*
X02605D01*
X0238Y01065D02*
X0243D01*
X01605Y007778D02*
Y011322D01*
X020184*
M02*