%FSTAX24Y24*%
%MOIN*%
%SFA1B1*%

%IPPOS*%
%ADD17R,0.059100X0.059100*%
%ADD18C,0.059100*%
%ADD19C,0.074000*%
%ADD20R,0.074000X0.074000*%
%ADD21C,0.060000*%
%ADD22O,0.228000X0.114000*%
%LNregistradores-1*%
%LPD*%
G54D17*
X0148Y0016D03*
X0883D03*
G54D18*
X0148Y0026D03*
X0158Y0016D03*
Y0026D03*
X0168Y0016D03*
Y0026D03*
X0883D03*
X0893Y0016D03*
Y0026D03*
X0903Y0016D03*
Y0026D03*
G54D19*
X09155Y00905D03*
Y01005D03*
X09255Y00905D03*
Y01005D03*
X09355Y00905D03*
Y01005D03*
X09455Y00905D03*
Y01005D03*
X09555Y00905D03*
Y01005D03*
X09655Y00905D03*
Y01005D03*
X09755Y00905D03*
X08105D03*
Y01005D03*
X08205Y00905D03*
Y01005D03*
X08305Y00905D03*
Y01005D03*
X08405Y00905D03*
Y01005D03*
X08505Y00905D03*
Y01005D03*
X08605Y00905D03*
Y01005D03*
X08705Y00905D03*
X07055D03*
Y01005D03*
X07155Y00905D03*
Y01005D03*
X07255Y00905D03*
Y01005D03*
X07355Y00905D03*
Y01005D03*
X07455Y00905D03*
Y01005D03*
X07555Y00905D03*
Y01005D03*
X07655Y00905D03*
X06005D03*
Y01005D03*
X06105Y00905D03*
Y01005D03*
X06205Y00905D03*
Y01005D03*
X06305Y00905D03*
Y01005D03*
X06405Y00905D03*
Y01005D03*
X06505Y00905D03*
Y01005D03*
X06605Y00905D03*
X04955D03*
Y01005D03*
X05055Y00905D03*
Y01005D03*
X05155Y00905D03*
Y01005D03*
X05255Y00905D03*
Y01005D03*
X05355Y00905D03*
Y01005D03*
X05455Y00905D03*
Y01005D03*
X05555Y00905D03*
X03905D03*
Y01005D03*
X04005Y00905D03*
Y01005D03*
X04105Y00905D03*
Y01005D03*
X04205Y00905D03*
Y01005D03*
X04305Y00905D03*
Y01005D03*
X04405Y00905D03*
Y01005D03*
X04505Y00905D03*
X02855D03*
Y01005D03*
X02955Y00905D03*
Y01005D03*
X03055Y00905D03*
Y01005D03*
X03155Y00905D03*
Y01005D03*
X03255Y00905D03*
Y01005D03*
X03355Y00905D03*
Y01005D03*
X03455Y00905D03*
X00755D03*
Y01005D03*
X00855Y00905D03*
Y01005D03*
X00955Y00905D03*
Y01005D03*
X01055Y00905D03*
Y01005D03*
X01155Y00905D03*
Y01005D03*
X01255Y00905D03*
Y01005D03*
X01355Y00905D03*
X01805D03*
Y01005D03*
X01905Y00905D03*
Y01005D03*
X02005Y00905D03*
Y01005D03*
X02105Y00905D03*
Y01005D03*
X02205Y00905D03*
Y01005D03*
X02305Y00905D03*
Y01005D03*
X02405Y00905D03*
G54D20*
X09755Y01005D03*
X08705D03*
X07655D03*
X06605D03*
X05555D03*
X04505D03*
X03455D03*
X01355D03*
X02405D03*
G54D21*
X0774Y002D03*
X03515D03*
G54D22*
X0028Y00293D03*
Y00137D03*
Y006705D03*
Y005145D03*
Y01048D03*
Y00892D03*
M02*